<?xml version="1.0" encoding="UTF-8"?>
<!DOCTYPE svg PUBLIC "-//W3C//DTD SVG 1.1//EN" "http://www.w3.org/Graphics/SVG/1.1/DTD/svg11.dtd">
<!-- Creator: CorelDRAW X7 -->
<svg xmlns="http://www.w3.org/2000/svg" xml:space="preserve" width="297mm" height="210mm" version="1.1" style="shape-rendering:geometricPrecision; text-rendering:geometricPrecision; image-rendering:optimizeQuality; fill-rule:evenodd; clip-rule:evenodd"
viewBox="0 0 29700 21000"
 xmlns:xlink="http://www.w3.org/1999/xlink">
 <defs>
  <style type="text/css">
   <![CDATA[
    .fil2 {fill:#028077}
    .fil1 {fill:#313131}
    .fil6 {fill:#3E3E3E}
    .fil7 {fill:#F2F2F2}
    .fil5 {fill:whitesmoke}
    .fil0 {fill:#F8F8F8}
    .fil4 {fill:#FAFAFA}
    .fil3 {fill:#FBFBFB}
   ]]>
  </style>
 </defs>
 <g id="Слой_x0020_1">
  <metadata id="CorelCorpID_0Corel-Layer"/>
  <g id="_607158896">
   <path class="fil0" d="M4706 4715c620,-362 1306,-1308 1940,-1557 -168,263 -844,811 -1108,1053 -761,696 -902,678 -782,1219 325,-137 1004,-988 1533,-1252 -112,232 -660,689 -878,892 -206,190 -792,573 -564,1038 185,47 831,-678 1212,-815 -141,181 -515,484 -709,647 -287,241 -551,460 -439,753 337,-127 526,-462 892,-610 -370,664 -965,570 -836,1168 274,-127 433,-361 724,-461 -71,143 3,32 -102,152l-323 282c-214,187 -293,114 -305,490 359,-135 503,-438 847,-580 -171,476 -781,475 -805,1088 352,-120 467,-339 811,-491 -189,403 -791,495 -778,993 344,-51 375,-363 787,-488 -195,406 -803,527 -745,1050 309,-122 489,-471 846,-623 -127,448 -738,593 -826,1043 246,-59 431,-397 822,-540 -234,297 -827,678 -799,1106 214,-82 410,-354 557,-501 279,-278 231,-216 580,-403 -145,265 -938,792 -1120,1272 490,67 591,-622 1165,-834 -194,321 -505,485 -659,813 465,-78 614,-502 1077,-646 -129,281 -367,252 -496,560 380,-13 412,-266 766,-392 -99,266 -162,148 -278,399 464,-22 428,-326 902,-447 -121,238 -182,148 -305,389 359,-62 295,-194 622,-274 -69,168 -74,118 -163,267 794,19 2667,-83 3549,-155 814,-66 851,1 852,-329l0 -55c3,-1142 -80,-2368 -111,-3531 -16,-610 92,-3185 -159,-3516 -229,-179 -3812,31 -4416,51 -1603,54 -1424,63 -2404,1032 -200,197 -494,335 -374,743z"/>
   <path class="fil1" d="M6192 16649l941 10c29,582 68,1033 1,1594 -255,-107 -31,-183 -361,-282 -164,135 -135,237 -274,412 -210,-227 -288,-1468 -307,-1734zm7262 -2661l23 -237c858,-106 631,-110 1390,-70 93,302 -6,1940 -97,2221 -216,75 -923,144 -1193,109l-123 -2023zm-8206 400l-11 -282 381 -20c-71,188 -130,273 -370,302zm43 657c-72,-389 62,-448 307,-644 206,-164 339,-355 686,-408 838,-129 3101,-192 4050,-228l1533 -55c66,-2 214,-5 275,3l215 74 180 2329 -1131 104 182 -242c-376,65 -453,338 -914,240 116,-122 308,-268 408,-407 -352,-5 -521,441 -895,450 13,-283 403,-364 513,-619 -413,76 -673,737 -1013,591 149,-230 390,-311 536,-587 -387,113 -610,642 -1021,618 34,-284 277,-243 414,-529 -334,132 -693,684 -972,489 165,-178 606,-453 701,-688 -594,218 -725,764 -1277,756 139,-225 370,-366 629,-596l230 -252c-479,146 -935,853 -1313,830 140,-303 494,-461 650,-741 -530,156 -634,792 -1287,753 95,-175 883,-896 1022,-950 -644,-5 -893,995 -1683,955 196,-466 770,-636 987,-1080 -903,485 -1056,1326 -1919,1046 -133,-478 466,-830 944,-1290 81,-78 110,-113 195,-190 149,-136 160,-116 185,-230 -545,50 -1032,1097 -1396,1127 -44,-569 24,-403 533,-863 273,-247 495,-464 749,-693 -284,83 -450,243 -649,410 -188,157 -426,435 -654,517zm-79 -4042c887,-199 2491,-229 3459,-277 1102,-56 2445,-199 3516,-186l167 2891c-1156,106 -2414,87 -3562,136l-3529 240c-91,-704 -145,-2109 -51,-2804zm8081 -508c434,-25 1232,-147 1617,-49l-9 2897c-257,54 -1249,123 -1458,54 -62,-652 -232,-2341 -150,-2902zm-112 -7757l1560 89c176,1942 194,4711 181,6727 -4,584 47,524 -533,595 -348,42 -762,54 -1110,15l-79 -3720c-20,-991 -161,-2810 -19,-3706zm-1035 86l711 -18c142,1714 115,4816 164,6692 29,1138 62,2185 129,3317 33,544 240,2886 162,3218l-515 48c-193,-885 -358,-5398 -400,-6583 -77,-2193 -215,-4489 -251,-6674zm-7562 474c134,-62 378,-154 538,-97 -105,154 -348,414 -518,415l-20 -318zm122 1417c-120,-408 174,-546 374,-743 980,-969 801,-978 2404,-1032 604,-20 4187,-230 4416,-51 251,331 143,2906 159,3516 31,1163 114,2389 111,3531l0 55c-1,330 -38,263 -852,329 -882,72 -2755,174 -3549,155 89,-149 94,-99 163,-267 -327,80 -263,212 -622,274 123,-241 184,-151 305,-389 -474,121 -438,425 -902,447 116,-251 179,-133 278,-399 -354,126 -386,379 -766,392 129,-308 367,-279 496,-560 -463,144 -612,568 -1077,646 154,-328 465,-492 659,-813 -574,212 -675,901 -1165,834 182,-480 975,-1007 1120,-1272 -349,187 -301,125 -580,403 -147,147 -343,419 -557,501 -28,-428 565,-809 799,-1106 -391,143 -576,481 -822,540 88,-450 699,-595 826,-1043 -357,152 -537,501 -846,623 -58,-523 550,-644 745,-1050 -412,125 -443,437 -787,488 -13,-498 589,-590 778,-993 -344,152 -459,371 -811,491 24,-613 634,-612 805,-1088 -344,142 -488,445 -847,580 12,-376 91,-303 305,-490l323 -282c105,-120 31,-9 102,-152 -291,100 -450,334 -724,461 -129,-598 466,-504 836,-1168 -366,148 -555,483 -892,610 -112,-293 152,-512 439,-753 194,-163 568,-466 709,-647 -381,137 -1027,862 -1212,815 -228,-465 358,-848 564,-1038 218,-203 766,-660 878,-892 -529,264 -1208,1115 -1533,1252 -120,-541 21,-523 782,-1219 264,-242 940,-790 1108,-1053 -634,249 -1320,1195 -1940,1557zm-52 -587c-29,-368 719,-1035 1109,-1012 -151,169 -865,961 -1109,1012zm10415 12024c170,-526 108,-4075 116,-4902 29,-2783 -22,-4695 -100,-7394 -44,-1536 164,-1381 -1027,-1415 -1584,-45 -3242,100 -4820,133 -1319,28 -3426,64 -4652,352 -464,109 -360,451 -307,920 41,362 83,751 122,1122 79,735 165,1490 229,2234 133,1546 188,3158 250,4708 36,892 -67,4242 248,4758 346,71 415,-57 769,-12 222,317 173,1791 493,2344 296,-151 201,-399 438,-636 162,143 203,404 417,416 209,-297 61,-1653 103,-2141 513,-93 1442,-44 1999,-48 1919,-16 2207,-117 3916,-228 425,-28 1525,-7 1806,-211z"/>
   <path class="fil2" d="M5212 11003c-94,695 -40,2100 51,2804l3529 -240c1148,-49 2406,-30 3562,-136l-167 -2891c-1071,-13 -2414,130 -3516,186 -968,48 -2572,78 -3459,277z"/>
   <path class="fil3" d="M5479 16217c58,-138 980,-1230 1375,-1267 -106,71 -448,450 -648,662 -114,122 -209,197 -334,322 -67,68 -96,102 -165,165 -124,111 -78,101 -228,118zm-188 -1172c228,-82 466,-360 654,-517 199,-167 365,-327 649,-410 -254,229 -476,446 -749,693 -509,460 -577,294 -533,863 364,-30 851,-1077 1396,-1127 -25,114 -36,94 -185,230 -85,77 -114,112 -195,190 -478,460 -1077,812 -944,1290 863,280 1016,-561 1919,-1046 -217,444 -791,614 -987,1080 790,40 1039,-960 1683,-955 -139,54 -927,775 -1022,950 653,39 757,-597 1287,-753 -156,280 -510,438 -650,741 378,23 834,-684 1313,-830l-230 252c-259,230 -490,371 -629,596 552,8 683,-538 1277,-756 -95,235 -536,510 -701,688 279,195 638,-357 972,-489 -137,286 -380,245 -414,529 411,24 634,-505 1021,-618 -146,276 -387,357 -536,587 340,146 600,-515 1013,-591 -110,255 -500,336 -513,619 374,-9 543,-455 895,-450 -100,139 -292,285 -408,407 461,98 538,-175 914,-240l-182 242 1131 -104 -180 -2329 -215 -74c-61,-8 -209,-5 -275,-3l-1533 55c-949,36 -3212,99 -4050,228 -347,53 -480,244 -686,408 -245,196 -379,255 -307,644z"/>
   <path class="fil4" d="M13181 2738c-142,896 -1,2715 19,3706l79 3720c348,39 762,27 1110,-15 580,-71 529,-11 533,-595 13,-2016 -5,-4785 -181,-6727l-1560 -89z"/>
   <path class="fil4" d="M12146 2824c36,2185 174,4481 251,6674 42,1185 207,5698 400,6583l515 -48c78,-332 -129,-2674 -162,-3218 -67,-1132 -100,-2179 -129,-3317 -49,-1876 -22,-4978 -164,-6692l-711 18z"/>
   <path class="fil2" d="M13293 10495c-82,561 88,2250 150,2902 209,69 1201,0 1458,-54l9 -2897c-385,-98 -1183,24 -1617,49z"/>
   <path class="fil3" d="M13577 16011c270,35 977,-34 1193,-109 91,-281 190,-1919 97,-2221 -759,-40 -532,-36 -1390,70l-23 237 123 2023z"/>
   <path class="fil3" d="M6773 17971c330,99 106,175 361,282 67,-561 28,-1012 -1,-1594l-941 -10c19,266 97,1507 307,1734 139,-175 110,-277 274,-412z"/>
   <path class="fil5" d="M4654 4128c244,-51 958,-843 1109,-1012 -390,-23 -1138,644 -1109,1012z"/>
   <path class="fil6" d="M5479 16217c150,-17 104,-7 228,-118 69,-63 98,-97 165,-165 125,-125 220,-200 334,-322 200,-212 542,-591 648,-662 -395,37 -1317,1129 -1375,1267z"/>
   <path class="fil7" d="M4584 3298l20 318c170,-1 413,-261 518,-415 -160,-57 -404,35 -538,97z"/>
   <path class="fil0" d="M5248 14388c240,-29 299,-114 370,-302l-381 20 11 282z"/>
  </g>
 </g>
</svg>
