<?xml version="1.0" encoding="UTF-8"?>
<!DOCTYPE svg PUBLIC "-//W3C//DTD SVG 1.1//EN" "http://www.w3.org/Graphics/SVG/1.1/DTD/svg11.dtd">
<!-- Creator: CorelDRAW X7 -->
<svg xmlns="http://www.w3.org/2000/svg" xml:space="preserve" width="297mm" height="210mm" version="1.1" style="shape-rendering:geometricPrecision; text-rendering:geometricPrecision; image-rendering:optimizeQuality; fill-rule:evenodd; clip-rule:evenodd"
viewBox="0 0 29700 21000"
 xmlns:xlink="http://www.w3.org/1999/xlink">
 <defs>
  <style type="text/css">
   <![CDATA[
    .str0 {stroke:#343434;stroke-width:200}
    .fil1 {fill:#343434}
    .fil2 {fill:#353535}
    .fil4 {fill:#363636}
    .fil5 {fill:#393939}
    .fil6 {fill:#3B3B3B}
    .fil7 {fill:#3F3F3F}
    .fil8 {fill:#86EEE5}
    .fil3 {fill:#F0F0F0}
    .fil0 {fill:white}
   ]]>
  </style>
 </defs>
 <g id="Слой_x0020_1">
  <metadata id="CorelCorpID_0Corel-Layer"/>
  <g id="_630674200">
   <path class="fil0" d="M10173 19450l-195 -35c231,-78 2279,-197 2497,-53 -202,109 -1935,88 -2302,88zm7308 -70c-363,0 -1641,35 -1793,-79 228,-118 1869,-28 2255,-28l1875 -59c192,-24 372,-85 561,-87 -640,302 -2077,253 -2898,253zm-5420 -553c63,-202 124,-237 240,-347 -26,181 -89,269 -240,347zm-450 -52c-13,-193 108,-367 255,-434 -28,129 -29,138 -98,238 -33,47 -144,172 -157,196zm-2211 -3203c-3,-8 -14,-29 -16,-24 -3,5 -16,-18 -19,-26 -54,-142 -23,-300 59,-420 77,-112 27,-55 125,-109l-149 579zm244 -1651c-20,-147 118,-403 228,-432 -4,100 -155,377 -228,432zm-11 -614c10,-98 27,-171 66,-238 51,-86 71,-98 158,-128 -26,130 -24,83 -92,192l-132 174zm-8 -424c34,-323 177,-493 417,-577 -55,116 -105,172 -184,284 -77,108 -129,212 -233,293zm-216 -3724c37,-208 180,-410 303,-470 -13,143 -176,403 -303,470zm-72 -451c81,-248 244,-401 407,-509 -23,207 -283,443 -407,509zm16 -493c52,-237 299,-487 469,-583 -68,220 -322,508 -469,583zm12 -499c-3,-250 286,-559 447,-619 -81,128 -116,181 -211,304 -75,98 -146,231 -236,315zm6205 -1175l-111 242c-60,-81 -48,106 -49,-122 0,-62 26,-98 51,-139 38,-67 78,-112 123,-198 291,176 145,-50 402,57 29,129 1,222 -26,326 -28,-38 -23,2 -54,-103 -12,-36 -16,-92 -21,-130 -171,47 -109,83 -315,67zm1022 -182c525,-194 454,330 2,420 70,-215 172,-111 232,-331l-234 -89zm-375 -115c73,-30 116,-29 187,2 62,270 -50,352 -304,351l54 -200c109,22 9,114 154,-11 -42,-120 3,-25 -91,-142zm994 -103l211 -86c21,157 22,394 -118,463 -57,-80 -47,-23 8,-248 -5,-7 -14,-28 -17,-22l-84 -107zm497 103c82,74 107,88 117,235 -69,72 -58,64 -169,120 19,-157 33,-151 -28,-262l-43 -67c85,-150 192,-188 391,-208 -73,117 -138,110 -268,182zm-5799 637c59,-124 167,-186 206,-336 58,-229 -48,-272 -67,-453 -31,-298 306,-580 520,-625 -62,140 -132,185 -262,312 -112,109 -188,143 -134,372 77,325 102,700 -263,730zm1099 -469c114,51 65,6 146,22 23,5 77,-14 163,65 -306,99 -265,65 -495,-58 -38,160 1,211 -126,280 -95,-128 70,-545 133,-846 34,-164 26,-202 111,-245 40,129 18,264 15,421 77,-170 330,-630 497,-716 -84,306 -475,815 -444,1077zm2625 -390c-204,194 -436,-31 -362,-369 57,-256 231,-468 406,-547 -72,163 -190,306 -260,483 -31,79 -80,204 -25,286 38,58 61,51 108,73l133 74zm-1850 -195c170,-70 246,-179 385,-217 -20,282 -624,300 -365,647l321 -79c-89,139 -147,238 -388,181 -201,-184 -83,-467 -21,-763l-93 -46c-6,-3 -19,-10 -23,-12 -6,-3 -18,-8 -25,-13 235,-179 479,-358 816,-378 -268,267 -533,113 -607,680zm2593 -26l10 -345c-139,20 -152,18 -253,105l-84 76 67 -514c75,-200 25,-86 115,-148l-47 395c403,-73 218,-311 410,-593 97,167 3,358 -28,543 -31,187 -38,413 -190,481zm-1565 186c-151,-124 -90,-340 -69,-603l-177 -76c157,-80 246,-211 490,-230 -183,279 -199,15 -244,909zm-4093 -1216c41,246 122,477 23,610 -107,-133 -121,-479 -111,-680 105,-40 361,-154 486,-98l-398 168zm6555 392l379 -149c-88,241 -218,180 -417,299l-24 261 223 50c-298,307 -382,-154 -298,-443 87,-295 117,-594 469,-596 -164,106 -310,298 -332,578zm1006 79c1,251 -190,650 -533,587 82,-57 267,-245 322,-355 151,-310 -160,-925 232,-944 166,-9 108,21 139,46 -460,166 -161,302 -160,666zm687 -1589c123,103 73,445 104,640 47,281 66,345 85,652 109,-89 90,-147 218,-215l-970 1818c-163,-206 473,-1083 592,-1281 353,-584 -291,-665 -29,-1614zm-9008 2086c845,567 634,228 1038,-703 119,-272 293,-736 454,-964 32,51 40,56 -14,193 -28,73 -63,159 -92,232 -118,299 -462,1092 -494,1315 -59,407 90,661 198,1003 115,368 139,658 227,1017 261,-9 686,-126 955,-179 329,-66 671,-125 1002,-169 700,-93 1278,-250 1946,-357 702,-112 1346,-168 2053,-255 341,-43 677,-125 1007,-165 268,-32 267,48 485,75 156,20 402,19 572,21 139,-426 94,-185 21,-627 -31,-192 -67,-587 -41,-772 94,288 104,622 206,889l727 -1434c-215,-122 -534,-256 -820,-265 90,-310 968,221 968,222 -19,228 -583,1212 -747,1596 -75,179 -137,377 -224,557 -112,-44 -893,-140 -1011,-125 -147,18 -355,175 -963,233 -371,36 -745,37 -1108,63l-2060 330c-332,65 -621,180 -933,269 -315,91 -1851,253 -2179,229 -79,-154 -182,-510 -196,-681 -34,-414 37,-288 -124,-697 -136,-345 -67,-339 -393,-494 -765,-363 -744,-35 -221,-1328 69,-169 324,-935 432,-908 37,67 -624,1563 -671,1879zm1482 -1745c-113,-38 -295,-147 -399,-238l200 1c84,94 142,132 199,237zm-83 633c177,-137 1524,-232 1873,-300 797,-156 5149,-869 5670,-762 -69,126 -674,163 -914,198l-5743 780c-252,35 -700,195 -886,84zm-2028 -812c108,-340 157,-230 192,-228 -135,309 -103,225 -192,228zm11895 575l11 1564c-281,-482 -66,-3043 -44,-3522 102,53 84,4 95,180 5,62 -8,186 -11,253l-51 1525zm-11894 -1075c6,-116 -37,-30 58,-133l331 -245c-25,131 55,23 -177,219 -78,66 -118,121 -212,159zm68 -454c69,-238 266,-447 484,-522 -69,163 -116,178 -228,291 -101,102 -125,167 -256,231zm107 -469c-54,-122 194,-368 325,-412 -36,142 -228,338 -325,412zm-1101 -596c899,44 593,483 347,502 -212,18 -351,-138 -377,101 186,137 430,-27 604,217 58,169 -37,301 -192,324 -226,36 -389,-150 -380,102 88,39 193,40 296,55 525,78 248,437 78,468 -231,41 -393,-171 -383,152 241,2 629,-1 598,275 -42,378 -470,105 -614,256 40,90 11,61 99,92 22,6 164,17 199,21 143,16 198,39 292,87 38,165 10,288 -122,358 -207,111 -266,-92 -451,46l2 121c217,37 642,-18 593,294 -60,375 -491,64 -602,258 69,139 -35,42 358,111 326,58 328,419 39,463 -189,29 -314,-109 -407,65 104,187 455,34 585,213 57,122 33,268 -92,335 -162,85 -277,-7 -474,19l-4 143c159,67 428,52 575,128 126,548 -435,313 -574,404 17,223 277,116 576,235 36,170 17,313 -143,373 -233,88 -313,-121 -435,104 204,85 654,12 597,339 -75,424 -565,-28 -593,297l52 30c45,15 4,10 86,24 144,24 324,47 439,110 126,609 -466,228 -576,430 900,19 586,458 379,495 -170,30 -207,-76 -380,6 -65,212 268,146 419,189 173,48 91,5 151,109 76,140 -25,296 -159,332 -218,58 -355,-121 -433,82 85,83 141,57 303,76 125,13 218,50 295,90 29,147 43,283 -122,361 -212,100 -280,-94 -458,43 29,209 316,113 574,237 41,160 13,287 -118,358 -195,106 -270,-66 -462,43 75,131 155,69 338,100 384,65 321,425 58,468 -204,33 -323,-120 -403,72 71,110 145,81 309,102 390,50 384,368 153,452 -144,52 -202,-11 -338,4 -263,30 210,-65 -64,15l-59 29c54,146 108,104 288,123 116,13 221,43 298,86 149,540 -425,306 -566,395 2,170 -52,80 76,133 93,37 267,19 366,58 199,77 193,331 20,417 -168,85 -264,-39 -442,16 -47,101 -40,45 -17,183 253,0 385,22 569,102 122,578 -398,290 -576,402 7,246 308,101 570,245 45,161 18,309 -136,369 -179,69 -353,-93 -449,97l50 27c172,64 452,-3 541,188 53,137 -12,268 -126,309 -231,83 -321,-96 -472,47 18,207 361,107 596,231 35,160 11,313 -144,372 -187,71 -349,-119 -437,67 103,169 498,38 592,229 32,181 -34,292 -172,331 -131,35 -431,-99 -422,79 7,133 197,84 328,104 368,57 347,399 100,462 -232,60 -334,-134 -437,73 82,98 165,68 320,87 336,40 409,346 133,456 -208,82 -251,-85 -433,24 10,291 464,43 581,311 37,144 -21,279 -168,318 -155,42 -248,-42 -464,1l-10 275c1194,64 1314,16 2566,-37 1312,-58 2602,-8 3809,-56 242,-9 494,-49 744,-49l1632 0c1043,0 2101,113 3157,124 515,6 913,37 1211,-422 389,-600 -99,-6101 -111,-6602 -38,-1678 103,-3360 116,-5039 8,-1140 120,-4411 -51,-5311 -74,-391 -77,-448 -444,-523 -1292,-263 -1275,-55 -2566,-90 -544,-15 -1086,-72 -1632,-62 -1421,28 -3433,188 -4852,88 -449,-32 -905,-88 -1356,-88l-1774 36c-255,1 -397,-57 -385,199z"/>
   <path class="fil1" d="M7717 19291c-65,-245 994,-359 1141,-176 -191,120 -326,10 -602,68l-515 118c-4,-10 -17,-6 -24,-10zm-14 -614c7,-139 39,-146 175,-193 287,-97 714,-164 978,-49 -109,180 -304,51 -576,100 -194,34 -404,151 -577,142zm6 -656c-12,-127 34,-122 177,-165 233,-72 807,-199 963,-18 -116,159 -272,-37 -888,165 -274,89 -225,30 -252,18zm0 -640c-16,-131 30,-124 174,-169 230,-70 829,-205 969,-10 -122,134 -356,13 -622,74l-411 123c-8,0 -20,0 -28,0l-82 -18zm1120 -787c-110,70 -474,27 -672,78 -132,34 -484,216 -448,41 34,-171 680,-237 869,-230 23,1 151,13 163,18 103,39 60,10 88,93zm-1124 -467c15,-289 1071,-386 1137,-189 -108,104 -142,56 -301,48 -459,-24 -583,194 -836,141zm11 -635c-40,-139 37,-133 186,-176 238,-66 801,-196 952,1 -178,128 -323,0 -604,64 -139,31 -352,131 -488,126l-46 -15zm4 -640c-97,-280 963,-317 1134,-211 -127,185 -288,33 -580,92l-440 130c-65,13 -33,5 -72,3l-42 -14zm-6 -670c-38,-178 324,-211 510,-244 198,-36 496,-79 635,72 -203,118 -321,3 -605,65 -235,49 -407,171 -540,107zm2 -643c-46,-161 205,-191 472,-243 222,-42 493,-49 670,32 -139,209 -264,-33 -881,184 -344,119 -215,53 -261,27zm-6 -628c-19,-163 239,-200 489,-240 196,-33 532,-82 650,59 -108,137 -348,20 -616,81 -241,55 -399,168 -523,100zm4 -640c-49,-227 672,-276 864,-273 290,5 255,59 289,104 -246,117 -308,-6 -608,60 -87,19 -189,52 -275,81 -96,31 -181,72 -270,28zm1138 -757c-177,113 -382,-7 -674,72 -114,31 -503,245 -472,52 24,-147 401,-178 537,-200 188,-31 529,-73 609,76zm2 -675c-114,141 -108,89 -313,76 -493,-31 -816,297 -835,105 -20,-203 924,-321 1148,-181zm-1137 -421c-79,-264 906,-284 1144,-216 -114,203 -286,49 -580,104l-564 112zm1139 -857c-127,201 -219,59 -489,87 -184,19 -338,95 -502,139 -244,65 -242,-109 33,-187 276,-77 684,-158 958,-39zm-5 -523c-207,194 -387,-45 -639,61 -88,37 -441,261 -500,132 -91,-202 896,-363 1139,-193zm-9 -621c-117,101 -442,29 -635,76 -134,33 -487,201 -501,77 -25,-209 1053,-374 1136,-153zm-1128 -442c-31,-138 1,-132 155,-176 268,-79 764,-180 983,-36 -139,182 -278,30 -577,88 -225,44 -431,168 -561,124zm1146 -818c-201,92 -411,2 -671,73 -109,30 -523,218 -481,47 40,-165 666,-238 905,-224 342,23 231,69 247,104zm-12 -673c-141,151 -347,27 -638,97 -140,34 -490,203 -502,73 -21,-214 957,-316 1140,-170zm-1141 -442c-3,-140 35,-125 185,-172 246,-77 429,-116 686,-104 315,13 262,67 285,90 -168,135 -333,6 -626,74 -170,39 -363,155 -530,112zm13 -627c-49,-127 39,-137 179,-177 208,-59 458,-110 678,-101 147,7 225,9 279,100 -189,106 -379,12 -638,75 -195,48 -395,156 -498,103zm-24 -716c113,-139 1017,-334 1156,-102 -177,96 -405,12 -667,77 -288,72 -469,227 -489,25zm14 -540c-14,-155 49,-149 196,-192 245,-73 781,-179 945,-5 -155,141 -316,12 -597,73 -181,40 -364,158 -544,124zm2 -642c-37,-328 948,-329 1140,-222 -68,117 -86,101 -252,84 -501,-50 -638,188 -888,138zm-5 -632c1,-198 288,-212 496,-251 165,-30 574,-100 639,71 -131,112 -419,26 -609,68 -171,36 -352,161 -526,112zm3 -652c-15,-132 30,-118 176,-165 251,-79 779,-208 963,-19 -135,167 -197,-12 -618,80 -92,21 -185,51 -275,81 -281,96 -215,39 -246,23zm1256 4144c-130,-179 -481,-26 -585,-213 93,-174 218,-36 407,-65 289,-44 287,-405 -39,-463 -393,-69 -289,28 -358,-111 111,-194 542,117 602,-258 49,-312 -376,-257 -593,-294l-2 -121c185,-138 244,65 451,-46 132,-70 160,-193 122,-358 -94,-48 -149,-71 -292,-87 -35,-4 -177,-15 -199,-21 -88,-31 -59,-2 -99,-92 144,-151 572,122 614,-256 31,-276 -357,-273 -598,-275 -10,-323 152,-111 383,-152 170,-31 447,-390 -78,-468 -103,-15 -208,-16 -296,-55 -9,-252 154,-66 380,-102 155,-23 250,-155 192,-324 -174,-244 -418,-80 -604,-217 26,-239 165,-83 377,-101 246,-19 552,-458 -347,-502 -12,-256 130,-198 385,-199l1774 -36c451,0 907,56 1356,88 1419,100 3431,-60 4852,-88 546,-10 1088,47 1632,62 1291,35 1274,-173 2566,90 367,75 370,132 444,523 171,900 59,4171 51,5311 -13,1679 -154,3361 -116,5039 12,501 500,6002 111,6602 -298,459 -696,428 -1211,422 -1056,-11 -2114,-124 -3157,-124l-1632 0c-250,0 -502,40 -744,49 -1207,48 -2497,-2 -3809,56 -1252,53 -1372,101 -2566,37l10 -275c216,-43 309,41 464,-1 147,-39 205,-174 168,-318 -117,-268 -571,-20 -581,-311 182,-109 225,58 433,-24 276,-110 203,-416 -133,-456 -155,-19 -238,11 -320,-87 103,-207 205,-13 437,-73 247,-63 268,-405 -100,-462 -131,-20 -321,29 -328,-104 -9,-178 291,-44 422,-79 138,-39 204,-150 172,-331 -94,-191 -489,-60 -592,-229 88,-186 250,4 437,-67 155,-59 179,-212 144,-372 -235,-124 -578,-24 -596,-231 151,-143 241,36 472,-47 114,-41 179,-172 126,-309 -89,-191 -369,-124 -541,-188l-50 -27c96,-190 270,-28 449,-97 154,-60 181,-208 136,-369 -262,-144 -563,1 -570,-245 178,-112 698,176 576,-402 -184,-80 -316,-102 -569,-102 -23,-138 -30,-82 17,-183 178,-55 274,69 442,-16 173,-86 179,-340 -20,-417 -99,-39 -273,-21 -366,-58 -128,-53 -74,37 -76,-133 141,-89 715,145 566,-395 -77,-43 -182,-73 -298,-86 -180,-19 -234,23 -288,-123l59 -29c274,-80 -199,15 64,-15 136,-15 194,48 338,-4 231,-84 237,-402 -153,-452 -164,-21 -238,8 -309,-102 80,-192 199,-39 403,-72 263,-43 326,-403 -58,-468 -183,-31 -263,31 -338,-100 192,-109 267,63 462,-43 131,-71 159,-198 118,-358 -258,-124 -545,-28 -574,-237 178,-137 246,57 458,-43 165,-78 151,-214 122,-361 -77,-40 -170,-77 -295,-90 -162,-19 -218,7 -303,-76 78,-203 215,-24 433,-82 134,-36 235,-192 159,-332 -60,-104 22,-61 -151,-109 -151,-43 -484,23 -419,-189 173,-82 210,24 380,-6 207,-37 521,-476 -379,-495 110,-202 702,179 576,-430 -115,-63 -295,-86 -439,-110 -82,-14 -41,-9 -86,-24l-52 -30c28,-325 518,127 593,-297 57,-327 -393,-254 -597,-339 122,-225 202,-16 435,-104 160,-60 179,-203 143,-373 -299,-119 -559,-12 -576,-235 139,-91 700,144 574,-404 -147,-76 -416,-61 -575,-128l4 -143c197,-26 312,66 474,-19 125,-67 149,-213 92,-335zm-833 -4027c42,195 -185,163 -380,258 -205,98 -269,192 -165,429 184,76 361,-31 576,-39 -92,191 -200,125 -402,223 -321,155 -304,551 70,461 106,-26 231,-86 331,-37 -74,203 -872,250 -567,621 160,194 363,-70 558,18 -65,167 -244,119 -433,210 -86,42 -132,64 -163,159 -159,477 390,236 520,247 71,7 37,0 79,23 -76,226 -568,138 -614,430 -72,459 460,131 607,208 -47,129 -351,151 -598,346 -59,549 309,239 614,242 -26,262 -473,152 -598,393 -77,151 -25,331 155,335 76,2 141,-28 211,-48 29,-8 89,-24 114,-23 108,3 48,-13 112,32 -90,213 -544,137 -610,399 -89,348 215,276 418,228l195 12c-50,136 -19,94 -194,140 -92,24 -153,41 -236,81 -327,159 -257,543 153,437l194 -40c88,6 21,-10 74,20 -107,242 -777,60 -571,639 89,30 184,33 292,8 15,-5 132,-37 142,-38l142 30c-181,284 -766,95 -578,643 211,65 315,-9 530,-38 -154,93 -843,234 -506,579 115,60 132,47 282,9l196 -41c78,4 31,-5 77,19 -74,229 -530,157 -608,402 -137,431 319,233 509,222l49 2c5,1 18,5 23,5 4,1 15,4 22,7 -101,225 -506,135 -598,370 -176,453 379,242 600,234 -44,275 -498,139 -599,404 -185,485 402,201 561,270 -29,28 -10,17 -64,45 -172,88 -487,115 -513,348 -44,384 405,175 613,143 -17,218 -181,159 -388,251 -301,136 -329,543 75,467 101,-19 211,-54 304,-75 -9,269 -494,166 -588,397 -203,506 473,215 596,268 -45,147 -238,168 -383,224 -192,73 -286,160 -204,391 151,165 352,14 590,6 -50,227 -213,182 -429,270 -187,77 -265,270 -121,435 209,89 342,-61 562,-40 -54,221 -195,138 -410,239 -340,161 -304,560 130,448 292,-75 213,-48 256,-21 -108,305 -762,44 -564,640 145,48 289,-16 440,-30 187,-16 67,-20 138,28 -199,297 -737,89 -582,647 152,46 282,-17 447,-33 215,-19 57,-19 126,25 -94,198 -543,105 -603,395 -89,423 385,211 608,176 -31,381 -785,96 -572,705 187,60 366,-12 562,-60 -3,254 -492,178 -585,397 -211,504 470,216 595,267 -44,146 -237,168 -383,224 -195,75 -276,150 -206,397 212,148 274,20 545,11 71,613 382,391 1051,452 375,35 990,-38 1401,-52l3370 -57c319,0 550,42 888,17 694,-52 1397,-58 2092,-43 906,18 2915,178 3654,142 609,-2 647,-153 938,-437 238,-232 366,-575 366,-1009l0 -1277c-40,-1417 -287,-3649 -239,-4931l129 -5925c15,-1261 -14,-2534 -69,-3797 -19,-415 -162,-789 -410,-928 -528,-296 -1474,-164 -2063,-149 -984,25 -1965,-127 -2944,-101 -541,0 -1101,12 -1631,27 -770,20 -1537,111 -2307,78 -498,-21 -992,-115 -1490,-114 -404,0 -849,28 -1242,45 -279,10 -1007,5 -1233,56 -241,53 -107,233 -251,384 -96,102 -321,107 -447,191 -136,90 -215,340 -33,417 103,45 365,-52 492,-65z"/>
   <path class="fil2" d="M17481 19380c821,0 2258,49 2898,-253 -189,2 -369,63 -561,87l-1875 59c-386,0 -2027,-90 -2255,28 152,114 1430,79 1793,79z"/>
   <path class="fil2" d="M10173 19450c367,0 2100,21 2302,-88 -218,-144 -2266,-25 -2497,53l195 35z"/>
   <path class="fil3" d="M7707 2885c174,49 355,-76 526,-112 190,-42 478,44 609,-68 -65,-171 -474,-101 -639,-71 -208,39 -495,53 -496,251z"/>
   <path class="fil3" d="M7709 18021c27,12 -22,71 252,-18 616,-202 772,-6 888,-165 -156,-181 -730,-54 -963,18 -143,43 -189,38 -177,165z"/>
   <path class="fil3" d="M8842 8417c-83,-221 -1161,-56 -1136,153 14,124 367,-44 501,-77 193,-47 518,25 635,-76z"/>
   <path class="fil3" d="M7712 3517c250,50 387,-188 888,-138 166,17 184,33 252,-84 -192,-107 -1177,-106 -1140,222z"/>
   <path class="fil3" d="M7710 12911c124,68 282,-45 523,-100 268,-61 508,56 616,-81 -118,-141 -454,-92 -650,-59 -250,40 -508,77 -489,240z"/>
   <path class="fil3" d="M7716 13539c46,26 -83,92 261,-27 617,-217 742,25 881,-184 -177,-81 -448,-74 -670,-32 -267,52 -518,82 -472,243z"/>
   <path class="fil3" d="M8860 7157c-16,-35 95,-81 -247,-104 -239,-14 -865,59 -905,224 -42,171 372,-17 481,-47 260,-71 470,19 671,-73z"/>
   <path class="fil3" d="M8856 9561c-274,-119 -682,-38 -958,39 -275,78 -277,252 -33,187 164,-44 318,-120 502,-139 270,-28 362,114 489,-87z"/>
   <path class="fil3" d="M8829 16594c-28,-83 15,-54 -88,-93 -12,-5 -140,-17 -163,-18 -189,-7 -835,59 -869,230 -36,175 316,-7 448,-41 198,-51 562,-8 672,-78z"/>
   <path class="fil3" d="M7710 4159c180,34 363,-84 544,-124 281,-61 442,68 597,-73 -164,-174 -700,-68 -945,5 -147,43 -210,37 -196,192z"/>
   <path class="fil3" d="M7709 17381l82 18c8,0 20,0 28,0l411 -123c266,-61 500,60 622,-74 -140,-195 -739,-60 -969,10 -144,45 -190,38 -174,169z"/>
   <path class="fil3" d="M7696 4699c20,202 201,47 489,-25 262,-65 490,19 667,-77 -139,-232 -1043,-37 -1156,102z"/>
   <path class="fil3" d="M7714 12271c89,44 174,3 270,-28 86,-29 188,-62 275,-81 300,-66 362,57 608,-60 -34,-45 1,-99 -289,-104 -192,-3 -913,46 -864,273z"/>
   <path class="fil3" d="M8852 11514c-80,-149 -421,-107 -609,-76 -136,22 -513,53 -537,200 -31,193 358,-21 472,-52 292,-79 497,41 674,-72z"/>
   <path class="fil3" d="M7714 7975c130,44 336,-80 561,-124 299,-58 438,94 577,-88 -219,-144 -715,-43 -983,36 -154,44 -186,38 -155,176z"/>
   <path class="fil3" d="M7705 16127c253,53 377,-165 836,-141 159,8 193,56 301,-48 -66,-197 -1122,-100 -1137,189z"/>
   <path class="fil3" d="M7707 6042c167,43 360,-73 530,-112 293,-68 458,61 626,-74 -23,-23 30,-77 -285,-90 -257,-12 -440,27 -686,104 -150,47 -188,32 -185,172z"/>
   <path class="fil3" d="M7710 2233c31,16 -35,73 246,-23 90,-30 183,-60 275,-81 421,-92 483,87 618,-80 -184,-189 -712,-60 -963,19 -146,47 -191,33 -176,165z"/>
   <path class="fil3" d="M7720 5415c103,53 303,-55 498,-103 259,-63 449,31 638,-75 -54,-91 -132,-93 -279,-100 -220,-9 -470,42 -678,101 -140,40 -228,50 -179,177z"/>
   <path class="fil3" d="M7703 18677c173,9 383,-108 577,-142 272,-49 467,80 576,-100 -264,-115 -691,-48 -978,49 -136,47 -168,54 -175,193z"/>
   <path class="fil3" d="M7714 14182c133,64 305,-58 540,-107 284,-62 402,53 605,-65 -139,-151 -437,-108 -635,-72 -186,33 -548,66 -510,244z"/>
   <path class="fil3" d="M7716 15492l46 15c136,5 349,-95 488,-126 281,-64 426,64 604,-64 -151,-197 -714,-67 -952,-1 -149,43 -226,37 -186,176z"/>
   <path class="fil3" d="M8854 10839c-224,-140 -1168,-22 -1148,181 19,192 342,-136 835,-105 205,13 199,65 313,-76z"/>
   <path class="fil3" d="M7720 14852l42 14c39,2 7,10 72,-3l440 -130c292,-59 453,93 580,-92 -171,-106 -1231,-69 -1134,211z"/>
   <path class="fil3" d="M8848 6484c-183,-146 -1161,-44 -1140,170 12,130 362,-39 502,-73 291,-70 497,54 638,-97z"/>
   <path class="fil3" d="M7717 19291c7,4 20,0 24,10l515 -118c276,-58 411,52 602,-68 -147,-183 -1206,-69 -1141,176z"/>
   <path class="fil3" d="M8851 9038c-243,-170 -1230,-9 -1139,193 59,129 412,-95 500,-132 252,-106 432,133 639,-61z"/>
   <path class="fil3" d="M7717 10418l564 -112c294,-55 466,99 580,-104 -238,-68 -1223,-48 -1144,216z"/>
   <path class="fil2" d="M9625 12883c104,-81 156,-185 233,-293 79,-112 129,-168 184,-284 -240,84 -383,254 -417,577z"/>
   <path class="fil2" d="M9353 8215c147,-75 401,-363 469,-583 -170,96 -417,346 -469,583z"/>
   <path class="fil4" d="M9398 2861c131,-64 155,-129 256,-231 112,-113 159,-128 228,-291 -218,75 -415,284 -484,522z"/>
   <path class="fil5" d="M9365 7716c90,-84 161,-217 236,-315 95,-123 130,-176 211,-304 -161,60 -450,369 -447,619z"/>
   <path class="fil4" d="M9337 8708c124,-66 384,-302 407,-509 -163,108 -326,261 -407,509z"/>
   <path class="fil1" d="M9549 14993c-98,54 -48,-3 -125,109 -82,120 -113,278 -59,420 3,8 16,31 19,26 2,-5 13,16 16,24l149 -579z"/>
   <path class="fil4" d="M9409 9159c127,-67 290,-327 303,-470 -123,60 -266,262 -303,470z"/>
   <path class="fil4" d="M9505 2392c97,-74 289,-270 325,-412 -131,44 -379,290 -325,412z"/>
   <path class="fil6" d="M11611 18775c13,-24 124,-149 157,-196 69,-100 70,-109 98,-238 -147,67 -268,241 -255,434z"/>
   <path class="fil5" d="M9330 3315c94,-38 134,-93 212,-159 232,-196 152,-88 177,-219l-331 245c-95,103 -52,17 -58,133z"/>
   <path class="fil6" d="M9644 13921c73,-55 224,-332 228,-432 -110,29 -248,285 -228,432z"/>
   <path class="fil5" d="M9765 13133c68,-109 66,-62 92,-192 -87,30 -107,42 -158,128 -39,67 -56,140 -66,238l132 -174z"/>
   <path class="fil7" d="M12061 18827c151,-78 214,-166 240,-347 -116,110 -177,145 -240,347z"/>
   <path class="fil6" d="M9329 3815c89,-3 57,81 192,-228 -35,-2 -84,-112 -192,228z"/>
  </g>
  <path class="fil8 str0" d="M11412 3612l8058 0c288,0 521,233 521,520l0 2265c0,287 -233,520 -521,520l-8058 0c-287,0 -520,-233 -520,-520l0 -2265c0,-287 233,-520 520,-520z"/>
 </g>
</svg>
