<?xml version="1.0" encoding="UTF-8"?>
<!DOCTYPE svg PUBLIC "-//W3C//DTD SVG 1.1//EN" "http://www.w3.org/Graphics/SVG/1.1/DTD/svg11.dtd">
<!-- Creator: CorelDRAW X7 -->
<svg xmlns="http://www.w3.org/2000/svg" xml:space="preserve" width="210mm" height="297mm" version="1.1" style="shape-rendering:geometricPrecision; text-rendering:geometricPrecision; image-rendering:optimizeQuality; fill-rule:evenodd; clip-rule:evenodd"
viewBox="0 0 21000 29700"
 xmlns:xlink="http://www.w3.org/1999/xlink">
 <defs>
  <style type="text/css">
   <![CDATA[
    .str0 {stroke:#343434;stroke-width:200}
    .fil1 {fill:#343434}
    .fil2 {fill:#353535}
    .fil4 {fill:#363636}
    .fil5 {fill:#393939}
    .fil6 {fill:#3B3B3B}
    .fil7 {fill:#3F3F3F}
    .fil8 {fill:#86EEE5}
    .fil3 {fill:#F0F0F0}
    .fil0 {fill:white}
   ]]>
  </style>
 </defs>
 <g id="Слой_x0020_1">
  <metadata id="CorelCorpID_0Corel-Layer"/>
  <g id="_630674200">
   <path class="fil0" d="M4591 25575l-257 -46c305,-103 3003,-260 3290,-70 -266,143 -2549,116 -3033,116zm9627 -92c-478,0 -2162,46 -2362,-105 300,-155 2462,-36 2971,-36l2469 -78c253,-32 490,-112 739,-115 -843,398 -2736,334 -3817,334zm-7140 -729c83,-266 164,-312 316,-457 -34,238 -117,354 -316,457zm-592 -68c-18,-255 142,-484 335,-572 -36,170 -38,182 -129,313 -43,62 -189,227 -206,259zm-2913 -4220c-4,-10 -18,-38 -21,-31 -4,6 -21,-24 -25,-34 -71,-188 -30,-396 78,-554 101,-147 35,-72 164,-143l-196 762zm322 -2174c-27,-194 155,-531 300,-570 -5,132 -204,497 -300,570zm-15 -809c13,-129 36,-226 87,-314 67,-113 93,-129 208,-168 -34,171 -32,109 -121,253l-174 229zm-11 -559c45,-425 234,-649 550,-760 -73,153 -139,227 -243,374 -101,143 -170,280 -307,386zm-284 -4905c49,-274 237,-540 399,-619 -17,188 -232,530 -399,619zm-95 -594c107,-327 322,-529 536,-671 -30,273 -373,584 -536,671zm21 -650c69,-312 394,-641 618,-768 -90,290 -424,669 -618,768zm16 -657c-4,-329 377,-736 589,-815 -107,168 -153,238 -278,400 -99,129 -192,304 -311,415zm-47 -5139c142,-448 206,-303 252,-300 -177,407 -135,296 -252,300zm15668 758l15 2060c-370,-635 -87,-4009 -58,-4640 134,70 111,6 125,238 7,81 -10,245 -14,333l-68 2009zm-15667 -1416c8,-153 -49,-40 76,-176l436 -322c-33,172 73,30 -233,288 -103,87 -155,160 -279,210zm89 -598c91,-314 351,-589 638,-688 -91,215 -153,234 -300,383 -133,135 -165,220 -338,305zm141 -618c-71,-161 256,-485 429,-543 -48,187 -301,445 -429,543zm-1450 -785c1184,58 781,636 457,661 -279,24 -462,-182 -496,133 245,180 566,-36 795,286 77,222 -49,396 -253,427 -297,47 -512,-198 -500,134 116,51 254,53 390,72 691,103 326,576 102,617 -304,54 -517,-225 -504,200 317,3 828,-1 788,362 -56,498 -620,139 -809,338 52,118 14,80 130,121 29,8 216,22 262,27 189,22 261,52 385,115 50,217 13,379 -161,472 -272,146 -350,-122 -594,60l3 160c286,48 846,-24 781,387 -79,494 -647,84 -793,340 91,183 -46,55 472,146 429,76 432,552 51,610 -249,38 -414,-144 -536,86 137,246 599,44 770,280 75,161 44,353 -121,441 -213,112 -365,-9 -624,25l-5 189c209,88 563,68 757,168 166,722 -573,413 -756,533 22,293 365,152 759,309 47,224 22,412 -189,491 -307,116 -412,-159 -573,137 269,112 862,16 787,447 -99,559 -745,-37 -781,391l68 40c59,20 5,13 113,31 190,32 427,62 579,145 166,802 -614,301 -759,567 1185,25 772,603 499,652 -224,39 -273,-100 -500,8 -86,279 353,192 551,249 228,63 120,6 199,143 100,185 -33,390 -209,438 -287,76 -468,-160 -570,108 111,109 185,75 399,100 164,17 287,66 388,118 38,194 57,373 -160,476 -280,131 -369,-124 -604,56 38,276 416,149 756,313 54,210 17,378 -155,471 -257,140 -356,-87 -609,57 99,172 205,91 446,132 505,85 422,559 76,616 -269,43 -426,-158 -531,95 94,145 191,107 407,134 514,66 506,485 202,596 -190,68 -266,-15 -446,5 -346,39 277,-86 -84,20l-78 38c72,192 143,137 380,162 153,17 291,57 392,113 197,711 -559,403 -745,520 2,224 -69,106 100,176 122,48 352,25 482,76 262,101 254,436 26,549 -221,112 -347,-51 -582,21 -62,133 -53,60 -22,242 333,0 507,28 749,134 161,761 -524,382 -758,529 9,324 405,133 750,323 60,212 24,407 -179,486 -236,91 -465,-122 -591,128l66 36c226,84 595,-4 712,247 70,181 -16,353 -166,407 -304,110 -423,-126 -621,62 23,273 475,141 785,304 46,211 14,413 -190,490 -246,94 -460,-156 -576,89 136,222 656,50 780,301 42,239 -45,385 -226,436 -173,46 -568,-130 -556,104 9,176 259,111 432,137 484,76 457,526 131,609 -305,79 -440,-176 -575,96 108,129 217,90 421,115 443,52 539,456 176,600 -274,108 -331,-112 -571,32 13,383 611,57 765,410 49,189 -27,367 -221,419 -204,55 -327,-56 -611,1l-13 362c1573,85 1731,21 3380,-49 1728,-76 3427,-10 5017,-73 319,-12 651,-65 980,-65l2150 0c1374,0 2768,149 4159,163 678,8 1202,49 1595,-555 512,-791 -130,-8037 -146,-8697 -50,-2210 135,-4426 153,-6638 10,-1501 158,-5810 -68,-6996 -97,-515 -101,-590 -584,-689 -1702,-346 -1680,-72 -3381,-118 -716,-20 -1430,-95 -2149,-82 -1872,37 -4523,248 -6392,116 -591,-42 -1192,-116 -1786,-116l-2337 48c-336,1 -523,-76 -507,262z"/>
   <path class="fil1" d="M1360 25368c-85,-322 1310,-473 1503,-231 -251,158 -429,13 -793,89l-678 156c-5,-14 -22,-8 -32,-14zm-18 -808c9,-184 51,-193 230,-255 378,-127 941,-216 1289,-64 -144,237 -401,67 -759,132 -256,44 -532,198 -760,187zm8 -865c-16,-167 45,-160 233,-217 307,-95 1063,-262 1268,-24 -152,210 -358,-48 -1169,218 -361,117 -297,39 -332,23zm0 -843c-21,-172 39,-163 229,-222 303,-92 1092,-270 1276,-13 -160,176 -469,17 -819,97l-541 162c-11,0 -27,0 -37,0l-108 -24zm1475 -1036c-145,92 -624,35 -885,102 -174,45 -638,285 -590,54 45,-225 896,-312 1145,-303 30,2 198,18 214,24 136,52 79,13 116,123zm-1480 -615c19,-381 1410,-509 1497,-249 -142,137 -187,73 -396,63 -605,-32 -768,255 -1101,186zm14 -837c-53,-183 49,-175 245,-232 314,-87 1055,-258 1254,2 -234,168 -425,0 -796,84 -183,41 -463,172 -642,166l-61 -20zm5 -843c-127,-369 1269,-418 1494,-278 -167,244 -379,44 -764,121l-580 172c-85,17 -43,6 -94,3l-56 -18zm-8 -883c-50,-234 427,-277 672,-321 261,-47 654,-104 837,95 -268,155 -423,4 -797,85 -310,65 -536,226 -712,141zm3 -847c-61,-212 270,-251 622,-320 292,-55 649,-64 882,42 -183,276 -347,-43 -1160,243 -453,157 -283,70 -344,35zm-8 -827c-25,-215 315,-263 644,-316 258,-43 701,-108 856,78 -142,180 -458,26 -811,106 -317,73 -526,222 -689,132zm5 -843c-64,-299 886,-363 1139,-359 382,6 335,77 380,137 -324,154 -406,-8 -801,79 -114,25 -249,68 -362,106 -126,41 -238,95 -356,37zm1499 -997c-233,149 -503,-9 -887,95 -151,41 -663,323 -622,68 31,-193 528,-234 707,-263 248,-41 697,-96 802,100zm3 -889c-150,186 -142,117 -412,100 -650,-41 -1075,391 -1100,138 -26,-267 1217,-423 1512,-238zm-1498 -555c-104,-348 1194,-374 1507,-284 -150,267 -376,64 -764,137l-743 147zm1501 -1129c-168,265 -289,78 -644,115 -243,25 -446,125 -662,183 -321,86 -318,-144 44,-246 363,-102 901,-208 1262,-52zm-7 -689c-273,256 -510,-59 -842,81 -116,49 -581,344 -658,174 -120,-266 1180,-479 1500,-255zm-12 -818c-154,133 -582,39 -836,101 -177,43 -642,264 -660,101 -33,-275 1387,-493 1496,-202zm-1486 -582c-40,-182 2,-174 205,-232 353,-104 1006,-237 1294,-47 -183,240 -366,39 -760,116 -296,58 -567,221 -739,163zm1510 -1077c-265,121 -541,2 -884,96 -143,39 -689,287 -634,62 53,-218 878,-314 1193,-295 450,30 304,91 325,137zm-16 -887c-186,199 -457,36 -840,128 -185,45 -646,267 -662,96 -27,-282 1261,-416 1502,-224zm-1503 -582c-4,-185 46,-165 244,-227 324,-101 565,-152 904,-137 414,17 345,89 375,119 -221,178 -439,8 -825,97 -224,52 -478,205 -698,148zm17 -826c-64,-167 52,-181 236,-233 274,-78 603,-145 893,-133 194,9 297,12 368,131 -249,140 -500,16 -841,99 -257,63 -520,206 -656,136zm-31 -943c149,-183 1339,-440 1522,-135 -233,127 -533,16 -878,102 -380,95 -618,299 -644,33zm18 -712c-18,-204 65,-196 258,-252 323,-97 1029,-236 1245,-7 -204,186 -416,16 -786,96 -239,53 -480,208 -717,163zm3 -845c-49,-432 1249,-434 1501,-293 -89,154 -113,133 -332,111 -659,-66 -840,248 -1169,182zm-7 -833c1,-261 380,-279 654,-330 217,-40 756,-132 841,93 -172,148 -552,34 -802,90 -225,47 -464,212 -693,147zm4 -859c-20,-173 40,-155 232,-217 331,-104 1026,-274 1268,-25 -177,220 -259,-16 -814,105 -121,28 -243,68 -362,107 -370,127 -283,51 -324,30zm1655 5459c-172,-236 -634,-34 -771,-280 123,-230 287,-48 536,-86 381,-58 378,-534 -51,-610 -518,-91 -381,37 -472,-146 146,-256 714,154 793,-340 65,-411 -495,-339 -781,-387l-3 -160c244,-181 322,86 594,-60 174,-92 211,-255 161,-472 -124,-63 -196,-93 -384,-114 -47,-6 -234,-20 -263,-28 -116,-41 -77,-3 -130,-121 190,-199 753,160 809,-338 41,-363 -470,-359 -788,-362 -13,-425 200,-146 505,-200 224,-41 588,-514 -103,-616 -136,-20 -274,-22 -390,-73 -12,-332 203,-87 501,-134 204,-31 329,-204 252,-427 -229,-321 -550,-105 -795,-286 34,-315 217,-109 496,-133 324,-25 728,-603 -457,-661 -16,-337 172,-261 507,-262l2337 -48c594,0 1195,74 1787,116 1869,132 4519,-79 6391,-116 719,-13 1433,62 2150,82 1700,46 1678,-228 3380,118 483,99 487,174 585,689 225,1186 77,5495 67,6996 -17,2212 -203,4428 -153,6638 16,660 659,7906 146,8697 -392,604 -917,563 -1595,556 -1391,-15 -2785,-164 -4159,-164l-2149 0c-330,0 -662,53 -980,65 -1590,63 -3290,-3 -5018,74 -1649,69 -1807,133 -3380,48l13 -362c285,-57 407,54 611,-1 194,-52 270,-229 222,-419 -154,-353 -752,-27 -766,-410 240,-143 297,77 571,-31 363,-145 267,-548 -175,-601 -205,-25 -314,14 -422,-115 136,-272 270,-17 576,-96 325,-83 353,-533 -132,-608 -173,-27 -423,38 -432,-137 -12,-235 383,-58 556,-105 182,-51 268,-197 226,-436 -124,-251 -644,-79 -780,-301 116,-245 330,5 576,-88 204,-78 236,-280 190,-490 -310,-164 -762,-32 -785,-305 199,-188 317,48 621,-62 151,-54 236,-226 166,-407 -117,-251 -486,-163 -712,-247l-66 -36c126,-250 356,-37 591,-128 203,-79 239,-274 180,-486 -346,-189 -742,2 -751,-323 234,-147 919,232 758,-529 -242,-105 -416,-134 -749,-134 -30,-182 -40,-108 22,-241 235,-73 361,90 583,-22 227,-113 235,-447 -27,-549 -130,-51 -359,-28 -482,-76 -169,-70 -97,48 -100,-175 186,-118 942,191 746,-521 -102,-56 -240,-96 -393,-113 -237,-25 -308,30 -379,-162l77 -38c361,-106 -262,19 85,-20 179,-20 255,63 445,-5 304,-111 312,-530 -202,-596 -216,-27 -313,11 -407,-134 106,-253 262,-51 531,-95 347,-57 430,-531 -76,-616 -241,-41 -347,40 -445,-132 252,-144 351,83 608,-57 173,-93 210,-261 156,-471 -340,-164 -718,-37 -757,-313 235,-180 324,76 604,-56 217,-103 199,-282 160,-476 -101,-52 -223,-101 -388,-118 -214,-25 -287,9 -399,-100 102,-268 283,-32 570,-108 177,-48 310,-253 210,-438 -79,-137 29,-80 -199,-143 -199,-57 -638,30 -552,-249 228,-108 276,31 500,-8 273,-49 687,-627 -499,-652 145,-266 925,236 759,-567 -152,-83 -389,-113 -578,-145 -109,-18 -55,-11 -114,-31l-68 -40c37,-428 682,168 781,-391 75,-431 -518,-335 -787,-446 161,-297 267,-22 573,-137 211,-80 236,-268 189,-492 -394,-157 -737,-16 -759,-309 183,-120 922,189 756,-533 -193,-100 -548,-80 -757,-168l5 -189c260,-34 411,87 624,-25 165,-88 197,-280 122,-441zm-1098 -5304c56,256 -243,214 -500,339 -270,129 -355,253 -218,565 243,101 476,-40 759,-51 -121,252 -263,165 -529,294 -423,204 -401,726 92,607 139,-34 304,-113 436,-49 -98,268 -1149,330 -747,818 211,256 478,-92 735,24 -86,220 -321,157 -570,277 -114,55 -174,84 -215,209 -210,629 514,311 685,326 93,9 49,0 104,30 -100,298 -748,182 -809,566 -95,605 606,173 800,274 -62,170 -463,199 -788,456 -78,723 407,315 809,319 -34,345 -623,200 -788,518 -101,198 -33,436 204,441 100,2 186,-37 278,-63 38,-11 117,-32 150,-31 143,4 64,-17 148,42 -119,281 -717,181 -804,526 -117,458 284,364 551,300l257 16c-66,179 -25,124 -256,185 -121,31 -201,54 -311,106 -430,210 -338,716 202,576l256 -53c115,8 27,-13 97,27 -141,318 -1024,79 -752,841 117,40 242,44 384,11 20,-7 174,-49 188,-50l187 39c-239,374 -1009,125 -762,847 278,86 415,-12 698,-50 -203,123 -1110,308 -666,763 151,79 174,62 371,12l258 -54c103,5 41,-7 102,25 -98,301 -698,207 -801,529 -180,568 420,307 670,293l65 2c7,2 24,7 30,7 6,1 20,5 29,9 -133,297 -666,178 -787,488 -232,596 499,318 790,308 -58,362 -656,183 -789,532 -244,639 529,265 739,356 -38,37 -13,22 -84,59 -227,116 -642,151 -676,458 -58,506 533,231 807,189 -22,287 -238,209 -511,330 -396,180 -433,716 99,616 133,-25 278,-72 400,-99 -11,354 -650,218 -774,523 -268,666 623,283 785,353 -59,193 -314,221 -505,295 -252,96 -376,211 -268,515 199,217 463,18 777,8 -66,299 -281,240 -565,355 -246,102 -349,356 -160,573 276,118 451,-80 741,-52 -71,291 -257,182 -540,315 -448,212 -401,737 171,590 385,-99 280,-63 337,-28 -142,402 -1004,58 -743,843 191,63 381,-21 580,-39 246,-21 88,-27 182,36 -263,392 -971,118 -767,853 200,60 371,-23 589,-44 283,-25 75,-25 166,33 -124,261 -716,139 -795,521 -117,557 508,277 801,231 -41,502 -1034,127 -753,929 246,79 482,-16 740,-79 -4,335 -648,234 -770,523 -278,664 619,285 783,352 -58,192 -312,221 -504,295 -257,99 -364,197 -272,523 280,195 361,26 718,14 94,808 504,515 1385,596 494,46 1304,-50 1845,-69l4439 -75c421,0 725,55 1170,22 914,-68 1840,-76 2756,-56 1193,23 3840,234 4813,187 802,-3 853,-202 1236,-576 313,-305 482,-757 482,-1329l0 -1682c-53,-1867 -378,-4807 -315,-6496l170 -7804c20,-1661 -18,-3338 -91,-5002 -25,-547 -213,-1039 -540,-1222 -695,-390 -1942,-216 -2717,-197 -1297,33 -2589,-167 -3878,-133 -713,0 -1451,16 -2149,36 -1014,26 -2025,146 -3039,103 -656,-28 -1307,-152 -1963,-151 -532,0 -1118,37 -1636,60 -367,13 -1326,6 -1624,73 -317,70 -141,307 -330,506 -127,135 -423,141 -589,252 -179,118 -284,448 -44,549 136,59 481,-68 648,-85z"/>
   <path class="fil2" d="M14222 25486c1082,0 2975,64 3818,-334 -249,3 -486,83 -739,115l-2470 78c-509,0 -2670,-119 -2971,37 201,150 1884,104 2362,104z"/>
   <path class="fil2" d="M4596 25578c483,0 2766,27 3032,-116 -287,-190 -2985,-33 -3289,70l257 46z"/>
   <path class="fil3" d="M1347 3757c229,65 468,-100 693,-147 250,-56 630,58 802,-90 -85,-225 -624,-133 -841,-93 -274,51 -653,69 -654,330z"/>
   <path class="fil3" d="M1350 23695c35,16 -29,94 332,-23 811,-266 1017,-8 1169,-218 -205,-238 -961,-71 -1268,24 -188,57 -249,50 -233,217z"/>
   <path class="fil3" d="M2842 11044c-109,-291 -1529,-73 -1496,202 18,163 483,-58 660,-101 254,-62 682,32 836,-101z"/>
   <path class="fil3" d="M1354 4590c329,66 510,-248 1169,-182 219,22 243,43 332,-111 -252,-141 -1550,-139 -1501,293z"/>
   <path class="fil3" d="M1351 16964c163,90 372,-59 689,-132 353,-80 669,74 811,-106 -155,-186 -598,-121 -856,-78 -329,53 -669,101 -644,316z"/>
   <path class="fil3" d="M1359 17791c61,35 -109,122 344,-35 813,-286 977,33 1160,-243 -233,-106 -590,-97 -882,-42 -352,69 -683,108 -622,320z"/>
   <path class="fil3" d="M2866 9385c-21,-46 125,-107 -325,-137 -315,-19 -1140,77 -1193,295 -55,225 491,-23 634,-62 343,-94 619,25 884,-96z"/>
   <path class="fil3" d="M2861 12551c-361,-156 -899,-50 -1262,52 -362,102 -365,332 -44,246 216,-58 419,-158 662,-183 355,-37 476,150 644,-115z"/>
   <path class="fil3" d="M2825 21816c-37,-110 20,-71 -116,-123 -16,-6 -184,-22 -214,-24 -249,-9 -1100,78 -1145,303 -48,231 416,-9 590,-54 261,-67 740,-10 885,-102z"/>
   <path class="fil3" d="M1351 5435c237,45 478,-110 717,-163 370,-80 582,90 786,-96 -216,-229 -922,-90 -1245,7 -193,56 -276,48 -258,252z"/>
   <path class="fil3" d="M1350 22852l108 24c10,0 26,0 37,0l541 -162c350,-80 659,79 819,-97 -184,-257 -973,-79 -1276,13 -190,59 -250,50 -229,222z"/>
   <path class="fil3" d="M1333 6147c26,266 264,62 644,-33 345,-86 645,25 878,-102 -183,-305 -1373,-48 -1522,135z"/>
   <path class="fil3" d="M1356 16121c118,58 230,4 356,-37 113,-38 248,-81 362,-106 395,-87 477,75 801,-79 -45,-60 2,-131 -380,-137 -253,-4 -1203,60 -1139,359z"/>
   <path class="fil3" d="M2855 15124c-105,-196 -554,-141 -802,-100 -179,29 -676,70 -707,263 -41,255 471,-27 622,-68 384,-104 654,54 887,-95z"/>
   <path class="fil3" d="M1356 10462c172,58 443,-105 739,-163 394,-77 577,124 760,-116 -288,-190 -941,-57 -1294,47 -203,58 -245,50 -205,232z"/>
   <path class="fil3" d="M1345 21201c333,69 496,-218 1101,-186 209,10 254,74 396,-63 -87,-260 -1478,-132 -1497,249z"/>
   <path class="fil3" d="M1347 7916c220,57 474,-96 698,-148 386,-89 604,81 825,-97 -30,-30 39,-102 -375,-119 -339,-15 -580,36 -904,137 -198,62 -248,42 -244,227z"/>
   <path class="fil3" d="M1351 2898c41,21 -46,97 324,-30 119,-39 241,-79 362,-107 555,-121 637,115 814,-105 -242,-249 -937,-79 -1268,25 -192,62 -252,44 -232,217z"/>
   <path class="fil3" d="M1364 7090c136,70 399,-73 656,-136 341,-83 592,41 841,-99 -71,-119 -174,-122 -368,-131 -290,-12 -619,55 -893,133 -184,52 -300,66 -236,233z"/>
   <path class="fil3" d="M1342 24560c228,11 504,-143 760,-187 358,-65 615,105 759,-132 -348,-152 -911,-63 -1289,64 -179,62 -221,71 -230,255z"/>
   <path class="fil3" d="M1356 18638c176,85 402,-76 712,-141 374,-81 529,70 797,-85 -183,-199 -576,-142 -837,-95 -245,44 -722,87 -672,321z"/>
   <path class="fil3" d="M1359 20364l61 20c179,6 459,-125 642,-166 371,-84 562,84 796,-84 -199,-260 -940,-89 -1254,-2 -196,57 -298,49 -245,232z"/>
   <path class="fil3" d="M2858 14235c-295,-185 -1538,-29 -1512,238 25,253 450,-179 1100,-138 270,17 262,86 412,-100z"/>
   <path class="fil3" d="M1364 19521l56 18c51,3 9,14 94,-3l580 -172c385,-77 597,123 764,-121 -225,-140 -1621,-91 -1494,278z"/>
   <path class="fil3" d="M2850 8498c-241,-192 -1529,-58 -1502,224 16,171 477,-51 662,-96 383,-92 654,71 840,-128z"/>
   <path class="fil3" d="M1360 25368c10,6 27,0 32,14l678 -156c364,-76 542,69 793,-89 -193,-242 -1588,-91 -1503,231z"/>
   <path class="fil3" d="M2854 11862c-320,-224 -1620,-11 -1500,255 77,170 542,-125 658,-174 332,-140 569,175 842,-81z"/>
   <path class="fil3" d="M1360 13680l743 -147c388,-73 614,130 764,-137 -313,-90 -1611,-64 -1507,284z"/>
   <path class="fil2" d="M3874 16927c137,-106 205,-243 307,-386 104,-147 170,-221 242,-374 -316,111 -505,335 -549,760z"/>
   <path class="fil2" d="M3515 10778c194,-98 529,-478 618,-768 -224,127 -549,456 -618,768z"/>
   <path class="fil4" d="M3575 3726c172,-85 204,-170 337,-305 147,-148 209,-168 300,-383 -287,99 -546,374 -637,688z"/>
   <path class="fil5" d="M3531 10121c119,-111 212,-286 311,-415 125,-162 171,-232 278,-400 -212,79 -593,486 -589,815z"/>
   <path class="fil4" d="M3494 11428c164,-87 506,-398 536,-671 -214,142 -429,344 -536,671z"/>
   <path class="fil1" d="M3774 19707c-130,71 -64,-4 -165,143 -108,158 -149,367 -78,554 4,10 21,40 25,34 3,-7 17,21 21,31l197 -762z"/>
   <path class="fil4" d="M3589 12022c167,-88 382,-431 399,-619 -162,79 -350,345 -399,619z"/>
   <path class="fil4" d="M3716 3108c127,-98 380,-356 428,-543 -173,58 -500,382 -428,543z"/>
   <path class="fil6" d="M6490 24689c17,-32 163,-197 207,-259 90,-131 92,-143 129,-313 -194,88 -353,317 -336,572z"/>
   <path class="fil5" d="M3485 4324c124,-50 177,-123 279,-210 306,-258 201,-116 234,-288l-437 322c-125,136 -68,23 -76,176z"/>
   <path class="fil6" d="M3899 18295c96,-73 295,-438 300,-569 -145,38 -327,375 -300,569z"/>
   <path class="fil5" d="M4058 17257c90,-144 87,-82 121,-253 -114,39 -141,55 -208,168 -51,89 -74,185 -87,314l174 -229z"/>
   <path class="fil7" d="M7083 24757c198,-103 281,-219 316,-457 -153,145 -233,191 -316,457z"/>
   <path class="fil6" d="M3484 4982c117,-4 75,107 253,-300 -46,-3 -111,-148 -253,300z"/>
  </g>
  <path class="fil8 str0" d="M6330 4307l10650 0c381,0 689,308 689,688l0 2993c0,379 -308,687 -689,687l-10650 0c-379,0 -687,-308 -687,-687l0 -2993c0,-380 308,-688 687,-688z"/>
 </g>
</svg>
