<?xml version="1.0" encoding="UTF-8"?>
<!DOCTYPE svg PUBLIC "-//W3C//DTD SVG 1.1//EN" "http://www.w3.org/Graphics/SVG/1.1/DTD/svg11.dtd">
<!-- Creator: CorelDRAW X7 -->
<svg xmlns="http://www.w3.org/2000/svg" xml:space="preserve" width="210mm" height="297mm" version="1.1" style="shape-rendering:geometricPrecision; text-rendering:geometricPrecision; image-rendering:optimizeQuality; fill-rule:evenodd; clip-rule:evenodd"
viewBox="0 0 21000 29700"
 xmlns:xlink="http://www.w3.org/1999/xlink">
 <defs>
  <style type="text/css">
   <![CDATA[
    .fil1 {fill:#343434}
    .fil2 {fill:#353535}
    .fil4 {fill:#363636}
    .fil5 {fill:#393939}
    .fil6 {fill:#3B3B3B}
    .fil7 {fill:#3F3F3F}
    .fil3 {fill:#F0F0F0}
    .fil0 {fill:white}
   ]]>
  </style>
 </defs>
 <g id="Слой_x0020_1">
  <metadata id="CorelCorpID_0Corel-Layer"/>
  <g id="_630674200">
   <path class="fil0" d="M16843 26470l274 -49c-325,-110 -3201,-277 -3507,-75 283,154 2717,124 3233,124zm-10264 -98c510,0 2305,49 2518,-111 -320,-166 -2624,-40 -3167,-40l-2633 -82c-269,-34 -522,-120 -788,-123 899,425 2917,356 4070,356zm7612 -777c-88,-284 -174,-333 -337,-487 37,254 125,378 337,487zm632 -73c18,-271 -152,-515 -358,-609 39,181 41,193 138,334 46,66 202,241 220,275zm3105 -4498c4,-11 20,-41 23,-34 4,7 22,-25 26,-36 76,-200 33,-422 -82,-590 -109,-158 -38,-78 -176,-153l209 813zm-342 -2319c28,-206 -166,-566 -321,-607 6,141 218,530 321,607zm15 -862c-14,-138 -38,-240 -93,-334 -71,-121 -99,-138 -222,-180 37,182 34,116 130,269l185 245zm11 -596c-47,-453 -248,-692 -585,-810 77,163 147,242 258,399 108,151 181,298 327,411zm304 -5230c-52,-292 -253,-576 -426,-660 18,201 247,566 426,660zm101 -633c-114,-348 -343,-563 -572,-715 32,291 398,622 572,715zm-23 -692c-73,-333 -420,-684 -658,-819 95,309 452,713 658,819zm-17 -701c5,-351 -401,-785 -627,-870 113,180 163,255 296,427 105,138 205,325 331,443zm51 -5479c-152,-477 -221,-323 -270,-320 190,434 145,316 270,320zm-16705 808l-16 2196c395,-677 93,-4273 62,-4946 -143,74 -118,5 -133,253 -8,87 11,261 15,355l72 2142zm16704 -1510c-9,-163 52,-42 -82,-187l-465 -344c35,184 -77,32 249,308 109,92 166,170 298,223zm-96 -638c-97,-334 -373,-627 -680,-733 97,229 163,250 321,409 141,143 175,234 359,324zm-150 -658c76,-172 -273,-517 -457,-579 51,199 321,475 457,579zm1546 -837c-1262,61 -833,678 -487,705 297,25 493,-194 529,141 -261,193 -604,-37 -848,305 -82,238 52,423 270,455 317,51 546,-210 533,144 -123,54 -271,56 -415,77 -738,109 -349,613 -110,657 324,58 552,-240 538,214 -339,2 -883,-2 -840,386 59,531 660,147 862,359 -56,127 -15,86 -139,129 -31,9 -230,24 -279,30 -201,22 -278,55 -410,122 -54,232 -14,405 171,503 291,156 374,-129 633,65l-2 169c-305,52 -902,-25 -833,413 84,527 689,90 845,363 -97,195 49,59 -502,156 -458,81 -461,588 -55,650 265,41 441,-153 571,91 -146,263 -639,48 -821,299 -80,172 -47,377 129,471 228,119 389,-10 666,26l5 201c-223,94 -601,73 -807,180 -177,770 611,440 806,567 -24,314 -389,163 -809,330 -51,239 -24,440 201,524 327,124 439,-170 611,146 -287,120 -919,17 -839,476 106,596 794,-39 833,417l-73 43c-63,21 -6,14 -121,33 -202,34 -455,66 -616,155 -177,855 654,320 809,604 -1264,26 -823,643 -533,695 239,42 291,-107 534,8 91,298 -376,205 -588,266 -243,67 -128,7 -212,153 -107,196 35,416 223,466 306,82 498,-170 608,115 -119,117 -198,80 -426,107 -175,18 -306,70 -414,126 -41,207 -60,398 171,507 298,141 394,-132 644,61 -41,293 -444,158 -806,333 -58,224 -19,403 165,502 274,149 379,-92 649,61 -105,184 -218,97 -475,140 -539,92 -450,597 -81,657 286,47 454,-168 566,102 -100,154 -204,113 -434,143 -548,70 -539,517 -215,635 202,73 284,-16 475,5 369,42 -295,-91 90,21l83 41c-76,205 -152,146 -405,173 -163,18 -310,60 -418,121 -210,758 596,429 794,554 -2,239 73,113 -106,187 -131,52 -375,27 -514,82 -280,108 -271,464 -28,585 236,120 370,-55 620,23 66,142 57,63 24,257 -355,0 -540,31 -799,143 -171,812 559,407 809,564 -10,346 -432,142 -800,345 -64,226 -26,434 191,518 251,97 495,-131 630,136l-70 38c-242,90 -635,-4 -760,264 -74,192 17,376 177,434 325,116 451,-135 663,66 -25,291 -507,150 -837,324 -49,225 -15,440 202,523 263,100 490,-167 614,94 -145,237 -699,53 -831,322 -45,254 47,410 241,464 184,50 605,-139 593,111 -10,187 -277,118 -461,146 -517,80 -487,561 -140,649 325,84 469,-188 613,103 -115,137 -231,95 -449,122 -472,56 -574,486 -187,640 292,115 353,-119 608,34 -14,409 -651,60 -816,437 -52,202 30,392 236,446 218,59 349,-59 652,2l14 386c-1677,90 -1845,22 -3604,-52 -1842,-81 -3654,-11 -5349,-79 -340,-12 -694,-68 -1045,-68l-2292 0c-1465,0 -2951,158 -4434,174 -723,8 -1282,52 -1700,-593 -547,-843 139,-8568 155,-9272 54,-2356 -144,-4719 -162,-7077 -12,-1601 -169,-6194 71,-7458 104,-550 108,-630 624,-735 1814,-369 1790,-77 3603,-126 764,-21 1526,-101 2292,-87 1996,39 4822,264 6815,123 630,-45 1271,-123 1904,-123l2491 50c358,2 558,-80 541,280z"/>
   <path class="fil1" d="M20287 26250c92,-344 -1396,-504 -1602,-247 268,168 458,14 845,95l724 166c5,-14 24,-8 33,-14zm20 -862c-10,-196 -55,-205 -246,-271 -403,-137 -1002,-231 -1373,-69 153,253 427,71 809,140 272,48 567,212 810,200zm-8 -922c16,-178 -48,-171 -249,-231 -327,-101 -1133,-280 -1352,-26 163,224 382,-52 1247,232 385,125 316,42 354,25zm0 -898c22,-184 -43,-175 -245,-238 -323,-98 -1164,-288 -1361,-14 172,188 500,18 874,104l577 173c11,0 28,0 39,0l116 -25zm-1573 -1106c154,99 665,38 943,110 186,48 680,303 630,57 -48,-240 -955,-332 -1221,-323 -32,2 -212,19 -229,26 -144,54 -84,14 -123,130zm1578 -656c-21,-405 -1504,-542 -1597,-265 152,146 200,79 423,67 645,-33 819,273 1174,198zm-15 -891c56,-196 -52,-187 -261,-248 -335,-92 -1125,-275 -1337,2 250,180 453,0 848,90 195,43 494,184 685,177l65 -21zm-6 -899c136,-393 -1352,-445 -1592,-296 178,259 404,46 814,129l618 182c91,19 46,7 101,5l59 -20zm9 -941c53,-250 -455,-296 -717,-343 -278,-50 -696,-111 -891,101 285,166 450,5 849,92 330,68 572,240 759,150zm-3 -903c64,-226 -288,-268 -663,-341 -312,-59 -692,-69 -941,45 195,293 371,-47 1237,258 483,167 302,74 367,38zm8 -882c27,-229 -335,-281 -687,-337 -275,-47 -747,-115 -912,83 151,192 488,28 865,113 338,78 560,236 734,141zm-5 -899c68,-319 -944,-388 -1214,-383 -407,7 -358,83 -406,146 346,164 433,-9 854,84 122,27 266,73 386,114 135,43 255,101 380,39zm-1599 -1063c249,159 537,-10 947,101 160,44 706,344 663,73 -34,-206 -563,-250 -754,-281 -264,-43 -743,-102 -856,107zm-2 -948c160,198 151,125 439,107 693,-44 1146,417 1173,147 28,-285 -1298,-451 -1612,-254zm1596 -591c111,-371 -1272,-399 -1606,-304 160,285 401,69 814,146l792 158zm-1599 -1204c178,282 307,83 687,122 258,27 474,134 705,196 342,91 339,-154 -47,-263 -387,-108 -960,-222 -1345,-55zm7 -734c291,272 543,-64 897,85 124,52 620,367 702,186 128,-284 -1258,-510 -1599,-271zm12 -873c165,142 621,41 892,107 188,47 684,283 704,108 35,-293 -1479,-525 -1596,-215zm1585 -620c43,-194 -2,-186 -218,-247 -376,-111 -1073,-253 -1381,-51 196,256 391,42 811,124 316,61 605,236 788,174zm-1610 -1149c282,129 577,3 943,102 153,43 734,307 675,66 -56,-231 -935,-334 -1271,-314 -480,32 -324,97 -347,146zm17 -945c198,212 487,38 896,136 197,48 688,285 705,103 30,-301 -1344,-444 -1601,-239zm1602 -621c5,-197 -49,-176 -259,-242 -346,-108 -603,-162 -964,-146 -442,19 -368,95 -400,127 236,189 468,8 879,104 239,55 510,217 744,157zm-18 -881c69,-178 -55,-192 -251,-248 -292,-83 -643,-155 -952,-142 -207,10 -316,13 -392,140 265,149 532,17 896,106 274,67 555,219 699,144zm34 -1005c-159,-195 -1428,-469 -1624,-143 249,134 569,17 937,108 405,101 659,319 687,35zm-20 -758c20,-218 -69,-210 -275,-270 -344,-103 -1097,-251 -1327,-7 217,198 444,17 838,102 254,57 511,222 764,175zm-3 -902c52,-461 -1331,-462 -1601,-312 96,164 121,142 354,118 704,-70 896,264 1247,194zm7 -888c-1,-278 -404,-297 -696,-352 -232,-42 -806,-141 -898,100 184,157 589,36 856,95 240,51 494,226 738,157zm-4 -915c21,-186 -42,-166 -247,-232 -352,-111 -1094,-292 -1352,-27 189,235 276,-17 868,113 129,29 259,71 386,113 394,135 302,55 345,33zm-1764 5820c183,-252 676,-37 822,-300 -131,-244 -306,-50 -572,-91 -406,-62 -403,-569 55,-650 552,-97 406,39 503,-156 -156,-272 -761,164 -846,-362 -68,-439 528,-361 833,-413l3 -170c-260,-194 -343,91 -633,-65 -186,-98 -225,-271 -172,-503 132,-67 210,-99 410,-122 50,-5 249,-21 280,-29 123,-44 83,-3 139,-129 -202,-213 -803,171 -862,-360 -44,-388 501,-383 839,-386 14,-454 -213,-156 -537,-214 -239,-43 -628,-547 109,-657 145,-21 292,-22 416,-77 12,-354 -217,-93 -534,-143 -218,-33 -351,-218 -270,-455 245,-343 587,-113 849,-305 -37,-336 -232,-117 -530,-142 -345,-27 -775,-643 488,-705 16,-360 -183,-278 -541,-280l-2492 -50c-633,0 -1273,79 -1904,123 -1993,141 -4818,-84 -6814,-123 -767,-14 -1528,66 -2292,87 -1813,49 -1789,-243 -3604,126 -515,106 -519,186 -623,735 -241,1264 -83,5858 -72,7459 18,2358 216,4720 163,7076 -17,704 -702,8430 -156,9272 419,645 978,601 1701,593 1483,-15 2969,-174 4433,-174l2292 0c352,0 705,56 1045,69 1695,67 3507,-3 5350,78 1758,75 1927,142 3603,52l-14 -386c-303,-60 -434,58 -651,-1 -207,-55 -288,-245 -236,-447 164,-376 802,-28 816,-437 -256,-153 -316,82 -608,-33 -388,-155 -285,-585 186,-641 218,-26 335,16 450,-122 -145,-291 -288,-18 -614,-103 -347,-88 -376,-568 141,-648 184,-28 450,40 460,-146 13,-250 -408,-62 -592,-111 -194,-55 -287,-211 -242,-465 132,-268 687,-84 831,-322 -123,-261 -351,6 -613,-94 -218,-83 -252,-298 -203,-522 330,-175 812,-34 837,-325 -212,-201 -338,51 -662,-66 -160,-57 -252,-241 -177,-434 125,-268 518,-174 759,-264l71 -38c-135,-267 -380,-39 -631,-136 -216,-84 -254,-292 -191,-518 368,-202 791,1 801,-344 -250,-158 -981,247 -809,-565 258,-112 443,-143 799,-143 32,-194 42,-115 -24,-257 -250,-77 -385,97 -621,-23 -243,-120 -251,-477 28,-585 139,-55 384,-30 514,-82 180,-74 104,52 107,-186 -198,-125 -1004,203 -795,-555 108,-61 256,-103 419,-121 252,-27 328,32 404,-173l-83 -40c-385,-113 280,21 -90,-21 -191,-22 -272,67 -474,-6 -325,-118 -333,-565 215,-635 230,-29 334,11 433,-143 -112,-270 -279,-55 -566,-101 -369,-61 -457,-566 82,-657 257,-44 369,43 475,-141 -270,-153 -375,89 -649,-60 -184,-100 -224,-278 -166,-503 362,-174 765,-39 806,-333 -250,-192 -345,80 -643,-60 -232,-110 -212,-301 -171,-507 108,-56 238,-108 414,-127 227,-26 306,10 425,-106 -109,-286 -301,-34 -608,-116 -188,-50 -330,-269 -223,-466 84,-146 -31,-86 212,-153 212,-60 680,32 589,-265 -243,-116 -295,33 -534,-9 -291,-52 -732,-668 532,-695 -154,-284 -986,251 -809,-604 162,-88 415,-121 617,-154 115,-20 57,-13 121,-34l73 -42c-40,-457 -728,178 -833,-417 -80,-460 552,-357 838,-476 -171,-316 -283,-23 -611,-146 -224,-85 -251,-286 -201,-524 420,-167 786,-17 809,-330 -195,-128 -983,202 -806,-568 207,-106 585,-85 808,-179l-6 -201c-276,-37 -438,92 -666,-27 -175,-94 -209,-299 -129,-470zm1170 -5656c-59,274 260,229 534,362 288,138 378,270 232,603 -259,107 -507,-44 -809,-55 129,268 281,176 564,313 451,218 427,774 -98,648 -149,-37 -325,-121 -465,-52 104,285 1225,351 796,872 -224,272 -509,-98 -783,25 91,235 342,167 608,295 121,59 185,90 229,223 223,670 -548,332 -731,347 -99,10 -52,0 -111,33 107,317 798,193 863,603 101,645 -646,184 -853,293 66,181 493,212 840,485 83,771 -434,336 -862,340 36,368 664,214 840,552 108,212 35,465 -218,471 -107,3 -198,-40 -296,-68 -41,-11 -125,-33 -160,-32 -152,4 -68,-18 -158,45 127,299 764,192 857,560 125,489 -302,388 -587,321l-274 16c70,191 27,132 272,197 130,34 215,58 332,114 459,223 361,762 -215,613l-272 -56c-124,9 -30,-14 -104,28 150,340 1091,85 802,898 -125,42 -259,46 -410,11 -22,-7 -186,-52 -200,-53l-199 42c254,399 1075,133 811,903 -296,91 -442,-13 -744,-54 216,131 1184,329 711,814 -162,84 -186,66 -396,12l-276 -57c-109,5 -43,-7 -108,26 104,322 745,221 854,565 193,605 -448,327 -715,312l-69 3c-7,1 -25,7 -32,7 -5,1 -21,5 -31,9 142,316 711,190 840,520 247,636 -532,340 -843,329 62,386 700,195 842,567 260,681 -565,282 -788,379 41,40 14,24 90,63 241,124 684,162 720,489 62,539 -569,246 -861,201 24,306 254,223 545,352 423,191 462,763 -105,656 -142,-26 -296,-76 -427,-105 13,378 694,233 826,558 285,710 -665,301 -837,376 63,206 334,236 538,314 269,103 401,225 286,550 -212,231 -494,19 -829,8 71,319 300,256 603,379 263,108 372,379 170,611 -294,125 -480,-86 -789,-56 75,310 273,194 575,336 478,226 427,786 -182,629 -410,-106 -299,-68 -360,-30 152,429 1070,62 792,899 -203,68 -405,-22 -618,-42 -262,-22 -94,-28 -193,39 279,417 1035,125 817,909 -213,65 -396,-24 -628,-46 -302,-27 -80,-27 -177,35 132,278 763,147 847,554 125,595 -541,297 -854,248 44,535 1103,134 804,990 -263,84 -514,-17 -790,-85 5,357 691,250 822,558 296,708 -660,303 -836,375 62,205 333,236 538,315 274,105 388,210 289,557 -297,208 -384,28 -765,16 -100,861 -536,549 -1476,634 -527,50 -1390,-53 -1968,-73l-4732 -80c-448,0 -773,59 -1248,24 -974,-73 -1961,-81 -2938,-60 -1272,25 -4093,250 -5131,199 -856,-3 -909,-215 -1318,-613 -334,-326 -514,-808 -514,-1418l0 -1793c57,-1990 403,-5125 336,-6925l-181 -8321c-21,-1771 20,-3559 97,-5333 27,-583 227,-1108 576,-1303 741,-416 2070,-230 2897,-209 1382,35 2760,-179 4134,-142 760,0 1547,17 2291,38 1081,28 2159,156 3240,109 699,-29 1393,-161 2093,-160 567,0 1192,40 1744,63 392,14 1414,7 1732,79 338,75 150,327 352,539 135,144 451,151 628,269 191,126 302,477 46,585 -145,63 -512,-73 -691,-91z"/>
   <path class="fil2" d="M6575 26375c-1153,0 -3171,69 -4070,-355 265,2 518,88 788,122l2633 83c542,0 2847,-127 3167,39 -214,160 -2008,111 -2518,111z"/>
   <path class="fil2" d="M16838 26473c-515,0 -2949,30 -3233,-123 306,-203 3183,-35 3507,74l-274 49z"/>
   <path class="fil3" d="M20301 3209c-244,69 -498,-106 -738,-157 -267,-59 -672,62 -856,-95 92,-241 666,-142 898,-100 292,55 695,74 696,352z"/>
   <path class="fil3" d="M20299 24466c-38,17 31,100 -354,-25 -865,-284 -1084,-8 -1247,-232 219,-254 1025,-75 1352,26 201,60 265,53 249,231z"/>
   <path class="fil3" d="M18707 10978c117,-310 1631,-78 1596,215 -20,175 -516,-61 -704,-108 -271,-66 -727,35 -892,-107z"/>
   <path class="fil3" d="M20294 4097c-351,70 -543,-264 -1247,-194 -233,24 -258,46 -354,-118 270,-150 1653,-149 1601,312z"/>
   <path class="fil3" d="M20297 17290c-174,95 -396,-63 -734,-141 -377,-85 -714,79 -865,-113 165,-198 637,-130 912,-83 352,56 714,108 687,337z"/>
   <path class="fil3" d="M20289 18172c-65,36 116,129 -367,-38 -866,-305 -1042,35 -1237,-258 249,-114 629,-104 941,-45 375,73 727,115 663,341z"/>
   <path class="fil3" d="M18682 9209c23,-49 -133,-114 347,-146 336,-20 1215,83 1271,314 59,241 -522,-23 -675,-66 -366,-99 -661,27 -943,-102z"/>
   <path class="fil3" d="M18688 12585c385,-167 958,-53 1345,55 386,109 389,354 47,263 -231,-62 -447,-169 -705,-196 -380,-39 -509,160 -687,-122z"/>
   <path class="fil3" d="M18726 22462c39,-116 -21,-76 123,-130 17,-7 197,-24 229,-26 266,-9 1173,83 1221,323 50,246 -444,-9 -630,-57 -278,-72 -789,-11 -943,-110z"/>
   <path class="fil3" d="M20297 4999c-253,47 -510,-118 -764,-175 -394,-85 -621,96 -838,-102 230,-244 983,-96 1327,7 206,60 295,52 275,270z"/>
   <path class="fil3" d="M20299 23568l-116 25c-11,0 -28,0 -39,0l-577 -173c-374,-86 -702,84 -874,-104 197,-274 1038,-84 1361,14 202,63 267,54 245,238z"/>
   <path class="fil3" d="M20317 5757c-28,284 -282,66 -687,-35 -368,-91 -688,26 -937,-108 196,-326 1465,-52 1624,143z"/>
   <path class="fil3" d="M20292 16391c-125,62 -245,4 -380,-39 -120,-41 -264,-87 -386,-114 -421,-93 -508,80 -854,-84 48,-63 -1,-139 406,-146 270,-5 1282,64 1214,383z"/>
   <path class="fil3" d="M18693 15328c113,-209 592,-150 856,-107 191,31 720,75 754,281 43,271 -503,-29 -663,-73 -410,-111 -698,58 -947,-101z"/>
   <path class="fil3" d="M20292 10358c-183,62 -472,-113 -788,-174 -420,-82 -615,132 -811,-124 308,-202 1005,-60 1381,51 216,61 261,53 218,247z"/>
   <path class="fil3" d="M20304 21806c-355,75 -529,-231 -1174,-198 -223,12 -271,79 -423,-67 93,-277 1576,-140 1597,265z"/>
   <path class="fil3" d="M20301 7643c-234,60 -505,-102 -744,-157 -411,-96 -643,85 -879,-104 32,-32 -42,-108 400,-127 361,-16 618,38 964,146 210,66 264,45 259,242z"/>
   <path class="fil3" d="M20297 2294c-43,22 49,102 -345,-33 -127,-42 -257,-84 -386,-113 -592,-130 -679,122 -868,-113 258,-265 1000,-84 1352,27 205,66 268,46 247,232z"/>
   <path class="fil3" d="M20283 6762c-144,75 -425,-77 -699,-144 -364,-89 -631,43 -896,-106 76,-127 185,-130 392,-140 309,-13 660,59 952,142 196,56 320,70 251,248z"/>
   <path class="fil3" d="M20307 25388c-243,12 -538,-152 -810,-200 -382,-69 -656,113 -809,-140 371,-162 970,-68 1373,69 191,66 236,75 246,271z"/>
   <path class="fil3" d="M20292 19075c-187,90 -429,-82 -759,-150 -399,-87 -564,74 -849,-92 195,-212 613,-151 891,-101 262,47 770,93 717,343z"/>
   <path class="fil3" d="M20289 20915l-65 21c-191,7 -490,-134 -685,-177 -395,-90 -598,90 -848,-90 212,-277 1002,-94 1337,-2 209,61 317,52 261,248z"/>
   <path class="fil3" d="M18691 14380c314,-197 1640,-31 1612,254 -27,270 -480,-191 -1173,-147 -288,18 -279,91 -439,-107z"/>
   <path class="fil3" d="M20283 20016l-59 20c-55,2 -10,14 -101,-5l-618 -182c-410,-83 -636,130 -814,-129 240,-149 1728,-97 1592,296z"/>
   <path class="fil3" d="M18699 8264c257,-205 1631,-62 1601,239 -17,182 -508,-55 -705,-103 -409,-98 -698,76 -896,-136z"/>
   <path class="fil3" d="M20287 26250c-9,6 -28,0 -33,14l-724 -166c-387,-81 -577,73 -845,-95 206,-257 1694,-97 1602,247z"/>
   <path class="fil3" d="M18695 11851c341,-239 1727,-13 1599,271 -82,181 -578,-134 -702,-186 -354,-149 -606,187 -897,-85z"/>
   <path class="fil3" d="M20287 13789l-792 -158c-413,-77 -654,139 -814,-146 334,-95 1717,-67 1606,304z"/>
   <path class="fil2" d="M17608 17251c-146,-114 -219,-260 -327,-412 -111,-157 -182,-236 -259,-399 337,118 538,357 586,811z"/>
   <path class="fil2" d="M17990 10695c-207,-106 -563,-510 -659,-819 239,135 586,486 659,819z"/>
   <path class="fil4" d="M17927 3176c-184,-90 -218,-182 -360,-325 -157,-158 -223,-180 -320,-408 306,105 583,398 680,733z"/>
   <path class="fil5" d="M17973 9994c-126,-118 -226,-305 -332,-442 -133,-173 -182,-248 -296,-427 226,84 632,518 628,869z"/>
   <path class="fil4" d="M18012 11387c-174,-93 -539,-424 -571,-715 229,152 458,367 571,715z"/>
   <path class="fil1" d="M17715 20214c137,76 67,-4 175,153 115,168 159,390 83,590 -4,11 -23,43 -27,36 -3,-7 -18,23 -22,34l-209 -813z"/>
   <path class="fil4" d="M17911 12021c-178,-95 -407,-460 -425,-661 172,85 373,368 425,661z"/>
   <path class="fil4" d="M17776 2517c-136,-104 -406,-379 -456,-579 184,62 532,408 456,579z"/>
   <path class="fil6" d="M14819 25525c-19,-33 -175,-209 -221,-275 -97,-140 -98,-153 -137,-334 206,94 376,338 358,609z"/>
   <path class="fil5" d="M18022 3813c-132,-53 -188,-130 -298,-223 -325,-275 -213,-124 -248,-308l465 344c133,145 73,24 81,187z"/>
   <path class="fil6" d="M17581 18708c-102,-77 -314,-466 -320,-606 154,40 348,400 320,606z"/>
   <path class="fil5" d="M17411 17602c-95,-153 -93,-87 -129,-270 122,42 150,59 222,180 55,94 79,196 93,334l-186 -244z"/>
   <path class="fil7" d="M14187 25598c-212,-109 -301,-233 -337,-487 163,155 248,204 337,487z"/>
   <path class="fil6" d="M18023 4515c-124,-4 -80,114 -269,-320 49,-3 118,-157 269,320z"/>
  </g>
 </g>
</svg>
