<?xml version="1.0" encoding="UTF-8"?>
<!DOCTYPE svg PUBLIC "-//W3C//DTD SVG 1.1//EN" "http://www.w3.org/Graphics/SVG/1.1/DTD/svg11.dtd">
<!-- Creator: CorelDRAW X7 -->
<svg xmlns="http://www.w3.org/2000/svg" xml:space="preserve" width="210mm" height="297mm" version="1.1" style="shape-rendering:geometricPrecision; text-rendering:geometricPrecision; image-rendering:optimizeQuality; fill-rule:evenodd; clip-rule:evenodd"
viewBox="0 0 21000 29700"
 xmlns:xlink="http://www.w3.org/1999/xlink">
 <defs>
  <style type="text/css">
   <![CDATA[
    .str0 {stroke:#343434;stroke-width:200}
    .fil1 {fill:#343434}
    .fil2 {fill:#353535}
    .fil4 {fill:#86EEE5}
    .fil3 {fill:#F1F1F1}
    .fil0 {fill:white}
   ]]>
  </style>
 </defs>
 <g id="Слой_x0020_1">
  <metadata id="CorelCorpID_0Corel-Layer"/>
  <g id="_632621600">
   <path class="fil0" d="M10470 28281c-1107,-15 -2239,-63 -3353,-89 -624,-13 -2822,18 -3200,-242 2212,-42 4326,143 6497,143l7821 86c499,7 861,-88 1177,-92 71,-2 144,3 212,21 160,45 39,-12 130,71 -595,430 -3667,102 -4591,102l-4693 0zm-4606 -26013c159,368 323,615 129,1062 -274,109 -778,85 -1034,-70 -84,-289 38,-656 11,-1007l-922 -4c-39,469 332,348 74,1099 -325,70 -728,28 -1041,-56 -88,-327 60,-628 10,-1045l-865 14c-86,438 353,244 52,1087 -170,30 -364,39 -561,24 -57,-5 -232,-20 -289,-38l-158 -84c-130,-405 33,-641 -18,-1158l-587 -3c-32,1055 -86,2353 -53,3404 75,2280 -175,4351 -16,6798 70,1105 185,2061 210,3206 26,1169 -31,2236 -49,3375 -18,1051 87,2211 123,3295l120 3337c-9,561 -155,989 -179,1532 -13,295 39,504 38,795 -2,266 -44,474 -39,745l528 -117c-39,-21 -102,-43 -138,-64l-107 -72c-6,-18 -24,-16 -35,-27 191,-92 1575,-24 1970,-56 491,-39 1507,-195 1841,118 -1184,7 -1908,141 -2717,141 646,250 2582,101 3395,33 -43,-54 -67,-70 -100,-120 -66,-104 -28,1 -27,-72 702,-211 3757,155 4760,146 800,-8 1560,-109 2402,-104 403,3 814,27 1218,48 206,12 919,-56 1003,200 -907,29 -3079,-155 -3778,51 1411,176 7930,207 9525,116 63,-563 -126,-331 -170,-788 -27,-303 17,-667 3,-989 -69,332 71,492 -144,1633 -786,-107 -1189,120 -1889,83 -321,-18 -1736,-29 -1906,-149 81,-53 1687,-137 1891,-122 438,33 57,135 867,-21 147,-28 298,-58 430,-80l408 -127c173,-1145 151,-3133 98,-4368l-349 1451c-161,-250 338,-2044 364,-2598 66,-1356 56,-6937 156,-7557 198,-1204 -134,-1417 -150,-2750 -8,-507 77,-950 56,-1457 -41,-936 -178,-1858 -237,-2794 -60,-975 -119,-1991 -120,-2962 0,-632 87,-2493 -125,-2976l-1099 27c-31,321 819,1495 -981,1036 -81,-405 137,-694 -29,-1037l-883 9c102,391 808,1478 -949,1023l38 -1035 -738 0c70,376 431,721 61,1102 -249,91 -756,51 -1009,-97l33 -1002 -850 1c-74,411 111,232 155,569 30,228 -21,435 -181,529 -197,94 -772,19 -971,-98 -91,-384 103,-593 -6,-963 -170,-88 -286,-56 -820,-55 23,389 479,649 45,1134 -307,61 -776,3 -987,-145 -92,-298 66,-635 41,-974l-890 21c-45,231 810,1525 -986,1010 -75,-454 104,-594 -13,-1032 -1808,-193 -386,468 -876,1032 -264,192 -768,109 -1059,-6 -70,-334 26,-681 24,-1025l-949 18z"/>
   <path class="fil1" d="M14544 2991c-56,-260 -18,-1225 12,-1565 29,-306 -4,-271 215,-297 166,86 121,145 134,402 24,421 112,1194 -19,1469l-342 -9zm-1830 -11c-75,-325 -18,-755 -5,-1097 17,-412 -101,-768 330,-754 16,1337 322,2011 -325,1851zm-5548 14c-77,-294 -24,-704 -11,-1048 32,-761 -45,-815 322,-817 45,297 42,786 60,1115 26,473 171,821 -371,750zm-1843 -3c-64,-236 -48,-1627 62,-1860l241 -5c83,310 66,748 87,1108 26,444 161,843 -390,757zm-3457 -1865c96,135 84,295 92,489 25,613 218,1555 -250,1394 -194,-68 -143,-223 -131,-480l44 -1114c25,-274 -3,-271 245,-289zm16515 1842c-532,172 -384,-468 -366,-850 33,-709 -54,-903 220,-1001 176,93 131,108 147,369 24,373 110,1199 -1,1482zm-7054 -6c-567,201 -421,-216 -403,-727 15,-393 18,-754 80,-1114l251 10c59,266 125,1584 72,1831zm-1919 -1810c70,240 73,796 85,1071 10,241 144,958 -288,766 -245,-108 -125,-739 -111,-1023 33,-709 -38,-846 314,-814zm-5867 -24c337,6 243,46 283,877 14,272 143,840 -95,960 -421,213 -326,-511 -310,-788 15,-253 8,-887 122,-1049zm2323 1140l949 -18c2,344 -94,691 -24,1025 291,115 795,198 1059,6 490,-564 -932,-1225 876,-1032 117,438 -62,578 13,1032 1796,515 941,-779 986,-1010l890 -21c25,339 -133,676 -41,974 211,148 680,206 987,145 434,-485 -22,-745 -45,-1134 534,-1 650,-33 820,55 109,370 -85,579 6,963 199,117 774,192 971,98 160,-94 211,-301 181,-529 -44,-337 -229,-158 -155,-569l850 -1 -33 1002c253,148 760,188 1009,97 370,-381 9,-726 -61,-1102l738 0 -38 1035c1757,455 1051,-632 949,-1023l883 -9c166,343 -52,632 29,1037 1800,459 950,-715 981,-1036l1099 -27c212,483 125,2344 125,2976 1,971 60,1987 120,2962 59,936 196,1858 237,2794 21,507 -64,950 -56,1457 16,1333 348,1546 150,2750 -100,620 -90,6201 -156,7557 -26,554 -525,2348 -364,2598l349 -1451c53,1235 75,3223 -98,4368l-408 127c-132,22 -283,52 -430,80 -810,156 -429,54 -867,21 -204,-15 -1810,69 -1891,122 170,120 1585,131 1906,149 700,37 1103,-190 1889,-83 215,-1141 75,-1301 144,-1633 14,322 -30,686 -3,989 44,457 233,225 170,788 -1595,91 -8114,60 -9525,-116 699,-206 2871,-22 3778,-51 -84,-256 -797,-188 -1003,-200 -404,-21 -815,-45 -1218,-48 -842,-5 -1602,96 -2402,104 -1003,9 -4058,-357 -4760,-146 -1,73 -39,-32 27,72 33,50 57,66 100,120 -813,68 -2749,217 -3395,-33 809,0 1533,-134 2717,-141 -334,-313 -1350,-157 -1841,-118 -395,32 -1779,-36 -1970,56 11,11 29,9 35,27l107 72c36,21 99,43 138,64l-528 117c-5,-271 37,-479 39,-745 1,-291 -51,-500 -38,-795 24,-543 170,-971 179,-1532l-120 -3337c-36,-1084 -141,-2244 -123,-3295 18,-1139 75,-2206 49,-3375 -25,-1145 -140,-2101 -210,-3206 -159,-2447 91,-4518 16,-6798 -33,-1051 21,-2349 53,-3404l587 3c51,517 -112,753 18,1158l158 84c57,18 232,33 289,38 197,15 391,6 561,-24 301,-843 -138,-649 -52,-1087l865 -14c50,417 -98,718 -10,1045 313,84 716,126 1041,56 258,-751 -113,-630 -74,-1099l922 4c27,351 -95,718 -11,1007 256,155 760,179 1034,70 194,-447 30,-694 -129,-1062zm10339 738c-163,-634 46,-810 43,-996 -3,-249 -128,-532 34,-882l227 1c69,265 123,1583 78,1848l-382 29zm-14966 -1279c-416,76 -797,-118 -900,367 -82,379 -67,2598 -64,2992 8,1143 -4,2220 -72,3372 -138,2385 42,4520 44,6865 1,1153 43,2286 42,3433 -2,1140 185,2258 149,3432 -35,1176 114,2231 119,3373 1,611 -154,1018 -142,1629l74 1273c78,652 626,247 1377,358 1612,241 2103,142 3801,62 1014,-48 1528,27 2494,136 921,103 1742,-23 2648,37 1699,116 3370,104 5083,181 1601,72 2941,-81 4524,-14 935,39 527,-192 349,-1630 -73,-600 -90,-1218 -108,-1811 -38,-1225 -4,-2537 32,-3769 64,-2265 24,-3331 -70,-5507 -34,-817 16,-972 122,-1711 86,-593 -88,-1108 -164,-1667 -129,-955 -82,-4374 -126,-5638 -30,-929 -39,-4582 -325,-5357 -155,-418 -1033,-170 -1492,-360l-75 -892c-918,-170 -691,194 -843,888 -17,10 -39,3 -50,25 -10,23 -36,18 -49,23 -6,1 -479,140 -759,-6 -232,-119 -8,-569 -140,-837 -104,-215 -569,-179 -691,6 -95,143 -132,632 -150,844 -280,41 -477,62 -727,-28 -179,-485 269,-1149 -733,-914 -140,304 -167,563 -189,976 -281,0 -633,33 -867,-67l-96 -427c-6,-176 -16,-339 -53,-471 -197,-54 -432,-51 -639,-11 -103,279 -145,586 -191,945l-878 -7c2,-336 12,-676 -77,-930 -1046,-351 -581,861 -900,968 -259,0 -608,52 -764,-107 -249,-261 97,-636 -252,-861 -245,-149 -533,-30 -614,168 -51,122 -45,259 -62,410 -24,225 0,280 -152,390 -265,0 -715,75 -870,-118 -150,-141 -114,-677 -173,-858 -791,-197 -707,256 -811,935l-953 12c0,-304 41,-653 -49,-924 -833,-327 -783,459 -830,924l-992 -5c0,-325 15,-672 -70,-927 -971,-355 -622,696 -895,961 -258,0 -590,40 -778,-85 -177,-165 -15,-429 -164,-883 -972,-300 -641,543 -859,837z"/>
   <path class="fil2" d="M10470 28281l4693 0c924,0 3996,328 4591,-102 -91,-83 30,-26 -130,-71 -68,-18 -141,-23 -212,-21 -316,4 -678,99 -1177,92l-7821 -86c-2171,0 -4285,-185 -6497,-143 378,260 2576,229 3200,242 1114,26 2246,74 3353,89z"/>
   <path class="fil3" d="M5323 2991c551,86 416,-313 390,-757 -21,-360 -4,-798 -87,-1108l-241 5c-110,233 -126,1624 -62,1860z"/>
   <path class="fil3" d="M14544 2991l342 9c131,-275 43,-1048 19,-1469 -13,-257 32,-316 -134,-402 -219,26 -186,-9 -215,297 -30,340 -68,1305 -12,1565z"/>
   <path class="fil3" d="M11327 2962c53,-247 -13,-1565 -72,-1831l-251 -10c-62,360 -65,721 -80,1114 -18,511 -164,928 403,727z"/>
   <path class="fil3" d="M3541 1128c-114,162 -107,796 -122,1049 -16,277 -111,1001 310,788 238,-120 109,-688 95,-960 -40,-831 54,-871 -283,-877z"/>
   <path class="fil3" d="M9408 1152c-352,-32 -281,105 -314,814 -14,284 -134,915 111,1023 432,192 298,-525 288,-766 -12,-275 -15,-831 -85,-1071z"/>
   <path class="fil3" d="M18381 2968c111,-283 25,-1109 1,-1482 -16,-261 29,-276 -147,-369 -274,98 -187,292 -220,1001 -18,382 -166,1022 366,850z"/>
   <path class="fil3" d="M16203 3006l382 -29c45,-265 -9,-1583 -78,-1848l-227 -1c-162,350 -37,633 -34,882 3,186 -206,362 -43,996z"/>
   <path class="fil3" d="M1866 1126c-248,18 -220,15 -245,289l-44 1114c-12,257 -63,412 131,480 468,161 275,-781 250,-1394 -8,-194 4,-354 -92,-489z"/>
   <path class="fil3" d="M12714 2980c647,160 341,-514 325,-1851 -431,-14 -313,342 -330,754 -13,342 -70,772 5,1097z"/>
   <path class="fil3" d="M7166 2994c542,71 397,-277 371,-750 -18,-329 -15,-818 -60,-1115 -367,2 -290,56 -322,817 -13,344 -66,754 11,1048z"/>
  </g>
  <path class="fil4 str0" d="M4247 4788l12130 0c432,0 783,351 783,783l0 3409c0,432 -351,783 -783,783l-12130 0c-432,0 -783,-351 -783,-783l0 -3409c0,-432 351,-783 783,-783z"/>
 </g>
</svg>
