<?xml version="1.0" encoding="UTF-8"?>
<!DOCTYPE svg PUBLIC "-//W3C//DTD SVG 1.1//EN" "http://www.w3.org/Graphics/SVG/1.1/DTD/svg11.dtd">
<!-- Creator: CorelDRAW X7 -->
<svg xmlns="http://www.w3.org/2000/svg" xml:space="preserve" width="297mm" height="210mm" version="1.1" style="shape-rendering:geometricPrecision; text-rendering:geometricPrecision; image-rendering:optimizeQuality; fill-rule:evenodd; clip-rule:evenodd"
viewBox="0 0 29700 21000"
 xmlns:xlink="http://www.w3.org/1999/xlink">
 <defs>
  <style type="text/css">
   <![CDATA[
    .str0 {stroke:#343434;stroke-width:200}
    .fil1 {fill:#343434}
    .fil2 {fill:#353535}
    .fil4 {fill:#363636}
    .fil5 {fill:#393939}
    .fil6 {fill:#3B3B3B}
    .fil7 {fill:#3F3F3F}
    .fil8 {fill:#86EEE5}
    .fil3 {fill:#F0F0F0}
    .fil0 {fill:white}
   ]]>
  </style>
 </defs>
 <g id="Слой_x0020_1">
  <metadata id="CorelCorpID_0Corel-Layer"/>
  <g id="_630674200">
   <path class="fil0" d="M19211 19450l195 -35c-231,-78 -2278,-197 -2496,-53 202,109 1935,88 2301,88zm-7307 -70c363,0 1641,35 1793,-79 -228,-118 -1870,-28 -2255,-28l-1875 -59c-193,-24 -372,-85 -561,-87 640,302 2076,253 2898,253zm5420 -553c-63,-202 -124,-237 -241,-347 27,181 90,269 241,347zm449 -52c14,-193 -107,-367 -254,-434 27,129 28,138 98,238 33,47 144,172 156,196zm2212 -3203c3,-8 14,-29 16,-24 3,5 16,-18 19,-26 54,-142 23,-300 -60,-420 -76,-112 -26,-55 -125,-109l150 579zm-244 -1651c19,-147 -118,-403 -228,-432 4,100 154,377 228,432zm11 -614c-10,-98 -27,-171 -66,-238 -52,-86 -71,-98 -158,-128 26,130 24,83 92,192l132 174zm8 -424c-34,-323 -177,-493 -418,-577 56,116 106,172 185,284 76,108 129,212 233,293zm216 -3724c-37,-208 -181,-410 -304,-470 14,143 177,403 304,470zm72 -451c-82,-248 -244,-401 -407,-509 22,207 283,443 407,509zm-16 -493c-52,-237 -300,-487 -469,-583 67,220 322,508 469,583zm-12 -499c2,-250 -287,-559 -448,-619 82,128 117,181 212,304 74,98 145,231 236,315zm-6205 -1175l111 242c59,-81 48,106 49,-122 0,-62 -27,-98 -51,-139 -39,-67 -78,-112 -123,-198 -291,176 -146,-50 -403,57 -28,129 -1,222 26,326 29,-38 24,2 55,-103 11,-36 15,-92 21,-130 171,47 109,83 315,67zm-1022 -182c-525,-194 -454,330 -2,420 -70,-215 -172,-111 -232,-331l234 -89zm374 -115c-72,-30 -115,-29 -186,2 -62,270 50,352 304,351l-55 -200c-108,22 -8,114 -153,-11 42,-120 -4,-25 90,-142zm-993 -103l-212 -86c-20,157 -21,394 119,463 57,-80 46,-23 -8,-248 5,-7 13,-28 16,-22l85 -107zm-497 103c-82,74 -108,88 -117,235 68,72 58,64 168,120 -18,-157 -33,-151 29,-262l42 -67c-84,-150 -191,-188 -390,-208 73,117 138,110 268,182zm5798 637c-59,-124 -166,-186 -205,-336 -58,-229 47,-272 67,-453 31,-298 -306,-580 -520,-625 62,140 132,185 262,312 112,109 188,143 134,372 -77,325 -102,700 262,730zm-1098 -469c-114,51 -65,6 -146,22 -24,5 -77,-14 -163,65 306,99 264,65 494,-58 38,160 -1,211 127,280 95,-128 -70,-545 -133,-846 -34,-164 -27,-202 -111,-245 -41,129 -18,264 -16,421 -76,-170 -329,-630 -496,-716 84,306 475,815 444,1077zm-2626 -390c204,194 437,-31 362,-369 -56,-256 -231,-468 -405,-547 72,163 190,306 260,483 31,79 79,204 25,286 -39,58 -61,51 -109,73l-133 74zm1851 -195c-170,-70 -247,-179 -385,-217 20,282 624,300 364,647l-321 -79c90,139 148,238 388,181 201,-184 84,-467 22,-763l93 -46c6,-3 18,-10 23,-12 6,-3 18,-8 24,-13 -234,-179 -478,-358 -816,-378 269,267 534,113 608,680zm-2594 -26l-9 -345c138,20 152,18 253,105l84 76 -68 -514c-74,-200 -24,-86 -114,-148l46 395c-402,-73 -217,-311 -409,-593 -97,167 -3,358 28,543 31,187 38,413 189,481zm1565 186c152,-124 91,-340 69,-603l178 -76c-157,-80 -247,-211 -490,-230 183,279 199,15 243,909zm4094 -1216c-42,246 -122,477 -23,610 106,-133 121,-479 110,-680 -104,-40 -361,-154 -485,-98l398 168zm-6555 392l-380 -149c89,241 219,180 418,299l24 261 -223 50c297,307 382,-154 297,-443 -86,-295 -116,-594 -468,-596 164,106 309,298 332,578zm-1007 79c0,251 191,650 534,587 -82,-57 -268,-245 -322,-355 -151,-310 160,-925 -232,-944 -166,-9 -109,21 -140,46 460,166 161,302 160,666zm-686 -1589c-124,103 -73,445 -104,640 -47,281 -66,345 -86,652 -108,-89 -89,-147 -217,-215l969 1818c163,-206 -472,-1083 -592,-1281 -352,-584 291,-665 30,-1614zm9008 2086c-845,567 -634,228 -1039,-703 -118,-272 -293,-736 -454,-964 -32,51 -39,56 15,193 28,73 63,159 92,232 118,299 462,1092 494,1315 58,407 -90,661 -198,1003 -115,368 -140,658 -227,1017 -261,-9 -686,-126 -956,-179 -329,-66 -670,-125 -1001,-169 -701,-93 -1278,-250 -1946,-357 -702,-112 -1346,-168 -2054,-255 -340,-43 -676,-125 -1007,-165 -268,-32 -267,48 -484,75 -156,20 -403,19 -572,21 -139,-426 -95,-185 -22,-627 31,-192 68,-587 42,-772 -94,288 -104,622 -207,889l-726 -1434c215,-122 533,-256 819,-265 -90,-310 -967,221 -967,222 18,228 582,1212 746,1596 76,179 138,377 224,557 113,-44 894,-140 1011,-125 148,18 356,175 964,233 371,36 745,37 1108,63l2060 330c332,65 621,180 932,269 316,91 1852,253 2180,229 78,-154 182,-510 196,-681 34,-414 -37,-288 124,-697 136,-345 67,-339 393,-494 764,-363 744,-35 221,-1328 -69,-169 -324,-935 -433,-908 -37,67 625,1563 672,1879zm-1482 -1745c113,-38 295,-147 399,-238l-200 1c-84,94 -143,132 -199,237zm83 633c-177,-137 -1525,-232 -1873,-300 -798,-156 -5149,-869 -5671,-762 69,126 675,163 915,198l5743 780c252,35 699,195 886,84zm2027 -812c-107,-340 -157,-230 -192,-228 136,309 103,225 192,228zm-11894 575l-11 1564c280,-482 66,-3043 44,-3522 -102,53 -84,4 -95,180 -5,62 7,186 11,253l51 1525zm11893 -1075c-5,-116 37,-30 -58,-133l-331 -245c26,131 -54,23 178,219 78,66 117,121 211,159zm-67 -454c-69,-238 -266,-447 -485,-522 69,163 117,178 228,291 101,102 126,167 257,231zm-107 -469c54,-122 -194,-368 -325,-412 36,142 228,338 325,412zm1101 -596c-899,44 -594,483 -347,502 211,18 351,-138 376,101 -185,137 -430,-27 -603,217 -59,169 37,301 192,324 226,36 389,-150 379,102 -87,39 -192,40 -296,55 -525,78 -247,437 -77,468 231,41 393,-171 383,152 -242,2 -630,-1 -599,275 43,378 471,105 614,256 -39,90 -10,61 -99,92 -21,6 -164,17 -198,21 -143,16 -198,39 -293,87 -37,165 -9,288 123,358 206,111 266,-92 451,46l-2 121c-217,37 -642,-18 -593,294 59,375 491,64 602,258 -69,139 35,42 -358,111 -326,58 -328,419 -39,463 189,29 313,-109 406,65 -103,187 -455,34 -585,213 -56,122 -33,268 93,335 162,85 277,-7 474,19l4 143c-159,67 -428,52 -576,128 -126,548 436,313 575,404 -18,223 -278,116 -576,235 -36,170 -17,313 143,373 233,88 313,-121 435,104 -204,85 -654,12 -597,339 75,424 565,-28 593,297l-52 30c-45,15 -4,10 -87,24 -143,24 -323,47 -438,110 -126,609 465,228 576,430 -900,19 -586,458 -379,495 169,30 206,-76 380,6 65,212 -269,146 -419,189 -173,48 -91,5 -152,109 -75,140 26,296 160,332 218,58 355,-121 432,82 -84,83 -140,57 -302,76 -126,13 -219,50 -295,90 -29,147 -43,283 122,361 211,100 279,-94 458,43 -29,209 -316,113 -575,237 -40,160 -12,287 119,358 195,106 270,-66 462,43 -75,131 -156,69 -338,100 -384,65 -321,425 -58,468 204,33 323,-120 402,72 -70,110 -144,81 -308,102 -390,50 -384,368 -153,452 144,52 201,-11 337,4 264,30 -209,-65 64,15l59 29c-53,146 -107,104 -288,123 -115,13 -220,43 -298,86 -148,540 425,306 567,395 -2,170 52,80 -77,133 -93,37 -266,19 -365,58 -199,77 -193,331 -21,417 169,85 265,-39 443,16 46,101 39,45 17,183 -253,0 -385,22 -569,102 -123,578 397,290 576,402 -8,246 -309,101 -571,245 -44,161 -17,309 136,369 180,69 353,-93 450,97l-50 27c-173,64 -452,-3 -541,188 -54,137 11,268 126,309 231,83 321,-96 471,47 -17,207 -361,107 -595,231 -35,160 -11,313 144,372 186,71 348,-119 437,67 -103,169 -498,38 -592,229 -32,181 34,292 172,331 131,35 430,-99 422,79 -7,133 -197,84 -328,104 -368,57 -348,399 -100,462 232,60 334,-134 436,73 -81,98 -165,68 -320,87 -335,40 -408,346 -133,456 209,82 252,-85 434,24 -11,291 -465,43 -581,311 -37,144 21,279 168,318 155,42 248,-42 463,1l11 275c-1194,64 -1315,16 -2566,-37 -1312,-58 -2603,-8 -3810,-56 -241,-9 -494,-49 -743,-49l-1632 0c-1043,0 -2102,113 -3157,124 -515,6 -913,37 -1211,-422 -389,-600 99,-6101 110,-6602 38,-1678 -102,-3360 -115,-5039 -9,-1140 -120,-4411 50,-5311 75,-391 78,-448 445,-523 1291,-263 1275,-55 2565,-90 545,-15 1087,-72 1632,-62 1422,28 3434,188 4853,88 449,-32 905,-88 1355,-88l1775 36c255,1 397,-57 385,199z"/>
   <path class="fil1" d="M21668 19291c65,-245 -994,-359 -1141,-176 191,120 326,10 602,68l515 118c4,-10 16,-6 24,-10zm14 -614c-7,-139 -39,-146 -175,-193 -287,-97 -714,-164 -978,-49 109,180 304,51 575,100 194,34 405,151 578,142zm-6 -656c11,-127 -34,-122 -178,-165 -233,-72 -806,-199 -962,-18 115,159 271,-37 888,165 273,89 225,30 252,18zm0 -640c15,-131 -30,-124 -174,-169 -231,-70 -829,-205 -969,-10 122,134 356,13 622,74l410 123c9,0 21,0 28,0l83 -18zm-1120 -787c110,70 474,27 672,78 132,34 484,216 448,41 -34,-171 -680,-237 -870,-230 -22,1 -150,13 -163,18 -102,39 -60,10 -87,93zm1124 -467c-15,-289 -1071,-386 -1137,-189 107,104 142,56 300,48 459,-24 583,194 837,141zm-11 -635c40,-139 -37,-133 -186,-176 -238,-66 -802,-196 -952,1 177,128 323,0 603,64 140,31 353,131 488,126l47 -15zm-5 -640c97,-280 -962,-317 -1133,-211 127,185 288,33 580,92l440 130c65,13 33,5 71,3l42 -14zm7 -670c38,-178 -324,-211 -510,-244 -198,-36 -496,-79 -635,72 203,118 320,3 605,65 234,49 407,171 540,107zm-2 -643c46,-161 -206,-191 -472,-243 -223,-42 -493,-49 -670,32 139,209 264,-33 881,184 344,119 214,53 261,27zm6 -628c18,-163 -239,-200 -489,-240 -196,-33 -532,-82 -650,59 107,137 348,20 616,81 241,55 399,168 523,100zm-4 -640c49,-227 -672,-276 -865,-273 -290,5 -255,59 -289,104 247,117 309,-6 609,60 87,19 189,52 274,81 96,31 182,72 271,28zm-1138 -757c176,113 382,-7 673,72 115,31 504,245 473,52 -24,-147 -401,-178 -538,-200 -187,-31 -529,-73 -608,76zm-2 -675c113,141 108,89 312,76 493,-31 816,297 836,105 20,-203 -924,-321 -1148,-181zm1137 -421c79,-264 -906,-284 -1144,-216 114,203 285,49 579,104l565 112zm-1139 -857c127,201 218,59 489,87 183,19 338,95 502,139 244,65 241,-109 -33,-187 -276,-77 -684,-158 -958,-39zm5 -523c206,194 387,-45 638,61 89,37 442,261 501,132 91,-202 -897,-363 -1139,-193zm9 -621c117,101 442,29 635,76 134,33 486,201 501,77 25,-209 -1053,-374 -1136,-153zm1128 -442c31,-138 -1,-132 -155,-176 -268,-79 -764,-180 -983,-36 139,182 277,30 576,88 225,44 432,168 562,124zm-1146 -818c201,92 411,2 671,73 108,30 523,218 481,47 -40,-165 -667,-238 -905,-224 -342,23 -231,69 -247,104zm12 -673c140,151 347,27 637,97 141,34 490,203 503,73 21,-214 -957,-316 -1140,-170zm1141 -442c3,-140 -35,-125 -186,-172 -245,-77 -428,-116 -686,-104 -314,13 -262,67 -284,90 168,135 333,6 626,74 170,39 363,155 530,112zm-14 -627c50,-127 -39,-137 -178,-177 -208,-59 -458,-110 -679,-101 -146,7 -225,9 -278,100 189,106 378,12 637,75 195,48 395,156 498,103zm24 -716c-112,-139 -1016,-334 -1155,-102 176,96 404,12 666,77 289,72 470,227 489,25zm-13 -540c13,-155 -50,-149 -196,-192 -246,-73 -781,-179 -945,-5 155,141 316,12 597,73 181,40 363,158 544,124zm-2 -642c37,-328 -948,-329 -1140,-222 68,117 85,101 252,84 501,-50 638,188 888,138zm5 -632c-1,-198 -288,-212 -496,-251 -165,-30 -574,-100 -639,71 131,112 419,26 609,68 171,36 352,161 526,112zm-3 -652c14,-132 -30,-118 -177,-165 -250,-79 -778,-208 -962,-19 135,167 197,-12 618,80 92,21 185,51 274,81 282,96 216,39 247,23zm-1257 4144c130,-179 482,-26 585,-213 -93,-174 -217,-36 -406,-65 -289,-44 -287,-405 39,-463 393,-69 289,28 358,-111 -111,-194 -543,117 -602,-258 -49,-312 376,-257 593,-294l2 -121c-185,-138 -245,65 -451,-46 -132,-70 -160,-193 -123,-358 95,-48 150,-71 293,-87 34,-4 177,-15 198,-21 89,-31 60,-2 99,-92 -143,-151 -571,122 -614,-256 -31,-276 357,-273 599,-275 10,-323 -152,-111 -383,-152 -170,-31 -448,-390 77,-468 104,-15 209,-16 296,-55 10,-252 -153,-66 -379,-102 -155,-23 -251,-155 -192,-324 173,-244 418,-80 603,-217 -25,-239 -165,-83 -376,-101 -247,-19 -552,-458 347,-502 12,-256 -130,-198 -385,-199l-1775 -36c-450,0 -906,56 -1355,88 -1419,100 -3431,-60 -4853,-88 -545,-10 -1087,47 -1632,62 -1290,35 -1274,-173 -2565,90 -367,75 -370,132 -445,523 -170,900 -59,4171 -50,5311 13,1679 153,3361 115,5039 -11,501 -499,6002 -110,6602 298,459 696,428 1211,422 1055,-11 2114,-124 3157,-124l1632 0c249,0 502,40 743,49 1207,48 2498,-2 3810,56 1251,53 1372,101 2566,37l-11 -275c-215,-43 -308,41 -463,-1 -147,-39 -205,-174 -168,-318 116,-268 570,-20 581,-311 -182,-109 -225,58 -434,-24 -275,-110 -202,-416 133,-456 155,-19 239,11 320,-87 -102,-207 -204,-13 -436,-73 -248,-63 -268,-405 100,-462 131,-20 321,29 328,-104 8,-178 -291,-44 -422,-79 -138,-39 -204,-150 -172,-331 94,-191 489,-60 592,-229 -89,-186 -251,4 -437,-67 -155,-59 -179,-212 -144,-372 234,-124 578,-24 595,-231 -150,-143 -240,36 -471,-47 -115,-41 -180,-172 -126,-309 89,-191 368,-124 541,-188l50 -27c-97,-190 -270,-28 -450,-97 -153,-60 -180,-208 -136,-369 262,-144 563,1 571,-245 -179,-112 -699,176 -576,-402 184,-80 316,-102 569,-102 22,-138 29,-82 -17,-183 -178,-55 -274,69 -443,-16 -172,-86 -178,-340 21,-417 99,-39 272,-21 365,-58 129,-53 75,37 77,-133 -142,-89 -715,145 -567,-395 78,-43 183,-73 298,-86 181,-19 235,23 288,-123l-59 -29c-273,-80 200,15 -64,-15 -136,-15 -193,48 -337,-4 -231,-84 -237,-402 153,-452 164,-21 238,8 308,-102 -79,-192 -198,-39 -402,-72 -263,-43 -326,-403 58,-468 182,-31 263,31 338,-100 -192,-109 -267,63 -462,-43 -131,-71 -159,-198 -119,-358 259,-124 546,-28 575,-237 -179,-137 -247,57 -458,-43 -165,-78 -151,-214 -122,-361 76,-40 169,-77 295,-90 162,-19 218,7 302,-76 -77,-203 -214,-24 -432,-82 -134,-36 -235,-192 -160,-332 61,-104 -21,-61 152,-109 150,-43 484,23 419,-189 -174,-82 -211,24 -380,-6 -207,-37 -521,-476 379,-495 -111,-202 -702,179 -576,-430 115,-63 295,-86 438,-110 83,-14 42,-9 87,-24l52 -30c-28,-325 -518,127 -593,-297 -57,-327 393,-254 597,-339 -122,-225 -202,-16 -435,-104 -160,-60 -179,-203 -143,-373 298,-119 558,-12 576,-235 -139,-91 -701,144 -575,-404 148,-76 417,-61 576,-128l-4 -143c-197,-26 -312,66 -474,-19 -126,-67 -149,-213 -93,-335zm834 -4027c-42,195 185,163 380,258 205,98 269,192 165,429 -184,76 -362,-31 -576,-39 92,191 200,125 401,223 322,155 305,551 -69,461 -106,-26 -231,-86 -331,-37 73,203 872,250 566,621 -160,194 -362,-70 -558,18 65,167 245,119 433,210 87,42 132,64 163,159 159,477 -389,236 -519,247 -72,7 -38,0 -79,23 75,226 567,138 614,430 72,459 -460,131 -608,208 48,129 352,151 599,346 58,549 -309,239 -614,242 26,262 472,152 598,393 77,151 25,331 -156,335 -75,2 -140,-28 -210,-48 -29,-8 -90,-24 -115,-23 -107,3 -47,-13 -111,32 90,213 544,137 610,399 88,348 -215,276 -418,228l-195 12c49,136 19,94 194,140 92,24 153,41 236,81 327,159 257,543 -154,437l-194 -40c-87,6 -20,-10 -74,20 107,242 778,60 572,639 -89,30 -184,33 -292,8 -16,-5 -132,-37 -143,-38l-141 30c181,284 765,95 578,643 -212,65 -315,-9 -530,-38 153,93 842,234 506,579 -116,60 -132,47 -283,9l-196 -41c-77,4 -31,-5 -76,19 73,229 529,157 608,402 137,431 -319,233 -509,222l-49 2c-6,1 -18,5 -23,5 -4,1 -16,4 -22,7 100,225 506,135 597,370 177,453 -378,242 -599,234 43,275 497,139 598,404 186,485 -401,201 -561,270 30,28 11,17 64,45 172,88 488,115 514,348 43,384 -405,175 -613,143 17,218 181,159 388,251 300,136 329,543 -75,467 -101,-19 -212,-54 -305,-75 10,269 495,166 588,397 204,506 -472,215 -596,268 46,147 238,168 384,224 192,73 286,160 204,391 -151,165 -353,14 -590,6 50,227 213,182 428,270 188,77 265,270 122,435 -209,89 -343,-61 -562,-40 53,221 195,138 409,239 341,161 305,560 -130,448 -292,-75 -212,-48 -255,-21 108,305 762,44 564,640 -146,48 -289,-16 -441,-30 -186,-16 -67,-20 -137,28 199,297 737,89 582,647 -153,46 -283,-17 -447,-33 -215,-19 -58,-19 -127,25 94,198 544,105 604,395 89,423 -385,211 -608,176 31,381 784,96 572,705 -187,60 -366,-12 -562,-60 3,254 492,178 584,397 212,504 -469,216 -594,267 44,146 236,168 383,224 195,75 275,150 205,397 -211,148 -273,20 -544,11 -72,613 -382,391 -1052,452 -374,35 -989,-38 -1401,-52l-3370 -57c-318,0 -550,42 -887,17 -694,-52 -1398,-58 -2092,-43 -907,18 -2915,178 -3654,142 -609,-2 -648,-153 -939,-437 -237,-232 -366,-575 -366,-1009l0 -1277c40,-1417 288,-3649 240,-4931l-129 -5925c-15,-1261 14,-2534 69,-3797 18,-415 162,-789 409,-928 528,-296 1474,-164 2063,-149 985,25 1966,-127 2945,-101 541,0 1100,12 1631,27 770,20 1537,111 2307,78 497,-21 991,-115 1490,-114 404,0 849,28 1242,45 278,10 1007,5 1233,56 241,53 107,233 250,384 97,102 322,107 448,191 136,90 214,340 33,417 -103,45 -365,-52 -492,-65z"/>
   <path class="fil2" d="M11904 19380c-822,0 -2258,49 -2898,-253 189,2 368,63 561,87l1875 59c385,0 2027,-90 2255,28 -152,114 -1430,79 -1793,79z"/>
   <path class="fil2" d="M19211 19450c-366,0 -2099,21 -2301,-88 218,-144 2265,-25 2496,53l-195 35z"/>
   <path class="fil3" d="M21678 2885c-174,49 -355,-76 -526,-112 -190,-42 -478,44 -609,-68 65,-171 474,-101 639,-71 208,39 495,53 496,251z"/>
   <path class="fil3" d="M21676 18021c-27,12 21,71 -252,-18 -617,-202 -773,-6 -888,-165 156,-181 729,-54 962,18 144,43 189,38 178,165z"/>
   <path class="fil3" d="M20543 8417c83,-221 1161,-56 1136,153 -15,124 -367,-44 -501,-77 -193,-47 -518,25 -635,-76z"/>
   <path class="fil3" d="M21673 3517c-250,50 -387,-188 -888,-138 -167,17 -184,33 -252,-84 192,-107 1177,-106 1140,222z"/>
   <path class="fil3" d="M21675 12911c-124,68 -282,-45 -523,-100 -268,-61 -509,56 -616,-81 118,-141 454,-92 650,-59 250,40 507,77 489,240z"/>
   <path class="fil3" d="M21669 13539c-47,26 83,92 -261,-27 -617,-217 -742,25 -881,-184 177,-81 447,-74 670,-32 266,52 518,82 472,243z"/>
   <path class="fil3" d="M20525 7157c16,-35 -95,-81 247,-104 238,-14 865,59 905,224 42,171 -373,-17 -481,-47 -260,-71 -470,19 -671,-73z"/>
   <path class="fil3" d="M20529 9561c274,-119 682,-38 958,39 274,78 277,252 33,187 -164,-44 -319,-120 -502,-139 -271,-28 -362,114 -489,-87z"/>
   <path class="fil3" d="M20556 16594c27,-83 -15,-54 87,-93 13,-5 141,-17 163,-18 190,-7 836,59 870,230 36,175 -316,-7 -448,-41 -198,-51 -562,-8 -672,-78z"/>
   <path class="fil3" d="M21675 4159c-181,34 -363,-84 -544,-124 -281,-61 -442,68 -597,-73 164,-174 699,-68 945,5 146,43 209,37 196,192z"/>
   <path class="fil3" d="M21676 17381l-83 18c-7,0 -19,0 -28,0l-410 -123c-266,-61 -500,60 -622,-74 140,-195 738,-60 969,10 144,45 189,38 174,169z"/>
   <path class="fil3" d="M21688 4699c-19,202 -200,47 -489,-25 -262,-65 -490,19 -666,-77 139,-232 1043,-37 1155,102z"/>
   <path class="fil3" d="M21671 12271c-89,44 -175,3 -271,-28 -85,-29 -187,-62 -274,-81 -300,-66 -362,57 -609,-60 34,-45 -1,-99 289,-104 193,-3 914,46 865,273z"/>
   <path class="fil3" d="M20533 11514c79,-149 421,-107 608,-76 137,22 514,53 538,200 31,193 -358,-21 -473,-52 -291,-79 -497,41 -673,-72z"/>
   <path class="fil3" d="M21671 7975c-130,44 -337,-80 -562,-124 -299,-58 -437,94 -576,-88 219,-144 715,-43 983,36 154,44 186,38 155,176z"/>
   <path class="fil3" d="M21680 16127c-254,53 -378,-165 -837,-141 -158,8 -193,56 -300,-48 66,-197 1122,-100 1137,189z"/>
   <path class="fil3" d="M21678 6042c-167,43 -360,-73 -530,-112 -293,-68 -458,61 -626,-74 22,-23 -30,-77 284,-90 258,-12 441,27 686,104 151,47 189,32 186,172z"/>
   <path class="fil3" d="M21675 2233c-31,16 35,73 -247,-23 -89,-30 -182,-60 -274,-81 -421,-92 -483,87 -618,-80 184,-189 712,-60 962,19 147,47 191,33 177,165z"/>
   <path class="fil3" d="M21664 5415c-103,53 -303,-55 -498,-103 -259,-63 -448,31 -637,-75 53,-91 132,-93 278,-100 221,-9 471,42 679,101 139,40 228,50 178,177z"/>
   <path class="fil3" d="M21682 18677c-173,9 -384,-108 -578,-142 -271,-49 -466,80 -575,-100 264,-115 691,-48 978,49 136,47 168,54 175,193z"/>
   <path class="fil3" d="M21671 14182c-133,64 -306,-58 -540,-107 -285,-62 -402,53 -605,-65 139,-151 437,-108 635,-72 186,33 548,66 510,244z"/>
   <path class="fil3" d="M21669 15492l-47 15c-135,5 -348,-95 -488,-126 -280,-64 -426,64 -603,-64 150,-197 714,-67 952,-1 149,43 226,37 186,176z"/>
   <path class="fil3" d="M20531 10839c224,-140 1168,-22 1148,181 -20,192 -343,-136 -836,-105 -204,13 -199,65 -312,-76z"/>
   <path class="fil3" d="M21664 14852l-42 14c-38,2 -6,10 -71,-3l-440 -130c-292,-59 -453,93 -580,-92 171,-106 1230,-69 1133,211z"/>
   <path class="fil3" d="M20537 6484c183,-146 1161,-44 1140,170 -13,130 -362,-39 -503,-73 -290,-70 -497,54 -637,-97z"/>
   <path class="fil3" d="M21668 19291c-8,4 -20,0 -24,10l-515 -118c-276,-58 -411,52 -602,-68 147,-183 1206,-69 1141,176z"/>
   <path class="fil3" d="M20534 9038c242,-170 1230,-9 1139,193 -59,129 -412,-95 -501,-132 -251,-106 -432,133 -638,-61z"/>
   <path class="fil3" d="M21668 10418l-565 -112c-294,-55 -465,99 -579,-104 238,-68 1223,-48 1144,216z"/>
   <path class="fil2" d="M19760 12883c-104,-81 -157,-185 -233,-293 -79,-112 -129,-168 -185,-284 241,84 384,254 418,577z"/>
   <path class="fil2" d="M20032 8215c-147,-75 -402,-363 -469,-583 169,96 417,346 469,583z"/>
   <path class="fil4" d="M19987 2861c-131,-64 -156,-129 -257,-231 -111,-113 -159,-128 -228,-291 219,75 416,284 485,522z"/>
   <path class="fil5" d="M20020 7716c-91,-84 -162,-217 -236,-315 -95,-123 -130,-176 -212,-304 161,60 450,369 448,619z"/>
   <path class="fil4" d="M20048 8708c-124,-66 -385,-302 -407,-509 163,108 325,261 407,509z"/>
   <path class="fil1" d="M19835 14993c99,54 49,-3 125,109 83,120 114,278 60,420 -3,8 -16,31 -19,26 -2,-5 -13,16 -16,24l-150 -579z"/>
   <path class="fil4" d="M19976 9159c-127,-67 -290,-327 -304,-470 123,60 267,262 304,470z"/>
   <path class="fil4" d="M19880 2392c-97,-74 -289,-270 -325,-412 131,44 379,290 325,412z"/>
   <path class="fil6" d="M17773 18775c-12,-24 -123,-149 -156,-196 -70,-100 -71,-109 -98,-238 147,67 268,241 254,434z"/>
   <path class="fil5" d="M20054 3315c-94,-38 -133,-93 -211,-159 -232,-196 -152,-88 -178,-219l331 245c95,103 53,17 58,133z"/>
   <path class="fil6" d="M19741 13921c-74,-55 -224,-332 -228,-432 110,29 247,285 228,432z"/>
   <path class="fil5" d="M19620 13133c-68,-109 -66,-62 -92,-192 87,30 106,42 158,128 39,67 56,140 66,238l-132 -174z"/>
   <path class="fil7" d="M17324 18827c-151,-78 -214,-166 -241,-347 117,110 178,145 241,347z"/>
   <path class="fil6" d="M20055 3815c-89,-3 -56,81 -192,-228 35,-2 85,-112 192,228z"/>
  </g>
  <path class="fil8 str0" d="M17972 3612l-8058 0c-287,0 -520,233 -520,520l0 2265c0,287 233,520 520,520l8058 0c288,0 521,-233 521,-520l0 -2265c0,-287 -233,-520 -521,-520z"/>
 </g>
</svg>
