<?xml version="1.0" encoding="UTF-8"?>
<!DOCTYPE svg PUBLIC "-//W3C//DTD SVG 1.1//EN" "http://www.w3.org/Graphics/SVG/1.1/DTD/svg11.dtd">
<!-- Creator: CorelDRAW X7 -->
<svg xmlns="http://www.w3.org/2000/svg" xml:space="preserve" width="297mm" height="210mm" version="1.1" style="shape-rendering:geometricPrecision; text-rendering:geometricPrecision; image-rendering:optimizeQuality; fill-rule:evenodd; clip-rule:evenodd"
viewBox="0 0 29700 21000"
 xmlns:xlink="http://www.w3.org/1999/xlink">
 <defs>
  <style type="text/css">
   <![CDATA[
    .str0 {stroke:#343434;stroke-width:200}
    .fil1 {fill:#343434}
    .fil2 {fill:#353535}
    .fil4 {fill:#86EEE5}
    .fil3 {fill:#F1F1F1}
    .fil0 {fill:white}
   ]]>
  </style>
 </defs>
 <g id="Слой_x0020_1">
  <metadata id="CorelCorpID_0Corel-Layer"/>
  <g id="_632621600">
   <path class="fil0" d="M14496 19594c-735,-10 -1487,-42 -2227,-59 -415,-9 -1875,12 -2126,-161 1469,-28 2874,95 4316,95l5196 57c332,5 572,-58 782,-61 47,-1 96,2 141,14 106,30 26,-8 86,47 -395,286 -2436,68 -3050,68l-3118 0zm-3060 -17282c106,244 215,408 86,705 -182,73 -517,57 -687,-46 -56,-192 25,-436 7,-669l-612 -3c-26,312 220,231 49,730 -216,47 -484,19 -692,-37 -58,-217 40,-417 7,-694l-575 9c-57,291 235,162 35,722 -113,20 -242,26 -373,16 -38,-3 -154,-13 -192,-25l-105 -56c-86,-269 22,-426 -12,-769l-390 -2c-21,701 -57,1563 -35,2261 50,1515 -116,2891 -11,4517 47,734 123,1369 140,2130 17,776 -21,1485 -33,2242 -12,698 58,1469 82,2189l80 2217c-6,373 -103,657 -119,1018 -9,196 26,335 25,528 -1,177 -29,315 -26,495l351 -78c-26,-14 -68,-28 -92,-42l-71 -48c-4,-12 -16,-11 -23,-18 127,-61 1046,-16 1309,-37 326,-26 1001,-130 1223,78 -787,5 -1268,94 -1805,94 429,166 1715,67 2255,22 -28,-36 -44,-47 -66,-80 -44,-69 -19,1 -18,-48 466,-140 2496,103 3162,97 532,-5 1037,-72 1596,-69 268,2 541,18 809,32 137,8 611,-37 667,133 -603,19 -2046,-103 -2510,34 937,117 5268,137 6328,77 42,-374 -84,-220 -113,-524 -18,-201 11,-443 2,-657 -46,221 47,327 -96,1085 -522,-71 -790,80 -1255,55 -213,-12 -1153,-19 -1266,-99 54,-35 1121,-91 1256,-81 291,22 38,90 576,-14 98,-18 198,-38 286,-53l271 -84c115,-761 100,-2082 65,-2902l-232 964c-107,-166 225,-1358 242,-1726 44,-901 37,-4609 104,-5021 131,-800 -89,-941 -100,-1827 -5,-337 51,-631 37,-968 -27,-622 -118,-1234 -157,-1856 -40,-648 -79,-1323 -80,-1968 0,-420 58,-1656 -83,-1977l-730 18c-21,213 544,993 -652,688 -54,-269 91,-461 -19,-689l-587 6c68,260 537,982 -630,680l25 -688 -490 0c46,250 286,479 40,732 -165,61 -502,34 -670,-64l22 -666 -565 1c-49,273 74,154 103,378 20,151 -14,289 -120,351 -131,63 -513,13 -645,-65 -61,-255 68,-394 -4,-640 -113,-58 -190,-37 -545,-36 15,258 318,431 30,753 -204,41 -516,2 -656,-96 -61,-198 44,-422 27,-647l-591 14c-30,153 538,1013 -655,671 -50,-302 69,-395 -9,-686 -1201,-128 -256,311 -582,686 -175,127 -510,72 -703,-4 -47,-222 17,-453 16,-681l-631 12z"/>
   <path class="fil1" d="M17203 2792c-37,-173 -12,-814 8,-1040 19,-203 -3,-180 143,-197 110,57 80,96 89,267 16,280 74,793 -13,976l-227 -6zm-1216 -7c-50,-216 -12,-502 -3,-729 11,-274 -67,-510 219,-501 11,888 214,1336 -216,1230zm-3686 9c-51,-195 -16,-468 -7,-696 21,-506 -30,-542 214,-543 30,197 28,522 40,741 17,314 113,545 -247,498zm-1224 -2c-43,-157 -32,-1081 41,-1236l160 -3c55,206 44,497 58,736 17,295 107,560 -259,503zm-2297 -1239c64,90 56,196 61,325 17,407 145,1033 -166,926 -129,-45 -95,-148 -87,-319l29 -740c17,-182 -2,-180 163,-192zm10972 1224c-353,114 -255,-311 -243,-565 22,-471 -36,-600 146,-665 117,62 87,72 98,245 16,248 73,797 -1,985zm-4686 -4c-377,133 -280,-144 -268,-483 10,-261 12,-501 53,-740l167 6c39,177 83,1053 48,1217zm-1275 -1203c46,160 48,529 56,712 7,160 96,636 -191,509 -163,-72 -83,-491 -74,-680 22,-471 -25,-562 209,-541zm-3898 -16c224,4 161,31 188,583 9,181 95,558 -63,638 -280,141 -217,-340 -206,-524 10,-168 5,-589 81,-697zm1543 758l631 -12c1,228 -63,459 -16,681 193,76 528,131 703,4 326,-375 -619,-814 582,-686 78,291 -41,384 9,686 1193,342 625,-518 655,-671l591 -14c17,225 -88,449 -27,647 140,98 452,137 656,96 288,-322 -15,-495 -30,-753 355,-1 432,-22 545,36 72,246 -57,385 4,640 132,78 514,128 645,65 106,-62 140,-200 120,-351 -29,-224 -152,-105 -103,-378l565 -1 -22 666c168,98 505,125 670,64 246,-253 6,-482 -40,-732l490 0 -25 688c1167,302 698,-420 630,-680l587 -6c110,228 -35,420 19,689 1196,305 631,-475 652,-688l730 -18c141,321 83,1557 83,1977 1,645 40,1320 80,1968 39,622 130,1234 157,1856 14,337 -42,631 -37,968 11,886 231,1027 100,1827 -67,412 -60,4120 -104,5021 -17,368 -349,1560 -242,1726l232 -964c35,820 50,2141 -65,2902l-271 84c-88,15 -188,35 -286,53 -538,104 -285,36 -576,14 -135,-10 -1202,46 -1256,81 113,80 1053,87 1266,99 465,25 733,-126 1255,-55 143,-758 50,-864 96,-1085 9,214 -20,456 -2,657 29,304 155,150 113,524 -1060,60 -5391,40 -6328,-77 464,-137 1907,-15 2510,-34 -56,-170 -530,-125 -667,-133 -268,-14 -541,-30 -809,-32 -559,-3 -1064,64 -1596,69 -666,6 -2696,-237 -3162,-97 -1,49 -26,-21 18,48 22,33 38,44 66,80 -540,45 -1826,144 -2255,-22 537,0 1018,-89 1805,-94 -222,-208 -897,-104 -1223,-78 -263,21 -1182,-24 -1309,37 7,7 19,6 23,18l71 48c24,14 66,28 92,42l-351 78c-3,-180 25,-318 26,-495 1,-193 -34,-332 -25,-528 16,-361 113,-645 119,-1018l-80 -2217c-24,-720 -94,-1491 -82,-2189 12,-757 50,-1466 33,-2242 -17,-761 -93,-1396 -140,-2130 -105,-1626 61,-3002 11,-4517 -22,-698 14,-1560 35,-2261l390 2c34,343 -74,500 12,769l105 56c38,12 154,22 192,25 131,10 260,4 373,-16 200,-560 -92,-431 -35,-722l575 -9c33,277 -65,477 -7,694 208,56 476,84 692,37 171,-499 -75,-418 -49,-730l612 3c18,233 -63,477 -7,669 170,103 505,119 687,46 129,-297 20,-461 -86,-705zm6869 490c-108,-421 31,-538 29,-662 -2,-165 -85,-353 22,-586l151 1c46,176 82,1052 52,1228l-254 19zm-9943 -850c-276,51 -529,-78 -598,244 -54,252 -44,1726 -42,1988 5,759 -3,1475 -48,2240 -92,1585 28,3003 29,4561 1,766 29,1519 28,2281 -1,757 123,1500 99,2280 -23,781 76,1482 79,2241 1,406 -102,676 -94,1082l49 846c52,433 416,164 915,238 1071,160 1397,94 2525,41 674,-32 1015,18 1657,90 612,69 1157,-15 1759,25 1129,77 2239,69 3377,120 1064,48 1954,-54 3006,-9 621,26 350,-128 232,-1083 -49,-399 -60,-809 -72,-1203 -25,-814 -3,-1686 21,-2504 43,-1505 16,-2213 -46,-3659 -23,-543 10,-646 81,-1137 57,-394 -59,-736 -109,-1107 -86,-635 -55,-2906 -84,-3746 -20,-617 -26,-3044 -216,-3559 -103,-278 -686,-113 -991,-239l-50 -593c-610,-113 -459,129 -560,590 -11,7 -26,2 -33,17 -7,15 -24,12 -33,15 -4,1 -318,93 -504,-4 -154,-79 -5,-378 -93,-556 -69,-143 -378,-119 -459,4 -63,95 -88,420 -100,561 -186,27 -317,41 -483,-19 -119,-322 179,-763 -487,-607 -93,202 -111,374 -125,648 -187,0 -421,22 -576,-44l-64 -284c-4,-117 -11,-225 -35,-313 -131,-36 -287,-34 -425,-7 -68,185 -96,389 -127,628l-583 -5c1,-223 8,-449 -51,-618 -695,-233 -386,572 -598,643 -172,0 -404,35 -508,-71 -165,-173 65,-422 -167,-572 -163,-99 -354,-20 -408,112 -34,81 -30,172 -41,272 -16,150 0,186 -101,259 -176,0 -475,50 -578,-78 -100,-94 -76,-450 -115,-570 -526,-131 -470,170 -539,621l-633 8c0,-202 27,-434 -33,-614 -553,-217 -520,305 -551,614l-659 -3c0,-216 10,-447 -47,-616 -645,-236 -413,462 -594,638 -172,0 -392,27 -517,-56 -118,-110 -10,-285 -109,-587 -646,-199 -426,361 -571,556z"/>
   <path class="fil2" d="M14496 19594l3118 0c614,0 2655,218 3050,-68 -60,-55 20,-17 -86,-47 -45,-12 -94,-15 -141,-14 -210,3 -450,66 -782,61l-5196 -57c-1442,0 -2847,-123 -4316,-95 251,173 1711,152 2126,161 740,17 1492,49 2227,59z"/>
   <path class="fil3" d="M11077 2792c366,57 276,-208 259,-503 -14,-239 -3,-530 -58,-736l-160 3c-73,155 -84,1079 -41,1236z"/>
   <path class="fil3" d="M17203 2792l227 6c87,-183 29,-696 13,-976 -9,-171 21,-210 -89,-267 -146,17 -124,-6 -143,197 -20,226 -45,867 -8,1040z"/>
   <path class="fil3" d="M15066 2773c35,-164 -9,-1040 -48,-1217l-167 -6c-41,239 -43,479 -53,740 -12,339 -109,616 268,483z"/>
   <path class="fil3" d="M9893 1554c-76,108 -71,529 -81,697 -11,184 -74,665 206,524 158,-80 72,-457 63,-638 -27,-552 36,-579 -188,-583z"/>
   <path class="fil3" d="M13791 1570c-234,-21 -187,70 -209,541 -9,189 -89,608 74,680 287,127 198,-349 191,-509 -8,-183 -10,-552 -56,-712z"/>
   <path class="fil3" d="M19752 2777c74,-188 17,-737 1,-985 -11,-173 19,-183 -98,-245 -182,65 -124,194 -146,665 -12,254 -110,679 243,565z"/>
   <path class="fil3" d="M18305 2802l254 -19c30,-176 -6,-1052 -52,-1228l-151 -1c-107,233 -24,421 -22,586 2,124 -137,241 -29,662z"/>
   <path class="fil3" d="M8780 1553c-165,12 -146,10 -163,192l-29 740c-8,171 -42,274 87,319 311,107 183,-519 166,-926 -5,-129 3,-235 -61,-325z"/>
   <path class="fil3" d="M15987 2785c430,106 227,-342 216,-1230 -286,-9 -208,227 -219,501 -9,227 -47,513 3,729z"/>
   <path class="fil3" d="M12301 2794c360,47 264,-184 247,-498 -12,-219 -10,-544 -40,-741 -244,1 -193,37 -214,543 -9,228 -44,501 7,696z"/>
  </g>
  <path class="fil4 str0" d="M10362 3986l8059 0c287,0 520,233 520,520l0 2265c0,287 -233,520 -520,520l-8059 0c-287,0 -520,-233 -520,-520l0 -2265c0,-287 233,-520 520,-520z"/>
 </g>
</svg>
