<?xml version="1.0" encoding="UTF-8"?>
<!DOCTYPE svg PUBLIC "-//W3C//DTD SVG 1.1//EN" "http://www.w3.org/Graphics/SVG/1.1/DTD/svg11.dtd">
<!-- Creator: CorelDRAW X7 -->
<svg xmlns="http://www.w3.org/2000/svg" xml:space="preserve" width="297mm" height="210mm" version="1.1" style="shape-rendering:geometricPrecision; text-rendering:geometricPrecision; image-rendering:optimizeQuality; fill-rule:evenodd; clip-rule:evenodd"
viewBox="0 0 29700 21000"
 xmlns:xlink="http://www.w3.org/1999/xlink">
 <defs>
  <style type="text/css">
   <![CDATA[
    .fil1 {fill:#303030}
    .fil4 {fill:#313131}
    .fil5 {fill:#323232}
    .fil6 {fill:#333232}
    .fil8 {fill:#343434}
    .fil10 {fill:#353535}
    .fil9 {fill:#373737}
    .fil13 {fill:#3A3A3A}
    .fil0 {fill:#86EEE5}
    .fil14 {fill:#EEEEEE}
    .fil11 {fill:#F0F0F0}
    .fil7 {fill:#F1F1F0}
    .fil2 {fill:#F2F2F2}
    .fil12 {fill:#F3F3F3}
    .fil3 {fill:#F4F4F4}
   ]]>
  </style>
 </defs>
 <g id="Слой_x0020_1">
  <metadata id="CorelCorpID_0Corel-Layer"/>
  <g id="_608688376">
   <path class="fil0" d="M14475 13928c511,-224 1081,17 1910,-455 448,-255 1016,-862 1427,-944 -174,425 -894,998 -1367,1250 -402,214 -1835,823 -1970,149zm-522 -721c120,-118 -86,-28 140,-116 214,-83 469,-24 754,-89 1112,-252 1819,-1210 2125,-1269 -101,574 -2055,2086 -3019,1474zm2 -925c235,-306 11,-31 658,-246 732,-242 1113,-919 1643,-1044 -47,205 -1597,1805 -2301,1290zm-143 -685c112,-225 435,-273 642,-386 137,-75 458,-288 536,-363 -57,452 -538,863 -1178,749zm-699 -842c118,-494 457,-813 1082,-772 -238,228 -740,637 -1082,772zm-1108 -39c-8,-703 452,-1043 808,-1310 498,-374 898,-565 1637,-398 -525,252 -974,192 -1519,599 -613,458 -687,856 -926,1109zm-679 -454c-175,-313 138,-903 303,-1134 406,-571 1320,-1066 2028,-1275 382,-112 994,-202 1251,181 -3322,278 -3225,2099 -3582,2228zm-1070 -630c-295,-619 932,-1972 1968,-2461 656,-310 3034,-1181 3554,-256 -4381,-121 -4872,2149 -5522,2717zm3265 -3777c-2258,380 -4476,2730 -3832,5515 542,2341 2770,4256 5709,3656 2277,-465 4361,-2655 3734,-5523 -519,-2374 -2628,-4149 -5611,-3648z"/>
   <path class="fil1" d="M15030 16066l-578 1c38,-628 219,-544 833,-490 -51,290 -81,320 -255,489zm-762 -538c27,516 -359,938 -731,545 -323,-342 208,-641 731,-545zm-1093 302c-454,31 -498,22 -745,-192 46,-233 82,-243 216,-375 300,3 516,75 701,228l-172 339zm2292 119c154,-491 334,-489 874,-551 -136,501 -314,524 -874,551zm-1946 -10094c2983,-501 5092,1274 5611,3648 627,2868 -1457,5058 -3734,5523 -2939,600 -5167,-1315 -5709,-3656 -644,-2785 1574,-5135 3832,-5515zm7000 4151c0,-426 -69,-867 122,-1154 418,76 396,743 374,1122l-496 32zm651 -1212c616,-81 164,391 642,687l-89 -769c414,22 417,8 483,423 105,663 -12,837 -998,762 -75,-410 -172,-662 -38,-1103zm1911 689c-207,178 -262,214 -635,215l-94 -899c513,17 798,163 729,684zm-10669 5791c-1087,841 -5218,-3201 -3048,-7258 241,-451 993,-1579 1438,-1625 -5,284 -496,791 -673,992 -1901,2156 -917,5240 1244,7070 454,385 678,401 820,497 332,226 151,-32 219,324zm-1398 -9181c125,-322 436,-591 720,-330 -75,122 -95,193 -304,292 -276,131 -149,88 -416,38zm956 -642c174,-296 366,-285 588,-182 -20,502 -350,461 -588,182zm888 -412c100,-94 115,-104 307,-135 312,-50 205,7 293,53 15,244 99,311 -283,373 -264,43 -259,-56 -317,-291zm4727 1063c-792,-471 -1732,-900 -2718,-948 -926,-46 -871,171 -1107,-197 166,-310 793,-224 1101,-212 384,14 727,76 1106,179 680,185 1268,466 1791,840 2448,1750 3128,4993 1668,7459 -500,846 -1666,2085 -2836,2366 116,-467 266,-465 634,-700 554,-355 1529,-1280 1870,-1833 1350,-2184 708,-5635 -1509,-6954zm2957 2263c-136,-157 -93,-102 -208,-320 -57,-110 -75,-160 -137,-274 -1706,-3136 -5619,-4624 -8573,-2760 -5736,3619 -3260,11304 2578,11527 1963,75 4013,-1137 4802,-2092 2443,-2960 817,-3890 2013,-4085 495,-81 1775,-250 2119,-423 378,-191 530,-817 242,-1233 -535,-774 -1906,-397 -2836,-340z"/>
   <path class="fil2" d="M13762 4957c236,368 181,151 1107,197 986,48 1926,477 2718,948 2217,1319 2859,4770 1509,6954 -341,553 -1316,1478 -1870,1833 -368,235 -518,233 -634,700 1170,-281 2336,-1520 2836,-2366 1460,-2466 780,-5709 -1668,-7459 -523,-374 -1111,-655 -1791,-840 -379,-103 -722,-165 -1106,-179 -308,-12 -935,-98 -1101,212z"/>
   <path class="fil3" d="M12414 15274c-68,-356 113,-98 -219,-324 -142,-96 -366,-112 -820,-497 -2161,-1830 -3145,-4914 -1244,-7070 177,-201 668,-708 673,-992 -445,46 -1197,1174 -1438,1625 -2170,4057 1961,8099 3048,7258z"/>
   <path class="fil4" d="M10256 9632c650,-568 1141,-2838 5522,-2717 -520,-925 -2898,-54 -3554,256 -1036,489 -2263,1842 -1968,2461z"/>
   <path class="fil5" d="M11326 10262c357,-129 260,-1950 3582,-2228 -257,-383 -869,-293 -1251,-181 -708,209 -1622,704 -2028,1275 -165,231 -478,821 -303,1134z"/>
   <path class="fil6" d="M14475 13928c135,674 1568,65 1970,-149 473,-252 1193,-825 1367,-1250 -411,82 -979,689 -1427,944 -829,472 -1399,231 -1910,455z"/>
   <path class="fil7" d="M21210 9897c986,75 1103,-99 998,-762 -66,-415 -69,-401 -483,-423l89 769c-478,-296 -26,-768 -642,-687 -134,441 -37,693 38,1103z"/>
   <path class="fil8" d="M13953 13207c964,612 2918,-900 3019,-1474 -306,59 -1013,1017 -2125,1269 -285,65 -540,6 -754,89 -226,88 -20,-2 -140,116z"/>
   <path class="fil9" d="M12005 10716c239,-253 313,-651 926,-1109 545,-407 994,-347 1519,-599 -739,-167 -1139,24 -1637,398 -356,267 -816,607 -808,1310z"/>
   <path class="fil10" d="M13955 12282c704,515 2254,-1085 2301,-1290 -530,125 -911,802 -1643,1044 -647,215 -423,-60 -658,246z"/>
   <path class="fil11" d="M22448 9698c373,-1 428,-37 635,-215 69,-521 -216,-667 -729,-684l94 899z"/>
   <path class="fil7" d="M20521 10006l496 -32c22,-379 44,-1046 -374,-1122 -191,287 -122,728 -122,1154z"/>
   <path class="fil3" d="M14268 15528c-523,-96 -1054,203 -731,545 372,393 758,-29 731,-545z"/>
   <path class="fil12" d="M13347 15491c-185,-153 -401,-225 -701,-228 -134,132 -170,142 -216,375 247,214 291,223 745,192l172 -339z"/>
   <path class="fil3" d="M15030 16066c174,-169 204,-199 255,-489 -614,-54 -795,-138 -833,490l578 -1z"/>
   <path class="fil13" d="M13812 11597c640,114 1121,-297 1178,-749 -78,75 -399,288 -536,363 -207,113 -530,161 -642,386z"/>
   <path class="fil8" d="M13113 10755c342,-135 844,-544 1082,-772 -625,-41 -964,278 -1082,772z"/>
   <path class="fil3" d="M15467 15949c560,-27 738,-50 874,-551 -540,62 -720,60 -874,551z"/>
   <path class="fil11" d="M12860 5039c58,235 53,334 317,291 382,-62 298,-129 283,-373 -88,-46 19,-103 -293,-53 -192,31 -207,41 -307,135z"/>
   <path class="fil14" d="M11016 6093c267,50 140,93 416,-38 209,-99 229,-170 304,-292 -284,-261 -595,8 -720,330z"/>
   <path class="fil11" d="M11972 5451c238,279 568,320 588,-182 -222,-103 -414,-114 -588,182z"/>
  </g>
 </g>
</svg>
