<?xml version="1.0" encoding="iso-8859-1"?>
<!-- Generator: Adobe Illustrator 16.0.0, SVG Export Plug-In . SVG Version: 6.00 Build 0)  -->
<!DOCTYPE svg PUBLIC "-//W3C//DTD SVG 1.1//EN" "http://www.w3.org/Graphics/SVG/1.1/DTD/svg11.dtd">
<svg xmlns="http://www.w3.org/2000/svg" xmlns:xlink="http://www.w3.org/1999/xlink" version="1.1" id="Capa_1" x="0px" y="0px" width="512px" height="512px" viewBox="0 0 54.729 54.729" style="enable-background:new 0 0 54.729 54.729;" xml:space="preserve">
<g>
	<g>
		<path d="M51.496,9.361c-9.181,0-18.359,0-27.541,0c-5.352,0-10.705,0-16.058,0c-2.001,0-4.596-0.41-6.458,0.521    c-0.493,0.246-0.935,0.607-1.037,0.711c-0.103,0.102-0.227,0.305-0.254,0.442c-0.026,0.138,0.038,0.693,0.038,1.246    c0,4.866,0,9.732,0,14.599c0,3.521,0,7.045,0,10.567c0,1.511-0.431,4.225,0.016,5.625c1.069,3.361,6.826,2.185,9.535,2.185    c7.652,0,15.305,0,22.958,0c5.942,0,11.886,0,17.828,0c4.167,0,3.984-2.954,3.984-6.292c0-1.646,0-3.293,0-4.939    c0-0.552,0.01-1.233,0.011-1.521c0.002-0.261,0.002-0.521,0.002-0.521c-0.01-1.18-0.012-2.368-0.013-3.557    c0-0.552,0.009-1.448,0.011-2c0.002-0.629,0.002-1.322,0.002-1.322c-0.007-0.31-0.01-0.622-0.011-0.937    c-0.003-0.518,0.008-1.205,0.009-1.538c0.002-0.304,0.002-0.606,0.002-0.606c-0.009-0.627-0.011-1.258-0.013-1.893    c0-0.553,0.01-1.231,0.011-1.52c0.002-0.287-0.007-0.575-0.009-0.642c-0.002-0.041-0.002-0.082-0.002-0.124    C54.508,14.73,55.944,9.361,51.496,9.361z M51.184,43.773c-5.471,0-10.941,0-16.412,0c-7.802,0-15.604,0-23.404,0    c-2.292,0-4.583,0-6.874,0c-0.18,0-0.341-0.018-0.489-0.047c-0.267-0.054-0.144-0.453,0.259-0.832    c0.795-0.748,1.595-1.5,2.4-2.259c0.402-0.378,0.729-0.759,0.729-0.851V39.62c0,0,0-0.292,0-0.651c0-0.36-0.306-0.325-0.683,0.079    c-1.043,1.118-2.09,2.233-3.139,3.347c-0.379,0.402-0.988,0.379-1.158-0.146c-0.238-0.743-0.263-1.665-0.263-2.556    c0-9.169,0-18.339,0-27.509c0-0.552,0.382-1.257,0.925-1.358c0.411-0.075,0.878-0.096,1.344-0.09    c0.553,0.007,0.677,0.355,0.277,0.738c-0.596,0.572-1.199,1.151-1.811,1.737c-0.398,0.382-0.722,0.715-0.722,0.742    c0,0.028,0.322-0.26,0.721-0.642c0.644-0.619,1.277-1.227,1.908-1.833c0.398-0.382,0.961-0.675,1.256-0.656    c0.205,0.014,0.387,0.022,0.534,0.022c3.213,0,6.427,0,9.64,0c7.95,0,15.901,0,23.853,0c1.76,0,12.472-1.309,12.472,1.495    c0,2.097,0,4.193,0,6.292c0,0.552-0.318,1.314-0.711,1.704c-0.278,0.274-0.557,0.55-0.836,0.825    c-0.394,0.389-0.729,0.256-0.791-0.293c-0.262-2.3-1.096-3.956-3.366-2.347c-2.11,1.495-4.22,2.99-6.33,4.484    c-1.615,1.144-4.021,2.177-3.573,4.494c0.198,1.022,1.815,2.244,3.082,3.167c0.446,0.324,0.489,0.906,0.099,1.297    c-0.079,0.079-0.158,0.157-0.237,0.236c-0.392,0.391-1.065,0.437-1.503,0.101c-0.691-0.531-1.351-1.05-1.935-1.562    c-1.149-1.006-2.119-1.717-3.773-1.608c-1.116,0.072-2.138,0.941-2.991,1.545c-1.247,0.88-2.2,0.953-3.054,0.65    c-0.521-0.184-0.562-0.753-0.158-1.129c0.087-0.08,0.173-0.161,0.26-0.241c0.404-0.376,0.462-0.628,0.16-0.48    c-0.183,0.089-0.353,0.2-0.504,0.334c0,0-0.216,0.191-0.482,0.428c-0.267,0.237-0.782,0.214-1.145-0.061    c-0.215-0.163-0.434-0.33-0.659-0.492c-0.066-0.056-0.147-0.108-0.259-0.152c-3.129-1.226-4.831,0.821-7.023,2.766    c-2.462,2.184-6.116,4.381-7.622,7.376c-0.172,0.341,0.059,0.679,0.378,0.805c1.765,0.704,3.618,0.454,5.508,0.454    c4.105,0,8.211,0,12.317,0c4.105,0,8.211,0,12.316,0c1.975,0,3.711,0.204,5.545-0.523c0.433-0.171,0.656-0.627,0.445-1.039    c-0.163-0.315-0.352-0.626-0.56-0.931c-0.313-0.455-0.29-1.119,0.097-1.514c0.091-0.095,0.183-0.188,0.272-0.281    c0.386-0.396,0.814-0.615,0.958-0.489c0.145,0.125,0.295,0.273,0.349,0.319c0.053,0.046,0.15,0.119,0.223,0.156    c0.071,0.038,0.524,0.309,1.072,0.383c1.658,0.227,2.146-1.943,2.23-4.339c0.021-0.553,0.326-1.319,0.712-1.714    c0.265-0.271,0.527-0.539,0.791-0.811c0.388-0.395,0.699-0.625,0.699-0.514c0,0.066,0,0.134,0,0.201    c0,0.341,0.071,1.496,0.131,3.003c0.021,0.552-0.028,1.063-0.105,1.145c-0.078,0.08-0.075,0.204,0.008,0.275    c0.083,0.072,0.162,0.579,0.17,1.131C52.804,39.293,52.589,43.773,51.184,43.773z M51.864,24.873    c-0.34,0.363-0.679,0.727-1.019,1.091c-0.377,0.403-0.659,0.281-0.627-0.27c0.02-0.319,0.038-0.673,0.055-1.045    c0.023-0.552,0.338-1.327,0.714-1.73c0.294-0.315,0.586-0.629,0.877-0.942c0.377-0.404,0.682-0.284,0.682,0.268    c0,0.3,0,0.599,0,0.897C52.545,23.693,52.241,24.468,51.864,24.873z M52.545,26.159c0,0.519-0.315,1.257-0.704,1.648    c-0.289,0.291-0.577,0.582-0.864,0.87c-0.389,0.392-0.727,0.315-0.76-0.169c-0.032-0.485,0.26-1.196,0.648-1.588    c0.331-0.334,0.655-0.664,0.977-0.987C52.229,25.541,52.545,25.642,52.545,26.159z M50.159,27.15c0,0.236-0.005,0.333-0.011,0.215    c-0.003-0.079-0.004-0.15-0.004-0.213c0-0.062,0.002-0.135,0.004-0.216C50.155,26.817,50.159,26.913,50.159,27.15z M48.092,34.479    c0.03,0.551-0.031,0.624-0.447,0.26c-2.362-2.066-4.728-4.134-7.091-6.202c-1.258-1.1-2.214-2.131-0.477-3.361    c1.811-1.283,3.621-2.565,5.432-3.849c0.744-0.527,2.674-2.568,2.674-1.136c0,1.709,0,3.419,0,5.128c0,2.321,0,4.644,0,6.964    C48.183,32.711,48.049,33.717,48.092,34.479z M42.599,38.572c0.532,0.466,1.731,0.877,0.729,0.877c-2.729,0-5.459,0-8.189,0    c-7.406,0-14.813,0-22.221,0c-3.017,0-0.523-1.137,1.019-2.504c1.524-1.353,5.057-5.814,7.736-6.164    c0.548-0.07,1.349,0.353,1.79,0.685c1.465,1.1,3.184,2.31,5.014,1.578c1.816-0.729,4.213-3.144,6.069-1.519    c1.412,1.235,2.823,2.471,4.235,3.706C40.054,36.345,41.326,37.459,42.599,38.572z M41.312,33.297    c0.057-0.06,0.111-0.119,0.166-0.179c0.377-0.403,1.006-0.447,1.405-0.099c0.398,0.349,0.415,0.957,0.035,1.358    c-0.039,0.042-0.079,0.084-0.118,0.125c-0.38,0.401-1.013,0.448-1.423,0.117C40.967,34.29,40.936,33.7,41.312,33.297z     M42.878,35.909c-0.267-0.242-0.173-0.752,0.216-1.144c0.042-0.042,0.084-0.084,0.125-0.126c0.39-0.394,0.925-0.517,1.197-0.279    c0.271,0.238,0.178,0.749-0.211,1.142c-0.049,0.049-0.099,0.098-0.146,0.146C43.67,36.041,43.145,36.152,42.878,35.909z" fill="#4e4e4e"/>
		<path d="M17.938,27.114c0.174-0.922-0.154-1.638-0.705-2.237c-0.373-0.407-0.425-0.98-0.032-1.368    c0.128-0.125,0.256-0.251,0.384-0.377c0.393-0.389,1.077-0.444,1.527-0.125c0.416,0.295,0.833,0.59,1.249,0.885    c0.45,0.319,0.499,0.895,0.107,1.285c-2.779,2.765-5.448,5.421-8.004,7.963c-0.392,0.39-0.709,0.954-0.709,1.26v0.555    c0,0.118,0.008,0.227,0.023,0.324c0.026,0.177,0.395-0.008,0.779-0.403c1.216-1.258,2.434-2.514,3.645-3.75    c1.732-1.79,3.448-3.559,5.154-5.314c0.385-0.396,1.061-0.458,1.512-0.139c0.736,0.521,1.473,1.044,2.209,1.564    c0.043,0.031,0.095,0.06,0.151,0.086c3.769,1.54,6.725-1.732,9.57-3.749c3.484-2.468,8.865-4.932,11.338-8.489    c0.256-0.368,0.197-0.82-0.265-0.987c-1.755-0.634-3.598-0.404-5.452-0.404c-4.124,0-8.248,0-12.372,0c-4.224,0-8.448,0-12.672,0    c-1.973,0-4.062-0.295-5.935,0.382c-0.431,0.156-1.063,0.603-0.695,1.134c1.108,1.595,2.917,2.815,4.698,3.942    c0.467,0.295,0.528,0.848,0.135,1.234c-0.125,0.123-0.251,0.247-0.376,0.37c-0.393,0.388-1.078,0.442-1.528,0.124    c-1.257-0.892-2.514-1.783-3.773-2.675c-0.049-0.034-0.102-0.062-0.158-0.083c-0.064-0.03-0.121-0.056-0.174-0.076    c-0.097-0.04-0.178-0.414-0.178-0.843c0-0.428-0.321-0.463-0.718-0.077c-0.046,0.044-0.091,0.088-0.137,0.132    c-0.396,0.384-0.739,0.706-0.767,0.719c-0.026,0.013,0.273-0.287,0.669-0.672c0.078-0.076,0.156-0.153,0.235-0.23    c0.396-0.385,0.383-0.398-0.019-0.02c-0.133,0.125-0.265,0.251-0.398,0.378c-0.398,0.382-0.789,0.749-0.867,0.824    c-0.077,0.076-0.453,0.456-0.85,0.84c-0.571,0.554-1.152,1.117-1.746,1.69c-0.794,0.814,0.059-0.001,1.618-1.514    c0.397-0.385,0.698-0.669,0.674-0.634c-0.025,0.034-0.364,0.376-0.761,0.761c-0.473,0.458-0.955,0.926-1.446,1.403    c-0.396,0.385-0.718,1.143-0.718,1.696v0.211c0,0.552,0.312,0.679,0.698,0.282c0.267-0.272,0.532-0.545,0.799-0.817    c0.386-0.396,0.662-0.27,0.649,0.283c-0.012,0.473-0.008,0.952,0.007,1.423c0.016,0.552-0.273,1.316-0.662,1.709    c-0.263,0.265-0.525,0.53-0.789,0.796c-0.388,0.393-0.702,0.795-0.702,0.896c0,0.103,0.329-0.12,0.732-0.497    c0.255-0.239,0.51-0.479,0.765-0.72c0.402-0.379,0.756-0.239,0.796,0.312c0.05,0.69,0.093,1.255,0.093,1.601    c0,0.146-0.011,0.384-0.026,0.688c-0.019,0.379-0.354,1.001-0.747,1.39c-0.3,0.296-0.601,0.593-0.901,0.891    c-0.394,0.389-0.711,1.15-0.711,1.703v1.113c0,0.552,0.312,0.677,0.696,0.28c0.288-0.299,0.575-0.596,0.862-0.893    c0.385-0.396,0.701-0.269,0.734,0.282c0.001,0.029,0.003,0.058,0.005,0.087c0.035,0.551-0.22,1.317-0.604,1.714    c-0.333,0.343-0.666,0.687-0.998,1.029c-0.384,0.396-0.695,1.03-0.695,1.413s0.317,0.378,0.707-0.014    c0.538-0.536,1.076-1.074,1.615-1.61c0.05-0.049,0.1-0.1,0.149-0.148c0.083-0.082,0.219,0.137,0.359,0.464    c0.141,0.328,0.006,0.876-0.384,1.269c-0.581,0.584-1.162,1.168-1.742,1.753c-0.39,0.392-0.705,0.744-0.705,0.786    s0.317-0.24,0.708-0.63c0.605-0.604,1.214-1.207,1.821-1.811c0.393-0.389,1.059-0.302,1.608-0.356    c0.412-0.041,0.91-0.297,1.513-0.832c2.033-1.805,4.066-3.608,6.1-5.413C14.885,30.27,17.662,28.577,17.938,27.114z     M16.396,22.294c-0.128,0.133-0.257,0.265-0.385,0.397c-0.385,0.396-0.907,0.586-1.165,0.418    c-0.159-0.104-0.314-0.208-0.461-0.311c-0.062-0.043-0.122-0.086-0.183-0.129c-0.101-0.071,0.131-0.45,0.516-0.846    c0.138-0.141,0.274-0.28,0.41-0.42c0.386-0.396,0.754-0.68,0.82-0.635c0.04,0.027,0.08,0.054,0.119,0.081    c0.171,0.121,0.342,0.242,0.513,0.363C16.865,21.412,16.782,21.896,16.396,22.294z M11.848,15.825    c-0.403-0.377-0.261-0.798,0.288-0.857c2.897-0.315,6.318,0.206,8.936,0.206c6.166,0,12.333,0,18.5,0c1.193,0,2.389,0,3.583,0    c0.553,0,0.565,0.116,0.104,0.417c-0.912,0.593-2.162,1.654-2.741,2.065c-2.588,1.833-5.177,3.667-7.765,5.5    c-1.469,1.04-3.332,3.044-5.3,3.044c-0.553,0-1.345-0.435-1.795-0.755c-2.165-1.534-4.332-3.068-6.497-4.604    C17.019,19.322,13.948,17.781,11.848,15.825z M6.512,35.128c0-0.181,0-0.359,0-0.538c0-0.297,0.01-0.891,0.011-1.324    c0.002-0.393,0.002-0.786,0.002-0.786c-0.007-0.4-0.01-0.805-0.012-1.211c-0.002-0.552,0.009-1.187,0.01-1.417    c0.002-0.208,0.002-0.417,0.002-0.417c0.062-1.602,0.349-6.741,0.255-8.943c-0.024-0.552,0.227-0.725,0.677-0.404    c2.513,1.78,5.026,3.562,7.539,5.344c1.945,1.379,0.103,2.554-1.02,3.551c-1.764,1.564-3.526,3.129-5.29,4.694    C8.021,34.265,6.512,36.227,6.512,35.128z" fill="#4e4e4e"/>
		<path d="M46.431,18.238l0.18-0.127c0.45-0.318,1.151-0.875,1.565-1.24c0.825-0.728,1.65-1.456,2.472-2.18    c0.414-0.365,0.615-0.746,0.428-0.784c-0.19-0.039-0.669,0.273-1.065,0.657c-1.225,1.188-2.45,2.373-3.676,3.557    C45.937,18.506,45.979,18.557,46.431,18.238z" fill="#4e4e4e"/>
		<path d="M2.88,18.282c1.245-1.212,2.514-2.449,3.801-3.718c0.394-0.388,0.711-1.126,0.711-1.647c0-0.523-0.317-0.632-0.709-0.242    c-1.273,1.264-2.544,2.523-3.81,3.782c-0.393,0.389-0.71,1.111-0.71,1.614C2.163,18.572,2.485,18.668,2.88,18.282z" fill="#4e4e4e"/>
		<path d="M36.194,25.489c0.389-0.274,1.026-0.806,1.428-1.187c3.484-3.315,6.681-6.367,9.541-9.114    c0.217-0.21,0.444-0.433,0.683-0.663c0.377-0.366,0.654-0.664,0.618-0.664c-0.035,0-0.277,0.204-0.542,0.455    c-0.265,0.25-0.27,0.25-0.012-0.001c0.259-0.25,0.397-0.454,0.309-0.454s-0.481,0.312-0.879,0.696    c-3.174,3.075-6.316,6.135-9.396,9.159c-0.395,0.387-0.395,0.386-0.001-0.001c4.062-3.997,9.662-9.484,8.698-8.625    c-3.553,3.474-7.026,6.868-10.437,10.2C35.811,25.675,35.805,25.765,36.194,25.489z" fill="#4e4e4e"/>
		<path d="M48.676,37.979c-0.302,0.309-0.602,0.618-0.904,0.927c-0.386,0.396-0.501,0.715-0.257,0.715s0.523-0.08,0.624-0.179    l0.184-0.18c0.282-0.284,0.565-0.568,0.85-0.854c0.389-0.392,0.592-0.807,0.454-0.928C49.487,37.36,49.061,37.584,48.676,37.979z" fill="#4e4e4e"/>
	</g>
</g>
<g>
</g>
<g>
</g>
<g>
</g>
<g>
</g>
<g>
</g>
<g>
</g>
<g>
</g>
<g>
</g>
<g>
</g>
<g>
</g>
<g>
</g>
<g>
</g>
<g>
</g>
<g>
</g>
<g>
</g>
</svg>
