<?xml version="1.0" encoding="iso-8859-1"?>
<!-- Generator: Adobe Illustrator 16.0.0, SVG Export Plug-In . SVG Version: 6.00 Build 0)  -->
<!DOCTYPE svg PUBLIC "-//W3C//DTD SVG 1.1//EN" "http://www.w3.org/Graphics/SVG/1.1/DTD/svg11.dtd">
<svg xmlns="http://www.w3.org/2000/svg" xmlns:xlink="http://www.w3.org/1999/xlink" version="1.1" id="Capa_1" x="0px" y="0px" width="512px" height="512px" viewBox="0 0 53.907 53.907" style="enable-background:new 0 0 53.907 53.907;" xml:space="preserve">
<g>
	<g>
		<path d="M21.406,33.58c0.557-0.526,1.009-0.968,1.008-0.986c0-0.018-0.452,0.408-1.009,0.953    C20.848,34.09,20.849,34.106,21.406,33.58z" fill="#4e4e4e"/>
		<path d="M15.893,27.382c3.693,0,2.512,6.861,2.512,8.687c0,3.688,0,7.376,0,11.063c0,1.399-0.653,5.569,1.369,6.116    c2.498,0.676,12.282,1.868,12.282-2.726c0-6.08,0-12.161,0-18.241c0-0.979,0-1.958,0-2.938c0-2.573,2.321-1.961,3.873-1.961    c2.634,0,4.12-0.933,4.443-3.557c0.292-2.363,1.536-6.163-2.111-6.163c-1.283,0-2.566,0-3.851,0c-2.943,0-3.103-7.078-1.046-7.078    c1.845,0,4.559,0.421,6.235-0.695c2.273-1.514,1.689-6.006,1.085-8.242c-0.707-2.612-8.687-1.353-10.665-1.289    c-4.589,0.147-9.163,2.39-10.905,6.614c-0.421,1.021-0.558,1.937-0.561,1.963c-0.003,0.023-0.011,0.035-0.012,0.047    c-0.164,2.158,0.81,8.49-2.064,8.681c-2.376,0.158-3.786,1.501-3.786,3.887C12.691,24.187,12.291,27.382,15.893,27.382z     M21.047,6.594c0.855-1.998,2.341-3.263,4.152-4.066c1.01-0.448,1.254-0.02,0.475,0.762c-1.263,1.266-2.525,2.532-3.788,3.799    C21.106,7.872,20.613,7.61,21.047,6.594z M15.543,19.396c0.444-0.453,0.889-0.86,0.995-0.907c0.106-0.046-0.271,0.397-0.843,0.987    c-0.572,0.59-1.023,0.994-1,0.903C14.717,20.288,15.099,19.849,15.543,19.396z M14.622,21.033c0-0.079,0.004-0.154,0.009-0.227    c0.01-0.125,0.514-0.721,1.113-1.332c0.6-0.611,1.696-1.318,2.435-1.615c0.739-0.296,1.147-0.475,0.946-0.289    c-0.201,0.186-0.497,0.391-0.617,0.515c-0.119,0.123,0.199-0.015,0.761-0.164c0.32-0.085,0.665-0.141,1.037-0.166    c0.091-0.006,0.179-0.019,0.262-0.038c0.143-0.033,0.466-0.288,0.727-0.545c0.261-0.257,0.743-1.003,0.89-1.721    c0.146-0.719-0.293-0.84-0.867-0.252c-0.573,0.588-0.87,0.681-0.778,0.175c0.092-0.505,0.502-1.329,0.986-1.827    c0.484-0.498,0.877-0.922,0.877-0.947c0-0.025-0.391,0.36-0.875,0.859c-0.483,0.499-0.873,0.868-0.87,0.824    s0.391-0.469,0.871-0.945s0.871-1.224,0.862-1.677c-0.009-0.453-0.375-0.494-0.813-0.09c-0.267,0.246-0.531,0.489-0.792,0.73    c-0.022,0.022-0.045,0.044-0.068,0.067c-0.037,0.037-0.102-0.619-0.16-1.463c-0.057-0.844,0.501-2.122,1.229-2.856    c0.729-0.733,1.681-2.157,2.346-3.039c0.582-0.771,1.276-1.446,2.052-2.023c0.886-0.659,1.773-1.119,1.862-1.207    c0.089-0.088,1.042-0.333,2.14-0.447c1.837-0.191,3.726-0.204,5.475-0.204c4.568,0,4.92,8.63,0.624,8.63    c-1.624,0-3.993-0.225-5.215,1.174c-1.626,1.861-1.31,5.474,0.368,7.152c2.684,2.684,8.114-2.769,7.215,4.513    c-0.236,1.914,0.011,3.959-2.559,3.959c-0.854,0-1.846-0.141-2.688,0.087c-5.215,1.41-3.286,8.981-3.286,13.209    c0,3.287,0,6.574,0,9.862c0,4.023-3.382,3.062-6.463,3.062c-0.351,0-0.664-0.029-0.945-0.083c-0.515-0.099-0.775-0.427-0.625-0.58    c0.149-0.153,0.131-0.168-0.033-0.023c-0.164,0.146-0.555,0.132-0.812-0.116c-0.257-0.247-0.213-0.685,0.016-0.903    c0.138-0.132,0.276-0.266,0.414-0.398c0.079-0.081,0.157-0.161,0.234-0.241c0.129-0.133,0.217-0.794,0.245-1.476    c0.027-0.682-0.357-0.809-0.876-0.285c-0.52,0.523-0.989,0.275-0.972-0.555c0.01-0.515,0.031-1.025,0.031-1.502    c0-0.049,0-0.099,0-0.147c0-0.082,0.424-0.601,0.949-1.16c0.524-0.559,0.95-1.646,0.95-2.425s-0.423-0.994-0.948-0.48    c-0.525,0.513-0.951,0.031-0.951-1.073c0-0.086,0-0.172,0-0.258c0-1.104,0.424-2.425,0.949-2.951    c0.524-0.526,0.95-1.179,0.95-1.458c0-0.168,0-0.336,0-0.504c0-0.027,0.001-0.06,0.003-0.091c0.002-0.051-0.424,0.301-0.95,0.787    c-0.526,0.484-0.951,0.192-0.951-0.654c0-0.511,0-1.023,0-1.533c0-0.647,0.021-1.302,0.036-1.958    c0.026-1.082,0.367-2.292,0.811-2.703c0.443-0.411,0.712-1.03,0.533-1.35c-0.179-0.321-0.631-0.312-0.93-0.034    c-0.298,0.277-0.576,0.226-0.64-0.112c-0.039-0.204-0.084-0.405-0.139-0.606c-0.015-0.055-0.035-0.105-0.058-0.154    c-0.039-0.082-0.055-0.168-0.025-0.195c0.029-0.026,0.012-0.054-0.038-0.06c-0.05-0.006-0.54-0.532-1.313-0.75    c-0.505-0.143-1.042-0.188-1.438-0.188c-0.015,0-0.029-0.001-0.043-0.003c-0.023-0.002-0.01-0.036,0.028-0.076    c0.039-0.04-0.055-0.242-0.168-0.474s-0.346-0.261-0.559-0.048c-0.213,0.212-1.086,0.085-1.446-0.686    c-0.36-0.771,0.079-1.915,0.609-2.439c0.531-0.523,0.963-1.003,0.963-1.069c0.001-0.04,0.001-0.081,0.001-0.12    c0-0.359,0.035-0.693,0.102-1.002c0.116-0.544-0.201-0.402-0.855,0.273c-0.654,0.676-1.173,0.978-1.16,0.672    C14.616,21.385,14.622,21.199,14.622,21.033z" fill="#4e4e4e"/>
	</g>
</g>
<g>
</g>
<g>
</g>
<g>
</g>
<g>
</g>
<g>
</g>
<g>
</g>
<g>
</g>
<g>
</g>
<g>
</g>
<g>
</g>
<g>
</g>
<g>
</g>
<g>
</g>
<g>
</g>
<g>
</g>
</svg>
