<?xml version="1.0" encoding="UTF-8"?>
<!DOCTYPE svg PUBLIC "-//W3C//DTD SVG 1.1//EN" "http://www.w3.org/Graphics/SVG/1.1/DTD/svg11.dtd">
<!-- Creator: CorelDRAW X7 -->
<svg xmlns="http://www.w3.org/2000/svg" xml:space="preserve" width="297mm" height="210mm" version="1.1" style="shape-rendering:geometricPrecision; text-rendering:geometricPrecision; image-rendering:optimizeQuality; fill-rule:evenodd; clip-rule:evenodd"
viewBox="0 0 29700 21000"
 xmlns:xlink="http://www.w3.org/1999/xlink">
 <defs>
  <style type="text/css">
   <![CDATA[
    .fil2 {fill:#323232}
    .fil7 {fill:#343434}
    .fil5 {fill:#353535}
    .fil4 {fill:#363636}
    .fil3 {fill:#383838}
    .fil13 {fill:#393939}
    .fil12 {fill:#3A3A3A}
    .fil6 {fill:#3B3B3B}
    .fil16 {fill:#3C3C3C}
    .fil8 {fill:#3D3D3D}
    .fil19 {fill:#3F3F3F}
    .fil14 {fill:#404040}
    .fil25 {fill:#414141}
    .fil11 {fill:#424242}
    .fil18 {fill:#434343}
    .fil22 {fill:#444444}
    .fil15 {fill:#454545}
    .fil27 {fill:#484848}
    .fil45 {fill:#4B4B4B}
    .fil32 {fill:#4C4C4C}
    .fil26 {fill:#4D4D4D}
    .fil17 {fill:#4F4F4F}
    .fil24 {fill:#515151}
    .fil23 {fill:#545454}
    .fil20 {fill:#555555}
    .fil44 {fill:#5B5B5B}
    .fil30 {fill:#606060}
    .fil31 {fill:#626262}
    .fil37 {fill:#666666}
    .fil42 {fill:dimgray}
    .fil35 {fill:#717171}
    .fil36 {fill:#929292}
    .fil34 {fill:#969696}
    .fil33 {fill:#979797}
    .fil46 {fill:#9A9A9A}
    .fil39 {fill:#B1B1B1}
    .fil41 {fill:#BDBDBD}
    .fil43 {fill:#C4C4C4}
    .fil10 {fill:#C6C6C6}
    .fil40 {fill:#D7D7D7}
    .fil28 {fill:#E2E2E2}
    .fil38 {fill:#E5E5E5}
    .fil29 {fill:#E8E8E8}
    .fil21 {fill:#EAEAEA}
    .fil9 {fill:#F0F0F0}
    .fil1 {fill:#F1F1F1}
    .fil0 {fill:white}
   ]]>
  </style>
 </defs>
 <g id="Слой_x0020_1">
  <metadata id="CorelCorpID_0Corel-Layer"/>
  <g id="_630669328">
   <path class="fil0" d="M3017 15428l33 -144c47,127 42,335 32,473 -60,-75 -65,-227 -65,-329zm9094 -3613c20,-21 34,-45 41,-70l56 975c21,405 20,816 20,1228 0,404 9,846 -12,1246 -21,399 -58,777 -66,1187 -132,29 -434,-22 -550,-60 -89,-28 -1477,98 -1669,105 -402,14 -771,-25 -1168,-40 -664,-25 -1718,-105 -2312,-104 -814,2 -2879,42 -3469,-157 -9,-144 41,40 7,-343l-8 -1230c0,-564 -68,-524 -8,-1186 12,-134 0,-262 4,-397 12,-494 -14,-1114 56,-1586 78,-518 20,-965 135,-1487 18,80 15,179 51,234 15,-121 -1,-305 -4,-433 -2,-62 0,-145 -5,-205 -3,-31 0,-41 -17,-60 -32,-37 -19,25 -25,-6 -1,-3 -5,2 -7,1 -100,-444 -43,-946 -65,-1418 -21,-462 -68,-952 -57,-1416 7,-353 39,-745 35,-1084 -3,-264 46,-112 62,-291l53 -1411c-11,193 -59,423 -76,637 -15,176 11,535 -54,675 -3,-294 -22,-588 -6,-882 8,-153 37,-253 16,-408 -21,-154 42,-189 61,-312l-70 48c-3,-117 42,-244 98,-318 327,10 618,61 960,52 306,-8 593,-72 895,-77 53,1048 -99,826 626,823 364,-1 101,-95 478,-81 534,21 1691,-2 2251,-22 366,-12 747,14 1119,15 111,122 38,128 360,91 123,-14 323,-15 433,-43 255,-66 49,-610 100,-796 380,-25 615,63 967,60 227,-1 788,-87 968,-41 91,510 27,1668 33,2239 2,199 21,353 6,547 -14,179 -33,364 -42,539 -65,1146 90,2182 -7,3374 -14,176 -28,360 -34,541 -28,918 68,433 -343,831l-152 140c-37,31 -89,81 -112,131 -5,-50 -15,-98 -30,-145 25,-51 44,-104 57,-158 19,-44 33,-88 44,-133 68,-117 105,-250 105,-388l0 -1379c0,-95 -17,-187 -49,-271 -7,-53 -19,-105 -37,-155 0,-132 -30,-256 -94,-372 -3,-26 -8,-51 -15,-76 1,-244 -4,-501 -8,-525 -6,-34 -9,-51 -12,-61l0 -435c0,-129 -32,-251 -88,-357 -7,-89 -28,-173 -62,-251 -7,-32 -17,-64 -29,-94 -13,-105 -48,-203 -99,-290 -13,-54 -31,-107 -55,-156l31 62 0 -78c0,-207 -81,-398 -227,-544 -20,-49 -46,-96 -69,-142l-43 -87c-77,-154 -199,-271 -343,-342l-43 -22 -89 -59c-133,-89 -283,-130 -432,-129l-165 0c-211,0 -403,86 -541,224l-43 43c-133,133 -207,302 -222,475 -148,-197 -372,-312 -620,-311l-297 0c-287,0 -537,158 -668,391 -139,-248 -405,-397 -685,-391l-285 0c-170,0 -327,55 -454,149 -15,-76 -38,-144 -74,-213l-36 -73 -44 -86c-136,-273 -413,-429 -699,-423l-28 0c-128,0 -248,31 -354,86 -32,16 -66,32 -98,50 -138,-138 -329,-223 -539,-223 -423,0 -765,343 -765,766l0 336 31 -62c-48,100 -74,211 -74,329l0 372 138 -138c-92,92 -160,207 -196,335 -99,129 -158,290 -158,465l0 905c0,86 15,172 43,253 0,89 14,174 43,259l0 263c0,89 16,174 43,254 0,89 14,174 44,258l0 91c0,87 14,172 43,253 -1,87 13,176 44,262 3,71 17,143 42,212l0 1247 31 -62c-48,99 -74,211 -74,328l0 991c0,423 342,766 765,766l74 0c119,2 240,-24 354,-81l73 -37c137,-64 251,-169 328,-297 3,420 344,759 765,759l79 0c149,2 299,-40 432,-128l120 -80c111,-72 205,-174 269,-301l28 -55 20 8 -2 -2c17,17 33,26 55,36 12,9 25,18 39,25 30,31 56,40 95,52l0 8c0,90 73,163 163,163l-33 0c27,16 52,32 82,39l134 31 263 84c5,2 10,3 16,4l204 44 80 40c20,10 47,17 69,24 19,12 41,27 61,35l42 17c17,10 36,22 54,31l80 41c43,25 84,49 127,74 14,8 30,14 46,17l74 17 98 53c13,7 26,12 39,15 48,12 96,25 145,36 12,9 22,15 35,21 19,26 35,44 65,59 18,19 38,30 60,45 5,4 11,7 17,10 17,14 31,22 50,29 9,8 18,14 28,21 24,14 47,28 72,41 20,33 51,57 88,69 6,4 12,8 18,11 20,20 41,34 68,43 21,15 40,20 63,28 19,10 34,15 54,22 16,8 29,14 45,18 7,5 14,10 21,14 37,23 104,57 74,47l-4 -2 37 37c13,13 20,30 33,44l18 18c20,19 27,49 47,68l22 22c15,60 63,106 123,119 10,13 20,25 34,36l43 32c21,16 45,36 68,48l34 17 56 37c4,3 7,5 11,7l97 54c24,13 52,20 79,20l128 0 0 10c0,146 177,216 278,115 24,-24 48,-44 63,-75l5 -9c36,-25 61,-56 72,-99l0 0 0 -1 1 -2 43 -54c20,-24 30,-55 42,-84 13,-24 29,-49 42,-74l25 -51c14,-18 29,-36 39,-56l21 -41c33,-34 54,-52 67,-101l2 -8 15 -19c13,-13 27,-26 38,-39l43 -54c3,-4 6,-8 9,-12l43 -64c2,-3 4,-7 6,-10l39 -68 49 -69c5,-7 9,-14 13,-22l32 -64c4,-7 7,-14 9,-22l53 -158 49 -128 51 -102c3,-6 6,-14 9,-21 10,-33 21,-63 29,-96 13,-21 27,-42 35,-65l7 -22 1 -2 38 -56c13,-21 26,-45 38,-67 9,-9 16,-19 23,-31 30,-23 59,-46 88,-70 29,-23 44,-53 63,-85l66 -75c14,-16 28,-35 42,-52 33,-34 59,-57 70,-106 2,-6 4,-11 6,-17 60,-85 24,-204 -70,-244 32,-85 51,-178 51,-275l0 -43c0,-62 -8,-121 -21,-179 2,-9 5,-14 9,-22 14,-16 23,-34 32,-53 18,-17 32,-39 41,-62 16,-18 24,-37 35,-58 19,-22 40,-64 46,-92 7,-16 11,-32 19,-48 9,-18 18,-35 23,-54zm35 -180c-8,-18 -20,-36 -35,-51 -15,-15 -32,-27 -50,-34 14,-17 32,-23 78,-27l7 112zm-127 -97c-21,-3 -43,-2 -64,3 18,-7 38,-13 59,-19l5 16zm-104 20c-12,7 -24,15 -34,26 -47,46 -88,78 -91,151 -9,18 -14,34 -20,52 -9,18 -17,35 -26,53l-23 22 -18 -19c-50,-92 -117,-165 -193,-236l1 0 157 157 0 -113c0,-19 -1,-37 -2,-54 109,30 165,-3 249,-39zm-365 -3288c-30,-48 -66,-93 -106,-133l106 106 0 27zm-2228 5404l12 -69 0 72 -12 -3zm-6294 -622l27 -680c46,149 46,960 51,1222 0,25 1,61 -2,85l-29 87c-53,-126 -47,-547 -47,-714zm115 -1061l64 -1333c60,226 31,1145 -64,1333zm5 -3090c-34,-199 -17,-560 21,-758 35,148 2,594 -21,758z"/>
   <path class="fil1" d="M23237 16162c42,24 86,44 131,60l6 4 122 82c80,53 166,89 254,110l59 52c43,161 138,310 281,419 -166,-70 -351,-271 -462,-363l-391 -364zm2631 2043l13 10c193,142 430,183 646,132 48,22 98,40 150,52l16 7 6 6c-64,-9 -125,-15 -182,-19 -15,35 -7,-32 16,17 27,56 31,-38 5,28 -137,16 -361,73 -441,-27 -85,-108 -161,-140 -229,-206z"/>
   <path class="fil1" d="M22715 21003c10,-307 311,-1041 451,-1362l175 -389c3,-4 7,-9 10,-13l-636 1764zm-178 -269c-46,-112 229,-967 279,-1110 105,-298 381,-887 422,-1019 23,26 57,20 7,154 -18,47 -35,81 -57,132 -189,428 -339,861 -484,1309 -37,117 -107,474 -167,534zm-257 -297c1,-389 499,-1864 694,-2013 -37,144 -134,350 -191,500 -171,451 -283,789 -414,1253 -13,46 -24,88 -35,132 -5,20 -12,47 -19,65l-35 63zm-227 -550c0,-421 250,-1011 433,-1386 70,-143 137,-331 227,-366 -154,492 -602,1157 -619,1899 -45,-21 -41,-49 -41,-147zm-266 -346c-95,-124 147,-752 205,-886 66,-149 283,-690 404,-756 -37,127 -343,679 -500,1202 -28,93 -75,386 -109,440zm-182 -736c19,-321 329,-936 502,-1084l-502 1084zm-259 -757c4,-67 101,-491 151,-559 40,174 -33,476 -151,559zm59 475c-65,-265 358,-919 393,-1003 -21,115 -149,357 -204,486 -73,173 -119,359 -189,517zm-506 -1299c-31,-37 -28,4 -27,-62l144 -353c49,84 -93,317 -117,415zm-86 -528c7,-134 105,-286 179,-346 -8,77 -134,283 -179,346zm-793 -507c-6,-80 22,-137 76,-200 49,-56 11,-16 56,-41l-132 241zm-290 -138c6,-125 49,-211 100,-308 64,-121 81,-137 160,-225 -25,99 -205,456 -260,533zm-299 -254c-35,-80 222,-622 295,-677 0,118 -89,259 -139,357 -34,69 -118,284 -156,320zm-161 -356c-5,-118 156,-481 204,-532 23,45 22,6 -29,135 -18,48 -35,89 -53,134 -28,68 -78,217 -122,263zm-217 -150c20,-168 66,-270 130,-404 38,-81 130,-284 185,-328 6,79 -206,572 -281,691l-34 41zm-201 -157c-7,-228 107,-453 191,-658 85,-210 59,-147 116,-176l-307 834zm-246 -148c2,-175 243,-774 336,-818 -8,109 -281,673 -336,818zm-135 -261c13,-220 203,-543 313,-652 -35,100 -96,232 -147,331 -48,95 -116,265 -166,321zm-831 -450c-18,-31 36,-421 95,-477l-95 477zm678 351c-40,-318 183,-818 185,-873 -16,216 -172,725 -185,873zm-1349 -1822l35 311 0 229c0,140 0,385 -44,501l-17 -293 2 -83 24 -665zm499 1359c-7,-145 23,-302 52,-439 14,-67 29,-133 45,-205 7,-33 14,-70 23,-104l31 -81c0,144 -24,300 -50,438l-64 312c-4,12 -11,33 -18,48l-19 31zm-259 -1292c71,122 25,397 13,557 -7,95 -11,473 -92,536l79 -1093zm45 1297c-25,-176 87,-925 157,-1069 23,26 20,-5 22,56l-179 1013zm-824 -920c-103,-196 -123,-497 -109,-746l109 746zm-210 -22c-103,-185 -106,-506 -102,-744 29,58 28,101 37,175l65 569zm-784 -267c-112,-154 -110,-572 -78,-732l78 732zm497 174c-115,-199 -151,-627 -120,-831 53,101 45,316 69,451 25,146 68,289 92,435l-41 -55zm-394 -831c0,-69 8,-97 29,-141 20,726 131,730 168,1029 -81,-113 -102,-157 -144,-342 -49,-215 -52,-336 -53,-546zm1122 126c12,16 14,-4 25,61l73 1120c-106,-140 -111,-1139 -98,-1181zm-1681 -11c-16,-86 -31,-272 14,-335 54,75 31,281 -14,335zm-361 -171c-32,-74 3,-277 21,-317 5,11 9,5 13,42l-19 243c-1,5 -6,19 -7,17 -1,-3 -5,10 -8,15zm177 23c11,-87 19,-259 79,-321l-38 257c-35,107 2,15 -41,64zm-374 -79c-49,-142 -41,-299 28,-425l-28 425zm-229 -102c-67,-134 -20,-303 51,-414l-51 414zm-341 -208c-49,-106 -2,-189 54,-278l-54 278zm165 30c-24,-146 -20,-286 76,-370l-76 370zm-544 -171c-98,-87 -39,-274 -2,-377 34,-93 112,-230 196,-271 -33,111 -79,199 -111,313 -43,149 -31,270 -83,335zm-148 -94c-33,-219 36,-306 126,-470 125,-230 146,-360 267,-355 -59,119 -150,212 -220,381l-142 403c-23,45 -9,16 -31,41zm-398 -456c17,-205 145,-412 279,-477 -32,82 -107,138 -158,227l-121 250zm3901 -721c-22,-37 -31,49 -11,-51l153 -327c5,140 -71,305 -142,378zm1408 -31c8,51 2,26 -12,50 -45,-59 -179,-449 -187,-536 57,45 127,289 171,408 3,6 28,76 28,78zm-1472 -505c-10,65 2,71 -45,99 -25,91 -110,206 -161,271l-150 184c-37,46 -15,24 -60,52 90,-251 306,-412 360,-529 34,-64 21,-20 0,-38 -279,50 -278,137 -410,322 -54,77 -94,134 -156,219 -62,85 -95,163 -162,182 83,-210 289,-411 403,-596 -458,82 -283,194 -458,447 -280,403 -316,203 -424,480l385 -145c-60,172 -385,290 -620,320 -876,110 -891,-137 -1350,-425 -123,-77 -595,-291 -744,-135 -65,67 -116,4 -169,150 -21,58 -32,104 -49,159 -7,23 -17,59 -26,79 -17,43 4,-2 -23,47l-19 30c9,-147 62,-280 123,-387l-134 -34c-67,87 -124,108 -163,252 -33,119 -36,272 0,377 76,79 87,-9 158,142 -68,-25 -65,-41 -123,-67 24,130 350,355 472,417 104,53 94,79 161,132 225,178 324,-206 1209,583 195,173 568,815 811,959 233,138 924,550 1179,614 83,21 162,21 241,49 83,30 120,61 198,95 175,77 254,79 415,189 110,75 256,138 367,217 310,221 849,945 1103,1252 215,261 500,363 655,532 402,442 459,586 689,1103l399 789c352,576 345,546 601,1171 55,133 11,152 48,262 11,33 710,1170 747,1302l985 0c26,-185 367,-1076 484,-1359 9,-21 11,-26 22,-43 18,-29 12,-20 32,-39 35,130 -417,1235 -496,1441l256 0c17,-110 81,-236 120,-342l115 -287c2,-4 10,-5 11,-14 2,-9 9,-10 13,-15 -23,195 -145,496 -215,658l255 0c57,-134 196,-165 291,-331 97,-168 84,-287 123,-482 101,-501 432,-755 750,-1083 253,-260 165,-792 1086,-726 -159,-207 -1533,-1162 -1799,-1333 -314,-201 -602,-442 -871,-692l-999 -939c-319,-282 -450,-428 -822,-741 -347,-291 -954,-1097 -1218,-1490 -245,-363 -257,-242 -385,-386 -72,-82 -98,-136 -204,-191 -147,-77 -109,-110 -206,-170 -170,-31 -401,121 -471,83 79,-75 304,-102 409,-167l-363 -1013c-115,-345 -204,-688 -330,-1024 -125,-336 -291,-626 -364,-989 -47,-231 -116,-291 -333,-356 -160,-48 -398,-79 -566,-93 29,59 44,95 88,155 104,144 317,137 280,399 -33,236 177,334 170,713 -47,-59 -134,-368 -227,-563 -226,41 -733,296 -899,297z"/>
   <path class="fil0" d="M9761 18968l39 -126c24,18 20,-13 36,35 38,108 -68,90 -75,91zm-3860 32c95,-101 413,-168 570,-154 -5,2 -534,148 -570,154zm604 -157c211,-122 1114,34 1378,90 583,125 796,35 1273,-175 581,-256 789,-82 1380,-102 494,-18 865,-151 1331,-229 487,-80 933,-116 1422,-24 215,40 1230,286 840,577 -228,171 -2019,224 -2505,204 -488,-19 -261,-321 523,-437 182,-27 834,-99 997,57 -377,-70 -556,-70 -940,-19 -235,32 -680,113 -789,268 57,105 132,85 273,93 124,6 244,9 368,6 237,-7 487,-26 729,-43 269,-19 1203,-38 1335,-181 238,-260 -813,-466 -952,-488 -1043,-164 -1915,278 -2696,276 -587,-2 -773,-138 -1334,108 -437,192 -694,301 -1233,170 -549,-133 -825,-127 -1400,-151zm-801 -909c577,206 281,126 954,146 -140,93 -608,33 -792,-25 -231,-72 -171,-51 -162,-121zm2924 -11c6,-80 -20,-26 58,-48 67,-19 10,1 34,18l-92 30zm-1010 -80l76 64c-59,84 -84,76 -208,97 -425,70 -368,56 -802,82 167,-43 287,-59 475,-78 149,-15 247,-7 381,-55 16,-5 30,-10 45,-17 26,-12 29,-17 45,-27l-12 -66zm0 0c-82,-8 -174,-63 -266,-86 -102,-25 -208,-34 -282,-73 149,-3 323,24 456,86l92 73zm2155 -188c-5,3 -12,8 -16,10 -3,2 -10,7 -15,9 -19,9 -15,7 -32,13 -56,21 -97,31 -135,12 39,-47 121,-47 198,-44zm49 4c55,-36 94,-32 171,-33 62,-1 126,-2 188,-2 118,0 237,3 355,12 151,11 493,18 579,146 -56,65 -85,61 -177,68l30 -23c1,-1 24,-16 29,-20 40,-33 21,-3 46,-52 -349,-97 -837,-72 -1221,-96zm2360 -190c-31,89 -159,328 95,487 417,262 970,233 1487,237 56,1 112,2 168,4 113,3 101,-3 152,29 -286,63 -1972,108 -2005,-507 -6,-105 19,-215 103,-250zm-7105 2c68,-49 183,-63 284,-68l-138 48c-56,12 -85,18 -146,20zm5270 -226c381,-16 656,96 946,259 161,90 547,345 487,589 -177,154 -1019,149 -1328,167 -914,53 -5361,462 -6035,97 -112,-60 -101,-98 -41,-210l7 143c322,157 758,163 1172,164 1836,2 3111,-154 4834,-248 343,-18 1100,5 1354,-143 -7,-343 -796,-771 -1333,-770 -493,1 -1540,142 -2105,172 -372,20 -1286,-93 -1729,-110 -165,-6 -497,25 -643,-10l518 -24c636,-9 1108,91 1834,97l2062 -173zm-1700 -470c-70,-32 -32,5 -47,-51 44,22 18,-2 47,51zm3858 -498c108,-106 266,15 450,-54l281 -80c111,-17 49,2 69,14 -128,101 -609,120 -800,120zm-10621 -482l57 3c2,-4 7,3 11,5 -28,17 -24,23 -79,32 -98,17 -51,-4 -63,-11 27,-17 29,-21 74,-29zm-431 -74c-3,-105 -1,-210 -1,-314 0,-215 -27,-224 31,-242 3,83 -5,241 22,312l42 91c-111,34 -31,52 -94,153zm11465 -1315c98,-61 244,-60 352,-2l-352 2zm-378 -524c157,-80 540,-147 746,-159 275,-16 389,13 635,48 195,29 138,34 166,62 -224,3 -351,-96 -812,-59 -223,17 -553,111 -735,108zm-358 3587c137,-205 1339,-379 1561,-387 292,-12 568,36 625,33 40,-222 66,-340 26,-573 -351,45 -953,266 -1302,381 -643,212 -686,227 -1343,20 -349,-110 -1138,-18 -1525,28 -262,31 -495,76 -772,55 -182,-13 -557,-81 -666,-183 138,5 424,125 690,137 714,34 1603,-289 2296,-80 907,273 956,57 1979,-257 115,-35 212,-60 326,-89 72,-18 282,-32 319,-105 26,-85 23,-306 -24,-377 -230,-185 -636,85 -890,35 299,-95 584,-132 898,-115 -4,-79 2,-260 -54,-299 -217,-88 -1368,159 -1563,-15 -79,-159 519,-469 617,-417 -74,59 -237,80 -332,138 -45,27 -109,74 -146,103 -64,51 -95,67 -103,165 157,63 171,42 362,30 198,-13 1091,-31 1161,-76 23,-33 10,3 20,-51 25,-137 -83,-640 -60,-771 23,-127 9,-189 1,-314 -165,-14 -330,20 -496,2l-124 -34c-5,-2 -12,-6 -18,-10 180,10 476,20 620,-34 22,-110 55,-820 31,-930 -333,1 -531,-76 -835,-104 234,-57 507,48 743,47 119,0 112,-49 113,-161 -63,-40 -151,-30 -223,-58 -78,-32 -107,-65 -184,-98 -101,50 -681,463 -699,-201 -135,-25 -249,-72 -390,-95 -109,-18 -236,-27 -346,-5l-88 44c-26,62 -7,424 23,497 123,18 245,-31 349,24l-351 51c-17,77 -17,305 -3,385 29,157 60,16 25,140 -60,209 -26,828 -20,1066 649,-46 1058,-161 1731,-161 -94,54 -674,76 -851,104 -134,21 -270,48 -411,69 -243,36 -441,-15 -468,95 -34,139 -58,883 -71,1073 -5,65 -8,131 -12,196 -5,75 -17,131 -52,161 -37,28 -482,-59 -635,-50 -116,6 -234,24 -356,24 -133,0 -227,-16 -365,-2 -530,55 -885,85 -1426,61 -281,-13 -1216,-108 -1400,-31 -385,164 -666,294 -1123,398 -435,100 -905,128 -1348,17 -1038,-260 -1490,402 -2465,429 -246,6 -1159,-36 -1346,-170 40,-2 304,47 389,57 140,15 279,32 416,43 1069,92 1308,-243 2276,-453 586,-127 779,185 1687,86 271,-29 512,-86 756,-165 121,-39 220,-77 336,-122 96,-37 262,-76 329,-159 -295,-126 -3366,-98 -4072,-121 -327,-11 -774,-134 -933,-122 -214,17 -103,-2 -234,-81 -193,73 -312,176 -570,231 -420,89 -1019,-18 -440,-292 82,-39 258,-125 346,-134 -145,118 -469,190 -540,333 265,174 686,64 958,-61 479,-221 209,-330 262,-548 23,-94 47,-166 11,-268 -4,-1 -11,-7 -13,-2l-41 -2c-143,18 -761,270 -1040,150 -31,-14 -29,-16 -46,-28 370,17 904,-40 1150,-223l-9 -149c-192,75 -332,208 -538,264 -195,54 -494,-38 -559,-239 133,-256 647,-414 936,-508 217,-71 174,-70 170,-305 -285,42 -971,416 -1238,302 309,-48 1003,-216 1237,-390l17 -302c-232,-24 -467,48 -679,74 -184,22 -350,4 -528,-31 -87,-18 -122,4 -177,-22 -37,72 -85,141 -87,245 60,-46 46,-64 128,-89 -35,106 -115,227 -125,331 56,-51 15,-44 100,-57 -38,133 -122,215 -106,377 110,44 -97,-24 37,7l48 14c-122,223 -127,780 -128,1076 112,-10 126,-81 170,-96 52,98 -65,681 35,821 259,361 2006,21 2380,-33 474,-69 1145,-218 1620,-133 397,71 724,282 1129,232 202,-25 185,-55 330,-107l-172 99c-27,11 -51,24 -73,33 -102,41 -228,49 -344,34 -214,-27 -426,-117 -629,-178 -548,-166 -907,-73 -1447,17 -485,81 -2223,413 -2708,179 -44,-21 -90,-68 -115,-37 -78,117 -17,346 -87,466 -103,-237 162,-546 -115,-679l33 1130c47,-80 23,-137 103,-194 54,109 -30,71 129,138 207,89 430,127 658,153 319,37 678,86 1005,84 657,-4 1333,-361 1792,-373 -249,126 -1400,422 -1731,426 -384,5 -1073,-57 -1462,-157 -142,-37 -302,-121 -416,-140 -18,142 -61,224 -56,386 3,123 19,274 43,395 34,14 -14,0 56,-41 10,60 -6,115 -19,144l-29 157c-5,108 -28,232 -4,335 274,31 431,111 721,119 286,7 571,-18 855,-6 547,24 1102,58 1651,32 -34,-79 6,-41 -97,-86 -45,-20 -78,-31 -118,-48 -307,-128 -494,-216 -853,-215 -361,1 -729,-1 -1062,153 -22,10 -32,14 -45,30l-16 41c-1,1 0,7 -2,10 -208,-16 -546,6 -704,-104l65 -6c318,40 345,98 740,-38 516,-178 1208,-218 1719,-4 125,51 232,106 335,165 147,83 173,142 398,82 -109,-207 -311,-299 -503,-415 -258,-156 -350,-202 -710,-248 -717,-91 -1330,78 -1789,-4l886 -67c292,-13 663,-4 943,28 279,31 534,127 719,263 196,143 447,228 524,457 184,-8 414,-21 589,-22 90,-1 157,33 267,34 509,6 1054,-20 1558,19 404,30 640,177 1082,102 591,-99 387,4 631,-305 53,-67 81,-123 210,-100 149,135 -11,180 232,265 126,43 123,13 224,25 55,7 124,56 206,69 155,24 830,45 976,13 -135,-236 -815,-100 -1075,-99l105 -45c38,-9 86,-15 126,-19 246,-29 584,-61 791,58 191,109 233,98 478,100 360,2 1358,70 1695,103 179,17 1018,80 1137,27l85 -1381c-253,0 -905,-57 -1109,-135 292,-14 852,141 1099,71l31 -744c-639,-115 -1069,-3 -1685,130 -242,52 -365,127 -502,162z"/>
   <path class="fil2" d="M9133 19130c216,-133 82,-89 193,-176 64,45 66,77 55,177l-69 -69 -11 114c-39,1 -48,5 -90,-5l-78 -41zm8713 -10234c63,23 131,38 201,44 362,108 321,308 458,747 64,203 135,337 216,514 166,358 277,709 404,1095 191,582 310,1099 753,1497 177,159 217,186 363,389l497 628c9,12 23,28 38,46 38,74 87,142 145,200 22,21 43,43 65,64 7,7 14,15 21,22l130 129c14,15 29,28 44,41 54,64 117,117 186,159 50,81 112,150 183,206 32,40 67,77 105,109 33,39 70,75 110,106 25,32 53,62 83,89 27,30 57,60 86,87 14,15 28,29 43,43 7,7 14,15 21,22l0 0c72,72 144,144 216,215 14,14 29,28 44,41 27,32 56,61 87,87 26,31 55,60 86,86 61,73 135,132 216,176 54,54 114,98 177,132 84,96 187,167 299,212 36,30 75,57 114,80l391 364c111,92 296,293 462,363l9 6 1769 1310c68,66 144,98 229,206 80,100 304,43 441,27 26,-66 22,28 -5,-28 -23,-49 -31,18 -16,-17 57,4 118,10 182,19 5,5 11,11 17,16 18,20 37,38 57,56 58,162 168,304 319,398 72,72 158,126 251,167 5,4 10,8 16,12 87,71 217,154 307,219 171,122 154,152 281,313l-111 67c222,216 785,432 1085,553 233,94 361,137 446,366 47,125 126,141 204,213 75,70 89,152 130,262l-136 0c-49,-156 -111,-176 -213,-271 -92,-86 -117,-180 -198,-262 -149,-150 -927,-330 -1249,-626 -275,-253 -235,-229 -677,-171 -636,83 -981,99 -1498,376 -352,189 -773,568 -933,954l-108 0c94,-424 719,-969 1143,-1165 646,-298 1748,-261 1932,-377 -39,-38 -53,-61 -99,-105 -36,-34 -70,-57 -116,-93 -409,-316 -462,-303 -865,-316 -245,-8 -530,13 -770,36 -124,11 -603,122 -663,81 342,-197 1214,-134 1661,-189 -178,-88 -710,-48 -850,-85 -75,-21 -15,0 -47,-28l786 24c-109,-206 -78,-248 -346,-228 -204,16 -328,78 -540,25 -201,-50 -284,-90 -495,-11 -147,55 -260,153 -318,287 -310,717 -760,655 -891,1533 161,-44 432,-186 603,-259 202,-87 396,-161 613,-227 -57,76 -227,128 -334,172 -118,49 -230,106 -347,154 -532,221 -553,190 -587,451l876 -355c-91,141 -910,342 -1151,675l-260 0c57,-134 196,-165 291,-331 97,-168 84,-287 123,-482 101,-501 432,-755 750,-1083 253,-260 165,-792 1086,-726 -159,-207 -1533,-1162 -1799,-1333 -314,-201 -602,-442 -871,-692l-999 -939c-319,-282 -450,-428 -822,-741 -347,-291 -954,-1097 -1218,-1490 -245,-363 -257,-242 -385,-386 -72,-82 -98,-136 -204,-191 -147,-77 -109,-110 -206,-170 -170,-31 -401,121 -471,83 79,-75 304,-102 409,-167l-363 -1013c-115,-345 -204,-688 -330,-1024 -125,-336 -291,-626 -364,-989 -47,-231 -116,-291 -333,-356 -160,-48 -398,-79 -566,-93 29,59 44,95 88,155 104,144 317,137 280,399 -33,236 177,334 170,713 -47,-59 -134,-368 -227,-563 -226,41 -733,296 -899,297l-56 39c-279,50 -278,137 -410,322 -54,77 -94,134 -156,219 -62,85 -95,163 -162,182 83,-210 289,-411 403,-596 -458,82 -283,194 -458,447 -280,403 -316,203 -424,480l385 -145c-60,172 -385,290 -620,320 -876,110 -891,-137 -1350,-425 -123,-77 -595,-291 -744,-135 -65,67 -116,4 -169,150 -21,58 -32,104 -49,159 -7,23 -17,59 -26,79 -17,43 4,-2 -23,47l-19 30c9,-147 62,-280 123,-387l-134 -34c-67,87 -124,108 -163,252 -33,119 -36,272 0,377 76,79 87,-9 158,142 -68,-25 -65,-41 -123,-67 24,130 350,355 472,417 104,53 94,79 161,132 225,178 324,-206 1209,583 195,173 568,815 811,959 233,138 924,550 1179,614 83,21 162,21 241,49 83,30 120,61 198,95 175,77 254,79 415,189 110,75 256,138 367,217 310,221 849,945 1103,1252 215,261 500,363 655,532 402,442 459,586 689,1103l399 789c352,576 345,546 601,1171 55,133 11,152 48,262 11,33 710,1170 747,1302l-191 0 -464 -829c-283,-474 -167,-271 -292,-687 -163,-542 -696,-1349 -972,-1926 -181,-379 -239,-528 -476,-815 -328,-397 -416,-350 -694,-598 -327,-291 -632,-698 -871,-1068 -76,-117 -220,-222 -309,-300l1 2c-4,-4 -8,-8 -12,-12 -54,-55 -108,-100 -176,-139 -13,-11 -26,-21 -40,-31 -84,-74 -184,-130 -295,-161 -14,-6 -29,-11 -44,-15 -69,-50 -146,-87 -227,-111 -106,-61 -265,-112 -520,-174 -225,-56 -453,-183 -659,-278 -202,-93 -450,-235 -602,-356 -159,-128 -270,-357 -417,-519l-317 135c-37,846 -29,1663 27,2506 44,668 30,1255 -5,1917 -11,213 18,418 3,645 -13,207 -31,414 -39,626 -26,659 72,720 -562,685 -204,-11 -412,-15 -621,-28 -405,-26 -794,-69 -1212,-86 -209,-8 -423,-18 -625,-25 -617,-23 -1238,21 -1828,-137 -199,-53 -137,18 -261,50 -95,25 -153,-29 -285,-16 -698,66 -499,217 -1105,75 -146,-34 -428,-67 -584,-65 -859,7 -1704,-32 -2564,-32 -411,0 -836,20 -1249,3 -439,-19 -848,-38 -1293,-39 -461,0 -736,-136 -846,-108 -113,28 -96,84 -221,22 -30,-154 15,-338 10,-508 -16,-521 -83,-1034 -65,-1562 11,-334 -54,-754 -13,-1056 98,-734 27,-1369 42,-2091 7,-354 24,-708 14,-1062 -20,-718 6,-1433 -16,-2148 -11,-338 -49,-666 -68,-999 -14,-256 -22,-1975 2,-2163 10,-78 37,-144 44,-232 7,-91 -12,-173 5,-262 27,-145 175,-207 63,-355 -108,-142 -167,-124 -164,-384 1,-205 -15,-322 33,-513 129,-522 -52,-2694 33,-3136 470,-186 2705,-69 3398,-94 141,-5 280,-17 417,-25 123,-7 337,40 389,31 37,-7 112,-52 161,-67 199,-61 434,-14 638,-7 553,20 1106,-30 1666,-39 679,-11 1465,7 2147,35 162,7 231,63 374,69 268,13 555,35 821,24 278,-12 572,-29 847,-28 275,1 567,31 854,30 281,0 570,8 854,11 138,1 691,-7 757,100 65,107 3,2516 40,2869 6,58 -17,240 -14,344l24 1813c0,217 -19,521 1,726 470,21 923,92 1401,108 543,19 630,-78 1031,52 361,117 144,161 385,174l497 69c14,2 29,4 43,7zm-5694 2849c11,-36 9,-75 -6,-110l-7 -112c-46,4 -64,10 -78,27 -14,-6 -28,-10 -42,-12l-5 -16c-21,6 -41,12 -59,19 -14,4 -27,9 -40,17 -84,36 -140,69 -249,39 0,-9 -1,-18 -2,-27 23,-50 75,-100 112,-131l152 -140c411,-398 315,87 343,-831 6,-181 20,-365 34,-541 97,-1192 -58,-2228 7,-3374 9,-175 28,-360 42,-539 15,-194 -4,-348 -6,-547 -6,-571 58,-1729 -33,-2239 -180,-46 -741,40 -968,41 -352,3 -587,-85 -967,-60 -51,186 155,730 -100,796 -110,28 -310,29 -433,43 -322,37 -249,31 -360,-91 -372,-1 -753,-27 -1119,-15 -560,20 -1717,43 -2251,22 -377,-14 -114,80 -478,81 -725,3 -573,225 -626,-823 -302,5 -589,69 -895,77 -342,9 -633,-42 -960,-52 -56,74 -101,201 -98,318l70 -48c-19,123 -82,158 -61,312 21,155 -8,255 -16,408 -16,294 3,588 6,882 65,-140 39,-499 54,-675 17,-214 65,-444 76,-637l-53 1411c-16,179 -65,27 -62,291 4,339 -28,731 -35,1084 -11,464 36,954 57,1416 22,472 -35,974 65,1418 2,1 6,-4 7,-1 6,31 -7,-31 25,6 17,19 14,29 17,60 5,60 3,143 5,205 3,128 19,312 4,433 -36,-55 -33,-154 -51,-234 -115,522 -57,969 -135,1487 -70,472 -44,1092 -56,1586 -4,135 8,263 -4,397 -60,662 8,622 8,1186l8 1230c34,383 -16,199 -7,343 590,199 2655,159 3469,157 594,-1 1648,79 2312,104 397,15 766,54 1168,40 192,-7 1580,-133 1669,-105 116,38 418,89 550,60 8,-410 45,-788 66,-1187 21,-400 12,-842 12,-1246 0,-412 1,-823 -20,-1228l-56 -975zm-10819 4425c96,-114 15,-138 91,-203l0 584c-210,-41 -143,-341 -120,-538 26,48 21,87 29,157zm421 -951c207,-278 664,-379 1040,-510 54,495 -32,431 -358,622 -286,166 -522,113 -682,-112zm-410 -1189c7,-91 32,-106 85,-143 -14,72 -34,105 -85,143zm2 -201c-16,-131 14,-226 97,-274 11,133 -7,227 -97,274zm8 -327c-10,-117 14,-197 45,-288 89,98 49,206 -45,288zm10828 3967c137,-35 260,-110 502,-162 616,-133 1046,-245 1685,-130l-31 744c-247,70 -807,-85 -1099,-71 204,78 856,135 1109,135l-85 1381c-119,53 -958,-10 -1137,-27 -337,-33 -1335,-101 -1695,-103 -245,-2 -287,9 -478,-100 -207,-119 -545,-87 -791,-58 -40,4 -88,10 -126,19l-105 45c260,-1 940,-137 1075,99 -146,32 -821,11 -976,-13 -82,-13 -151,-62 -206,-69 -101,-12 -98,18 -224,-25 -243,-85 -83,-130 -232,-265 -129,-23 -157,33 -210,100 -244,309 -40,206 -631,305 -442,75 -678,-72 -1082,-102 -504,-39 -1049,-13 -1558,-19 -110,-1 -177,-35 -267,-34 -175,1 -405,14 -589,22 -77,-229 -328,-314 -524,-457 -185,-136 -440,-232 -719,-263 -280,-32 -651,-41 -943,-28l-886 67c459,82 1072,-87 1789,4 360,46 452,92 710,248 192,116 394,208 503,415 -225,60 -251,1 -398,-82 -103,-59 -210,-114 -335,-165 -511,-214 -1203,-174 -1719,4 -395,136 -422,78 -740,38l-65 6c158,110 496,88 704,104 2,-3 1,-9 2,-10l16 -41c13,-16 23,-20 45,-30 333,-154 701,-152 1062,-153 359,-1 546,87 853,215 40,17 73,28 118,48 103,45 63,7 97,86 -549,26 -1104,-8 -1651,-32 -284,-12 -569,13 -855,6 -290,-8 -447,-88 -721,-119 -24,-103 -1,-227 4,-335l29 -157c13,-29 29,-84 19,-144 -70,41 -22,55 -56,41 -24,-121 -40,-272 -43,-395 -5,-162 38,-244 56,-386 114,19 274,103 416,140 389,100 1078,162 1462,157 331,-4 1482,-300 1731,-426 -459,12 -1135,369 -1792,373 -327,2 -686,-47 -1005,-84 -228,-26 -451,-64 -658,-153 -159,-67 -75,-29 -129,-138 -80,57 -56,114 -103,194l-33 -1130c277,133 12,442 115,679 70,-120 9,-349 87,-466 25,-31 71,16 115,37 485,234 2223,-98 2708,-179 540,-90 899,-183 1447,-17 203,61 415,151 629,178 116,15 242,7 344,-34 22,-9 46,-22 73,-33l172 -99c-145,52 -128,82 -330,107 -405,50 -732,-161 -1129,-232 -475,-85 -1146,64 -1620,133 -374,54 -2121,394 -2380,33 -100,-140 17,-723 -35,-821 -44,15 -58,86 -170,96 1,-296 6,-853 128,-1076l-48 -14c-134,-31 73,37 -37,-7 -16,-162 68,-244 106,-377 -85,13 -44,6 -100,57 10,-104 90,-225 125,-331 -82,25 -68,43 -128,89 2,-104 50,-173 87,-245 55,26 90,4 177,22 178,35 344,53 528,31 212,-26 447,-98 679,-74l-17 302c-234,174 -928,342 -1237,390 267,114 953,-260 1238,-302 4,235 47,234 -170,305 -289,94 -803,252 -936,508 65,201 364,293 559,239 206,-56 346,-189 538,-264l9 149c-246,183 -780,240 -1150,223 17,12 15,14 46,28 279,120 897,-132 1040,-150l41 2c2,-5 9,1 13,2 36,102 12,174 -11,268 -53,218 217,327 -262,548 -272,125 -693,235 -958,61 71,-143 395,-215 540,-333 -88,9 -264,95 -346,134 -579,274 20,381 440,292 258,-55 377,-158 570,-231 131,79 20,98 234,81 159,-12 606,111 933,122 706,23 3777,-5 4072,121 -67,83 -233,122 -329,159 -116,45 -215,83 -336,122 -244,79 -485,136 -756,165 -908,99 -1101,-213 -1687,-86 -968,210 -1207,545 -2276,453 -137,-11 -276,-28 -416,-43 -85,-10 -349,-59 -389,-57 187,134 1100,176 1346,170 975,-27 1427,-689 2465,-429 443,111 913,83 1348,-17 457,-104 738,-234 1123,-398 184,-77 1119,18 1400,31 541,24 896,-6 1426,-61 138,-14 232,2 365,2 122,0 240,-18 356,-24 153,-9 598,78 635,50 35,-30 47,-86 52,-161 4,-65 7,-131 12,-196 13,-190 37,-934 71,-1073 27,-110 225,-59 468,-95 141,-21 277,-48 411,-69 177,-28 757,-50 851,-104 -673,0 -1082,115 -1731,161 -6,-238 -40,-857 20,-1066 35,-124 4,17 -25,-140 -14,-80 -14,-308 3,-385l351 -51c-104,-55 -226,-6 -349,-24 -30,-73 -49,-435 -23,-497l88 -44c110,-22 237,-13 346,5 141,23 255,70 390,95 18,664 598,251 699,201 77,33 106,66 184,98 72,28 160,18 223,58 -1,112 6,161 -113,161 -236,1 -509,-104 -743,-47 304,28 502,105 835,104 24,110 -9,820 -31,930 -144,54 -440,44 -620,34 6,4 13,8 18,10l124 34c166,18 331,-16 496,-2 8,125 22,187 -1,314 -23,131 85,634 60,771 -10,54 3,18 -20,51 -70,45 -963,63 -1161,76 -191,12 -205,33 -362,-30 8,-98 39,-114 103,-165 37,-29 101,-76 146,-103 95,-58 258,-79 332,-138 -98,-52 -696,258 -617,417 195,174 1346,-73 1563,15 56,39 50,220 54,299 -314,-17 -599,20 -898,115 254,50 660,-220 890,-35 47,71 50,292 24,377 -37,73 -247,87 -319,105 -114,29 -211,54 -326,89 -1023,314 -1072,530 -1979,257 -693,-209 -1582,114 -2296,80 -266,-12 -552,-132 -690,-137 109,102 484,170 666,183 277,21 510,-24 772,-55 387,-46 1176,-138 1525,-28 657,207 700,192 1343,-20 349,-115 951,-336 1302,-381 40,233 14,351 -26,573 -57,3 -333,-45 -625,-33 -222,8 -1424,182 -1561,387zm-10814 -4355c-6,-75 11,-101 31,-151 1,1 61,-5 20,98 -12,30 -40,44 -51,53zm12980 -587c101,65 312,235 311,400 -269,256 -474,178 -681,125l370 -525zm-1471 -270c52,73 26,46 107,96 217,130 167,132 429,56l-192 453c-495,-105 -386,-135 -848,-86 -47,-156 -48,-310 -45,-472l549 -47zm-11521 602c-6,-69 -17,-148 -7,-222 15,-102 50,-80 18,-167 -59,-162 -36,-243 30,-387 45,105 41,473 38,616 -4,181 -53,145 -79,160zm12839 -487c43,73 -23,163 -90,271 -105,169 -406,587 -647,532 -264,-61 -115,-379 -38,-529 61,-121 228,-419 257,-534 66,15 102,24 140,65l-76 172c72,-39 71,-90 128,-146 49,4 25,-3 66,14 38,16 13,4 37,28 -81,81 -221,144 -253,289 152,-69 208,-228 340,-274l62 63c-62,124 -284,204 -322,337 207,-96 268,-301 396,-288zm-661 -245c-28,83 -103,137 -178,183 -109,68 -133,65 -247,2 -228,-124 -206,-177 -168,-461 338,96 151,193 593,276zm-1205 129c-23,-140 -41,-331 -48,-475 -12,-244 33,-274 262,-195 59,20 151,45 198,72 223,132 20,230 85,557l-497 41zm252 -793l95 123 -261 -86 166 -37zm2621 -503c76,12 79,-30 76,71 -3,91 8,62 -97,72 1,-81 -7,-80 21,-143zm-125 139c-61,-48 -47,-126 -20,-188 47,15 60,-1 68,78 7,80 -6,83 -48,110zm-190 -6c18,-33 6,-22 42,-64l49 -45 11 110 -102 -1zm-2672 124c122,-49 244,-156 374,-219 -51,207 -39,197 -15,403 -101,12 -242,53 -323,32l-36 -216zm2292 -224c19,-20 9,-15 39,-36l103 -47 29 107 -171 -24zm296 -245c40,109 45,228 -59,292 -51,-68 -43,-112 -37,-199l96 -93zm-2408 147l165 42 -178 79 13 -121zm2470 -186c18,17 19,14 38,37l49 99 -80 56 -7 -192zm-423 40c18,82 2,125 -38,170 -58,-8 -118,-49 -157,-96l195 -74zm48 81c3,-115 4,-100 136,-108l-136 108zm629 -34c-69,-22 -95,-53 -85,-161 9,-103 47,-90 142,-96l-57 257zm104 41c-35,-57 -12,-169 2,-243 17,-88 40,-105 114,-137 3,76 -17,151 -28,224 -33,213 -15,155 -88,156zm-1681 -316c19,-59 101,-125 136,-153 41,52 27,43 45,141l-181 12zm1820 280c21,-342 -9,-404 454,-506 -54,96 -112,71 -230,217l-47 -99c-23,87 -23,141 -61,226 -40,89 -56,118 -116,162zm217 -38c36,-95 128,-228 184,-318 92,-146 70,-159 246,-218 -26,78 -136,215 -191,294 -76,109 -119,177 -239,242zm-1775 -536c1,-4 1,-7 2,-11l129 -26c-22,166 -19,249 -177,277l-20 -165c23,-16 63,-33 66,-75zm158 125c9,-159 13,-216 152,-242 -22,141 -31,208 -152,242zm-12712 -367c-17,-114 -14,-170 51,-230 9,86 25,182 -51,230zm13223 -136l-99 219c71,-15 135,-161 165,-225l161 44 -80 161c84,-42 80,-77 134,-149l268 20c-5,4 -11,8 -15,11 -73,52 -122,61 -209,93 -149,55 -552,220 -653,236 5,-118 -5,-182 96,-221l-32 155 264 -344zm2370 -248c29,-198 128,-282 309,-329 72,-18 186,-54 258,-51 117,5 494,235 -87,430 -196,65 -305,147 -460,54l81 -59c19,-8 55,-19 77,-27 58,-20 105,-40 166,-62 114,-41 236,-80 319,-129 -199,33 -225,88 -449,68 -69,92 -82,84 -214,105zm-181 75l62 4c75,127 46,29 127,122 -264,59 -533,200 -784,281 -145,47 -685,220 -774,279 -71,-22 -22,40 -61,-51 -58,146 -184,126 -354,167 -180,43 -687,261 -737,257 -64,-4 -276,-140 -313,-183 100,-78 235,-140 352,-189 127,-53 275,-79 393,-128 257,-107 483,-202 742,-300 258,-99 518,-169 789,-253 657,-203 448,-185 749,-302 -22,58 -54,106 -86,173 -32,70 -62,82 -105,123zm-2767 379c-47,50 -2,30 -94,36 -68,-62 -131,-242 -174,-348 3,85 28,188 66,255 29,51 146,164 -28,143 -77,-10 -116,-96 -156,-167l-116 -188c-2,-9 -8,-10 -12,-14 -4,264 105,364 211,488 -159,207 -139,239 -281,224 24,-163 40,-325 -22,-474l-35 466c-103,115 -233,62 -374,129 -132,62 -153,160 -261,239 -168,-15 -265,-123 -156,-281 164,-235 239,-273 385,-615 263,-613 85,-287 731,-749 748,-535 490,-698 1350,-582 311,41 513,108 857,120 332,11 677,-18 1001,-3 309,15 407,253 572,391 -374,116 -688,207 -1039,336 -166,61 -891,331 -1013,333 -182,-177 -29,-237 -120,-401 -86,120 -98,211 -63,379 -737,-34 -540,-105 -752,-317 -24,211 90,263 -96,420 -56,46 -295,175 -381,180zm-12645 -1383c-25,-173 -39,-417 29,-563 24,153 30,441 -29,563zm26 -710c-21,-29 -58,53 -27,-87 17,-82 29,-39 44,-44l-17 131zm-17 -2101c-23,-146 11,-165 81,-244 34,148 0,179 -81,244zm3 -295c-25,-68 -8,-122 17,-186l82 -141c3,-10 11,-9 16,-14 -1,78 -1,151 -28,225l-74 110c-2,-4 -9,4 -13,6zm11272 -172c252,-144 464,-238 785,-288l959 -111c28,113 7,58 -6,147 -15,99 34,224 1,418l-661 27c782,0 663,9 663,198l-3 38c25,401 59,707 29,1102l-284 -46c71,68 102,25 211,84 83,44 89,111 89,213 1,267 15,401 -17,661 -218,11 -363,-4 -589,-14 143,87 432,38 601,77 30,159 15,418 15,597 -166,31 -224,78 -332,160 -215,165 33,-41 -233,225 -90,91 -150,161 -258,242 -97,72 -180,142 -275,205 -348,231 -359,149 -510,491 -96,220 -226,433 -319,640 -17,-144 39,-818 73,-951 48,-189 -74,-839 22,-977 175,-249 1070,-205 1354,-213 326,-9 210,-9 404,-89 -133,1 -300,40 -468,40 -559,2 -799,-21 -1307,189 -17,-79 16,-869 39,-916 31,-40 -5,-7 37,-34 34,-20 3,-6 46,-19 64,-20 154,-11 218,-86l-316 35c-12,-189 -45,-834 27,-915 198,-223 1462,-196 1550,-245 -449,-20 -932,-31 -1359,103 -54,17 -137,67 -190,43 -32,-89 15,-356 15,-478l-11 -553zm-11276 -152c6,-136 37,-170 101,-265 42,79 4,147 -45,208l-56 57zm20 -267c-8,-132 -9,-239 99,-314 0,69 6,132 -12,198 -4,15 -23,59 -34,73 -40,54 -11,17 -53,43zm-18 -589c0,-88 28,-124 61,-170 21,28 23,3 36,114 9,82 23,167 -13,239l-61 71c-40,-104 28,-200 66,-292 -39,15 -50,23 -89,38zm22 -464c1,54 -19,38 -21,40 -37,-60 -24,-35 -7,-111 25,35 27,6 28,71zm4635 -45c41,-39 4,-26 74,-42l2501 21c-616,0 -2115,70 -2575,21zm-4684 -131c-22,-112 -14,-204 46,-278 15,164 15,169 -46,278zm1831 -412c-27,-35 -17,6 -24,-48 -6,-47 -8,-1 28,-41l-4 89zm2659 362c-97,-2 -192,4 -290,-4 -71,-607 -149,-516 307,-452 583,81 2037,43 2608,34 574,-9 1044,-85 1655,-62 -10,127 -34,374 -81,475 -122,23 -186,-19 -311,3 -107,20 -164,48 -285,48 -1125,-4 -2251,-37 -3375,16 -104,5 -68,-54 -228,-58zm4487 -692l-57 -127c83,27 72,14 57,127zm-5015 41c-25,-61 3,-130 67,-157l-67 157zm5116 63c-7,-70 5,-183 -15,-236 -40,-108 -98,-12 -114,-134 85,-102 600,-2 749,3 263,10 550,-9 812,-17l1601 45c261,11 532,23 797,31 285,10 189,15 173,563 -15,482 31,1178 -52,1614 -256,-19 -1067,78 -1376,196 -101,38 -277,140 -364,146 -48,-410 67,-2044 -119,-2240 -127,-27 -836,76 -1034,85 -208,9 -334,-21 -528,-44 -188,-23 -353,6 -530,-12zm-2809 -485c122,282 429,40 481,21 177,-65 1808,8 2047,20 27,91 -6,166 18,250 31,105 65,27 69,185 -123,-64 -952,18 -1165,28 -637,31 -2746,93 -3342,-9 -137,-23 -184,1 -208,-120 82,-10 1345,-83 1416,-66 333,80 2277,120 2397,14 -89,-58 -1404,-21 -1618,-16 -140,3 -278,-5 -417,-5 -374,1 -223,-22 -362,-52 -104,-21 -624,0 -775,0 119,-7 286,-39 429,-46 167,-7 317,18 483,-11 -372,-142 -1022,20 -1421,47 35,68 -24,27 79,51l-212 17c48,-221 -190,-326 487,-298 175,7 344,18 521,21 377,6 723,-31 1093,-31zm-4969 4324c114,-28 216,-114 327,-124 16,143 53,813 12,896 -45,83 -479,255 -567,292 -161,67 -443,185 -622,207l4 22c206,-13 467,-113 639,-188 113,-49 490,-243 576,-250 29,392 59,721 62,1132l-103 44 105 29c20,385 103,527 62,956 -19,199 26,884 -57,1009 -95,32 -389,65 -502,79 -219,28 -353,-38 -512,-28 308,157 690,10 1030,11 -1,190 -86,453 -112,674 -42,369 18,689 -141,755l-217 52c-201,50 -394,121 -609,121 -117,0 -207,-36 -303,-32 368,189 813,-48 1199,-104 11,160 35,601 -16,722 -95,66 -433,119 -579,173 -98,36 -175,75 -269,106 -101,34 -189,38 -279,64 347,40 790,-283 1148,-263 15,182 25,397 1,584l-23 73c-215,29 -422,57 -632,88 -210,31 -490,21 -634,-86 -43,-242 -19,-802 -19,-1075 0,-85 -9,-180 9,-256 32,-138 11,-60 -12,-209 -18,-112 -12,-411 -49,-485 -74,106 28,96 -105,94 -39,-123 -45,-1047 -55,-1254 -18,-355 78,-590 54,-934 -13,-187 -6,-122 -98,-204l4 -848c55,108 -5,266 32,387 14,45 11,29 22,49 69,-118 22,-328 39,-455 197,-104 876,-169 923,-219 -369,0 -586,101 -920,153l-12 -1199 -89 207c-18,-133 39,-157 35,-280l-46 49c-3,3 -9,9 -11,11l-23 23c11,-80 44,-166 28,-245 -22,-110 -78,-91 -10,-199 111,-176 162,-182 97,-443 165,-12 351,-1 509,47 61,19 23,6 47,21 -34,72 -85,90 -116,156 112,-23 163,-62 153,-184 -165,-82 -379,-135 -598,-161l114 -289c-103,63 -105,175 -183,262 -98,-135 165,-313 139,-487l-148 254c-39,-276 153,-456 409,-306 103,61 202,219 285,320 41,50 58,56 63,124l-311 -2c42,72 399,75 504,102 176,45 278,97 457,8 -118,-10 -259,10 -347,-37 71,1 168,15 223,-28 -337,-115 -361,95 -600,-260 -259,-386 -472,-288 -512,-354 -27,-43 34,-1020 22,-1222 -7,-123 -36,-265 -17,-393 274,79 317,153 651,80 -74,-40 -624,45 -691,-232 -59,-247 -27,-631 -23,-891 -75,81 -65,143 -122,227 -33,-198 97,-315 110,-539 -59,52 -68,157 -108,223l-31 -268c665,-73 1343,-88 2027,-88 355,0 708,8 1063,5 174,-2 879,-64 976,-21 -17,163 -444,173 -596,195 -110,16 -240,49 -339,61 -116,15 -266,-21 -369,15 3,3 10,5 12,6l29 9c144,30 265,-18 410,-22 216,-7 519,-103 722,-88l-74 238c-533,25 -1062,108 -1595,33 -135,-19 -339,-90 -460,-63 -107,136 -39,535 -68,738 -234,33 -536,-38 -778,-53 -728,-44 -330,-37 -699,-132 92,263 1184,151 1470,251 50,136 19,440 -7,593 -71,26 -348,102 -413,112 -76,12 -298,65 -360,124 64,-9 111,-44 178,-62l596 -116 0 557c-34,100 -720,274 -958,-31 -97,-124 -81,-154 -14,-276 -140,54 -106,159 -34,281 229,386 809,120 1011,111 32,240 -15,531 -34,769 -23,269 -9,532 -28,797 -87,67 -241,130 -329,204z"/>
   <path class="fil0" d="M1789 13093c82,-103 358,-82 500,-94 -36,38 8,15 -45,38l-455 56zm36 -918l-142 -6c110,-24 189,-21 306,-58 87,-28 202,-95 283,-89 -26,13 -30,28 -70,53 -103,65 -255,100 -377,100zm521 -520c83,24 55,7 94,76l-94 -76zm0 0c-131,-6 -791,-114 -869,-165 177,-20 763,73 869,165zm-980 -1061l-41 270c0,-49 0,-97 -1,-146 -2,-146 5,-110 42,-124zm177 -659c23,147 -6,272 115,367 95,74 247,105 395,97 300,-17 504,-145 857,-145 -42,41 16,10 -46,31l-163 19c-225,35 -461,134 -646,144 -366,19 -585,-127 -512,-513zm325 91l199 56c-124,30 -149,21 -199,-56zm419 5l261 -81c-68,92 -6,29 -147,76 -45,14 -42,38 -114,5zm-420 -361c20,-65 -15,-13 56,-44 -5,5 -11,8 -14,17l-42 27zm603 -1098c13,-11 -31,-52 102,-22 38,8 30,13 44,22 -51,22 -90,23 -146,0zm-652 -894l102 -33c209,-41 558,-162 697,-172 -215,95 -527,208 -799,205zm-6 -301c110,-63 262,-143 409,-161 -66,71 -288,158 -409,161zm400 -243l61 -61c-22,106 -30,17 -61,61zm-857 42c75,-67 446,-169 556,-125 -46,42 -5,24 -121,49 -113,24 -371,107 -435,76zm1178 -229c-41,43 -92,76 -148,99 7,-72 -44,-24 50,-73 33,-17 61,-20 98,-26zm-705 -1375c149,25 314,118 470,151 224,47 315,-91 494,-138 -25,47 8,26 -93,90 -107,69 -250,114 -385,94 -119,-18 -405,-141 -486,-197zm835 -1417c48,-35 170,-33 214,0 -49,36 -169,31 -214,0zm-425 -855l-119 18c12,-28 -35,-26 41,-43 101,-23 77,25 78,25zm462 -485c-14,14 20,29 -68,44 -86,13 -38,-7 -54,-19l122 -25zm-1013 5425c-16,9 12,5 -50,18 -223,50 -147,53 -187,2l233 -42c179,-22 461,-140 622,-207 88,-37 522,-209 567,-292 41,-83 4,-753 -12,-896 -111,10 -213,96 -327,124 88,-74 242,-137 329,-204 19,-265 5,-528 28,-797 19,-238 66,-529 34,-769 -202,9 -782,275 -1011,-111 -72,-122 -106,-227 34,-281 -67,122 -83,152 14,276 238,305 924,131 958,31l0 -557 -596 116c-67,18 -114,53 -178,62 62,-59 284,-112 360,-124 65,-10 342,-86 413,-112 26,-153 57,-457 7,-593 -286,-100 -1378,12 -1470,-251 369,95 -29,88 699,132 242,15 544,86 778,53 29,-203 -39,-602 68,-738 121,-27 325,44 460,63 533,75 1062,-8 1595,-33l74 -238c-203,-15 -506,81 -722,88 -145,4 -266,52 -410,22l-29 -9c-2,-1 -9,-3 -12,-6 103,-36 253,0 369,-15 99,-12 229,-45 339,-61 152,-22 579,-32 596,-195 -97,-43 -802,19 -976,21 -355,3 -708,-5 -1063,-5 -684,0 -1362,15 -2027,88l31 268c40,-66 49,-171 108,-223 -13,224 -143,341 -110,539 57,-84 47,-146 122,-227 -4,260 -36,644 23,891 67,277 617,192 691,232 -334,73 -377,-1 -651,-80 -19,128 10,270 17,393 12,202 -49,1179 -22,1222 40,66 253,-32 512,354 239,355 263,145 600,260 -55,43 -152,29 -223,28 88,47 229,27 347,37 -179,89 -281,37 -457,-8 -105,-27 -462,-30 -504,-102l311 2c-5,-68 -22,-74 -63,-124 -83,-101 -182,-259 -285,-320 -256,-150 -448,30 -409,306l148 -254c26,174 -237,352 -139,487 78,-87 80,-199 183,-262l-114 289c219,26 433,79 598,161 10,122 -41,161 -153,184 31,-66 82,-84 116,-156 -24,-15 14,-2 -47,-21 -158,-48 -344,-59 -509,-47 65,261 14,267 -97,443 -68,108 -12,89 10,199 16,79 -17,165 -28,245l23 -23c2,-2 8,-8 11,-11l46 -49c4,123 -53,147 -35,280l89 -207 12 1199c334,-52 551,-153 920,-153 -47,50 -726,115 -923,219 -17,127 30,337 -39,455 -11,-20 -8,-4 -22,-49 -37,-121 23,-279 -32,-387l-4 848c92,82 85,17 98,204 24,344 -72,579 -54,934 10,207 16,1131 55,1254 133,2 31,12 105,-94 37,74 31,373 49,485 23,149 44,71 12,209 -18,76 -9,171 -9,256 0,273 -24,833 19,1075 144,107 424,117 634,86 210,-31 417,-59 632,-88l23 -73c24,-187 14,-402 -1,-584 -358,-20 -801,303 -1148,263 90,-26 178,-30 279,-64 94,-31 171,-70 269,-106 146,-54 484,-107 579,-173 51,-121 27,-562 16,-722 -386,56 -831,293 -1199,104 96,-4 186,32 303,32 215,0 408,-71 609,-121l217 -52c159,-66 99,-386 141,-755 26,-221 111,-484 112,-674 -340,-1 -722,146 -1030,-11 159,-10 293,56 512,28 113,-14 407,-47 502,-79 83,-125 38,-810 57,-1009 41,-429 -42,-571 -62,-956l-105 -29 103 -44c-3,-411 -33,-740 -62,-1132 -86,7 -463,201 -576,250 -172,75 -433,175 -639,188z"/>
   <path class="fil0" d="M12511 9424c71,-61 102,-78 224,-85l-110 54c-56,19 -58,22 -114,31zm727 -228l139 -29c-6,12 12,26 -61,44 -124,31 -57,0 -78,-15zm-201 -3746c-8,-71 21,-27 30,-3 28,68 -30,7 -30,3zm205 -151c-10,11 -3,12 -31,31 -4,3 -10,6 -14,8l-77 26c30,-56 34,-63 122,-65zm0 0l23 -18c131,-77 813,-204 961,-127 -178,18 -339,24 -510,54 -153,27 -327,94 -474,91zm-708 95l11 553c0,122 -47,389 -15,478 53,24 136,-26 190,-43 427,-134 910,-123 1359,-103 -88,49 -1352,22 -1550,245 -72,81 -39,726 -27,915l316 -35c-64,75 -154,66 -218,86 -43,13 -12,-1 -46,19 -42,27 -6,-6 -37,34 -23,47 -56,837 -39,916 508,-210 748,-187 1307,-189 168,0 335,-39 468,-40 -194,80 -78,80 -404,89 -284,8 -1179,-36 -1354,213 -96,138 26,788 -22,977 -34,133 -90,807 -73,951 93,-207 223,-420 319,-640 151,-342 162,-260 510,-491 95,-63 178,-133 275,-205 108,-81 168,-151 258,-242 266,-266 18,-60 233,-225 108,-82 166,-129 332,-160 0,-179 15,-438 -15,-597 -169,-39 -458,10 -601,-77 226,10 371,25 589,14 32,-260 18,-394 17,-661 0,-102 -6,-169 -89,-213 -109,-59 -140,-16 -211,-84l284 46c30,-395 -4,-701 -29,-1102l3 -38c0,-189 119,-198 -663,-198l661 -27c33,-194 -16,-319 -1,-418 13,-89 34,-34 6,-147l-959 111c-321,50 -533,144 -785,288z"/>
   <path class="fil0" d="M13273 4687c19,-21 -19,-27 94,-56 32,-8 83,-17 118,-26l488 -65c140,-6 136,-10 204,67 -400,-63 -529,27 -904,80zm158 -619c59,-25 200,-64 249,-38 -36,27 -48,32 -104,41 -67,9 -79,6 -145,-3zm-353 11c173,-24 136,-32 294,-8 -77,43 -597,79 -660,57 106,-75 298,-118 446,-111 -63,30 -73,10 -80,62zm776 -77c34,-70 12,-26 77,-50 -34,37 -14,38 -77,50zm-3194 -1051c104,-13 111,-1 228,-27 898,-200 1607,111 2293,100 313,-5 847,21 1062,170 -155,34 -549,-158 -958,-138 -709,35 -1052,-158 -1583,-156 -329,1 -590,52 -896,58 -172,3 -191,58 -251,2l105 -9zm-478 -213c16,122 74,26 114,134 20,53 8,166 15,236 177,18 342,-11 530,12 194,23 320,53 528,44 198,-9 907,-112 1034,-85 186,196 71,1830 119,2240 87,-6 263,-108 364,-146 309,-118 1120,-215 1376,-196 83,-436 37,-1132 52,-1614 16,-548 112,-553 -173,-563 -265,-8 -536,-20 -797,-31l-1601 -45c-262,8 -549,27 -812,17 -149,-5 -664,-105 -749,-3z"/>
   <path class="fil1" d="M13078 10483c-19,-92 11,-207 55,-291 50,-93 1,-40 63,-52 -23,91 -63,280 -118,343zm263 -563c4,46 65,110 88,176 28,78 47,160 50,251 -34,-26 -25,15 -57,-99 -29,-102 -85,-252 -81,-328zm554 135c-63,-22 -59,-16 -99,-76 -16,-23 -40,-65 -52,-95 -30,-72 -41,-153 -33,-242 54,143 146,291 184,413zm236 -283c-36,-38 -51,-47 -70,-121 -46,-190 18,-158 24,-164l46 285zm-219 -281c47,54 154,349 158,426 -79,-66 -76,-63 -107,-188 -21,-83 -45,-154 -51,-238zm1724 167c32,-91 110,-240 193,-287 -24,78 -47,93 -87,157 -85,140 -38,97 -106,130zm-708 -358c33,-41 3,-15 53,-41 -17,69 -26,76 -63,132 -65,99 -36,70 -84,72l94 -163zm550 232c47,-67 93,-144 139,-212 83,-128 77,-162 156,-209 -23,91 -264,505 -320,563 -28,-205 -8,-327 144,-533l-119 391zm-1583 523c86,-5 325,-134 381,-180 186,-157 72,-209 96,-420 212,212 15,283 752,317 -35,-168 -23,-259 63,-379 91,164 -62,224 120,401 122,-2 847,-272 1013,-333 351,-129 665,-220 1039,-336 -165,-138 -263,-376 -572,-391 -324,-15 -669,14 -1001,3 -344,-12 -546,-79 -857,-120 -860,-116 -602,47 -1350,582 -646,462 -468,136 -731,749 -146,342 -221,380 -385,615 -109,158 -12,266 156,281 108,-79 129,-177 261,-239 141,-67 271,-14 374,-129l35 -466c62,149 46,311 22,474 142,15 122,-17 281,-224 -106,-124 -215,-224 -211,-488 4,4 10,5 12,14l116 188c40,71 79,157 156,167 174,21 57,-92 28,-143 -38,-67 -63,-170 -66,-255 43,106 106,286 174,348 92,-6 47,14 94,-36z"/>
   <path class="fil0" d="M27227 20699c55,-99 486,-107 621,-116 -70,51 -84,37 -173,44 -194,14 -280,45 -448,72zm673 -94c58,-39 47,-33 160,-38 120,-6 377,-27 446,32l-606 6zm-1918 -551c101,-61 1573,-91 1784,-76 -322,75 -1156,55 -1602,87 -30,2 -82,9 -107,8 -34,0 -26,-1 -50,-6l-25 -13zm826 -194c-225,3 -135,2 -173,-43 143,12 294,9 437,16 65,3 130,3 195,6 244,9 144,-13 197,36l-656 -15zm-2011 1194l327 0 219 -285c-92,1 -167,31 -253,9 113,-77 241,-51 374,-132 49,-29 244,-197 273,-234l-152 -25c73,-43 187,-47 272,-77 91,-32 183,-103 244,-107l-41 98c82,-4 1581,-152 1639,-122 -227,91 -1337,127 -1680,188 -132,23 -298,196 -353,270 276,-16 1522,-276 1645,-229 -129,103 -1355,245 -1674,307 -141,27 -278,200 -332,324 544,-82 1062,-207 1589,-331 -37,108 -65,77 -275,134 -101,28 -196,54 -300,77 -189,43 -487,60 -643,135l474 0c59,-33 232,-98 299,-63 -39,57 -20,28 -85,63l365 0c62,-48 135,-69 230,-73 -32,82 42,12 -64,73l774 0c75,-35 180,-60 271,-99 73,-31 190,-103 234,-118 -211,-17 -985,108 -1181,107l-84 -15c135,-114 1603,-234 1743,-125 -42,23 -254,28 -394,137l-41 54c-42,49 -72,27 -131,59l1479 0c-49,-156 -111,-176 -213,-271 -92,-86 -117,-180 -198,-262 -149,-150 -927,-330 -1249,-626 -275,-253 -235,-229 -677,-171 -636,83 -981,99 -1498,376 -352,189 -773,568 -933,954z"/>
   <path class="fil1" d="M24294 20151c120,-122 511,-224 710,-298 150,-56 634,-241 778,-236 -47,52 -1363,521 -1488,534zm328 -431c150,-94 1426,-324 1614,-284l-1614 284zm320 -300c4,-5 9,-12 13,-16 64,-60 74,-47 185,-63 277,-40 1417,-227 1521,-185 -267,72 -1414,235 -1719,264zm-1058 1634l134 0c96,-86 325,-195 483,-229 -100,79 -278,152 -366,229l554 0c94,-424 719,-969 1143,-1165 646,-298 1748,-261 1932,-377 -39,-38 -53,-61 -99,-105 -36,-34 -70,-57 -116,-93 -409,-316 -462,-303 -865,-316 -245,-8 -530,13 -770,36 -124,11 -603,122 -663,81 342,-197 1214,-134 1661,-189 -178,-88 -710,-48 -850,-85 -75,-21 -15,0 -47,-28l786 24c-109,-206 -78,-248 -346,-228 -204,16 -328,78 -540,25 -201,-50 -284,-90 -495,-11 -147,55 -260,153 -318,287 -310,717 -760,655 -891,1533 161,-44 432,-186 603,-259 202,-87 396,-161 613,-227 -57,76 -227,128 -334,172 -118,49 -230,106 -347,154 -532,221 -553,190 -587,451l876 -355c-91,141 -910,342 -1151,675z"/>
   <path class="fil1" d="M5433 3692c98,8 193,2 290,4 160,4 124,63 228,58 1124,-53 2250,-20 3375,-16 121,0 178,-28 285,-48 125,-22 189,20 311,-3 47,-101 71,-348 81,-475 -611,-23 -1081,53 -1655,62 -571,9 -2025,47 -2608,-34 -456,-64 -378,-155 -307,452z"/>
   <path class="fil0" d="M9879 2928l52 22 -32 22c-226,20 -561,120 -792,68 163,-87 564,-100 772,-112zm-32 -144c82,-1 73,-5 126,37l-30 13c-200,67 -2356,70 -2544,-5l2448 -45zm-2345 -161c-370,0 -716,37 -1093,31 -177,-3 -346,-14 -521,-21 -677,-28 -439,77 -487,298l212 -17c-103,-24 -44,17 -79,-51 399,-27 1049,-189 1421,-47 -166,29 -316,4 -483,11 -143,7 -310,39 -429,46 151,0 671,-21 775,0 139,30 -12,53 362,52 139,0 277,8 417,5 214,-5 1529,-42 1618,16 -120,106 -2064,66 -2397,-14 -71,-17 -1334,56 -1416,66 24,121 71,97 208,120 596,102 2705,40 3342,9 213,-10 1042,-92 1165,-28 -4,-158 -38,-80 -69,-185 -24,-84 9,-159 -18,-250 -239,-12 -1870,-85 -2047,-20 -52,19 -359,261 -481,-21z"/>
   <path class="fil1" d="M16662 9676c-72,55 -505,172 -543,214 -20,53 11,-12 0,31 -387,83 -122,-12 -527,167 -276,121 -1392,569 -1570,543 41,-50 180,-94 247,-118 134,-47 173,-38 196,-179 0,2 -1,34 0,37 15,55 7,36 29,65 349,-110 757,-250 1085,-383 96,-39 152,-75 255,-92 97,-15 65,-6 152,-43 176,-75 504,-222 676,-242zm0 0c43,-41 73,-53 105,-123 32,-67 64,-115 86,-173 -301,117 -92,99 -749,302 -271,84 -531,154 -789,253 -259,98 -485,193 -742,300 -118,49 -266,75 -393,128 -117,49 -252,111 -352,189 37,43 249,179 313,183 50,4 557,-214 737,-257 170,-41 296,-21 354,-167 39,91 -10,29 61,51 89,-59 629,-232 774,-279 251,-81 520,-222 784,-281 -81,-93 -52,5 -127,-122l-62 -4z"/>
   <path class="fil3" d="M8285 17418c-726,-6 -1198,-106 -1834,-97l-518 24c146,35 478,4 643,10 443,17 1357,130 1729,110 565,-30 1612,-171 2105,-172 537,-1 1326,427 1333,770 -254,148 -1011,125 -1354,143 -1723,94 -2998,250 -4834,248 -414,-1 -850,-7 -1172,-164l-7 -143c-60,112 -71,150 41,210 674,365 5121,-44 6035,-97 309,-18 1151,-13 1328,-167 60,-244 -326,-499 -487,-589 -290,-163 -565,-275 -946,-259l-2062 173z"/>
   <path class="fil4" d="M6505 18843c575,24 851,18 1400,151 539,131 796,22 1233,-170 561,-246 747,-110 1334,-108 781,2 1653,-440 2696,-276 139,22 1190,228 952,488 -132,143 -1066,162 -1335,181 -242,17 -492,36 -729,43 -124,3 -244,0 -368,-6 -141,-8 -216,12 -273,-93 109,-155 554,-236 789,-268 384,-51 563,-51 940,19 -163,-156 -815,-84 -997,-57 -784,116 -1011,418 -523,437 486,20 2277,-33 2505,-204 390,-291 -625,-537 -840,-577 -489,-92 -935,-56 -1422,24 -466,78 -837,211 -1331,229 -591,20 -799,-154 -1380,102 -477,210 -690,300 -1273,175 -264,-56 -1167,-212 -1378,-90z"/>
   <path class="fil1" d="M13787 12894c24,-63 252,-337 304,-377 -34,139 -190,339 -304,377zm408 -522c-128,-13 -189,192 -396,288 38,-133 260,-213 322,-337l-62 -63c-132,46 -188,205 -340,274 32,-145 172,-208 253,-289 -24,-24 1,-12 -37,-28 -41,-17 -17,-10 -66,-14 -57,56 -56,107 -128,146l76 -172c-38,-41 -74,-50 -140,-65 -29,115 -196,413 -257,534 -77,150 -226,468 38,529 241,55 542,-363 647,-532 67,-108 133,-198 90,-271z"/>
   <path class="fil4" d="M25124 21054l552 0c156,-75 454,-92 643,-135 104,-23 199,-49 300,-77 210,-57 238,-26 275,-134 -527,124 -1045,249 -1589,331 54,-124 191,-297 332,-324 319,-62 1545,-204 1674,-307 -123,-47 -1369,213 -1645,229 55,-74 221,-247 353,-270 343,-61 1453,-97 1680,-188 -58,-30 -1557,118 -1639,122l41 -98c-61,4 -153,75 -244,107 -85,30 -199,34 -272,77l152 25c-29,37 -224,205 -273,234 -133,81 -261,55 -374,132 86,22 161,-8 253,-9l-219 285z"/>
   <path class="fil1" d="M12328 12304c-3,162 -2,316 45,472 462,-49 353,-19 848,86l192 -453c-262,76 -212,74 -429,-56 -81,-50 -55,-23 -107,-96l-549 47z"/>
   <path class="fil1" d="M1754 15219c160,225 396,278 682,112 326,-191 412,-127 358,-622 -376,131 -833,232 -1040,510z"/>
   <path class="fil1" d="M12329 12256l497 -41c-65,-327 138,-425 -85,-557 -47,-27 -139,-52 -198,-72 -229,-79 -274,-49 -262,195 7,144 25,335 48,475z"/>
   <path class="fil1" d="M16843 9601c132,-21 145,-13 214,-105 224,20 250,-35 449,-68 -83,49 -205,88 -319,129 -61,22 -108,42 -166,62 -22,8 -58,19 -77,27l-81 59c155,93 264,11 460,-54 581,-195 204,-425 87,-430 -72,-3 -186,33 -258,51 -181,47 -280,131 -309,329z"/>
   <path class="fil1" d="M13978 13052c207,53 412,131 681,-125 1,-165 -210,-335 -311,-400l-370 525z"/>
   <path class="fil4" d="M27669 21054l417 0c59,-32 89,-10 131,-59l41 -54c140,-109 352,-114 394,-137 -140,-109 -1608,11 -1743,125l84 15c196,1 970,-124 1181,-107 -44,15 -161,87 -234,118 -91,39 -196,64 -271,99z"/>
   <path class="fil1" d="M13534 12127c-442,-83 -255,-180 -593,-276 -38,284 -60,337 168,461 114,63 138,66 247,-2 75,-46 150,-100 178,-183z"/>
   <path class="fil5" d="M7399 2829c188,75 2344,72 2544,5l30 -13c-53,-42 -44,-38 -126,-37l-2448 45z"/>
   <path class="fil6" d="M10660 2951l-105 9c60,56 79,1 251,-2 306,-6 567,-57 896,-58 531,-2 874,191 1583,156 409,-20 803,172 958,138 -215,-149 -749,-175 -1062,-170 -686,11 -1395,-300 -2293,-100 -117,26 -124,14 -228,27z"/>
   <path class="fil5" d="M22537 20734c60,-60 130,-417 167,-534 145,-448 295,-881 484,-1309 22,-51 39,-85 57,-132 50,-134 16,-128 -7,-154 -41,132 -317,721 -422,1019 -50,143 -325,998 -279,1110z"/>
   <path class="fil7" d="M22053 19887c0,98 -4,126 41,147 17,-742 465,-1407 619,-1899 -90,35 -157,223 -227,366 -183,375 -433,965 -433,1386z"/>
   <path class="fil4" d="M12182 17469c-84,35 -109,145 -103,250 33,615 1719,570 2005,507 -51,-32 -39,-26 -152,-29 -56,-2 -112,-3 -168,-4 -517,-4 -1070,25 -1487,-237 -254,-159 -126,-398 -95,-487z"/>
   <path class="fil4" d="M22280 20437l35 -63c7,-18 14,-45 19,-65 11,-44 22,-86 35,-132 131,-464 243,-802 414,-1253 57,-150 154,-356 191,-500 -195,149 -693,1624 -694,2013z"/>
   <path class="fil8" d="M16662 9676c-172,20 -500,167 -676,242 -87,37 -55,28 -152,43 -103,17 -159,53 -255,92 -328,133 -736,273 -1085,383 -22,-29 -14,-10 -29,-65 -1,-3 0,-35 0,-37 -23,141 -62,132 -196,179 -67,24 -206,68 -247,118 178,26 1294,-422 1570,-543 405,-179 140,-84 527,-167 11,-43 -20,22 0,-31 38,-42 471,-159 543,-214z"/>
   <path class="fil9" d="M14209 10193l32 -155c-101,39 -91,103 -96,221 101,-16 504,-181 653,-236 87,-32 136,-41 209,-93 4,-3 10,-7 15,-11l-268 -20c-54,72 -50,107 -134,149l80 -161 -161 -44c-30,64 -94,210 -165,225l99 -219 -264 344z"/>
   <path class="fil4" d="M23027 21054l42 0c79,-206 531,-1311 496,-1441 -20,19 -14,10 -32,39 -11,17 -13,22 -22,43 -117,283 -458,1174 -484,1359z"/>
   <path class="fil4" d="M21787 19541c34,-54 81,-347 109,-440 157,-523 463,-1075 500,-1202 -121,66 -338,607 -404,756 -58,134 -300,762 -205,886z"/>
   <path class="fil9" d="M12492 11368c-25,-64 -38,-123 -10,-204 11,28 23,71 27,102 21,135 6,71 -17,102zm-277 -151l36 216c81,21 222,-20 323,-32 -24,-206 -36,-196 15,-403 -130,63 -252,170 -374,219z"/>
   <path class="fil3" d="M24942 19420c305,-29 1452,-192 1719,-264 -104,-42 -1244,145 -1521,185 -111,16 -121,3 -185,63 -4,4 -9,11 -13,16z"/>
   <path class="fil4" d="M24294 20151c125,-13 1441,-482 1488,-534 -144,-5 -628,180 -778,236 -199,74 -590,176 -710,298z"/>
   <path class="fil10" d="M5917 3877c460,49 1959,-21 2575,-21l-2501 -21c-70,16 -33,3 -74,42z"/>
   <path class="fil4" d="M23351 19239c-3,4 -7,9 -10,13l-175 389c-140,321 -441,1055 -451,1362l636 -1764z"/>
   <path class="fil11" d="M25982 20054l25 13c24,5 16,6 50,6 25,1 77,-6 107,-8 446,-32 1280,-12 1602,-87 -211,-15 -1683,15 -1784,76z"/>
   <path class="fil3" d="M12540 13882c182,3 512,-91 735,-108 461,-37 588,62 812,59 -28,-28 29,-33 -166,-62 -246,-35 -360,-64 -635,-48 -206,12 -589,79 -746,159z"/>
   <path class="fil5" d="M21605 18805l502 -1084c-173,148 -483,763 -502,1084z"/>
   <path class="fil12" d="M2864 10285c62,-21 4,10 46,-31 -353,0 -557,128 -857,145 -148,8 -300,-23 -395,-97 -121,-95 -92,-220 -115,-367 -73,386 146,532 512,513 185,-10 421,-109 646,-144l163 -19z"/>
   <path class="fil4" d="M24622 19720l1614 -284c-188,-40 -1464,190 -1614,284z"/>
   <path class="fil5" d="M9822 17659c384,24 872,-1 1221,96 -25,49 -6,19 -46,52 -5,4 -28,19 -29,20l-30 23c92,-7 121,-3 177,-68 -86,-128 -428,-135 -579,-146 -118,-9 -237,-12 -355,-12 -62,0 -126,1 -188,2 -77,1 -116,-3 -171,33z"/>
   <path class="fil9" d="M1333 16170c-8,-70 -3,-109 -29,-157 -23,197 -90,497 120,538l0 -584c-76,65 5,89 -91,203z"/>
   <path class="fil9" d="M15362 10801c60,-44 76,-73 116,-162 38,-85 38,-139 61,-226l47 99c118,-146 176,-121 230,-217 -463,102 -433,164 -454,506z"/>
   <path class="fil1" d="M1356 12859c26,-15 75,21 79,-160 3,-143 7,-511 -38,-616 -66,144 -89,225 -30,387 32,87 -3,65 -18,167 -10,74 1,153 7,222z"/>
   <path class="fil5" d="M13325 11645c22,-25 8,4 31,-41l142 -403c70,-169 161,-262 220,-381 -121,-5 -142,125 -267,355 -90,164 -159,251 -126,470z"/>
   <path class="fil7" d="M13473 11739c52,-65 40,-186 83,-335 32,-114 78,-202 111,-313 -84,41 -162,178 -196,271 -37,103 -96,290 2,377z"/>
   <path class="fil13" d="M17130 13964c81,-63 85,-441 92,-536 12,-160 58,-435 -13,-557l-79 1093z"/>
   <path class="fil12" d="M16759 13609l-73 -1120c-11,-65 -13,-45 -25,-61 -13,42 -8,1041 98,1181z"/>
   <path class="fil4" d="M9899 2972l-20 -44c-208,12 -609,25 -772,112 231,52 566,-48 792,-68z"/>
   <path class="fil9" d="M15579 10763c120,-65 163,-133 239,-242 55,-79 165,-216 191,-294 -176,59 -154,72 -246,218 -56,90 -148,223 -184,318z"/>
   <path class="fil8" d="M15478 9532l119 -391c-152,206 -172,328 -144,533 56,-58 297,-472 320,-563 -79,47 -73,81 -156,209 -46,68 -92,145 -139,212z"/>
   <path class="fil14" d="M21405 18523c70,-158 116,-344 189,-517 55,-129 183,-371 204,-486 -35,84 -458,738 -393,1003z"/>
   <path class="fil15" d="M15539 12302c1,210 4,331 53,546 42,185 63,229 144,342 -37,-299 -148,-303 -168,-1029 -21,44 -29,72 -29,141z"/>
   <path class="fil16" d="M17254 14168l179 -1013c-2,-61 1,-30 -22,-56 -70,144 -182,893 -157,1069z"/>
   <path class="fil8" d="M6658 18080c-673,-20 -377,60 -954,-146 -9,70 -69,49 162,121 184,58 652,118 792,25z"/>
   <path class="fil4" d="M15974 13188c-24,-146 -67,-289 -92,-435 -24,-135 -16,-350 -69,-451 -31,204 5,632 120,831l41 55z"/>
   <path class="fil4" d="M19053 15291l34 -41c75,-119 287,-612 281,-691 -55,44 -147,247 -185,328 -64,134 -110,236 -130,404z"/>
   <path class="fil3" d="M2346 11655c-106,-92 -692,-185 -869,-165 78,51 738,159 869,165z"/>
   <path class="fil17" d="M16945 13469l-2 83 17 293c44,-116 44,-361 44,-501l0 -229 -35 -311 -24 665z"/>
   <path class="fil4" d="M18852 15134l307 -834c-57,29 -31,-34 -116,176 -84,205 -198,430 -191,658z"/>
   <path class="fil4" d="M13242 5299c147,3 321,-64 474,-91 171,-30 332,-36 510,-54 -148,-77 -830,50 -961,127l-23 18z"/>
   <path class="fil12" d="M1828 5572c81,56 367,179 486,197 135,20 278,-25 385,-94 101,-64 68,-43 93,-90 -179,47 -270,185 -494,138 -156,-33 -321,-126 -470,-151z"/>
   <path class="fil6" d="M18606 14986c55,-145 328,-709 336,-818 -93,44 -334,643 -336,818z"/>
   <path class="fil14" d="M13078 4079c7,-52 17,-32 80,-62 -148,-7 -340,36 -446,111 63,22 583,-14 660,-57 -158,-24 -121,-16 -294,8z"/>
   <path class="fil18" d="M7618 17843l12 66c-16,10 -19,15 -45,27 -15,7 -29,12 -45,17 -134,48 -232,40 -381,55 -188,19 -308,35 -475,78 434,-26 377,-12 802,-82 124,-21 149,-13 208,-97l-76 -64z"/>
   <path class="fil13" d="M17468 14163l19 -31c7,-15 14,-36 18,-48l64 -312c26,-138 50,-294 50,-438l-31 81c-9,34 -16,71 -23,104 -16,72 -31,138 -45,205 -29,137 -59,294 -52,439z"/>
   <path class="fil1" d="M13806 10216c-1,4 -1,7 -2,11 -3,42 -43,59 -66,75l20 165c158,-28 155,-111 177,-277l-129 26z"/>
   <path class="fil3" d="M19431 15797c38,-36 122,-251 156,-320 50,-98 139,-239 139,-357 -73,55 -330,597 -295,677z"/>
   <path class="fil4" d="M21346 18048c118,-83 191,-385 151,-559 -50,68 -147,492 -151,559z"/>
   <path class="fil3" d="M13273 4687c375,-53 504,-143 904,-80 -68,-77 -64,-73 -204,-67l-488 65c-35,9 -86,18 -118,26 -113,29 -75,35 -94,56z"/>
   <path class="fil9" d="M15223 10837c73,-1 55,57 88,-156 11,-73 31,-148 28,-224 -74,32 -97,49 -114,137 -14,74 -37,186 -2,243z"/>
   <path class="fil13" d="M18471 14725c50,-56 118,-226 166,-321 51,-99 112,-231 147,-331 -110,109 -300,432 -313,652z"/>
   <path class="fil13" d="M23325 21054l44 0c70,-162 192,-463 215,-658 -4,5 -11,6 -13,15 -1,9 -9,10 -11,14l-115 287c-39,106 -103,232 -120,342z"/>
   <path class="fil13" d="M1355 7176c64,31 322,-52 435,-76 116,-25 75,-7 121,-49 -110,-44 -481,58 -556,125z"/>
   <path class="fil4" d="M16719 10031l-11 -22c-54,117 -270,278 -360,529 45,-28 23,-6 60,-52l150 -184c51,-65 136,-180 161,-271z"/>
   <path class="fil19" d="M15436 12959l-78 -732c-32,160 -34,578 78,732z"/>
   <path class="fil14" d="M1818 7678c272,3 584,-110 799,-205 -139,10 -488,131 -697,172l-102 33z"/>
   <path class="fil17" d="M12505 16277c191,0 672,-19 800,-120 -20,-12 42,-31 -69,-14l-281 80c-184,69 -342,-52 -450,54z"/>
   <path class="fil20" d="M18318 14626c13,-148 169,-657 185,-873 -2,55 -225,555 -185,873z"/>
   <path class="fil8" d="M16220 13226l-65 -569c-9,-74 -8,-117 -37,-175 -4,238 -1,559 102,744z"/>
   <path class="fil9" d="M9133 19130l78 41c42,10 51,6 90,5l11 -114 69 69c11,-100 9,-132 -55,-177 -111,87 23,43 -193,176z"/>
   <path class="fil16" d="M3148 8901c23,-164 56,-610 21,-758 -38,198 -55,559 -21,758z"/>
   <path class="fil21" d="M1250 8672c59,-122 53,-410 29,-563 -68,146 -54,390 -29,563z"/>
   <path class="fil21" d="M1260 4386c39,-15 50,-23 89,-38 -38,92 -106,188 -66,292l61 -71c36,-72 22,-157 13,-239 -13,-111 -15,-86 -36,-114 -33,46 -61,82 -61,170z"/>
   <path class="fil9" d="M15119 10796l57 -257c-95,6 -133,-7 -142,96 -10,108 16,139 85,161z"/>
   <path class="fil9" d="M14707 10841c-6,87 -14,131 37,199 104,-64 99,-183 59,-292l-96 93z"/>
   <path class="fil16" d="M19730 16051c55,-77 235,-434 260,-533 -79,88 -96,104 -160,225 -51,97 -94,183 -100,308z"/>
   <path class="fil15" d="M16430 13248l-109 -746c-14,249 6,550 109,746z"/>
   <path class="fil22" d="M24018 21054l117 0c88,-77 266,-150 366,-229 -158,34 -387,143 -483,229z"/>
   <path class="fil23" d="M1453 15721c63,-101 -17,-119 94,-153l-42 -91c-27,-71 -19,-229 -22,-312 -58,18 -31,27 -31,242 0,104 -2,209 1,314z"/>
   <path class="fil8" d="M13895 10055c-38,-122 -130,-270 -184,-413 -8,89 3,170 33,242 12,30 36,72 52,95 40,60 36,54 99,76z"/>
   <path class="fil12" d="M19270 15441c44,-46 94,-195 122,-263 18,-45 35,-86 53,-134 51,-129 52,-90 29,-135 -48,51 -209,414 -204,532z"/>
   <path class="fil1" d="M13962 10352c121,-34 130,-101 152,-242 -139,26 -143,83 -152,242z"/>
   <path class="fil24" d="M1825 12175c122,0 274,-35 377,-100 40,-25 44,-40 70,-53 -81,-6 -196,61 -283,89 -117,37 -196,34 -306,58l142 6z"/>
   <path class="fil22" d="M27227 20699c168,-27 254,-58 448,-72 89,-7 103,7 173,-44 -135,9 -566,17 -621,116z"/>
   <path class="fil13" d="M13787 12894c114,-38 270,-238 304,-377 -52,40 -280,314 -304,377z"/>
   <path class="fil13" d="M18224 10487c14,-24 20,1 12,-50 0,-2 -25,-72 -28,-78 -44,-119 -114,-363 -171,-408 8,87 142,477 187,536z"/>
   <path class="fil4" d="M2244 13037c53,-23 9,0 45,-38 -142,12 -418,-9 -500,94l455 -56z"/>
   <path class="fil1" d="M1278 4975c42,-26 13,11 53,-43 11,-14 30,-58 34,-73 18,-66 12,-129 12,-198 -108,75 -107,182 -99,314z"/>
   <path class="fil9" d="M1262 5566c4,-2 11,-10 13,-6l74 -110c27,-74 27,-147 28,-225 -5,5 -13,4 -16,14l-82 141c-25,64 -42,118 -17,186z"/>
   <path class="fil5" d="M27900 20605l606 -6c-69,-59 -326,-38 -446,-32 -113,5 -102,-1 -160,38z"/>
   <path class="fil6" d="M5901 19000c36,-6 565,-152 570,-154 -157,-14 -475,53 -570,154z"/>
   <path class="fil25" d="M7618 17843l-92 -73c-133,-62 -307,-89 -456,-86 74,39 180,48 282,73 92,23 184,78 266,86z"/>
   <path class="fil9" d="M14247 10823c39,47 99,88 157,96 40,-45 56,-88 38,-170l-195 74z"/>
   <path class="fil16" d="M12927 11189l121 -250c51,-89 126,-145 158,-227 -134,65 -262,272 -279,477z"/>
   <path class="fil12" d="M14070 9917c-4,-77 -111,-372 -158,-426 6,84 30,155 51,238 31,125 28,122 107,188z"/>
   <path class="fil9" d="M1346 13829c90,-47 108,-141 97,-274 -83,48 -113,143 -97,274z"/>
   <path class="fil19" d="M20899 17224c24,-98 166,-331 117,-415l-144 353c-1,66 -4,25 27,62z"/>
   <path class="fil4" d="M13078 10483c55,-63 95,-252 118,-343 -62,12 -13,-41 -63,52 -44,84 -74,199 -55,291z"/>
   <path class="fil15" d="M13429 10096c-23,-66 -84,-130 -88,-176 -4,76 52,226 81,328 32,114 23,73 57,99 -3,-91 -22,-173 -50,-251z"/>
   <path class="fil9" d="M1354 13502c94,-82 134,-190 45,-288 -31,91 -55,171 -45,288z"/>
   <path class="fil9" d="M13542 10521l181 -12c-18,-98 -4,-89 -45,-141 -35,28 -117,94 -136,153z"/>
   <path class="fil14" d="M1812 7377c121,-3 343,-90 409,-161 -147,18 -299,98 -409,161z"/>
   <path class="fil13" d="M16828 10468c71,-73 147,-238 142,-378l-153 327c-20,100 -11,14 11,51z"/>
   <path class="fil26" d="M14193 12088l51 -414c-71,111 -118,280 -51,414z"/>
   <path class="fil9" d="M1259 5861c81,-65 115,-96 81,-244 -70,79 -104,98 -81,244z"/>
   <path class="fil16" d="M14980 12417c45,-54 68,-260 14,-335 -45,63 -30,249 -14,335z"/>
   <path class="fil9" d="M1258 5242l56 -57c49,-61 87,-129 45,-208 -64,95 -95,129 -101,265z"/>
   <path class="fil19" d="M20813 16696c45,-63 171,-269 179,-346 -74,60 -172,212 -179,346z"/>
   <path class="fil9" d="M15077 11099c42,-27 55,-30 48,-110 -8,-79 -21,-63 -68,-78 -27,62 -41,140 20,188z"/>
   <path class="fil1" d="M15181 11103c105,-10 94,19 97,-72 3,-101 0,-59 -76,-71 -28,63 -20,62 -21,143z"/>
   <path class="fil27" d="M14422 12190l28 -425c-69,126 -77,283 -28,425z"/>
   <path class="fil4" d="M14017 11910l76 -370c-96,84 -100,224 -76,370z"/>
   <polygon class="fil28" points="12415,11500 12676,11586 12581,11463 "/>
   <path class="fil8" d="M14131 9772l-46 -285c-6,6 -70,-26 -24,164 19,74 34,83 70,121z"/>
   <path class="fil29" d="M1233 3746c61,-109 61,-114 46,-278 -60,74 -68,166 -46,278z"/>
   <path class="fil8" d="M15636 9658c68,-33 21,10 106,-130 40,-64 63,-79 87,-157 -83,47 -161,196 -193,287z"/>
   <path class="fil30" d="M12918 14406l352 -2c-108,-58 -254,-59 -352,2z"/>
   <path class="fil21" d="M1250 9985c76,-48 60,-144 51,-230 -65,60 -68,116 -51,230z"/>
   <polygon class="fil9" points="12382,11016 12560,10937 12395,10895 "/>
   <path class="fil9" d="M14507 10993l171 24 -29 -107 -103 47c-30,21 -20,16 -39,36z"/>
   <path class="fil31" d="M17640 14275l95 -477c-59,56 -113,446 -95,477z"/>
   <path class="fil6" d="M14796 12269c43,-49 6,43 41,-64l38 -257c-60,62 -68,234 -79,321z"/>
   <path class="fil9" d="M14872 10901l80 -56 -49 -99c-19,-23 -20,-20 -38,-37l7 192z"/>
   <path class="fil32" d="M14619 12246c3,-5 7,-18 8,-15 1,2 6,-12 7,-17l19 -243c-4,-37 -8,-31 -13,-42 -18,40 -53,243 -21,317z"/>
   <path class="fil8" d="M14834 9463c48,-2 19,27 84,-72 37,-56 46,-63 63,-132 -50,26 -20,0 -53,41l-94 163z"/>
   <path class="fil33" d="M1687 8240l-4 -22 -233 42c40,51 -36,48 187,-2 62,-13 34,-9 50,-18z"/>
   <path class="fil19" d="M20020 16189l132 -241c-45,25 -7,-15 -56,41 -54,63 -82,120 -76,200z"/>
   <path class="fil34" d="M2663 4155c45,31 165,36 214,0 -44,-33 -166,-35 -214,0z"/>
   <path class="fil8" d="M13431 4068c66,9 78,12 145,3 56,-9 68,-14 104,-41 -49,-26 -190,13 -249,38z"/>
   <path class="fil26" d="M13852 11880l54 -278c-56,89 -103,172 -54,278z"/>
   <path class="fil35" d="M2287 10031c72,33 69,9 114,-5 141,-47 79,16 147,-76l-261 81z"/>
   <path class="fil4" d="M9761 18968c7,-1 113,17 75,-91 -16,-48 -12,-17 -36,-35l-39 126z"/>
   <path class="fil4" d="M12492 11368c23,-31 38,33 17,-102 -4,-31 -16,-74 -27,-102 -28,81 -15,140 10,204z"/>
   <path class="fil9" d="M14887 11093l102 1 -11 -110 -49 45c-36,42 -24,31 -42,64z"/>
   <path class="fil9" d="M14490 10830l136 -108c-132,8 -133,-7 -136,108z"/>
   <path class="fil21" d="M1368 13114c11,-9 39,-23 51,-53 41,-103 -19,-97 -20,-98 -20,50 -37,76 -31,151z"/>
   <path class="fil25" d="M5077 17471c61,-2 90,-8 146,-20l138 -48c-101,5 -216,19 -284,68z"/>
   <path class="fil12" d="M9575 17699c38,19 79,9 135,-12 17,-6 13,-4 32,-13 5,-2 12,-7 15,-9 4,-2 11,-7 16,-10 -77,-3 -159,-3 -198,44z"/>
   <path class="fil6" d="M1868 10026c50,77 75,86 199,56l-199 -56z"/>
   <path class="fil15" d="M2533 6947c-37,6 -65,9 -98,26 -94,49 -43,1 -50,73 56,-23 107,-56 148,-99z"/>
   <path class="fil18" d="M12511 9424c56,-9 58,-12 114,-31l110 -54c-122,7 -153,24 -224,85z"/>
   <path class="fil36" d="M1366 10594c-37,14 -44,-22 -42,124 1,49 1,97 1,146l41 -270z"/>
   <path class="fil37" d="M2470 8572c56,23 95,22 146,0 -14,-9 -6,-14 -44,-22 -133,-30 -89,11 -102,22z"/>
   <path class="fil29" d="M1276 7962l17 -131c-15,5 -27,-38 -44,44 -31,140 6,58 27,87z"/>
   <path class="fil38" d="M1344 14030c51,-38 71,-71 85,-143 -53,37 -78,52 -85,143z"/>
   <path class="fil10" d="M5195 3045l67 -157c-64,27 -92,96 -67,157z"/>
   <path class="fil39" d="M2238 3300c-1,0 23,-48 -78,-25 -76,17 -29,15 -41,43l119 -18z"/>
   <path class="fil32" d="M1810 15824c12,7 -35,28 63,11 55,-9 51,-15 79,-32 -4,-2 -9,-9 -11,-5l-57 -3c-45,8 -47,12 -74,29z"/>
   <path class="fil14" d="M13238 9196c21,15 -46,46 78,15 73,-18 55,-32 61,-44l-139 29z"/>
   <path class="fil40" d="M10210 3004c15,-113 26,-100 -57,-127l57 127z"/>
   <path class="fil16" d="M13242 5299c-88,2 -92,9 -122,65l77 -26c4,-2 10,-5 14,-8 28,-19 21,-20 31,-31z"/>
   <path class="fil41" d="M1261 3962c2,-2 22,14 21,-40 -1,-65 -3,-36 -28,-71 -17,76 -30,51 7,111z"/>
   <path class="fil14" d="M2578 2840c16,12 -32,32 54,19 88,-15 54,-30 68,-44l-122 25z"/>
   <path class="fil36" d="M16708 10009l11 22c47,-28 35,-34 45,-99l-56 39c21,18 34,-26 0,38z"/>
   <path class="fil23" d="M8628 17923l92 -30c-24,-17 33,-37 -34,-18 -78,22 -52,-32 -58,48z"/>
   <path class="fil42" d="M13931 3952c-65,24 -43,-20 -77,50 63,-12 43,-13 77,-50z"/>
   <path class="fil43" d="M3064 3334l4 -89c-36,40 -34,-6 -28,41 7,54 -3,13 24,48z"/>
   <path class="fil26" d="M2346 11655l94 76c-39,-69 -11,-52 -94,-76z"/>
   <path class="fil26" d="M13037 5450c0,4 58,65 30,-3 -9,-24 -38,-68 -30,3z"/>
   <path class="fil44" d="M8647 16775c-29,-53 -3,-29 -47,-51 15,56 -23,19 47,51z"/>
   <path class="fil45" d="M2212 7134c31,-44 39,45 61,-61l-61 61z"/>
   <polygon class="fil46" points="9899,2972 9931,2950 9879,2928 "/>
   <path class="fil15" d="M1923 9626c-71,31 -36,-21 -56,44l42 -27c3,-9 9,-12 14,-17z"/>
  </g>
 </g>
</svg>
