<?xml version="1.0" encoding="iso-8859-1"?>
<!-- Generator: Adobe Illustrator 16.0.0, SVG Export Plug-In . SVG Version: 6.00 Build 0)  -->
<!DOCTYPE svg PUBLIC "-//W3C//DTD SVG 1.1//EN" "http://www.w3.org/Graphics/SVG/1.1/DTD/svg11.dtd">
<svg xmlns="http://www.w3.org/2000/svg" xmlns:xlink="http://www.w3.org/1999/xlink" version="1.1" id="Capa_1" x="0px" y="0px" width="512px" height="512px" viewBox="0 0 43.941 43.941" style="enable-background:new 0 0 43.941 43.941;" xml:space="preserve">
<g>
	<g>
		<path d="M43.782,28.688c0-7.118,0-14.235,0-21.354c0-5.454-3.556-7.016-8.349-7.016c-9.568,0-19.139,0-28.708,0    c-0.025,0-0.051,0.001-0.078,0.005C6.606,0.327,6.551,0.335,6.527,0.334c-0.013,0-0.026,0-0.044,0.002    C0.274,1.056,0,5.728,0,10.775c0,7.492,0,14.984,0,22.476c0,4.622,0.159,9.937,6.318,9.937c6.534,0,13.067,0,19.601,0    c3.72,0,11.015,1.395,14.472-0.809C45.059,39.403,43.782,33.51,43.782,28.688z M41.883,8.725c-0.016,0.489-0.033,0.951-0.033,1.36    c0,0.119,0,0.237,0,0.355c0,0.196-0.322,0.666-0.72,1.049c-0.677,0.653-1.354,1.306-2.028,1.958    c-0.396,0.384-0.65,0.717-0.562,0.734c0.087,0.018,0.48-0.287,0.877-0.672c0.532-0.517,1.107-1.078,1.719-1.672    c0.396-0.386,0.715-0.309,0.715,0.171c0,0.479-0.312,1.17-0.699,1.544c-0.385,0.373-0.563,0.677-0.398,0.677    s0.479-0.158,0.699-0.353c0.221-0.194,0.398,0.096,0.398,0.648c0,2,0,4.001,0,6.001c0,1.418,0.031,2.852,0.069,4.294    c0.015,0.552-0.062,1.344-0.2,1.761c-0.138,0.417-0.158,0.624-0.012,0.475c0.146-0.15,0.277,0.176,0.291,0.728    c0.014,0.54,0.023,1.079,0.033,1.619c0.009,0.552-0.299,1.321-0.686,1.716c-0.52,0.533-1.039,1.066-1.56,1.6    c-0.386,0.396-0.709,0.369-0.722-0.061c-0.008-0.268-0.014-0.527-0.014-0.778c0-3.042,1.84-12.663-2.033-13.801    c-0.024-0.007-0.054-0.012-0.084-0.015c-0.047-0.004-0.131-0.018-0.189-0.026c-0.057-0.008-0.113-0.025-0.125-0.044    s-0.035-0.021-0.053-0.004c-0.016,0.017-0.123,0.031-0.237,0.05c-0.063,0.01-0.132,0.025-0.204,0.045    c-2.965,0.828-2.066,2.629-2.214,5.456c-0.073,1.398-0.411,2.674-0.942,3.822c-0.232,0.501-0.779,1.201-1.171,1.592    c-0.177,0.176-0.354,0.354-0.53,0.529c-0.391,0.39-0.57,0.688-0.406,0.658c0.164-0.029-0.006,0.275-0.415,0.646    c-1.884,1.707-4.353,2.781-6.95,3.1c-0.548,0.066-0.897-0.016-0.774-0.139s0.053-0.314-0.153-0.436    c-0.205-0.119-0.581-0.027-0.846,0.217s-0.927,0.424-1.476,0.357c-0.882-0.106-1.757-0.302-2.607-0.603    c-0.123-0.043-0.242-0.091-0.36-0.142c-0.198-0.082-0.048-0.465,0.332-0.852c0.38-0.385,0.359-0.395-0.048-0.021v0.004    c-0.407,0.373-1.036,0.546-1.39,0.357c-0.354-0.188-0.299-0.664,0.108-1.037c0.459-0.42,0.919-0.843,1.377-1.264    c0.407-0.374,1.156-0.518,1.689-0.372c0.722,0.197,1.46,0.32,2.196,0.359c2.453,0.128,4.763-0.786,6.528-2.326    c0.416-0.363,0.432-0.347,0.027,0.028c-0.258,0.238-0.531,0.461-0.817,0.668c-0.449,0.322-0.938,0.617-1.052,0.721    s-0.072,0.243,0.096,0.305c0.168,0.062,0.619-0.211,1.006-0.604c1.766-1.8,3.532-3.603,5.295-5.409    c0.387-0.396,0.366-0.417-0.044-0.047c-0.774,0.699-1.543,1.393-2.299,2.076c-0.409,0.371-0.472,0.313-0.19-0.162    c0.565-0.963,0.967-2.026,1.155-3.148c0.034-0.2,0.058-0.396,0.072-0.59c0.026-0.327,0.35-0.902,0.75-1.283    c1.056-1.005,2.079-1.982,3.062-2.921c0.399-0.381,0.688-0.732,0.641-0.78c-0.047-0.048-0.404,0.225-0.801,0.61    c-0.979,0.956-1.951,1.907-2.918,2.856c-0.395,0.386-0.397,0.387-0.004-0.001c0.973-0.958,1.988-1.958,2.912-2.867    c0.393-0.387,0.704-0.71,0.694-0.72c-0.011-0.01-0.337,0.294-0.731,0.68c-0.966,0.943-1.923,1.878-2.875,2.809    c-0.395,0.386-0.722,0.25-0.818-0.294c-0.043-0.252-0.102-0.499-0.172-0.74c-0.154-0.53-0.021-1.242,0.383-1.618    c0.576-0.536,1.15-1.071,1.726-1.606c0.404-0.377,0.474-0.845,0.142-1.019c-0.334-0.173-0.945,0.017-1.351,0.392    c-0.388,0.36-0.774,0.72-1.163,1.079c-0.404,0.376-0.908,0.427-1.152,0.138s-0.129-0.807,0.277-1.181    c0.139-0.127,0.283-0.26,0.434-0.397c0.406-0.374,1.18-0.609,1.73-0.584c1.405,0.061,2.885-0.113,3.71-0.113    c2.165,0,2.937-1.246,3.187-2.821c0.088-0.545,0.115-1.013,0.139-1.035c0.014-0.013,0.027-0.026,0.042-0.039l1.556-1.446    c0.199-0.201,0.396-0.4,0.594-0.599C41.641,7.996,41.9,8.173,41.883,8.725z M41.143,11.73c-0.582,0.577-1.14,1.118-1.688,1.641    c-0.399,0.381-0.405,0.377-0.008-0.008c0.625-0.604,1.183-1.147,1.688-1.64C41.53,11.337,41.535,11.342,41.143,11.73z     M36.764,37.354c-1.263,0-2.524,0-3.787,0c-5.207,0-10.415,0-15.622,0c-1.464,0-10.771,1.23-10.771-1.488c0-4.383,0-8.768,0-13.15    c0-0.714,0-1.427,0-2.141c0-1.971,1.432,2.953,1.438,3.092c0.177,3.398,2.277,6.381,4.733,8.543    c4.021,3.54,9.836,3.569,14.609,1.877c2.551-0.904,4.627-2.824,6.247-4.923c0.779-1.011,1.261-2.252,1.705-3.429    c0.174-0.458,0.453-3.475,0.715-5.32c0.078-0.547,0.494-0.67,0.736-0.174c1.475,3.003,0.35,10.215,0.35,12.158    C37.118,32.663,37.374,37.354,36.764,37.354z M16.515,28.749c0.329,0.206,0.282,0.655-0.123,1.03    c-0.384,0.357-0.768,0.713-1.152,1.07c-0.405,0.375-0.97,0.492-1.248,0.242c-0.277-0.25-0.161-0.773,0.243-1.15    c0.321-0.299,0.643-0.6,0.966-0.901C15.604,28.663,16.186,28.543,16.515,28.749z M20.55,14.136c0.545-0.09,1.443-0.09,1.988,0.002    c8.343,1.409,9.446,14.653-0.222,15.158C13.277,29.768,11.76,15.59,20.55,14.136z M37.055,12.434    c-0.147,1.273-2.176,0.811-3.02,0.811c-1.066,0-2.334,0.254-3.152-0.564c-0.604-0.604-0.349-2.235-0.349-2.987    c0-0.48-0.195-2.074,0.104-3.015c0.166-0.526,1.084-0.721,1.635-0.761c1.567-0.116,3.57-0.279,4.479,0.632    c0.604,0.606,0.35,2.235,0.35,2.988C37.102,10.499,37.165,11.481,37.055,12.434z M2.553,4.578C3.114,3.162,3.942,2.09,5.142,1.596    c0.511-0.21,1.015-0.257,1.079-0.257S6.024,1.658,5.637,2.052C4.751,2.955,3.845,3.878,2.931,4.81    C2.544,5.205,2.349,5.092,2.553,4.578z M1.614,15.517c-0.008-0.143-0.017-0.286-0.025-0.43c-0.032-0.551,0.265-1.31,0.663-1.692    c1.89-1.816,3.7-3.554,5.452-5.233C8.103,7.78,8.427,7.451,8.427,7.43c0-0.022-0.323,0.27-0.722,0.653    c-1.72,1.651-3.542,3.401-5.456,5.235C1.85,13.7,1.516,13.816,1.501,13.576c-0.009-0.144-0.018-0.288-0.026-0.433    C1.458,11.89,1.484,10.62,1.581,9.399c0.043-0.551,0.41-1.316,0.795-1.712C3.914,6.114,5.42,4.574,6.84,3.123    C7.226,2.728,7.23,2.73,6.846,3.127C6.502,3.483,6.154,3.844,5.802,4.209c-0.383,0.398-0.38,0.399,0.006,0.005    c0.708-0.723,1.413-1.441,2.119-2.161c0.387-0.394,1.148-0.714,1.7-0.714c0.606,0,1.213,0,1.82,0c0.552,0,0.949,0.05,0.887,0.113    s0.018,0.07,0.18,0.022s0.31-0.087,0.328-0.104c0.018-0.017,0.481-0.031,1.033-0.031c2.709,0,5.417,0,8.126,0    c3.581,0,7.162,0,10.742,0c2.599,0,5.091-0.337,7.229,1.222c0.445,0.325,1.086,0.969,1.332,1.463    c0.174,0.347,0.297,0.73,0.387,1.137c0.117,0.539-0.18,1.294-0.584,1.67c-0.435,0.404-0.869,0.809-1.303,1.213    c-0.406,0.376-0.746,0.346-0.76-0.067c-0.008-0.259-0.014-0.51-0.014-0.748c0-0.046-0.004-0.088-0.01-0.129    c-0.01-0.071,0.23-0.358,0.537-0.642c0.306-0.283,0.318-0.513,0.029-0.513c-0.29,0-0.586,0.055-0.66,0.123    c-0.076,0.068-0.354-0.296-0.82-0.595c-1.584-1.019-4.797-0.51-6.271-0.51c-0.024,0-0.051,0.002-0.077,0.005    c-0.043,0.004-0.098,0.012-0.121,0.011c-0.014,0-0.026,0-0.045,0.001C27.766,5.425,28.6,9.253,28.6,12.095    c0,0.717,0.287,1.216,0.75,1.561c0.443,0.33,0.678,0.642,0.41,0.893c-0.158,0.147-0.318,0.298-0.484,0.454    c-0.104,0.101-0.198,0.195-0.289,0.284c-0.16,0.157-0.525,0.075-0.832-0.161c-0.309-0.235-0.411-0.552-0.213-0.733    c0.199-0.182,0.298-0.321,0.222-0.31c-0.076,0.011-0.258,0.145-0.408,0.297c-0.149,0.152-0.647,0.031-1.14-0.218    c-0.914-0.461-1.902-0.792-2.907-0.979c-0.543-0.102-1.079-0.169-1.191-0.177c-0.112-0.008-0.25-0.003-0.308,0.003    c-0.058,0.006-0.552,0.041-1.099,0.12c-4.239,0.612-7.743,3.275-8.499,7.776c-0.251,1.493-0.044,2.854,0.481,4.055    c0.221,0.507,0.355,0.993,0.223,1.124c-0.132,0.133-0.239,0.549-0.239,0.932c0,0.385,0.101,0.592,0.225,0.463    c0.075-0.077,0.15-0.154,0.225-0.231c0.098-0.101,0.195-0.202,0.292-0.302c0.161-0.167,0.567,0.055,0.959,0.443    c0.085,0.086,0.173,0.17,0.263,0.25c0.407,0.373,0.456,0.953,0.066,1.344c-0.296,0.297-0.601,0.602-0.913,0.914    c-0.39,0.392-1.02,0.39-1.367-0.041c-2.132-2.644-3.068-6.219-2.809-9.69c0.054-0.726-0.225-1.34-0.696-1.729    c-0.426-0.352-0.898-0.482-0.898-0.568c0-0.087-0.065-0.091-0.146-0.01c-0.081,0.082-0.308,0.138-0.506,0.157    c-0.116,0.011-0.233,0.032-0.354,0.066c-1.502,0.423-2.27,1.369-2.644,2.562c-0.165,0.527-0.533,1.293-0.922,1.685    c-0.384,0.389-0.769,0.775-1.153,1.164c-0.389,0.393-0.69,0.539-0.678,0.326c0.01-0.178,0.015-0.311,0.015-0.387    c0-0.125-0.014-0.461-0.038-0.957c-0.025-0.527,0.265-1.276,0.65-1.672c1.701-1.747,3.392-3.476,5.074-5.19    c0.387-0.394,0.701-1.038,0.701-1.438S8.1,13.76,7.704,14.145c-1.474,1.427-3.221,3.12-5.13,4.972    c-0.396,0.384-0.741,0.266-0.771-0.265c-0.03-0.531,0.266-1.273,0.662-1.658c1.699-1.653,3.446-3.354,5.242-5.102    c0.396-0.385,0.716-1.053,0.716-1.492c0-0.438-0.318-0.478-0.71-0.089c-1.784,1.772-3.566,3.539-5.336,5.296    C1.988,16.201,1.645,16.068,1.614,15.517z M3.828,30.299c-0.4,0.413-0.801,0.825-1.201,1.238    c-0.384,0.396-0.696,0.318-0.696-0.176s0.311-1.217,0.694-1.613c0.446-0.461,0.889-0.919,1.33-1.374    c0.384-0.396,0.688-0.287,0.648,0.245C4.564,29.15,4.212,29.903,3.828,30.299z M4.379,31.608c-0.021,0.399-0.346,1.04-0.735,1.432    c-0.371,0.374-0.742,0.747-1.114,1.121c-0.389,0.392-0.685,0.377-0.659-0.033c0.026-0.409,0.36-1.06,0.75-1.45    c0.485-0.485,0.97-0.97,1.456-1.453c0.058-0.057,0.115-0.113,0.173-0.17C4.346,30.961,4.399,31.209,4.379,31.608z M1.932,26.942    c0-0.597,0-1.194,0-1.79c0.008-0.109,0.017-0.217,0.024-0.321c0.013-0.177,0.352-0.624,0.756-1.002    c0.352-0.33,0.704-0.661,1.055-0.993c0.402-0.379,0.687-0.238,0.684,0.313c-0.003,0.401,0.01,0.809,0.03,1.216    c0.027,0.552-0.258,1.312-0.651,1.701c-0.396,0.391-0.791,0.781-1.188,1.174C2.249,27.628,1.932,27.495,1.932,26.942z     M1.812,36.829c-0.019-0.272-0.026-0.552-0.025-0.835c0.002-0.552,0.35-1.316,0.741-1.706c0.369-0.367,0.738-0.733,1.108-1.101    c0.392-0.389,0.695-0.256,0.706,0.296c0.005,0.222,0.013,0.442,0.026,0.659c0.033,0.552-0.21,1.324-0.586,1.728    c-0.381,0.407-0.762,0.815-1.144,1.222C2.259,37.493,1.851,37.38,1.812,36.829z M3.555,40.405c-0.375-0.322-0.7-0.688-0.969-1.106    c-0.299-0.464-0.128-1.195,0.273-1.574c0.35-0.33,0.702-0.66,1.055-0.992c0.402-0.379,0.823-0.242,1.065,0.254    c0.412,0.845,1.066,1.39,2.091,1.39c0.016,0,0.032,0,0.048,0c0.026,0-0.279,0.306-0.683,0.683c-0.447,0.416-0.894,0.832-1.34,1.25    C4.691,40.684,3.973,40.766,3.555,40.405z M42.03,33.626c-0.013,0.552-0.353,1.31-0.75,1.693    c-0.781,0.753-1.581,1.524-2.407,2.323c-0.396,0.383-0.396,0.693,0.001,0.693s1.037-0.316,1.429-0.707    c0.307-0.308,0.615-0.615,0.924-0.923c0.391-0.391,0.685-0.315,0.646,0.168s-0.211,1.006-0.374,1.168    c-0.164,0.162-0.175,0.294-0.027,0.294c0.148,0,0.262,0.073,0.254,0.164c-0.004,0.055-0.009,0.11-0.015,0.165    c-0.678,5.843-16.694,3.5-19.929,3.5c-3.021,0-8.499,0.798-12.967,0.208c-0.547-0.072-0.673-0.477-0.286-0.87    c0.027-0.026,0.054-0.055,0.081-0.082c0.388-0.393,0.627-0.825,0.549-0.974c-0.078-0.148-0.467,0.033-0.876,0.404    c-0.186,0.17-0.373,0.339-0.561,0.508c-0.41,0.369-1.108,0.583-1.549,0.441c-0.44-0.143-0.452-0.59-0.042-0.959    c0.549-0.494,1.098-0.988,1.646-1.482c0.41-0.37,0.73-0.74,0.722-0.827c-0.007-0.086,0.434-0.157,0.986-0.157    c8.792,0,17.584,0,26.375,0c2.408,0,3.055-1.47,3.199-3.225c0.045-0.551,0.113-1.075,0.207-1.167l0.172-0.167    c0.637-0.641,1.272-1.281,1.908-1.922c0.389-0.392,0.707-0.262,0.703,0.291C42.048,32.666,42.041,33.146,42.03,33.626z" fill="#4e4e4e"/>
		<path d="M7.974,5.856c-0.803,0.817-1.63,1.662-2.483,2.536C5.416,8.468,5.342,8.541,5.268,8.616    C5.145,8.739,5.367,8.528,5.766,8.145c0.703-0.674,1.4-1.343,2.094-2.008c0.399-0.382,0.739-0.76,0.767-0.843    C8.654,5.21,8.361,5.462,7.974,5.856z" fill="#4e4e4e"/>
		<path d="M2.714,18.91c-1.148,1.178,1.973-1.868,4.997-4.815c0.396-0.386,0.391-0.388-0.007-0.005    C6.129,15.6,4.481,17.201,2.714,18.91z" fill="#4e4e4e"/>
	</g>
</g>
<g>
</g>
<g>
</g>
<g>
</g>
<g>
</g>
<g>
</g>
<g>
</g>
<g>
</g>
<g>
</g>
<g>
</g>
<g>
</g>
<g>
</g>
<g>
</g>
<g>
</g>
<g>
</g>
<g>
</g>
</svg>
