<?xml version="1.0" encoding="UTF-8"?>
<!DOCTYPE svg PUBLIC "-//W3C//DTD SVG 1.1//EN" "http://www.w3.org/Graphics/SVG/1.1/DTD/svg11.dtd">
<!-- Creator: CorelDRAW X7 -->
<svg xmlns="http://www.w3.org/2000/svg" xml:space="preserve" width="297mm" height="210mm" version="1.1" style="shape-rendering:geometricPrecision; text-rendering:geometricPrecision; image-rendering:optimizeQuality; fill-rule:evenodd; clip-rule:evenodd"
viewBox="0 0 29700 21000"
 xmlns:xlink="http://www.w3.org/1999/xlink">
 <defs>
  <style type="text/css">
   <![CDATA[
    .fil6 {fill:#005953}
    .fil8 {fill:#028077}
    .fil2 {fill:#313030}
    .fil0 {fill:#313131}
    .fil7 {fill:#58D1C7}
    .fil9 {fill:#82F0E7}
    .fil13 {fill:#EEEEEE}
    .fil12 {fill:#F1F1F0}
    .fil11 {fill:#F2F2F2}
    .fil10 {fill:#F3F3F3}
    .fil5 {fill:#F4F4F4}
    .fil4 {fill:whitesmoke}
    .fil1 {fill:#F6F6F6}
    .fil3 {fill:#F8F8F8}
   ]]>
  </style>
 </defs>
 <g id="Слой_x0020_1">
  <metadata id="CorelCorpID_0Corel-Layer"/>
  <g id="_607169888">
   <path class="fil0" d="M7459 12275l694 -55 -7 296 -683 7 -4 -248zm-1191 211c50,-293 175,-191 500,-193 360,-1 443,-99 453,248 -255,0 -789,43 -953,-55zm-186 0c-171,107 -404,66 -675,64 21,-285 10,-220 303,-239 308,-19 323,-100 372,175zm2294 -192c69,-107 -80,-80 413,-120 179,-15 328,-44 504,-18l-12 304c-237,91 -634,40 -899,40l-6 -206zm-3890 263c-16,-307 346,-200 651,-201 -21,312 -389,263 -651,201zm5755 -484l-7 366 -538 45 -203 -20c-137,-449 391,-370 748,-391zm1235 269l-29 -304c245,-79 795,-131 1084,-81l-29 405c-218,33 -851,55 -1026,-20zm-997 87l-7 -359 798 -45 30 375 -821 29zm2286 -509l673 -30 46 412 -792 5 73 -387zm2167 -91l595 -7 30 403 -607 -2 -18 -394zm-1230 440l-57 -357c262,-114 765,-83 1073,-75l10 400c-237,36 -807,82 -1026,32zm2014 -468c216,-15 448,-11 656,-11 323,-1 280,33 252,376l-890 13 -18 -378zm-11286 -348l802 -85 -5 761 -785 2 -12 -678zm-1139 747l-34 -633 978 -116 1 703 -945 46zm13592 -38l-33 -369 640 -13c49,204 74,338 -89,388 -75,23 -429,5 -518,-6zm878 19l-42 -383 597 -22c61,92 98,158 129,295l-684 110zm-11460 -140c-36,-216 -86,-648 108,-725 103,-41 686,-23 838,-12l-16 736 -930 1zm-896 -681l211 -2 288 0 205 6 0 709 -205 8 -192 -1 -307 -2 0 -718zm2046 -63l749 -54c58,259 54,487 -22,734l-714 11 -13 -691zm19368 1057c71,-99 -39,1 106,-108 185,-141 239,-54 364,-305 -435,72 -610,423 -1116,422 77,-118 325,-330 407,-364 162,-67 448,-57 634,-74 599,-55 623,-233 1056,-404 63,300 88,401 -152,574 -183,131 -322,267 -614,248 104,-255 365,-184 516,-463 -465,41 -729,512 -1201,474zm-17315 -1160l754 11 -2 666 -767 28 15 -705zm-205 6c18,361 83,650 -152,722 -12,3 -25,6 -37,8l-707 10 5 -706 891 -34zm1144 -34l837 12 -9 585c-175,45 -373,89 -568,77l-258 -20 -2 -654zm1036 -11c342,-51 749,-117 1094,-60l-13 611 -1090 67 9 -618zm14710 -643l784 17c128,256 127,824 82,1134l-848 -14 -18 -1137zm-12754 498l-9 659 -672 17 7 -642 674 -34zm203 597c-50,-298 -128,-590 187,-636 220,-32 637,-56 854,-7l50 646 -1091 -3zm2966 -759l-15 726 -884 -9 0 -670 899 -47zm-1744 85c274,-43 369,-43 646,13l19 634c-239,25 -366,83 -615,-8l-50 -639zm2829 -79c82,-135 -57,-37 151,-103 676,-216 544,306 564,791l-715 -3 0 -685zm9981 -367c48,381 248,1333 -373,1105 -47,-351 -90,-723 -43,-1093l416 -12zm350 901c-108,-267 0,-341 257,-388 0,230 42,331 -141,396 -188,67 -87,2 -116,-8zm-10692 -619c13,1 29,4 40,5l116 32c17,115 47,415 41,534 -13,301 -209,247 -728,227l-37 -749 568 -49zm-12934 -473l828 -33c1,274 55,674 -38,896 -229,71 -522,75 -793,46l3 -909zm2840 -132l4 916 -908 26 20 -856 884 -86zm-1797 74l674 28c91,232 38,577 38,836 -279,52 -429,81 -734,40l22 -904zm19453 305c204,-57 840,-54 1050,-3 57,292 189,881 94,1148 -302,47 -662,80 -960,9 -130,-237 -222,-856 -184,-1154zm-15598 -432l-4 882 -861 18 15 -891 850 -9zm-1869 40l802 12c15,156 50,752 -22,834 -115,130 -612,80 -796,32l16 -878zm2809 -115l-13 919 -741 -24 2 -835 752 -60zm191 11c206,-48 728,-165 831,14 14,24 101,654 -36,858l-793 20 -2 -892zm13398 472l855 -3c64,384 153,785 132,1208l-867 3 -120 -1208zm-255 54c54,219 155,989 133,1202l-853 61c-152,-302 -158,-854 -191,-1226l911 -37zm-12122 -617c236,-69 820,-49 1078,-17 24,255 117,673 1,865 -206,102 -796,99 -1081,66l2 -914zm-8306 437c307,-55 764,-129 1067,-54 0,200 80,824 -62,907 -51,30 -793,70 -906,69 -83,-289 -154,-617 -99,-922zm24861 494c-31,-240 48,-332 237,-282 37,169 -93,220 -237,282zm-13451 -1093c40,240 157,646 36,860 -188,115 -710,95 -983,79l-36 -894 983 -45zm201 -13c800,-21 754,-104 734,863 -265,44 -383,56 -669,12l-65 -875zm2899 -86l662 33 3 768 -670 60 5 -861zm10299 770c-11,-282 40,-280 294,-345 1,253 -61,321 -294,345zm-15180 299c-74,-154 -138,-572 -77,-761 67,-205 490,-169 697,-138l50 845c-174,103 -460,116 -670,54zm-9702 -1553c309,-19 754,-123 1041,-63 96,222 66,691 39,956 -1301,175 -1082,75 -1080,-893zm20310 188l135 920 -853 52c-69,-258 -112,-578 -67,-881l785 -91zm1583 892c-142,-84 -138,-209 -157,-395 -21,-209 -19,-334 4,-544l1036 22 56 910 -939 7zm-19774 -1233c98,250 58,677 57,980l-903 32 -18 -957 864 -55zm12178 661c134,204 137,540 100,842l-714 32 -71 -868c225,-32 464,-57 685,-6zm-9938 188c-57,-208 1,-684 15,-938l817 11c0,262 47,696 -34,936l-798 -9zm-1091 99c57,-904 -142,-1167 939,-990l-51 904c-207,76 -652,86 -888,86zm21560 -207c98,-120 115,-144 312,-182 59,302 -17,412 -305,411l-7 -229zm-19483 98c11,-312 -23,-644 57,-948l787 6 -28 903 -816 39zm19182 -728c20,306 126,811 28,1084l-406 11 -59 -1048 437 -47zm-11178 541c81,252 229,588 164,885l-643 54 -280 -11 -51 -888 810 -40zm10503 -423l55 985 -830 -26c-40,-303 -119,-606 -59,-917l834 -42zm-17501 -64c0,-302 83,-318 375,-317l240 -1 185 6 -1 883 -764 44 -35 -423 0 -192zm15091 165c102,280 124,554 87,866 -218,74 -607,54 -851,19l-111 -887 875 2zm-14084 -447c195,-78 567,-109 822,-66 48,198 77,658 -33,801 -112,122 -632,104 -797,73 -55,-226 -38,-607 8,-808zm2064 -157l16 876 -1073 37 5 -864 1052 -49zm865 -75l-10 894 -678 50 7 -911 681 -33zm206 876c-205,-1047 31,-944 892,-938 44,284 127,597 73,895l-965 43zm2065 -972l780 11 36 871 -824 -9 8 -873zm-10208 416l830 0 -65 971 -776 4 11 -975zm12865 344c-786,250 -763,-53 -724,-825l723 11 1 814zm-1608 73c-69,-219 -87,-574 -29,-813 187,-100 484,-53 710,-53l57 864c-241,21 -511,83 -738,2zm-1923 93c-89,-278 -125,-552 -75,-859 210,-80 502,-42 737,-34l-3 868 -659 25zm11259 -1344c486,-42 382,-59 824,-22l44 810c-210,121 -578,131 -839,76 -50,-260 -70,-591 -29,-864zm-2516 164c65,-38 -6,-13 122,-49l768 -56c132,216 122,602 114,882l-942 16 -62 -793zm-18319 -455l24 887c-233,95 -624,106 -915,64l-6 -952 897 1zm202 -34l867 -2 -19 922 -853 8 5 -928zm21790 1119c-106,-213 -115,-590 -91,-864l449 -35 40 702 -398 197zm-20772 -582c0,-585 -25,-595 830,-547 81,239 40,630 29,897l-847 -28 -12 -322zm16080 64c903,-198 787,-251 856,706l-817 34 -39 -740zm-14010 -208c0,-497 -112,-450 776,-445l3 895 -778 0 -1 -450zm-1015 464c-34,-237 -53,-640 24,-861 234,-35 618,-91 790,6 75,142 93,651 -27,794 -75,71 67,26 -170,64 -31,5 -153,11 -191,13 -175,8 -252,16 -426,-16zm-4382 -656c201,-123 703,-168 966,-141 77,215 111,665 54,879 -124,151 160,48 -216,117l-800 60c-20,-300 -74,-629 -4,-915zm21616 162l1074 -54 55 921 -1089 -8 -40 -859zm-14205 437c-78,-251 -37,-629 -29,-904l791 7 1 839c-200,65 -511,80 -763,58zm-1028 -850c700,-41 1027,-153 761,857 -292,36 -492,53 -786,-1 -15,-361 -30,-497 25,-856zm3173 -151l742 -4 1 214 6 385 -37 219 -713 36 1 -850zm-1232 354c-13,-217 3,-282 183,-320l853 -17c43,544 62,350 -12,862 -559,58 -499,86 -995,41l-29 -566zm3227 357c-25,-257 -80,-468 -5,-720 261,-15 528,-42 767,52l42 698 -804 -30zm-1061 55c-39,-244 -45,-510 27,-767l815 13 37 764 -879 -10zm2027 -779l758 6 77 716 -835 -4 0 -718zm1940 -17c173,-111 529,-160 748,-141l0 805c-220,43 -517,55 -728,-11 -55,-271 -73,-379 -20,-653zm-249 -50c17,134 39,256 53,388 22,205 -19,326 -25,306 -2,-7 -10,24 -17,35 -156,86 -419,81 -630,47 -94,-160 -108,-483 -80,-718l699 -58zm6130 -286c170,-81 639,-144 863,-64 156,56 130,583 124,789l-936 39 -51 -764zm-1016 700c-45,-195 -30,-502 -8,-700l756 -5 72 773 -207 67c-14,3 -148,16 -165,18 -127,12 -247,24 -374,28l-74 -181zm3614 -818c812,-206 753,-12 813,694l-859 64c-3,-188 -34,-602 46,-758zm1511 657c-303,34 -621,211 -500,-676l392 -28c95,160 82,344 108,704zm-24446 -1014l900 15c94,287 111,525 58,856l-967 30 9 -901zm2278 3c163,-31 297,-23 463,-24 580,-4 497,48 469,821 -307,22 -629,73 -931,-8l-1 -789zm2022 -59l602 -32 319 52 -17 765c-264,78 -567,89 -844,27l-60 -812zm-903 50l640 -25c48,70 -1,-29 60,109 84,191 88,490 77,693l-777 12 0 -644 0 -145zm19259 1146c-190,6 -383,14 -573,23 -177,8 -364,35 -524,-40l-34 -720c316,-33 816,-108 1110,-8l21 745zm-16296 -1246l789 9 33 794c-265,19 -560,63 -834,-2l12 -801zm978 -13l835 12 -26 757 -791 15 -18 -784zm-1892 42c223,-17 465,-60 679,-2 70,166 123,620 19,814l-719 6 21 -818zm2904 694c-15,-156 -6,-278 0,-434 17,-400 46,-302 109,-326 62,-24 737,-7 851,0l34 732 -994 28zm4155 -74c-55,-202 -71,-566 -1,-765l732 9 -11 769 -720 -13zm-1973 5c-69,-246 -54,-501 60,-713 382,-56 817,-207 683,717l-743 -4zm-1031 -709l824 7 4 197 2 336 -12 181 -379 23 -49 8 -358 -49 -32 -703zm-8314 988c-83,-266 -73,-546 -67,-853l944 27c49,204 79,594 21,835l-898 -9zm12915 -1098l83 803 -713 0 12 -774 618 -29zm214 -3l841 12 44 726 -859 28 -26 -766zm-2902 63l875 6 24 749c-291,66 -527,36 -834,6l-65 -761zm8852 -461l871 -10c95,205 159,515 115,804 -343,72 -577,65 -946,51l-40 -845zm4081 725c-290,0 -462,80 -495,-197 -16,-128 2,-487 11,-628l448 -1 36 826zm-2792 61c-102,-199 -102,-582 -105,-851l1066 -6c43,276 120,525 34,818l-995 39zm-2338 -772l805 -1 6 857 -760 -25 -51 -831zm3557 -100c669,-65 978,-130 822,786l-697 30c-105,-182 -127,-567 -125,-816zm-19296 490c0,-167 232,-552 691,-409 -11,115 -96,287 -208,362 -124,84 -331,63 -483,47zm-3220 -42c57,-114 258,-269 366,-326 176,-94 371,-69 590,-42 -172,301 -507,436 -956,368zm2580 27c120,-239 270,-474 652,-417 -11,146 -182,353 -317,428l-96 0 -48 2 -191 -13zm-901 -54c263,-215 442,-457 984,-366 -8,165 -126,229 -287,441 -226,-1 -526,26 -697,-75zm-797 37c116,-211 546,-584 924,-377 -72,135 -32,63 -161,170 -297,247 -346,235 -763,207zm-1784 -404l399 38c-77,108 -220,199 -363,271l-36 -309zm19580 -144c-76,1203 433,4737 641,6052l3613 -45c-146,185 -402,391 -712,382 34,-142 96,-102 191,-293 -469,119 -463,362 -1106,293 12,-92 13,-50 136,-207 7,-10 21,-23 29,-37 -473,44 -397,302 -893,275l-38 -135c-2,-5 -6,-19 -10,-28 -486,87 72,172 -1154,222l-3885 167c-1738,75 -3460,214 -5186,297 -1232,59 -10278,387 -10714,154 -156,-268 -500,-5904 -408,-6446 147,-163 658,-566 913,-432l-634 419c-25,1734 111,3424 245,5150 64,828 -111,1010 759,1044 1648,63 5313,-56 7056,-128 1154,-48 2305,-116 3457,-148 1167,-31 2342,-28 3504,-101 1106,-70 852,-281 750,-2703 -37,-895 -8,-1806 -55,-2653 -11,-195 15,-625 -164,-747 -134,-92 -7097,124 -8259,146 -864,17 -2014,117 -2839,51 91,-236 262,-417 569,-401 -4,155 -67,167 -129,314 410,-60 184,-390 667,-335l-56 201c-5,84 -11,34 12,82 197,-154 206,-338 576,-334 53,99 -9,65 48,196 258,-99 134,-239 521,-206l-115 242c278,-91 250,-291 581,-257 -27,220 -102,77 -150,392 224,-113 143,-103 307,-281 100,-107 178,-153 383,-120l-215 332c467,-77 278,-486 917,-366 -130,98 -231,176 -281,384 357,-162 300,-381 713,-431 -96,204 -146,191 -226,378 412,-107 286,-410 781,-395 -22,131 -31,147 -116,249 298,-2 353,-409 789,-262 -85,189 -96,62 -140,296 236,-80 414,-371 665,-346 206,21 77,19 136,57 12,8 44,37 54,44 253,197 -205,-46 52,43 479,-265 963,-198 1582,-218 612,-19 1223,-41 1834,-62l7239 -256c612,-18 3250,-175 3635,-79l361 4030 -372 142c-98,-757 -118,-1553 -160,-2306 -21,-369 -27,-780 -66,-1147 -51,-488 -445,-354 -903,-338 -767,28 -4268,130 -4730,209zm-19631 -117c-220,366 13,3121 46,3775 36,721 101,3276 273,3756 219,59 1793,-26 2349,-19 2646,29 4325,-48 7057,-150 3671,-136 7240,-371 10941,-501l4223 -92c230,-9 1156,9 1273,-127 217,-263 -322,-6654 -467,-7400 -185,-50 -4716,116 -5317,135l-10463 374c-1718,70 -3515,219 -5231,219l-4684 30z"/>
   <path class="fil1" d="M19852 9735c211,-28 477,-38 692,-34 86,2 238,6 320,23 423,84 270,500 314,1167 733,68 668,-156 792,610 34,210 92,319 40,535 -218,98 -2672,255 -3006,204 -194,-297 -111,-823 -46,-1236l866 -63 28 -1206zm-1077 -3526c364,-84 2413,-133 2763,-47 216,391 322,2308 226,2795 -324,72 -2400,197 -2737,144 -197,-266 -341,-2464 -252,-2892zm3228 -229c462,-79 3963,-181 4730,-209 458,-16 852,-150 903,338 39,367 45,778 66,1147 42,753 62,1549 160,2306l372 -142 -361 -4030c-385,-96 -3023,61 -3635,79l-7239 256c-611,21 -1222,43 -1834,62 -619,20 -1103,-47 -1582,218 -257,-89 201,154 -52,-43 -10,-7 -42,-36 -54,-44 -59,-38 70,-36 -136,-57 -251,-25 -429,266 -665,346 44,-234 55,-107 140,-296 -436,-147 -491,260 -789,262 85,-102 94,-118 116,-249 -495,-15 -369,288 -781,395 80,-187 130,-174 226,-378 -413,50 -356,269 -713,431 50,-208 151,-286 281,-384 -639,-120 -450,289 -917,366l215 -332c-205,-33 -283,13 -383,120 -164,178 -83,168 -307,281 48,-315 123,-172 150,-392 -331,-34 -303,166 -581,257l115 -242c-387,-33 -263,107 -521,206 -57,-131 5,-97 -48,-196 -370,-4 -379,180 -576,334 -23,-48 -17,2 -12,-82l56 -201c-483,-55 -257,275 -667,335 62,-147 125,-159 129,-314 -307,-16 -478,165 -569,401 825,66 1975,-34 2839,-51 1162,-22 8125,-238 8259,-146 179,122 153,552 164,747 47,847 18,1758 55,2653 102,2422 356,2633 -750,2703 -1162,73 -2337,70 -3504,101 -1152,32 -2303,100 -3457,148 -1743,72 -5408,191 -7056,128 -870,-34 -695,-216 -759,-1044 -134,-1726 -270,-3416 -245,-5150l634 -419c-255,-134 -766,269 -913,432 -92,542 252,6178 408,6446 436,233 9482,-95 10714,-154 1726,-83 3448,-222 5186,-297l3885 -167c1226,-50 668,-135 1154,-222 4,9 8,23 10,28l38 135c496,27 420,-231 893,-275 -8,14 -22,27 -29,37 -123,157 -124,115 -136,207 643,69 637,-174 1106,-293 -95,191 -157,151 -191,293 310,9 566,-197 712,-382l-3613 45c-208,-1315 -717,-4849 -641,-6052z"/>
   <path class="fil2" d="M21558 8071l7 662 -630 21c-32,-679 -67,-747 623,-683zm-1452 68l634 -18 32 647c-241,26 -353,66 -611,12l-55 -641zm-983 92c276,-46 543,-111 821,-44l2 620 -758 42c-50,-201 -116,-390 -65,-618zm979 -347c-49,-632 -86,-688 624,-641l-18 612 -606 29zm-1079 -597c285,0 620,-19 860,50 37,176 61,371 18,590l-825 72 -53 -712zm1908 -87c174,-11 439,-4 557,67 66,109 46,366 31,546l-597 -1 9 -612zm-1904 -783l842 -34 0 702 -850 -25 8 -643zm1030 -33l644 -2 3 656 -604 -31 -43 -623zm843 19c633,-192 563,60 590,577l-594 -22 4 -555zm-2125 -194c-89,428 55,2626 252,2892 337,53 2413,-72 2737,-144 96,-487 -10,-2404 -226,-2795 -350,-86 -2399,-37 -2763,47z"/>
   <path class="fil2" d="M19813 11249l64 703c-209,16 -566,97 -713,-3 -115,-135 -63,-497 -20,-681l669 -19zm1966 -97l102 672 -683 -1 23 -643 558 -28zm-1621 771c-96,-211 -78,-414 -73,-672 259,-80 587,-35 862,-35 0,510 125,765 -789,707zm-88 -1979l831 21c22,303 77,643 23,959l-861 13 7 -993zm-246 997l-866 63c-65,413 -148,939 46,1236 334,51 2788,-106 3006,-204 52,-216 -6,-325 -40,-535 -124,-766 -59,-542 -792,-610 -44,-667 109,-1083 -314,-1167 -82,-17 -234,-21 -320,-23 -215,-4 -481,6 -692,34l-28 1206z"/>
   <path class="fil1" d="M25074 11697c298,71 658,38 960,-9 95,-267 -37,-856 -94,-1148 -210,-51 -846,-54 -1050,3 -38,298 54,917 184,1154z"/>
   <path class="fil3" d="M22655 10610c33,372 39,924 191,1226l853 -61c22,-213 -79,-983 -133,-1202l-911 37z"/>
   <path class="fil4" d="M3065 9211c-2,968 -221,1068 1080,893 27,-265 57,-734 -39,-956 -287,-60 -732,44 -1041,63z"/>
   <path class="fil3" d="M23941 11727l867 -3c21,-423 -68,-824 -132,-1208l-855 3 120 1208z"/>
   <path class="fil1" d="M11442 10870c285,33 875,36 1081,-66 116,-192 23,-610 -1,-865 -258,-32 -842,-52 -1078,17l-2 914z"/>
   <path class="fil5" d="M3066 8071c-70,286 -16,615 4,915l800 -60c376,-69 92,34 216,-117 57,-214 23,-664 -54,-879 -263,-27 -765,18 -966,141z"/>
   <path class="fil4" d="M3138 10393c-55,305 16,633 99,922 113,1 855,-39 906,-69 142,-83 62,-707 62,-907 -303,-75 -760,-1 -1067,54z"/>
   <path class="fil1" d="M26207 11649l848 14c45,-310 46,-878 -82,-1134l-784 -17 18 1137z"/>
   <path class="fil1" d="M24958 10291l939 -7 -56 -910 -1036 -22c-23,210 -25,335 -4,544 19,186 15,311 157,395z"/>
   <polygon class="fil1" points="24722,9092 25811,9100 25756,8179 24682,8233 "/>
   <path class="fil1" d="M13565 9839l36 894c273,16 795,36 983,-79 121,-214 4,-620 -36,-860l-983 45z"/>
   <path class="fil4" d="M11390 8023l29 566c496,45 436,17 995,-41 74,-512 55,-318 12,-862l-853 17c-180,38 -196,103 -183,320z"/>
   <polygon class="fil1" points="11435,8833 11430,9697 12503,9660 12487,8784 "/>
   <path class="fil4" d="M24622 6942l995 -39c86,-293 9,-542 -34,-818l-1066 6c3,269 3,652 105,851z"/>
   <path class="fil1" d="M13558 9585l965 -43c54,-298 -29,-611 -73,-895 -861,-6 -1097,-109 -892,938z"/>
   <path class="fil4" d="M4320 9113l18 957 903 -32c1,-303 41,-730 -57,-980l-864 55z"/>
   <path class="fil4" d="M6333 10006c236,0 681,-10 888,-86l51 -904c-1081,-177 -882,86 -939,990z"/>
   <path class="fil4" d="M24626 7951c160,75 347,48 524,40 190,-9 383,-17 573,-23l-21 -745c-294,-100 -794,-25 -1110,8l34 720z"/>
   <path class="fil4" d="M4276 7903l6 952c291,42 682,31 915,-64l-24 -887 -897 -1z"/>
   <path class="fil5" d="M3058 7729l967 -30c53,-331 36,-569 -58,-856l-900 -15 -9 901z"/>
   <path class="fil6" d="M20063 10937l861 -13c54,-316 -1,-656 -23,-959l-831 -21 -7 993z"/>
   <path class="fil1" d="M23492 8359l62 793 942 -16c8,-280 18,-666 -114,-882l-768 56c-128,36 -57,11 -122,49z"/>
   <path class="fil5" d="M4254 7655l898 9c58,-241 28,-631 -21,-835l-944 -27c-6,307 -16,587 67,853z"/>
   <path class="fil1" d="M15604 9750l51 888 280 11 643 -54c65,-297 -83,-633 -164,-885l-810 40z"/>
   <path class="fil1" d="M26083 9329c-60,311 19,614 59,917l830 26 -55 -985 -834 42z"/>
   <path class="fil1" d="M23743 10273c244,35 633,55 851,-19 37,-312 15,-586 -87,-866l-875 -2 111 887z"/>
   <path class="fil4" d="M23373 7001c369,14 603,21 946,-51 44,-289 -20,-599 -115,-804l-871 10 40 845z"/>
   <path class="fil1" d="M10423 10047l2 892 793 -20c137,-204 50,-834 36,-858 -103,-179 -625,-62 -831,-14z"/>
   <polygon class="fil4" points="5370,8798 6223,8790 6242,7868 5375,7870 "/>
   <path class="fil4" d="M7424 9907l798 9c81,-240 34,-674 34,-936l-817 -11c-14,254 -72,730 -15,938z"/>
   <polygon class="fil1" points="6350,10250 6330,11106 7238,11080 7234,10164 "/>
   <path class="fil5" d="M5346 7620c302,81 624,30 931,8 28,-773 111,-825 -469,-821 -166,1 -300,-7 -463,24l1 789z"/>
   <polygon class="fil4" points="5404,10004 6180,10000 6245,9029 5415,9029 "/>
   <path class="fil4" d="M23404 7303l51 764 936 -39c6,-206 32,-733 -124,-789 -224,-80 -693,-17 -863,64z"/>
   <path class="fil4" d="M7448 8727c174,32 251,24 426,16 38,-2 160,-8 191,-13 237,-38 95,7 170,-64 120,-143 102,-652 27,-794 -172,-97 -556,-41 -790,-6 -77,221 -58,624 -24,861z"/>
   <path class="fil4" d="M4391 11205c271,29 564,25 793,-46 93,-222 39,-622 38,-896l-828 33 -3 909z"/>
   <path class="fil1" d="M26008 8195c-41,273 -21,604 29,864 261,55 629,45 839,-76l-44 -810c-442,-37 -338,-20 -824,22z"/>
   <path class="fil1" d="M22590 9490c-45,303 -2,623 67,881l853 -52 -135 -920 -785 91z"/>
   <path class="fil4" d="M10423 8941c-46,201 -63,582 -8,808 165,31 685,49 797,-73 110,-143 81,-603 33,-801 -255,-43 -627,-12 -822,66z"/>
   <path class="fil4" d="M6393 8407l12 322 847 28c11,-267 52,-658 -29,-897 -855,-48 -830,-38 -830,547z"/>
   <polygon class="fil1" points="8442,10120 8427,11011 9288,10993 9292,10111 "/>
   <path class="fil4" d="M8410 9897l816 -39 28 -903 -787 -6c-80,304 -46,636 -57,948z"/>
   <path class="fil4" d="M9449 7820c-55,359 -40,495 -25,856 294,54 494,37 786,1 266,-1010 -61,-898 -761,-857z"/>
   <path class="fil4" d="M7427 7584c277,62 580,51 844,-27l17 -765 -319 -52 -602 32 60 812z"/>
   <path class="fil1" d="M7407 11029c184,48 681,98 796,-32 72,-82 37,-678 22,-834l-802 -12 -16 878z"/>
   <path class="fil5" d="M11417 7445l994 -28 -34 -732c-114,-7 -789,-24 -851,0 -63,24 -92,-74 -109,326 -6,156 -15,278 0,434z"/>
   <path class="fil4" d="M10477 8670c252,22 563,7 763,-58l-1 -839 -791 -7c-8,275 -49,653 29,904z"/>
   <path class="fil3" d="M13638 11607l1091 3 -50 -646c-217,-49 -634,-25 -854,7 -315,46 -237,338 -187,636z"/>
   <path class="fil1" d="M9416 9223l0 192 35 423 764 -44 1 -883 -185 -6 -240 1c-292,-1 -375,15 -375,317z"/>
   <path class="fil1" d="M6301 12041l930 -1 16 -736c-152,-11 -735,-29 -838,12 -194,77 -144,509 -108,725z"/>
   <path class="fil1" d="M11479 11155l-9 618 1090 -67 13 -611c-345,-57 -752,9 -1094,60z"/>
   <polygon class="fil1" points="15615,9486 16439,9495 16403,8624 15623,8613 "/>
   <path class="fil4" d="M8463 8263l1 450 778 0 -3 -895c-888,-5 -776,-52 -776,445z"/>
   <path class="fil1" d="M22462 8184c127,-4 247,-16 374,-28 17,-2 151,-15 165,-18l207 -67 -72 -773 -756 5c-22,198 -37,505 8,700l74 181z"/>
   <path class="fil1" d="M16672 9446c227,81 497,19 738,-2l-57 -864c-226,0 -523,-47 -710,53 -58,239 -40,594 29,813z"/>
   <path class="fil1" d="M13556 8435l879 10 -37 -764 -815 -13c-72,257 -66,523 -27,767z"/>
   <path class="fil4" d="M14546 7378c307,30 543,60 834,-6l-24 -749 -875 -6 65 761z"/>
   <path class="fil4" d="M9415 7523c274,65 569,21 834,2l-33 -794 -789 -9 -12 801z"/>
   <path class="fil1" d="M12767 10764c210,62 496,49 670,-54l-50 -845c-207,-31 -630,-67 -697,138 -61,189 3,607 77,761z"/>
   <polygon class="fil4" points="22335,7001 23095,7026 23089,6169 22284,6170 "/>
   <path class="fil4" d="M25966 6886l697 -30c156,-916 -153,-851 -822,-786 -2,249 20,634 125,816z"/>
   <polygon class="fil1" points="9480,10096 9478,10931 10219,10955 10232,10036 "/>
   <path class="fil1" d="M16748 10593l714 -32c37,-302 34,-638 -100,-842 -221,-51 -460,-26 -685,6l71 868z"/>
   <path class="fil1" d="M14749 9539l659 -25 3 -868c-235,-8 -527,-46 -737,34 -50,307 -14,581 75,859z"/>
   <path class="fil1" d="M5415 11142c305,41 455,12 734,-40 0,-259 53,-604 -38,-836l-674 -28 -22 904z"/>
   <path class="fil1" d="M22473 8471l39 740 817 -34c-69,-957 47,-904 -856,-706z"/>
   <polygon class="fil1" points="4236,12154 4235,11451 3257,11567 3291,12200 "/>
   <path class="fil1" d="M8408 11234l-5 706 707 -10c12,-2 25,-5 37,-8 235,-72 170,-361 152,-722l-891 34z"/>
   <polygon class="fil4" points="17409,7320 18268,7292 18224,6566 17383,6554 "/>
   <path class="fil5" d="M26002 7185c-80,156 -49,570 -46,758l859 -64c-60,-706 -1,-900 -813,-694z"/>
   <path class="fil1" d="M18280 9373l-1 -814 -723 -11c-39,772 -62,1075 724,825z"/>
   <polygon class="fil4" points="10423,7493 11214,7478 11240,6721 10405,6709 "/>
   <path class="fil5" d="M26819 12354c472,38 736,-433 1201,-474 -151,279 -412,208 -516,463 292,19 431,-117 614,-248 240,-173 215,-274 152,-574 -433,171 -457,349 -1056,404 -186,17 -472,7 -634,74 -82,34 -330,246 -407,364 506,1 681,-350 1116,-422 -125,251 -179,164 -364,305 -145,109 -35,9 -106,108z"/>
   <polygon class="fil3" points="15705,10895 15705,11565 16589,11574 16604,10848 "/>
   <path class="fil5" d="M8492 7569l719 -6c104,-194 51,-648 -19,-814 -214,-58 -456,-15 -679,2l-21 818z"/>
   <path class="fil1" d="M14749 9781l65 875c286,44 404,32 669,-12 20,-967 66,-884 -734,-863z"/>
   <polygon class="fil1" points="12621,8519 13334,8483 13371,8264 13365,7879 13364,7665 12622,7669 "/>
   <polygon class="fil1" points="12671,8742 12664,9653 13342,9603 13352,8709 "/>
   <path class="fil1" d="M17523 7639c-53,274 -35,382 20,653 211,66 508,54 728,11l0 -805c-219,-19 -575,30 -748,141z"/>
   <path class="fil4" d="M6464 6967l0 644 777 -12c11,-203 7,-502 -77,-693 -61,-138 -12,-39 -60,-109l-640 25 0 145z"/>
   <path class="fil1" d="M14617 8380l804 30 -42 -698c-239,-94 -506,-67 -767,-52 -75,252 -20,463 5,720z"/>
   <polygon class="fil5" points="12600,7370 12958,7419 13007,7411 13386,7388 13398,7207 13396,6871 13392,6674 12568,6667 "/>
   <path class="fil7" d="M20158 11923c914,58 789,-197 789,-707 -275,0 -603,-45 -862,35 -5,258 -23,461 73,672z"/>
   <path class="fil5" d="M15572 7371l720 13 11 -769 -732 -9c-70,199 -54,563 1,765z"/>
   <path class="fil1" d="M19076 7999l825 -72c43,-219 19,-414 -18,-590 -240,-69 -575,-50 -860,-50l53 712z"/>
   <polygon class="fil1" points="15583,8374 16418,8378 16341,7662 15583,7656 "/>
   <polygon class="fil1" points="4442,12131 5227,12129 5232,11368 4430,11453 "/>
   <path class="fil3" d="M16760 10818l37 749c519,20 715,74 728,-227 6,-119 -24,-419 -41,-534l-116 -32c-11,-1 -27,-4 -40,-5l-568 49z"/>
   <polygon class="fil4" points="19019,7060 19869,7085 19869,6383 19027,6417 "/>
   <path class="fil3" d="M17689 10854l0 685 715 3c-20,-485 112,-1007 -564,-791 -208,66 -69,-32 -151,103z"/>
   <path class="fil4" d="M13599 7376l743 4c134,-924 -301,-773 -683,-717 -114,212 -129,467 -60,713z"/>
   <path class="fil1" d="M16575 7647c-28,235 -14,558 80,718 211,34 474,39 630,-47 7,-11 15,-42 17,-35 6,20 47,-101 25,-306 -14,-132 -36,-254 -53,-388l-699 58z"/>
   <path class="fil1" d="M7464 11988l714 -11c76,-247 80,-475 22,-734l-749 54 13 691z"/>
   <polygon class="fil1" points="17643,10556 18313,10496 18310,9728 17648,9695 "/>
   <path class="fil1" d="M10445 11820l258 20c195,12 393,-32 568,-77l9 -585 -837 -12 2 654z"/>
   <path class="fil1" d="M19123 8231c-51,228 15,417 65,618l758 -42 -2 -620c-278,-67 -545,-2 -821,44z"/>
   <path class="fil8" d="M19144 11268c-43,184 -95,546 20,681 147,100 504,19 713,3l-64 -703 -669 19z"/>
   <polygon class="fil4" points="16551,6586 16539,7360 17252,7360 17169,6557 "/>
   <polygon class="fil1" points="9489,11899 10256,11871 10258,11205 9504,11194 "/>
   <path class="fil1" d="M27254 10499c-47,370 -4,742 43,1093 621,228 421,-724 373,-1105l-416 12z"/>
   <polygon class="fil1" points="5405,12078 5712,12080 5904,12081 6109,12073 6109,11364 5904,11358 5616,11358 5405,11360 "/>
   <path class="fil1" d="M27155 9216l59 1048 406 -11c98,-273 -8,-778 -28,-1084l-437 47z"/>
   <path class="fil1" d="M13702 12269c219,50 789,4 1026,-32l-10 -400c-308,-8 -811,-39 -1073,75l57 357z"/>
   <path class="fil1" d="M11476 12342c175,75 808,53 1026,20l29 -405c-289,-50 -839,2 -1084,81l29 304z"/>
   <polygon class="fil1" points="12761,11044 12754,11686 13426,11669 13435,11010 "/>
   <path class="fil3" d="M14860 10933l50 639c249,91 376,33 615,8l-19 -634c-277,-56 -372,-56 -646,-13z"/>
   <path class="fil1" d="M21558 8071c-690,-64 -655,4 -623,683l630 -21 -7 -662z"/>
   <path class="fil1" d="M20161 8780c258,54 370,14 611,-12l-32 -647 -634 18 55 641z"/>
   <polygon class="fil9" points="21221,11180 21198,11823 21881,11824 21779,11152 "/>
   <polygon class="fil4" points="20100,7007 20704,7038 20701,6382 20057,6384 "/>
   <path class="fil1" d="M20102 7884l606 -29 18 -612c-710,-47 -673,9 -624,641z"/>
   <path class="fil4" d="M27414 6881l-36 -826 -448 1c-9,141 -27,500 -11,628 33,277 205,197 495,197z"/>
   <path class="fil4" d="M27165 8989l398 -197 -40 -702 -449 35c-24,274 -15,651 91,864z"/>
   <path class="fil4" d="M20922 7812l597 1c15,-180 35,-437 -31,-546 -118,-71 -383,-78 -557,-67l-9 612z"/>
   <path class="fil5" d="M20900 6403l-4 555 594 22c-27,-517 43,-769 -590,-577z"/>
   <path class="fil4" d="M15734 12179l890 -13c28,-343 71,-377 -252,-376 -208,0 -440,-4 -656,11l18 378z"/>
   <path class="fil4" d="M27513 7842c-26,-360 -13,-544 -108,-704l-392 28c-121,887 197,710 500,676z"/>
   <path class="fil1" d="M8382 12500c265,0 662,51 899,-40l12 -304c-176,-26 -325,3 -504,18 -493,40 -344,13 -413,120l6 206z"/>
   <polygon class="fil1" points="11300,12400 11270,12025 10472,12070 10479,12429 "/>
   <path class="fil10" d="M5004 6491c171,101 471,74 697,75 161,-212 279,-276 287,-441 -542,-91 -721,151 -984,366z"/>
   <polygon class="fil1" points="12692,12307 13484,12302 13438,11890 12765,11920 "/>
   <path class="fil1" d="M10241 12073c-357,21 -885,-58 -748,391l203 20 538 -45 7 -366z"/>
   <path class="fil1" d="M16883 12162c89,11 443,29 518,6 163,-50 138,-184 89,-388l-640 13 33 369z"/>
   <polygon class="fil1" points="14950,12223 15557,12225 15527,11822 14932,11829 "/>
   <path class="fil11" d="M4207 6528c417,28 466,40 763,-207 129,-107 89,-35 161,-170 -378,-207 -808,166 -924,377z"/>
   <path class="fil5" d="M6768 12293c-325,2 -450,-100 -500,193 164,98 698,55 953,55 -10,-347 -93,-249 -453,-248z"/>
   <path class="fil12" d="M3325 6518c449,68 784,-67 956,-368 -219,-27 -414,-52 -590,42 -108,57 -309,212 -366,326z"/>
   <path class="fil1" d="M18445 12071c-31,-137 -68,-203 -129,-295l-597 22 42 383 684 -110z"/>
   <path class="fil10" d="M6545 6560c152,16 359,37 483,-47 112,-75 197,-247 208,-362 -459,-143 -691,242 -691,409z"/>
   <polygon class="fil4" points="7463,12523 8146,12516 8153,12220 7459,12275 "/>
   <path class="fil10" d="M5905 6545l191 13 48 -2 96 0c135,-75 306,-282 317,-428 -382,-57 -532,178 -652,417z"/>
   <path class="fil10" d="M5407 12550c271,2 504,43 675,-64 -49,-275 -64,-194 -372,-175 -293,19 -282,-46 -303,239z"/>
   <path class="fil11" d="M4486 12557c262,62 630,111 651,-201 -305,1 -667,-106 -651,201z"/>
   <path class="fil5" d="M27893 9799l7 229c288,1 364,-109 305,-411 -197,38 -214,62 -312,182z"/>
   <path class="fil1" d="M28020 11388c29,10 -72,75 116,8 183,-65 141,-166 141,-396 -257,47 -365,121 -257,388z"/>
   <path class="fil4" d="M27947 10465c233,-24 295,-92 294,-345 -254,65 -305,63 -294,345z"/>
   <path class="fil13" d="M2459 6433c143,-72 286,-163 363,-271l-399 -38 36 309z"/>
   <path class="fil10" d="M27999 10887c144,-62 274,-113 237,-282 -189,-50 -268,42 -237,282z"/>
  </g>
 </g>
</svg>
