<?xml version="1.0" encoding="UTF-8"?>
<!DOCTYPE svg PUBLIC "-//W3C//DTD SVG 1.1//EN" "http://www.w3.org/Graphics/SVG/1.1/DTD/svg11.dtd">
<!-- Creator: CorelDRAW X7 -->
<svg xmlns="http://www.w3.org/2000/svg" xml:space="preserve" width="297mm" height="210mm" version="1.1" style="shape-rendering:geometricPrecision; text-rendering:geometricPrecision; image-rendering:optimizeQuality; fill-rule:evenodd; clip-rule:evenodd"
viewBox="0 0 29700 21000"
 xmlns:xlink="http://www.w3.org/1999/xlink">
 <defs>
  <style type="text/css">
   <![CDATA[
    .fil12 {fill:#005953}
    .fil5 {fill:#028077}
    .fil0 {fill:#303030}
    .fil4 {fill:#313131}
    .fil10 {fill:#343434}
    .fil11 {fill:#353535}
    .fil6 {fill:#58D1C7}
    .fil7 {fill:#86EEE5}
    .fil17 {fill:#ECECEC}
    .fil16 {fill:#EEEEEE}
    .fil15 {fill:#F1F1F0}
    .fil13 {fill:#F3F3F3}
    .fil9 {fill:#F4F4F4}
    .fil8 {fill:whitesmoke}
    .fil14 {fill:#F6F6F6}
    .fil2 {fill:#F8F8F8}
    .fil3 {fill:#FAFAFA}
    .fil1 {fill:#FBFBFB}
   ]]>
  </style>
 </defs>
 <g id="Слой_x0020_1">
  <metadata id="CorelCorpID_0Corel-Layer"/>
  <g id="_602669184">
   <path class="fil0" d="M16034 16072c15,873 189,808 -2340,730l230 -153c60,-27 180,-62 259,-88 208,-67 392,-129 579,-181 416,-117 834,-292 1272,-308zm763 -264c259,-87 531,-190 863,-197l72 525c-336,41 -659,116 -878,8l-57 -336zm1630 -572l988 -236c97,351 164,589 99,967 -261,134 -656,155 -966,132 -83,-227 -160,-576 -121,-863zm-5672 1440c200,-214 539,-380 798,-537 304,-184 567,-343 856,-521 424,-261 1308,-858 1725,-1015l139 928c-295,166 -3136,1107 -3518,1145zm7492 -1902c333,-82 508,-205 911,-176 75,350 162,703 81,1035 -732,116 -902,362 -992,-859zm1333 -339c385,-23 269,-209 348,773 98,1221 1,1182 -620,1215 -250,13 -499,30 -749,46 -827,53 -3855,337 -4237,211 -23,-344 -95,-532 90,-721 219,132 61,-51 161,250l126 321c272,134 1080,-75 1342,-169l-34 -790c310,296 125,494 333,863 457,110 1101,-67 1551,-166l-155 -1350c468,166 349,523 365,1131 520,50 1063,-94 1509,-209 -4,-256 -33,-493 -65,-746 -30,-238 -93,-478 35,-659zm-4881 -122c107,-141 232,-235 471,-327l308 671c-183,73 -298,148 -515,157 -178,-180 -192,-234 -264,-501zm-3179 1221c209,-363 1864,-2067 2194,-2235 147,248 327,514 433,807 -311,362 -2034,1237 -2627,1428zm4243 -1926l724 -343 368 833c-232,138 -555,257 -859,215l-233 -705zm3492 -117c146,-191 455,-353 719,-343 18,306 28,246 -267,329 -230,66 -253,93 -452,14zm-8771 2556c18,-449 979,-3161 1174,-3659 331,66 1252,654 1421,891l-2595 2768zm7591 -3554l415 1195 -788 224 207 -250c105,-129 1,48 107,-148l-581 166c164,-559 330,-170 573,-625 -464,30 -347,197 -753,219 -119,-314 -156,-344 120,-544 199,-145 387,-220 700,-237zm1031 639c177,-194 401,-344 758,-392 -42,199 -52,196 -248,297 -201,103 -270,114 -510,95zm-4766 -539c277,-9 456,210 549,411 -138,56 -363,171 -529,-293 -5,-15 -8,-44 -12,-57 -4,-13 -2,-41 -8,-61zm4620 184c186,-232 401,-315 812,-366 -123,192 -4,89 -182,199 -28,17 -174,64 -200,72 -159,52 -248,74 -430,95zm-198 -391c174,-202 656,-484 929,-264 -181,154 -718,336 -929,264zm-8947 4291c-729,-180 -2548,-1491 -3105,-1888 31,-1576 581,-3099 955,-4476 513,104 3467,1238 3772,1452 50,655 -1351,4155 -1622,4912zm5223 -4776l528 -618c241,114 585,500 688,828l-728 388c-165,-159 -404,-401 -488,-598zm3659 128c156,-147 553,-464 771,-432l21 99c-3,8 -3,36 -7,44 -80,149 -623,270 -785,289zm1158 -715c463,214 811,2258 716,2408 -275,195 -5554,1702 -6014,1708 -24,-161 -53,-278 -80,-427l-23 -197c1,-11 5,-33 6,-43 1,-9 8,-33 9,-40 1,-7 5,-27 12,-38l257 519c512,12 1049,-379 1274,-450 400,-126 903,-285 1279,-431 -96,-278 -529,-908 -413,-1166 162,319 369,973 627,1094 227,108 1026,-283 1342,-354 -35,-252 -120,-328 -9,-510 347,874 529,400 1538,264 -28,-491 -114,-819 -262,-1250 -89,-258 -393,-899 -259,-1087zm-7347 -1578c450,197 1455,1125 1571,1638l-822 774c-283,-112 -998,-744 -1107,-951 -140,-268 265,-1140 358,-1461zm3798 899c148,-124 530,-458 630,-596 235,127 252,215 456,468 172,215 291,316 410,567 -208,174 -595,506 -917,536 -175,-148 -131,-119 -256,-329 73,-207 154,-255 331,-347l-409 -116 595 -272c-241,-163 -533,75 -840,89zm2216 -5c121,-185 88,-148 386,-299l277 -116c106,-9 76,10 121,29 106,308 -525,459 -784,386zm-273 -285c110,-191 -76,-76 435,-306 546,-247 423,-113 503,-67 -171,172 -711,329 -938,373zm-331 -356c184,-197 286,-182 560,-292 505,-203 402,-88 481,16 -292,108 -756,362 -1041,276zm-259 -368c134,-165 253,-183 469,-276 552,-236 434,-111 510,-70 68,268 -128,215 -414,311 -246,82 -333,144 -565,35zm204 -419c112,-260 126,-306 415,-391l175 180 -590 211zm-4554 -1315c299,139 722,695 983,965 278,288 744,727 976,1051 -105,153 -8,32 -146,157 -49,46 -93,75 -154,126 -171,142 -188,163 -349,272 -136,-78 -1697,-1509 -1721,-1797 -28,-334 243,-656 411,-774zm5308 500c327,-6 91,-87 315,165l643 804c209,263 677,844 630,1305 -420,336 -939,609 -1391,888l-2893 1655c-335,194 -1126,676 -1487,735 -181,-248 -458,-605 -454,-962 550,102 231,496 914,453 269,-138 335,-250 410,-564 415,-29 1168,-387 1431,-620 -228,-518 -688,-755 -835,-1213 305,107 264,149 551,551 151,211 270,494 599,402 196,-56 1122,-683 1270,-832 -231,-268 -1016,-1108 -1070,-1445 224,113 699,788 948,1024 564,530 491,488 1212,33 724,-458 278,-738 -523,-1755 -156,-198 -416,-404 -270,-624zm-2410 -3659c710,-382 2541,2754 2541,2763 -8,157 -2967,3125 -3293,3455l-898 826c-139,145 -213,317 -352,473 -1178,1317 -836,538 -2438,-200l160 -500c530,253 802,871 1459,974 285,-278 1028,-933 1176,-1238 -263,-372 -644,-703 -956,-1054 -375,-421 -680,-611 -788,-738 -120,-140 -64,-48 -80,-151 -75,-500 877,600 943,675 309,346 463,678 1007,849 184,-98 920,-705 1100,-890l-1884 -1974c-229,-210 -490,-367 -604,-668l2907 -2602zm-4618 6644c-455,-49 -2673,-1065 -3857,-1327 525,-2391 1356,-4180 2173,-6372 133,-356 206,-707 446,-813 301,-101 3078,1017 3450,1255 13,759 -1218,4370 -1565,5469 -186,592 -511,1277 -647,1788zm2112 -4983c156,-1730 1441,-2272 -306,-2912 -589,-216 -2782,-1134 -3261,-1086 -1048,2477 -1433,3372 -2192,6002 -389,1347 -1745,5342 -1513,6687 226,227 929,633 1264,852 2745,1799 2134,1233 4790,1236 1318,2 2677,-179 3998,-249 1146,-61 2738,-37 3706,-475 39,-509 -66,-2063 102,-2166 341,-208 490,-111 629,-362 219,-585 -427,-2267 -609,-2842 317,-451 464,-406 114,-1050 -422,-779 -769,-1053 -1219,-1682 -368,-515 223,-344 -48,-971 -379,-877 -2267,-3147 -2609,-3232 -354,-88 -2339,2057 -2846,2250z"/>
   <path class="fil1" d="M11260 15130c825,-395 937,816 423,1075 -638,321 -1155,-724 -423,-1075zm87 -1804c-259,3 -1691,-353 -1849,-529 78,-66 -190,-245 579,-6 824,255 764,86 1270,535zm40 -515c-268,-40 -1753,-374 -1826,-596 353,-63 689,54 1013,150 314,93 621,206 813,446zm255 -497c-234,95 -743,-123 -1010,-210 -330,-108 -741,-213 -934,-421 414,21 748,115 1116,234 570,185 736,156 828,397zm-1342 -781c-260,-78 -271,-29 -393,-252 66,-32 34,-46 157,-52 326,-16 -12,-8 108,13 53,9 186,62 255,85 486,166 1285,330 1425,630 -328,-3 -1146,-302 -1552,-424zm1515 5144c271,-757 1672,-4257 1622,-4912 -305,-214 -3259,-1348 -3772,-1452 -374,1377 -924,2900 -955,4476 557,397 2376,1708 3105,1888z"/>
   <path class="fil2" d="M10149 9765c22,-201 59,-269 178,-434 114,-158 113,-212 361,-211 199,0 2341,772 2606,946 46,1113 98,1087 -1739,419 -521,-189 -1087,-348 -1406,-720zm242 -940c91,-340 444,-1215 610,-1433 408,-32 2601,878 2901,1084 24,422 -130,1048 -343,1329 -468,106 -2553,-828 -3168,-980zm444 -1931c11,-394 261,-928 441,-1231 327,-550 380,-510 1038,-275 796,283 1603,580 2418,819 47,640 -303,1372 -581,1698 -523,87 -2933,-772 -3316,-1011zm747 -2085c35,-317 481,-1368 696,-1598 657,-2 2597,756 3044,1022 59,566 -160,1075 -363,1517 -666,60 -2659,-736 -3377,-941zm2007 6563c136,-511 461,-1196 647,-1788 347,-1099 1578,-4710 1565,-5469 -372,-238 -3149,-1356 -3450,-1255 -240,106 -313,457 -446,813 -817,2192 -1648,3981 -2173,6372 1184,262 3402,1278 3857,1327z"/>
   <path class="fil3" d="M15726 7215c61,-93 989,-971 1237,-920l2062 2161c-111,255 -550,537 -817,762 -572,482 -608,112 -921,-329 -435,-614 -1198,-1061 -1561,-1674zm4739 276c-194,219 -945,804 -1316,647 -163,-69 -1923,-1781 -1810,-2203 44,-165 834,-771 1054,-908 290,104 2105,1870 2072,2464zm-5165 -161c114,301 375,458 604,668l1884 1974c-180,185 -916,792 -1100,890 -544,-171 -698,-503 -1007,-849 -66,-75 -1018,-1175 -943,-675 16,103 -40,11 80,151 108,127 413,317 788,738 312,351 693,682 956,1054 -148,305 -891,960 -1176,1238 -657,-103 -929,-721 -1459,-974l-160 500c1602,738 1260,1517 2438,200 139,-156 213,-328 352,-473l898 -826c326,-330 3285,-3298 3293,-3455 0,-9 -1831,-3145 -2541,-2763l-2907 2602z"/>
   <path class="fil4" d="M14686 5482c-41,-12 -192,-51 -203,-56l-217 -159 610 -341 -190 556zm-1005 -334c0,-1 958,-849 1298,-620 -60,188 31,102 -235,263 -354,213 -789,524 -1063,357zm-596 -119c74,-108 14,-46 107,-134l596 -374c235,-150 454,-343 771,-271 -68,167 -1047,918 -1474,779zm-510 -225c83,-91 1108,-814 1464,-732 -35,52 -1121,965 -1464,732zm-253 -214c207,-199 702,-626 1104,-655 -202,295 -653,561 -1104,655zm-143 -242c175,-335 462,-499 877,-586 -121,216 -57,124 -388,330 -201,126 -247,187 -489,256zm-597 461c718,205 2711,1001 3377,941 203,-442 422,-951 363,-1517 -447,-266 -2387,-1024 -3044,-1022 -215,230 -661,1281 -696,1598z"/>
   <path class="fil3" d="M20932 8552c-224,-252 12,-171 -315,-165 -146,220 114,426 270,624 801,1017 1247,1297 523,1755 -721,455 -648,497 -1212,-33 -249,-236 -724,-911 -948,-1024 54,337 839,1177 1070,1445 -148,149 -1074,776 -1270,832 -329,92 -448,-191 -599,-402 -287,-402 -246,-444 -551,-551 147,458 607,695 835,1213 -263,233 -1016,591 -1431,620 -75,314 -141,426 -410,564 -683,43 -364,-351 -914,-453 -4,357 273,714 454,962 361,-59 1152,-541 1487,-735l2893 -1655c452,-279 971,-552 1391,-888 47,-461 -421,-1042 -630,-1305l-643 -804z"/>
   <path class="fil0" d="M18845 7422c165,-186 748,-419 1025,-476l218 335c-124,168 -512,603 -844,486 48,-52 -28,-1 100,-101 238,-188 245,-73 421,-354 -501,72 -662,422 -920,110zm-558 -552c72,-195 202,-233 409,-333 191,-93 339,-196 541,-242 210,154 322,256 432,507 -188,125 -864,421 -1031,329l728 -468c-532,-26 -722,425 -1079,207zm-283 -339c102,-210 339,-250 553,-343 311,-135 388,-260 602,-6 -137,119 -17,45 -290,117 -498,133 -538,359 -865,232zm-245 -317c158,-276 707,-545 1043,-357 -205,156 -748,324 -1043,357zm2706 1277c33,-594 -1782,-2360 -2072,-2464 -220,137 -1010,743 -1054,908 -113,422 1647,2134 1810,2203 371,157 1122,-428 1316,-647z"/>
   <path class="fil4" d="M11289 6595c81,-503 752,-977 1409,-763 563,183 1169,387 1759,585 -34,476 -285,854 -470,1198l-1378 -390c150,-251 321,-208 407,-465 -447,136 -540,453 -1021,262 125,-191 36,-85 258,-245 170,-123 203,-133 316,-251 -567,67 -687,450 -1104,269 173,-306 542,-349 750,-668l-926 468zm362 -763c60,-195 152,-204 362,-212 -88,99 67,13 -156,145 -145,86 -72,33 -206,67zm-816 1062c383,239 2793,1098 3316,1011 278,-326 628,-1058 581,-1698 -815,-239 -1622,-536 -2418,-819 -658,-235 -711,-275 -1038,275 -180,303 -430,837 -441,1231z"/>
   <path class="fil1" d="M15079 13279c-169,-237 -1090,-825 -1421,-891 -195,498 -1156,3210 -1174,3659l2595 -2768z"/>
   <path class="fil5" d="M12215 6127c-208,319 -577,362 -750,668 417,181 537,-202 1104,-269 -113,118 -146,128 -316,251 -222,160 -133,54 -258,245 481,191 574,-126 1021,-262 -86,257 -257,214 -407,465l1378 390c185,-344 436,-722 470,-1198 -590,-198 -1196,-402 -1759,-585 -657,-214 -1328,260 -1409,763l926 -468z"/>
   <path class="fil4" d="M16215 7353c70,-114 49,-98 329,-213 607,-249 546,-258 763,-63 408,367 1053,869 1316,1388 -243,116 -386,290 -626,419 -255,-81 -862,-671 -1091,-878l543 -299c-176,-94 -277,-5 -445,38 -246,62 -284,51 -458,-39 114,-206 41,-107 302,-258l340 -256c-421,59 -700,372 -973,161zm-489 -138c363,613 1126,1060 1561,1674 313,441 349,811 921,329 267,-225 706,-507 817,-762l-2062 -2161c-248,-51 -1176,827 -1237,920z"/>
   <path class="fil4" d="M11236 7775c352,0 2004,652 2329,836 68,345 -27,719 -261,938l-1644 -611c178,-213 201,-100 385,-361 -391,85 -631,362 -944,154l183 -168c197,-133 394,-146 492,-397l-951 408 411 -799zm-845 1050c615,152 2700,1086 3168,980 213,-281 367,-907 343,-1329 -300,-206 -2493,-1116 -2901,-1084 -166,218 -519,1093 -610,1433z"/>
   <path class="fil2" d="M21308 16423c621,-33 718,6 620,-1215 -79,-982 37,-796 -348,-773 -128,181 -65,421 -35,659 32,253 61,490 65,746 -446,115 -989,259 -1509,209 -16,-608 103,-965 -365,-1131l155 1350c-450,99 -1094,276 -1551,166 -208,-369 -23,-567 -333,-863l34 790c-262,94 -1070,303 -1342,169l-126 -321c-100,-301 58,-118 -161,-250 -185,189 -113,377 -90,721 382,126 3410,-158 4237,-211 250,-16 499,-33 749,-46z"/>
   <path class="fil1" d="M14508 9736c-93,321 -498,1193 -358,1461 109,207 824,839 1107,951l822 -774c-116,-513 -1121,-1441 -1571,-1638z"/>
   <path class="fil2" d="M22571 13722c95,-150 -253,-2194 -716,-2408 -134,188 170,829 259,1087 148,431 234,759 262,1250 -1009,136 -1191,610 -1538,-264 -111,182 -26,258 9,510 -316,71 -1115,462 -1342,354 -258,-121 -465,-775 -627,-1094 -116,258 317,888 413,1166 -376,146 -879,305 -1279,431 -225,71 -762,462 -1274,450l-257 -519c-7,11 -11,31 -12,38 -1,7 -8,31 -9,40 -1,10 -5,32 -6,43l23 197c27,149 56,266 80,427 460,-6 5739,-1513 6014,-1708z"/>
   <path class="fil1" d="M14898 8661c24,288 1585,1719 1721,1797 161,-109 178,-130 349,-272 61,-51 105,-80 154,-126 138,-125 41,-4 146,-157 -232,-324 -698,-763 -976,-1051 -261,-270 -684,-826 -983,-965 -168,118 -439,440 -411,774z"/>
   <path class="fil6" d="M10825 8574l951 -408c-98,251 -295,264 -492,397l-183 168c313,208 553,-69 944,-154 -184,261 -207,148 -385,361l1644 611c234,-219 329,-593 261,-938 -325,-184 -1977,-836 -2329,-836l-411 799z"/>
   <path class="fil4" d="M11866 9832c1005,372 1125,217 1116,726 -552,-37 -2150,-533 -2401,-862 232,-447 846,-26 1285,136zm-1717 -67c319,372 885,531 1406,720 1837,668 1785,694 1739,-419 -265,-174 -2407,-946 -2606,-946 -248,-1 -247,53 -361,211 -119,165 -156,233 -178,434z"/>
   <path class="fil1" d="M12755 16676c382,-38 3223,-979 3518,-1145l-139 -928c-417,157 -1301,754 -1725,1015 -289,178 -552,337 -856,521 -259,157 -598,323 -798,537z"/>
   <path class="fil3" d="M16215 7353c273,211 552,-102 973,-161l-340 256c-261,151 -188,52 -302,258 174,90 212,101 458,39 168,-43 269,-132 445,-38l-543 299c229,207 836,797 1091,878 240,-129 383,-303 626,-419 -263,-519 -908,-1021 -1316,-1388 -217,-195 -156,-186 -763,63 -280,115 -259,99 -329,213z"/>
   <path class="fil1" d="M13520 15534c593,-191 2316,-1066 2627,-1428 -106,-293 -286,-559 -433,-807 -330,168 -1985,1872 -2194,2235z"/>
   <path class="fil2" d="M18306 10635c307,-14 599,-252 840,-89l-595 272 409 116c-177,92 -258,140 -331,347 125,210 81,181 256,329 322,-30 709,-362 917,-536 -119,-251 -238,-352 -410,-567 -204,-253 -221,-341 -456,-468 -100,138 -482,472 -630,596z"/>
   <path class="fil1" d="M16034 16072c-438,16 -856,191 -1272,308 -187,52 -371,114 -579,181 -79,26 -199,61 -259,88l-230 153c2529,78 2355,143 2340,-730z"/>
   <path class="fil7" d="M10581 9696c251,329 1849,825 2401,862 9,-509 -111,-354 -1116,-726 -439,-162 -1053,-583 -1285,-136z"/>
   <path class="fil1" d="M18427 15236c-39,287 38,636 121,863 310,23 705,2 966,-132 65,-378 -2,-616 -99,-967l-988 236z"/>
   <path class="fil3" d="M19255 13274c406,-22 289,-189 753,-219 -243,455 -409,66 -573,625l581 -166c-106,196 -2,19 -107,148l-207 250 788 -224 -415 -1195c-313,17 -501,92 -700,237 -276,200 -239,230 -120,544z"/>
   <path class="fil1" d="M20247 14774c90,1221 260,975 992,859 81,-332 -6,-685 -81,-1035 -403,-29 -578,94 -911,176z"/>
   <path class="fil0" d="M11382 15851l-183 -158c41,-246 196,-410 458,-277 168,297 29,403 -275,435zm-122 -721c-732,351 -215,1396 423,1075 514,-259 402,-1470 -423,-1075z"/>
   <path class="fil1" d="M17038 11901c84,197 323,439 488,598l728 -388c-103,-328 -447,-714 -688,-828l-528 618z"/>
   <path class="fil1" d="M17996 14313c304,42 627,-77 859,-215l-368 -833 -724 343 233 705z"/>
   <path class="fil8" d="M18287 6870c357,218 547,-233 1079,-207l-728 468c167,92 843,-204 1031,-329 -110,-251 -222,-353 -432,-507 -202,46 -350,149 -541,242 -207,100 -337,138 -409,333z"/>
   <path class="fil9" d="M18845 7422c258,312 419,-38 920,-110 -176,281 -183,166 -421,354 -128,100 -52,49 -100,101 332,117 720,-318 844,-486l-218 -335c-277,57 -860,290 -1025,476z"/>
   <path class="fil1" d="M16854 16144c219,108 542,33 878,-8l-72 -525c-332,7 -604,110 -863,197l57 336z"/>
   <path class="fil10" d="M9907 11281c122,223 133,174 393,252 406,122 1224,421 1552,424 -140,-300 -939,-464 -1425,-630 -69,-23 -202,-76 -255,-85 -120,-21 218,-29 -108,-13 -123,6 -91,20 -157,52z"/>
   <path class="fil11" d="M11642 12314c-92,-241 -258,-212 -828,-397 -368,-119 -702,-213 -1116,-234 193,208 604,313 934,421 267,87 776,305 1010,210z"/>
   <path class="fil1" d="M16699 14313c72,267 86,321 264,501 217,-9 332,-84 515,-157l-308 -671c-239,92 -364,186 -471,327z"/>
   <path class="fil11" d="M9498 12797c158,176 1590,532 1849,529 -506,-449 -446,-280 -1270,-535 -769,-239 -501,-60 -579,6z"/>
   <path class="fil12" d="M13085 5029c427,139 1406,-612 1474,-779 -317,-72 -536,121 -771,271l-596 374c-93,88 -33,26 -107,134z"/>
   <path class="fil11" d="M11387 12811c-192,-240 -499,-353 -813,-446 -324,-96 -660,-213 -1013,-150 73,222 1558,556 1826,596z"/>
   <path class="fil12" d="M13681 5148c274,167 709,-144 1063,-357 266,-161 175,-75 235,-263 -340,-229 -1298,619 -1298,620z"/>
   <path class="fil12" d="M12575 4804c343,233 1429,-680 1464,-732 -356,-82 -1381,641 -1464,732z"/>
   <path class="fil13" d="M18004 6531c327,127 367,-99 865,-232 273,-72 153,2 290,-117 -214,-254 -291,-129 -602,6 -214,93 -451,133 -553,343z"/>
   <path class="fil2" d="M19659 9621c232,109 319,47 565,-35 286,-96 482,-43 414,-311 -76,-41 42,-166 -510,70 -216,93 -335,111 -469,276z"/>
   <path class="fil3" d="M11382 15851c304,-32 443,-138 275,-435 -262,-133 -417,31 -458,277l183 158z"/>
   <path class="fil14" d="M20522 10630c259,73 890,-78 784,-386 -45,-19 -15,-38 -121,-29l-277 116c-298,151 -265,114 -386,299z"/>
   <path class="fil9" d="M17759 6214c295,-33 838,-201 1043,-357 -336,-188 -885,81 -1043,357z"/>
   <path class="fil12" d="M12322 4590c451,-94 902,-360 1104,-655 -402,29 -897,456 -1104,655z"/>
   <path class="fil15" d="M19918 9989c285,86 749,-168 1041,-276 -79,-104 24,-219 -481,-16 -274,110 -376,95 -560,292z"/>
   <path class="fil2" d="M21255 13491c199,79 222,52 452,-14 295,-83 285,-23 267,-329 -264,-10 -573,152 -719,343z"/>
   <path class="fil13" d="M20762 12386c211,72 748,-110 929,-264 -273,-220 -755,62 -929,264z"/>
   <path class="fil16" d="M20249 10345c227,-44 767,-201 938,-373 -80,-46 43,-180 -503,67 -511,230 -325,115 -435,306z"/>
   <path class="fil12" d="M14876 4926l-610 341 217 159c11,5 162,44 203,56l190 -556z"/>
   <path class="fil14" d="M16340 12593c6,20 4,48 8,61 4,13 7,42 12,57 166,464 391,349 529,293 -93,-201 -272,-420 -549,-411z"/>
   <path class="fil12" d="M12179 4348c242,-69 288,-130 489,-256 331,-206 267,-114 388,-330 -415,87 -702,251 -877,586z"/>
   <path class="fil13" d="M21106 13132c240,19 309,8 510,-95 196,-101 206,-98 248,-297 -357,48 -581,198 -758,392z"/>
   <path class="fil16" d="M20697 12029c162,-19 705,-140 785,-289 4,-8 4,-36 7,-44l-21 -99c-218,-32 -615,285 -771,432z"/>
   <path class="fil17" d="M20960 12777c182,-21 271,-43 430,-95 26,-8 172,-55 200,-72 178,-110 59,-7 182,-199 -411,51 -626,134 -812,366z"/>
   <path class="fil16" d="M19863 9202l590 -211 -175 -180c-289,85 -303,131 -415,391z"/>
   <path class="fil5" d="M11651 5832c134,-34 61,19 206,-67 223,-132 68,-46 156,-145 -210,8 -302,17 -362,212z"/>
  </g>
 </g>
</svg>
