<?xml version="1.0" encoding="UTF-8"?>
<!DOCTYPE svg PUBLIC "-//W3C//DTD SVG 1.1//EN" "http://www.w3.org/Graphics/SVG/1.1/DTD/svg11.dtd">
<!-- Creator: CorelDRAW X7 -->
<svg xmlns="http://www.w3.org/2000/svg" xml:space="preserve" width="297mm" height="210mm" version="1.1" style="shape-rendering:geometricPrecision; text-rendering:geometricPrecision; image-rendering:optimizeQuality; fill-rule:evenodd; clip-rule:evenodd"
viewBox="0 0 29700 21000"
 xmlns:xlink="http://www.w3.org/1999/xlink">
 <defs>
  <style type="text/css">
   <![CDATA[
    .fil1 {fill:#343434}
    .fil4 {fill:#3A3A3A}
    .fil5 {fill:#3B3B3B}
    .fil6 {fill:#444444}
    .fil3 {fill:#545454}
    .fil2 {fill:#F0F0F0}
    .fil0 {fill:#F1F1F1}
   ]]>
  </style>
 </defs>
 <g id="Слой_x0020_1">
  <metadata id="CorelCorpID_0Corel-Layer"/>
  <g id="_417551696">
   <path class="fil0" d="M15778 8767c37,-137 90,-114 216,-161 -45,119 49,136 -216,161zm-474 57c31,-251 60,-287 327,-260 -87,112 -185,197 -327,260zm-782 -65c-223,-83 -696,-122 -921,-182l1068 -3c-71,162 -32,93 -147,185zm466 -55c44,-219 35,-199 253,-252 -20,200 -43,215 -253,252zm-8657 -434l56 261 1241 42c-259,76 -325,76 -643,80 -68,1 -350,0 -396,7 -256,39 -179,24 -240,201 1824,27 3649,83 5473,54 1226,-20 2885,178 4444,143 2006,-45 3998,41 6011,92l156 -329c117,147 -25,174 20,286 274,97 1062,3 1340,-113 -11,-231 93,-53 -148,-210 178,-68 240,-17 322,-232 -142,-104 -542,-244 -741,-263 -599,-58 -356,235 -404,463 -205,-110 -226,-197 -284,-482 -2437,-42 -5259,-144 -7678,-96 -859,17 -8143,-182 -8529,96z"/>
   <path class="fil1" d="M5838 8777c-162,191 -951,178 -1272,178 -401,0 -1013,68 -1011,-403 2,-499 524,-461 985,-430 419,27 907,38 1308,106l-1 324c-249,45 -520,31 -776,43 -88,4 -316,22 -389,9 -258,-44 -61,-3 -146,-67 -11,-8 -46,-34 -52,-59 -4,-17 -14,-22 -13,-20l-302 312c679,47 1435,-100 1669,7zm16700 -507c58,285 79,372 284,482 48,-228 -195,-521 404,-463 199,19 599,159 741,263 -82,215 -144,164 -322,232 241,157 137,-21 148,210 -278,116 -1066,210 -1340,113 -45,-112 97,-139 -20,-286l-156 329c-2013,-51 -4005,-137 -6011,-92 -1559,35 -3218,-163 -4444,-143 -1824,29 -3649,-27 -5473,-54 61,-177 -16,-162 240,-201 46,-7 328,-6 396,-7 318,-4 384,-4 643,-80l-1241 -42 -56 -261c386,-278 7670,-79 8529,-96 2419,-48 5241,54 7678,96zm-14379 -422c-1042,50 -2045,73 -3087,32 -402,-16 -1035,-35 -1381,132 -370,179 -482,842 -58,1024 557,240 7591,95 9118,155 1021,40 1974,106 3009,106 2020,0 4043,36 6063,129 927,42 1837,-196 2769,-257 473,-31 952,-58 1436,-87 867,-51 454,-374 -133,-487 -3030,-582 -2110,-516 -5570,-623 -2029,-62 -4097,-53 -6140,-53 -1989,0 -4030,-167 -6026,-71z"/>
   <path class="fil2" d="M5838 8777c-234,-107 -990,40 -1669,-7l302 -312c-1,-2 9,3 13,20 6,25 41,51 52,59 85,64 -112,23 146,67 73,13 301,-5 389,-9 256,-12 527,2 776,-43l1 -324c-401,-68 -889,-79 -1308,-106 -461,-31 -983,-69 -985,430 -2,471 610,403 1011,403 321,0 1110,13 1272,-178z"/>
   <path class="fil3" d="M14522 8759c115,-92 76,-23 147,-185l-1068 3c225,60 698,99 921,182z"/>
   <path class="fil4" d="M15304 8824c142,-63 240,-148 327,-260 -267,-27 -296,9 -327,260z"/>
   <path class="fil5" d="M14988 8704c210,-37 233,-52 253,-252 -218,53 -209,33 -253,252z"/>
   <path class="fil6" d="M15778 8767c265,-25 171,-42 216,-161 -126,47 -179,24 -216,161z"/>
  </g>
 </g>
</svg>
