<?xml version="1.0" encoding="UTF-8"?>
<!DOCTYPE svg PUBLIC "-//W3C//DTD SVG 1.1//EN" "http://www.w3.org/Graphics/SVG/1.1/DTD/svg11.dtd">
<!-- Creator: CorelDRAW X7 -->
<svg xmlns="http://www.w3.org/2000/svg" xml:space="preserve" width="297mm" height="210mm" version="1.1" style="shape-rendering:geometricPrecision; text-rendering:geometricPrecision; image-rendering:optimizeQuality; fill-rule:evenodd; clip-rule:evenodd"
viewBox="0 0 29700 21000"
 xmlns:xlink="http://www.w3.org/1999/xlink">
 <defs>
  <style type="text/css">
   <![CDATA[
    .fil1 {fill:#363636}
    .fil4 {fill:#373737}
    .fil3 {fill:#3A3A3A}
    .fil5 {fill:#3B3B3B}
    .fil6 {fill:#3D3D3D}
    .fil0 {fill:#86EEE5}
    .fil2 {fill:#EFEFEF}
   ]]>
  </style>
 </defs>
 <g id="Слой_x0020_1">
  <metadata id="CorelCorpID_0Corel-Layer"/>
  <g id="_603125400">
   <path class="fil0" d="M5437 8074c811,-128 2017,46 2557,-3 404,-37 275,-93 583,-226 -227,558 -961,1544 -1316,2113l-1145 2158c-184,-468 1174,-2424 1348,-2963l-1522 6c-140,0 -594,-1 -643,-152 -9,-28 -33,-29 -50,-44 767,-104 1952,38 2604,-197l146 -487c-1267,-113 -1112,15 -2562,-205zm6868 358c154,-285 513,-57 766,15 -19,-908 -372,-793 -1182,-972 -1993,-440 -3227,-129 -5262,-5 -2135,130 -1762,665 -1472,4515 33,426 -24,1019 385,1237 499,265 1424,273 2024,224l177 -373c63,-151 79,-198 164,-341 139,-235 258,-338 394,-552 -42,494 -421,781 -601,1285l462 10 103 -221c24,-61 38,-124 67,-199l552 -879c233,-350 523,-815 771,-1102 426,-494 1603,-1399 1635,-2171 -564,-6 -2309,58 -2722,218 -264,165 -101,41 -283,328 -313,493 -1298,2205 -1571,2342 164,-557 736,-1319 1027,-1780l1127 -1597 60 348c917,-10 1922,-77 2728,-223 -94,475 -277,470 -508,889 -128,232 -918,2066 -1263,2598l400 -1263c-492,202 -1436,1870 -1869,2498l-134 192c964,31 3646,-83 4105,-669 497,-637 852,-3435 648,-3929l-928 -161c232,-100 208,-48 426,-74 319,-37 376,-47 534,-187l-760 -1z"/>
   <path class="fil0" d="M21219 9377c-320,-451 -888,-339 -1477,-378 -303,-21 -606,-49 -908,-70 -306,-22 -560,43 -782,37 -72,-114 -126,-229 -197,-387 -86,-190 -88,-159 -195,-410l2676 -106c325,54 2178,2885 2374,3663 -484,-500 -1026,-1693 -1491,-2349zm2192 2592c-296,-277 -962,-1719 -1245,-2176 -413,-665 -966,-1344 -1277,-1973 317,40 172,188 636,231 463,42 1454,-101 2618,27 -318,194 -925,174 -1338,151 -435,-24 -962,-112 -1277,160 392,888 1550,333 2548,537 460,94 134,-14 284,179l-2298 63c362,699 1278,1893 1349,2801zm-6271 808c620,689 2987,624 4105,684 -178,-382 -695,-1071 -992,-1500 -249,-360 -723,-1114 -1048,-1235l433 1205c-129,-128 -967,-1815 -979,-1899 452,124 1199,1052 1530,1482 917,1191 669,988 1169,1963l446 -45c-148,-569 -616,-902 -785,-1459 482,205 618,1035 984,1469 466,91 1495,-8 1920,-190 525,-225 434,-973 488,-1625 377,-4561 737,-4079 -3990,-4364 -1588,-95 -2511,122 -3884,488l-62 832 692 62c185,48 109,26 188,107l-866 125c-194,578 273,3480 651,3900z"/>
   <path class="fil1" d="M22234 14557c322,-52 294,-30 462,156 156,174 230,227 239,439 -501,134 -839,-81 -701,-595zm-15146 651l-490 5c88,-466 281,-683 764,-654 -10,285 -155,490 -274,649zm18736 -6194c-107,929 -406,526 -551,1256 -535,2699 61,3213 -1675,3682 -1225,331 -5317,59 -6395,-474 -1782,-881 -840,-3039 -1983,-3306 -547,-127 -1231,-21 -1426,357 -152,293 -181,1079 -315,1470 -561,1632 -1565,1777 -3442,1962 -962,95 -2327,215 -3327,135 -2307,-185 -1974,-963 -2326,-3051 -106,-631 -29,-903 -437,-1338 -731,-778 118,-1742 234,-1977 144,-291 190,-370 419,-516 868,-554 5254,-574 6525,-492 598,39 939,125 1503,268 612,155 772,236 888,888 77,438 96,1143 403,1396 46,38 1437,466 1779,-157 169,-308 257,-829 307,-1150 101,-655 256,-814 878,-994 1763,-512 5241,-265 7103,-23 1415,185 1166,635 1632,1182 236,277 248,265 224,746 -186,-73 -419,-392 -595,-85 -279,489 365,289 577,221zm-19223 5505c-151,484 -386,183 -322,877 937,717 1183,-341 1625,-868 1511,-178 3505,-70 4749,-710 1720,-883 848,-3395 2073,-3449 1293,-56 451,2539 2092,3410 1091,580 3432,621 4817,720 246,351 328,755 644,974 455,315 917,149 1016,-358l-401 -582c323,-186 1648,-285 2165,-824 307,-321 406,-1992 474,-2593 173,-1537 718,-845 695,-2304 -14,-871 -243,-578 -478,-1072 -233,-490 -201,-640 -641,-891 -817,-466 -4363,-536 -5540,-536 -1221,-1 -1575,33 -2662,349 -1106,322 -1130,573 -1287,1763l-1681 -10c-320,-1160 -52,-1367 -1247,-1747 -1036,-328 -1589,-355 -2744,-355 -1041,-1 -4868,88 -5526,550 -363,255 -1074,1397 -1101,1875 -70,1248 547,1143 679,2369 61,567 151,2175 434,2538 443,570 1505,563 2167,874z"/>
   <path class="fil2" d="M18522 6978c1044,-121 2612,29 3685,121 2766,236 2845,-338 2498,5048 -45,702 26,1156 -618,1355 -1491,461 -3802,212 -5370,96 -1427,-106 -1979,-353 -2296,-1637 -175,-706 -441,-2837 -361,-3576 91,-844 160,-889 891,-1068 522,-128 1008,-274 1571,-339zm-9879 -5c1392,-68 2242,-99 3579,243 620,159 1061,136 1198,769 241,1115 -165,4273 -791,5045 -700,863 -5835,805 -6853,546 -1122,-285 -854,-418 -1018,-2890 -254,-3816 -94,-3517 3885,-3713zm-4570 1623c966,626 -901,840 0,0zm21751 418c-212,68 -856,268 -577,-221 176,-307 409,12 595,85 24,-481 12,-469 -224,-746 -466,-547 -217,-997 -1632,-1182 -1862,-242 -5340,-489 -7103,23 -622,180 -777,339 -878,994 -50,321 -138,842 -307,1150 -342,623 -1733,195 -1779,157 -307,-253 -326,-958 -403,-1396 -116,-652 -276,-733 -888,-888 -564,-143 -905,-229 -1503,-268 -1271,-82 -5657,-62 -6525,492 -229,146 -275,225 -419,516 -116,235 -965,1199 -234,1977 408,435 331,707 437,1338 352,2088 19,2866 2326,3051 1000,80 2365,-40 3327,-135 1877,-185 2881,-330 3442,-1962 134,-391 163,-1177 315,-1470 195,-378 879,-484 1426,-357 1143,267 201,2425 1983,3306 1078,533 5170,805 6395,474 1736,-469 1140,-983 1675,-3682 145,-730 444,-327 551,-1256z"/>
   <path class="fil3" d="M12305 8432l760 1c-158,140 -215,150 -534,187 -218,26 -194,-26 -426,74l928 161c204,494 -151,3292 -648,3929 -459,586 -3141,700 -4105,669l134 -192c433,-628 1377,-2296 1869,-2498l-400 1263c345,-532 1135,-2366 1263,-2598 231,-419 414,-414 508,-889 -806,146 -1811,213 -2728,223l-60 -348 -1127 1597c-291,461 -863,1223 -1027,1780 273,-137 1258,-1849 1571,-2342 182,-287 19,-163 283,-328 413,-160 2158,-224 2722,-218 -32,772 -1209,1677 -1635,2171 -248,287 -538,752 -771,1102l-552 879c-29,75 -43,138 -67,199l-103 221 -462 -10c180,-504 559,-791 601,-1285 -136,214 -255,317 -394,552 -85,143 -101,190 -164,341l-177 373c-600,49 -1525,41 -2024,-224 -409,-218 -352,-811 -385,-1237 -290,-3850 -663,-4385 1472,-4515 2035,-124 3269,-435 5262,5 810,179 1163,64 1182,972 -253,-72 -612,-300 -766,-15zm-3662 -1459c-3979,196 -4139,-103 -3885,3713 164,2472 -104,2605 1018,2890 1018,259 6153,317 6853,-546 626,-772 1032,-3930 791,-5045 -137,-633 -578,-610 -1198,-769 -1337,-342 -2187,-311 -3579,-243z"/>
   <path class="fil4" d="M16537 7751c1373,-366 2296,-583 3884,-488 4727,285 4367,-197 3990,4364 -54,652 37,1400 -488,1625 -425,182 -1454,281 -1920,190 -366,-434 -502,-1264 -984,-1469 169,557 637,890 785,1459l-446 45c-500,-975 -252,-772 -1169,-1963 -331,-430 -1078,-1358 -1530,-1482 12,84 850,1771 979,1899l-433 -1205c325,121 799,875 1048,1235 297,429 814,1118 992,1500 -1118,-60 -3485,5 -4105,-684 -378,-420 -845,-3322 -651,-3900l866 -125c-79,-81 -3,-59 -188,-107l-692 -62 62 -832zm1985 -773c-563,65 -1049,211 -1571,339 -731,179 -800,224 -891,1068 -80,739 186,2870 361,3576 317,1284 869,1531 2296,1637 1568,116 3879,365 5370,-96 644,-199 573,-653 618,-1355 347,-5386 268,-4812 -2498,-5048 -1073,-92 -2641,-242 -3685,-121z"/>
   <path class="fil3" d="M23411 11969c-71,-908 -987,-2102 -1349,-2801l2298 -63c-150,-193 176,-85 -284,-179 -998,-204 -2156,351 -2548,-537 315,-272 842,-184 1277,-160 413,23 1020,43 1338,-151 -1164,-128 -2155,15 -2618,-27 -464,-43 -319,-191 -636,-231 311,629 864,1308 1277,1973 283,457 949,1899 1245,2176z"/>
   <path class="fil5" d="M19484 8301c680,56 1066,-106 1210,458 -516,-2 -1038,-34 -1554,-56 -568,-24 -921,51 -1204,-252 482,-101 1003,-196 1548,-150zm-1824 -132c107,251 109,220 195,410 71,158 125,273 197,387 222,6 476,-59 782,-37 302,21 605,49 908,70 589,39 1157,-73 1477,378 465,656 1007,1849 1491,2349 -196,-778 -2049,-3609 -2374,-3663l-2676 106z"/>
   <path class="fil6" d="M5437 8074c1450,220 1295,92 2562,205l-146 487c-652,235 -1837,93 -2604,197 17,15 41,16 50,44 49,151 503,152 643,152l1522 -6c-174,539 -1532,2495 -1348,2963l1145 -2158c355,-569 1089,-1555 1316,-2113 -308,133 -179,189 -583,226 -540,49 -1746,-125 -2557,3z"/>
   <path class="fil0" d="M17936 8451c283,303 636,228 1204,252 516,22 1038,54 1554,56 -144,-564 -530,-402 -1210,-458 -545,-46 -1066,49 -1548,150z"/>
   <path class="fil2" d="M22696 14713c-168,-186 -140,-208 -462,-156 -138,514 200,729 701,595 -9,-212 -83,-265 -239,-439z"/>
   <path class="fil2" d="M7088 15208c119,-159 264,-364 274,-649 -483,-29 -676,188 -764,654l490 -5z"/>
   <path class="fil4" d="M4073 8596c-901,840 966,626 0,0z"/>
  </g>
 </g>
</svg>
