<?xml version="1.0" encoding="UTF-8"?>
<!DOCTYPE svg PUBLIC "-//W3C//DTD SVG 1.1//EN" "http://www.w3.org/Graphics/SVG/1.1/DTD/svg11.dtd">
<!-- Creator: CorelDRAW X7 -->
<svg xmlns="http://www.w3.org/2000/svg" xml:space="preserve" width="297mm" height="210mm" version="1.1" style="shape-rendering:geometricPrecision; text-rendering:geometricPrecision; image-rendering:optimizeQuality; fill-rule:evenodd; clip-rule:evenodd"
viewBox="0 0 29700 21000"
 xmlns:xlink="http://www.w3.org/1999/xlink">
 <defs>
  <style type="text/css">
   <![CDATA[
    .str0 {stroke:#303030;stroke-width:150}
    .fil0 {fill:#FEFEFE}
    .fil2 {fill:#303030}
    .fil5 {fill:#313131}
    .fil6 {fill:#383838}
    .fil1 {fill:#86EDE4}
    .fil9 {fill:#E9E9E9}
    .fil8 {fill:whitesmoke}
    .fil7 {fill:#FAFAFA}
    .fil4 {fill:#FBFBFB}
    .fil3 {fill:#FDFDFD}
   ]]>
  </style>
 </defs>
 <g id="Слой_x0020_1">
  <metadata id="CorelCorpID_0Corel-Layer"/>
  <path class="fil0" d="M3320 1555l23856 169c451,3 1056,417 1071,868l168 5242 -119 9628c-5,451 -857,1311 -1309,1317l-23735 302c-451,6 -1206,-430 -1226,-727l-243 -3562 -20 -5247 55 -6910c-6,-452 1051,-1084 1502,-1080z"/>
  <path class="fil1" d="M5637 14986c396,54 3861,77 4655,99 1574,43 3179,28 4754,7 1534,-22 3030,-88 4563,-120 599,-12 4507,66 4697,-13 122,-228 34,-5179 22,-5863l-101 -5937c-1199,-91 -2649,3 -3879,-5 -2443,-16 -5177,48 -7636,97 -1305,26 -2586,76 -3889,56 -1002,-16 -1876,-64 -2883,-21 -426,18 -621,-83 -627,373 -17,1313 2,2628 -37,3941 -70,2313 -6,5152 361,7386z"/>
  <path class="fil2" d="M5637 14986c-367,-2234 -431,-5073 -361,-7386 39,-1313 20,-2628 37,-3941 6,-456 201,-355 627,-373 1007,-43 1881,5 2883,21 1303,20 2584,-30 3889,-56 2459,-49 5193,-113 7636,-97 1230,8 2680,-86 3879,5l101 5937c12,684 100,5635 -22,5863 -190,79 -4098,1 -4697,13 -1533,32 -3029,98 -4563,120 -1575,21 -3180,36 -4754,-7 -794,-22 -4259,-45 -4655,-99zm-3660 -6989c-126,-337 175,-560 318,-724 159,-183 388,-459 567,-549 172,490 465,118 734,338 -245,298 -545,541 -811,803 -227,225 -570,606 -811,760 -192,-458 628,-876 887,-1489 -305,168 -657,770 -884,861zm4 -619c-187,-360 743,-1107 871,-1179 101,397 -133,453 -339,666 -122,126 -412,450 -532,513zm2571 -1047c-21,-342 146,-530 414,-607 36,368 -109,555 -414,607zm-2568 448c-44,-87 -70,-84 -36,-239 34,-149 726,-828 907,-875 61,172 61,251 -53,381l-818 733zm-41 -533c9,-333 215,-435 388,-627 146,-165 287,-353 512,-424 41,224 1,261 -123,382 -221,214 -568,628 -777,669zm1913 -1780c141,-75 378,-46 542,-38 19,543 -9,2013 -150,2317l-385 -19c31,-884 -84,-1490 -7,-2260zm684 1275c14,-385 169,-544 416,-667 53,359 -102,596 -416,667zm-1459 933c-14,-503 -18,-1032 -49,-1532 -45,-706 -191,-903 577,-740 29,866 89,1424 9,2264l-70 35c-15,5 -218,29 -467,-27zm-1151 -909c-7,-471 502,-912 883,-1101 123,391 -100,488 -304,652 -202,162 -323,352 -579,449zm2656 -669c46,-245 191,-348 372,-457 5,268 -142,394 -372,457zm-2631 77c-38,-225 -44,-243 84,-381 162,-174 582,-585 782,-665 15,393 35,343 -209,520l-657 526zm2621 -494c1,-310 185,-437 402,-548 6,329 -135,458 -402,548zm-237 -610c-103,73 -44,42 -223,49 -1217,47 -1168,-37 -1089,-890l1318 60c58,186 106,607 -6,781zm623 -391c61,298 -140,406 -371,466l-38 -255 409 -211zm-3054 588c219,-188 710,-670 933,-788 3,539 -5,475 -328,731 -138,109 -416,388 -593,372l-12 -315zm2685 -609c-37,-308 93,-409 343,-465l42 240 -385 225zm-2519 -1320c53,-291 200,-408 512,-452 -76,117 -416,410 -512,452zm2940 9398c24,288 -59,489 -86,761 8,4 21,9 25,11l46 18c59,21 -24,-18 68,20 69,462 108,939 166,1415 41,339 34,1114 248,1293 187,70 1828,35 2169,26 734,-19 1399,14 2114,54 1430,79 2889,14 4322,19 790,3 6949,-194 7439,-109 337,59 -22,162 350,102 229,-37 198,-69 470,-46 -27,136 -49,169 -3,242 344,-66 212,-240 572,-231l-98 235c373,-57 252,-268 711,-227 75,111 7,26 25,95l39 132c369,-5 264,-125 529,-233l47 228c344,14 665,-524 855,-773 -2,-11 -12,-25 -15,-32 -48,-120 -32,-163 -11,-311 11,-85 11,-40 -15,-86l-320 422c-162,-654 234,-854 344,-1298 -233,114 -143,253 -397,389 -14,-580 335,-899 428,-1374 -236,161 -215,398 -416,567 -70,-574 180,-859 305,-1315 -95,65 -18,2 -90,81l-152 207c-76,-297 -41,-553 72,-798 0,0 -125,-209 -129,-432l-105 -5813c-12,-511 62,-1726 -101,-2055 -359,-115 -7371,-78 -8296,-55 -1410,35 -6758,258 -8092,109 -23,-143 13,-114 83,-262 -225,103 -368,367 -636,244 92,-181 152,-117 188,-321 -306,121 -372,409 -757,354 79,-175 169,-177 279,-353 -363,110 -412,369 -805,364 94,-142 350,-294 418,-471 -361,95 -715,641 -1139,464 183,-282 636,-437 782,-735 -477,150 -877,805 -1335,740 164,-330 691,-534 799,-855 -439,166 -968,917 -1364,1051 -43,-272 21,-265 191,-405 120,-100 210,-202 327,-297 211,-170 439,-431 674,-581 -206,1 -668,439 -852,593 -135,112 -278,252 -412,356 -165,130 -260,170 -529,145 214,-431 917,-705 1132,-1123 -190,40 -687,492 -854,628 -324,263 -472,554 -929,533 73,-183 212,-232 372,-371 1208,-1058 952,-1039 2334,-1040l6626 58c4456,25 8901,204 13348,229 756,4 1999,-215 2103,589 218,1679 193,3386 237,5104 67,2625 -180,5226 -193,7850 -3,682 109,2019 -200,2516 -459,736 -1243,667 -2042,681 -876,15 -1772,29 -2640,25 -5246,-23 -10521,133 -15751,296 -935,30 -1775,-58 -2691,-64 -2667,-19 -2656,159 -2819,-2546 -130,-2149 -169,-4282 -83,-6436 19,-485 -53,-892 201,-1173l1326 -1363c546,-567 567,-243 920,-424 199,-102 309,-673 644,-652 2,577 130,838 -219,1181 -237,233 -468,463 -619,795 272,-162 476,-591 820,-713 54,855 -653,859 -854,1545 313,-170 462,-639 791,-734 228,492 -430,775 -529,1160 281,-115 254,-312 538,-421 41,568 -351,549 -464,1030l329 -333c96,-89 22,-36 118,-81 146,318 -216,571 -298,920 251,-103 114,-177 352,-297 15,443 -225,559 -243,971 77,-104 169,-283 270,-340 65,495 -164,572 -158,966l195 -235zm-3046 -8916c4,-247 260,-444 505,-629 322,-243 361,-420 760,-430 -99,215 -450,413 -624,567 -152,136 -481,435 -641,492zm-73 651c-20,-440 443,-749 898,-1103 352,-275 569,-731 1213,-657 -60,106 -1951,1677 -2111,1760zm10 550c-111,-371 94,-414 484,-757 233,-205 448,-386 698,-597 236,-201 479,-414 732,-614 152,-120 515,-524 817,-362 -105,140 -535,448 -698,580 -261,213 -440,351 -694,553 -693,550 -172,304 -619,679 -139,117 -542,463 -720,518zm26668 6786c64,-1833 92,-3657 -21,-5474 -55,-884 -142,-1763 -184,-2644 -48,-1026 -704,-1060 -1671,-1092 -3717,-121 -7430,-49 -11141,-179 -3695,-129 -7406,-82 -11092,-14 -1010,19 -1632,-71 -2398,423 -421,271 -374,424 -378,999l-30 5620c-1,277 -64,407 -69,669 -4,220 -3,454 1,674 33,1580 34,6819 237,8156 147,969 555,1161 1574,1228 817,55 4681,74 5523,27 1896,-104 3574,-75 5427,-161 3801,-175 7460,34 11093,-96 437,-16 892,-74 1346,-93 480,-21 787,17 1107,-267 585,-521 443,-1429 440,-2352 -6,-1877 172,-3586 236,-5424z"/>
  <path class="fil2" d="M25714 6468c-153,-384 -244,-1716 -188,-2171l576 37 145 2185 -533 -51zm1107 -35c-305,81 -329,65 -354,-243 -50,-610 -176,-1320 -138,-1889 668,5 512,-147 533,829 7,348 46,1029 -41,1303zm-1360 -2439c-8,-182 -6,-375 -6,-558 0,-256 -35,-291 219,-316 294,-28 826,-83 1101,-64l6 936c-329,120 -976,129 -1320,2zm-246 -554c-3,609 118,2900 331,3282 306,29 1315,106 1474,-135 209,-319 -55,-3578 -71,-3830 -351,-6 -726,47 -1076,69 -591,38 -655,-3 -658,614z"/>
  <path class="fil3" d="M3081 6674c249,56 452,32 467,27l70 -35c80,-840 20,-1398 -9,-2264 -768,-163 -622,34 -577,740 31,500 35,1029 49,1532z"/>
  <path class="fil3" d="M25714 6468l533 51 -145 -2185 -576 -37c-56,455 35,1787 188,2171z"/>
  <path class="fil3" d="M25461 3994c344,127 991,118 1320,-2l-6 -936c-275,-19 -807,36 -1101,64 -254,25 -219,60 -219,316 0,183 -2,376 6,558z"/>
  <path class="fil3" d="M3856 4466c-77,770 38,1376 7,2260l385 19c141,-304 169,-1774 150,-2317 -164,-8 -401,-37 -542,38z"/>
  <path class="fil3" d="M4339 4069c112,-174 64,-595 6,-781l-1318 -60c-79,853 -128,937 1089,890 179,-7 120,24 223,-49z"/>
  <path class="fil3" d="M1977 7997c227,-91 579,-693 884,-861 -259,613 -1079,1031 -887,1489 241,-154 584,-535 811,-760 266,-262 566,-505 811,-803 -269,-220 -562,152 -734,-338 -179,90 -408,366 -567,549 -143,164 -444,387 -318,724z"/>
  <path class="fil4" d="M1895 3470c160,-83 2051,-1654 2111,-1760 -644,-74 -861,382 -1213,657 -455,354 -918,663 -898,1103z"/>
  <path class="fil5" d="M14505 17362c187,-82 563,-537 437,-829 -262,134 -135,331 -387,515 -199,-113 -219,-298 -478,-372 -255,155 -170,293 -401,401l-271 -517c-160,302 142,652 284,746 136,-80 230,-215 319,-344 207,77 312,287 497,400z"/>
  <path class="fil4" d="M1908 4266l12 315c177,16 455,-263 593,-372 323,-256 331,-192 328,-731 -223,118 -714,600 -933,788z"/>
  <path class="fil4" d="M1930 5765c256,-97 377,-287 579,-449 204,-164 427,-261 304,-652 -381,189 -890,630 -883,1101z"/>
  <path class="fil6" d="M2021 9297l-6 128 107 -25c359,-355 700,-673 1063,-1034 334,-333 759,-708 1040,-1058 -189,66 -402,306 -564,477 -265,278 -1550,1319 -1640,1512z"/>
  <path class="fil4" d="M1984 6779l818 -733c114,-130 114,-209 53,-381 -181,47 -873,726 -907,875 -34,155 -8,152 36,239z"/>
  <path class="fil4" d="M1981 7378c120,-63 410,-387 532,-513 206,-213 440,-269 339,-666 -128,72 -1058,819 -871,1179z"/>
  <path class="fil4" d="M1955 5173l657 -526c244,-177 224,-127 209,-520 -200,80 -620,491 -782,665 -128,138 -122,156 -84,381z"/>
  <path class="fil4" d="M1943 6246c209,-41 556,-455 777,-669 124,-121 164,-158 123,-382 -225,71 -366,259 -512,424 -173,192 -379,294 -388,627z"/>
  <path class="fil7" d="M1968 2819c160,-57 489,-356 641,-492 174,-154 525,-352 624,-567 -399,10 -438,187 -760,430 -245,185 -501,382 -505,629z"/>
  <path class="fil4" d="M4540 5741c314,-71 469,-308 416,-667 -247,123 -402,282 -416,667z"/>
  <path class="fil4" d="M4552 6331c305,-52 450,-239 414,-607 -268,77 -435,265 -414,607z"/>
  <path class="fil4" d="M4553 3889l38 255c231,-60 432,-168 371,-466l-409 211z"/>
  <path class="fil7" d="M4576 4679c267,-90 408,-219 402,-548 -217,111 -401,238 -402,548z"/>
  <path class="fil4" d="M4593 3657l385 -225 -42 -240c-250,56 -380,157 -343,465z"/>
  <path class="fil8" d="M4586 5096c230,-63 377,-189 372,-457 -181,109 -326,212 -372,457z"/>
  <path class="fil9" d="M2074 2337c96,-42 436,-335 512,-452 -312,44 -459,161 -512,452z"/>
  <path class="fil4" d="M1905 4020c178,-55 581,-401 720,-518 447,-375 -74,-129 619,-679 254,-202 433,-340 694,-553 163,-132 593,-440 698,-580 -302,-162 -665,242 -817,362 -253,200 -496,413 -732,614 -250,211 -465,392 -698,597 -390,343 -595,386 -484,757z"/>
  <rect class="fil0 str0" transform="matrix(1.42565 -0.00734969 0.00734969 1.42565 6727.28 4482.8)" width="11192" height="2434"/>
  <path class="fil4" d="M26821 6433c87,-274 48,-955 41,-1303 -21,-976 135,-824 -533,-829 -38,569 88,1279 138,1889 25,308 49,324 354,243z"/>
 </g>
</svg>
