<?xml version="1.0" encoding="iso-8859-1"?>
<!-- Generator: Adobe Illustrator 16.0.0, SVG Export Plug-In . SVG Version: 6.00 Build 0)  -->
<!DOCTYPE svg PUBLIC "-//W3C//DTD SVG 1.1//EN" "http://www.w3.org/Graphics/SVG/1.1/DTD/svg11.dtd">
<svg xmlns="http://www.w3.org/2000/svg" xmlns:xlink="http://www.w3.org/1999/xlink" version="1.1" id="Capa_1" x="0px" y="0px" width="512px" height="512px" viewBox="0 0 42.255 42.255" style="enable-background:new 0 0 42.255 42.255;" xml:space="preserve">
<g>
	<g>
		<path d="M30.113,25.972c-0.429-0.352-1.528-0.139-1.795,0.36c-2.577,4.817-9.039-2.434-11.293-4.65    c-2.88-2.829-0.78-5.481-0.372-8.139c0.168-1.092,0.135-2.051,0.37-2.244c0.185-0.152,0.253-0.32,0.09-0.458    C14.092,8.286,7.13-3.799,2.195,3.554c-6.618,9.86,3.196,20.532,10.075,26.907c5.272,4.886,13.448,13.105,21.493,11.001    c1.068-0.28,2.098-0.748,2.367-0.837c0.27-0.09,0.59-0.285,0.722-0.421s1.021-0.707,1.803-1.487    C43.479,33.907,34.172,29.315,30.113,25.972z M37.798,38.075c-0.832,0.726-1.924,0.999-2.182,0.977    c-0.259-0.02-0.604,0.087-0.773,0.259c-0.169,0.17-0.879,0.473-1.6,0.613c-0.721,0.142-0.979-0.13-0.565-0.546    c0.412-0.416,0.683-0.771,0.606-0.797c-0.077-0.025-0.487,0.321-0.915,0.773c-0.429,0.45-1.381,0.889-2.13,0.893    c-0.523,0.004-0.985-0.028-1.35-0.098c-0.021-0.004-0.045-0.011-0.067-0.018c-0.036-0.01,0.433-0.55,1.049-1.209    c0.615-0.659,0.615-1.419,0.02-1.738s-1.655-0.012-2.383,0.724c-0.729,0.735-2.132,0.957-3.081,0.393    c-0.134-0.08-0.267-0.161-0.399-0.243c-0.938-0.582-1.033-1.738-0.254-2.521c0.023-0.023,0.045-0.045,0.068-0.067    c0.78-0.78,1.245-1.551,1.039-1.718c-0.207-0.168-1.034,0.297-1.85,1.043c-0.04,0.037-0.081,0.075-0.122,0.112    c-0.815,0.745-1.322,1.471-1.131,1.616c0.191,0.145,0.231,0.179,0.086,0.075c-0.088-0.062-0.176-0.125-0.262-0.187    c-2.723-1.957-5.108-4.406-7.539-6.702C8.803,24.742,3.617,19.575,2.176,12.191c-0.47-2.407,0.402-8.003,2.961-9.072    c1.019-0.426,1.308,0.663,0.519,1.436C5.25,4.952,4.842,5.353,4.432,5.753C3.643,6.526,2.998,7.168,2.993,7.19    C2.988,7.211,3.625,6.604,4.419,5.836c2.223-2.154,3.497-3.368,2.162-1.994C6.21,4.199,5.455,4.928,4.395,5.952    C3.601,6.72,2.833,7.849,2.731,8.484c-0.064,0.403-0.11,0.792-0.138,1.154c0,0.009,0,0.017,0,0.026    c0,0.014,0.627-0.612,1.403-1.398c0.567-0.575,1.133-1.148,1.698-1.72C6.47,5.76,7.196,4.736,7.353,4.272    C7.51,3.806,8.024,3.644,8.417,3.954c0.22,0.175,0.447,0.374,0.68,0.6c1.427,1.384,2.574,3.015,3.834,4.544    c0.702,0.852,1.204,1.579,1.15,1.738c-0.031,0.093-0.021,0.19,0.051,0.286c1.634,2.217-0.246,4.302-0.777,6.366    c-0.352,1.368,0.354,2.768,1.004,3.89c1.373,2.369,4.446,4.463,6.598,6.125c2.303,1.779,4.832,2.433,6.863,1.319    c0.97-0.53,2.222-0.739,3.106-0.078c2.47,1.845,4.933,3.613,7.009,6.097C39.036,36.153,38.764,37.233,37.798,38.075z" fill="#4e4e4e"/>
		<path d="M8.117,19.079c-0.148,0.152-0.296,0.306-0.445,0.459c-0.768,0.793-1.195,1.729-0.943,2.083    c0.253,0.354,1.102,0.008,1.888-0.768c0.128-0.126,0.256-0.253,0.384-0.379c0.787-0.775,1.209-1.718,0.956-2.111    C9.704,17.968,8.885,18.285,8.117,19.079z" fill="#4e4e4e"/>
		<path d="M7.227,17.48c0.772-0.791,1.174-1.869,0.935-2.424c-0.239-0.555-1.046-0.386-1.833,0.389    c-0.21,0.207-0.42,0.414-0.63,0.621c-0.787,0.775-1.215,1.856-0.93,2.403c0.286,0.548,1.166,0.337,1.937-0.454    C6.88,17.836,7.054,17.657,7.227,17.48z" fill="#4e4e4e"/>
		<path d="M13.278,22.729c-0.229-0.259-1.044,0.16-1.827,0.939c-0.091,0.091-0.182,0.183-0.273,0.273    c-0.783,0.777-1.218,1.629-0.968,1.896c0.251,0.268,1.079-0.162,1.848-0.955c0.082-0.084,0.164-0.169,0.245-0.253    C13.073,23.837,13.507,22.987,13.278,22.729z" fill="#4e4e4e"/>
		<path d="M6.402,11.052c0.236-0.237,0.389-0.675,0.359-0.98c-0.03-0.306-0.678,0.082-1.455,0.867    c-0.336,0.34-0.673,0.681-1.01,1.021c-0.776,0.786-1.366,1.621-1.311,1.864c0.055,0.243,0.752-0.183,1.548-0.948    c0.48-0.462,0.96-0.925,1.441-1.395C6.117,11.338,6.26,11.195,6.402,11.052z" fill="#4e4e4e"/>
		<path d="M16.232,25.806c-0.082-0.078-0.782,0.49-1.562,1.272c-0.06,0.061-0.121,0.121-0.182,0.183    c-0.78,0.781-1.37,1.456-1.316,1.507c0.054,0.05,0.751-0.521,1.558-1.275c0.063-0.06,0.127-0.118,0.19-0.177    C15.727,26.56,16.314,25.885,16.232,25.806z" fill="#4e4e4e"/>
		<path d="M16.333,28.638c-0.061,0.058-0.121,0.113-0.182,0.169c-0.81,0.753-1.17,1.641-0.807,1.982    c0.363,0.344,1.315,0.016,2.128-0.732c0.065-0.06,0.129-0.117,0.193-0.178c0.812-0.749,1.171-1.638,0.803-1.981    C18.1,27.553,17.142,27.887,16.333,28.638z" fill="#4e4e4e"/>
		<path d="M20.319,32.699c-0.79,0.771-0.77,0.792,0.036,0.036c0.057-0.054,0.113-0.106,0.17-0.159    c0.805-0.756,1.44-1.387,1.421-1.404c-0.018-0.018-0.674,0.596-1.463,1.366C20.429,32.591,20.374,32.646,20.319,32.699z" fill="#4e4e4e"/>
		<path d="M21.126,12.76c-0.293,0.233-0.243,0.555,0.159,0.593c3.424,0.323,5.55,3.053,6.493,6.162    c0.183,0.601,2.107,0.061,1.933-0.518c-1.043-3.438-3.488-6.251-7.218-6.604C22.025,12.349,21.499,12.463,21.126,12.76z" fill="#4e4e4e"/>
		<path d="M34.162,22.214c-0.021,0.796,1.915,0.388,1.931-0.244C36.314,13.07,29.2,6.446,20.61,5.709    c-0.732-0.063-2.058,0.975-0.754,1.086C27.838,7.48,34.364,14.079,34.162,22.214z" fill="#4e4e4e"/>
		<path d="M19.65,0.458c-0.798-0.06-2.036,1.089-0.727,1.188c11.169,0.84,18.548,10.624,21.385,20.706    c0.209,0.742,2.139,0.219,1.932-0.519C39.229,11.138,31.345,1.338,19.65,0.458z" fill="#4e4e4e"/>
	</g>
</g>
<g>
</g>
<g>
</g>
<g>
</g>
<g>
</g>
<g>
</g>
<g>
</g>
<g>
</g>
<g>
</g>
<g>
</g>
<g>
</g>
<g>
</g>
<g>
</g>
<g>
</g>
<g>
</g>
<g>
</g>
</svg>
